G04 #@! TF.GenerationSoftware,KiCad,Pcbnew,5.1.0-rc2-unknown-036be7d~80~ubuntu16.04.1*
G04 #@! TF.CreationDate,2023-05-24T11:50:45+03:00*
G04 #@! TF.ProjectId,RPI-UEXT-MPQ_Rev_A,5250492d-5545-4585-942d-4d50515f5265,A*
G04 #@! TF.SameCoordinates,Original*
G04 #@! TF.FileFunction,Copper,L2,Bot*
G04 #@! TF.FilePolarity,Positive*
%FSLAX46Y46*%
G04 Gerber Fmt 4.6, Leading zero omitted, Abs format (unit mm)*
G04 Created by KiCad (PCBNEW 5.1.0-rc2-unknown-036be7d~80~ubuntu16.04.1) date 2023-05-24 11:50:45*
%MOMM*%
%LPD*%
G04 APERTURE LIST*
%ADD10R,1.016000X2.540000*%
%ADD11C,1.000000*%
%ADD12C,0.254000*%
%ADD13C,1.016000*%
%ADD14C,0.508000*%
%ADD15C,0.762000*%
%ADD16C,1.524000*%
G04 APERTURE END LIST*
D10*
X131270000Y-62794000D03*
X141430000Y-62794000D03*
X138890000Y-62794000D03*
X138890000Y-57206000D03*
X143970000Y-62794000D03*
X154130000Y-62794000D03*
X151590000Y-62794000D03*
X149050000Y-62794000D03*
X146510000Y-62794000D03*
X141430000Y-57206000D03*
X133810000Y-62794000D03*
X151590000Y-57206000D03*
X154130000Y-57206000D03*
X149050000Y-57206000D03*
X143970000Y-57206000D03*
X146510000Y-57206000D03*
X136350000Y-57206000D03*
X131270000Y-57206000D03*
X133810000Y-57206000D03*
X136350000Y-62794000D03*
X126190000Y-57206000D03*
X128730000Y-57206000D03*
X123650000Y-57206000D03*
X118570000Y-57206000D03*
X121110000Y-57206000D03*
X118570000Y-62794000D03*
X128730000Y-62794000D03*
X126190000Y-62794000D03*
X121110000Y-62794000D03*
X123650000Y-62794000D03*
X116030000Y-57206000D03*
X113490000Y-57206000D03*
X110950000Y-57206000D03*
X108410000Y-57206000D03*
X105870000Y-57206000D03*
X116030000Y-62794000D03*
X113490000Y-62794000D03*
X110950000Y-62794000D03*
X108410000Y-62794000D03*
X105870000Y-62794000D03*
D11*
X99200000Y-76800000D03*
X160800000Y-76800000D03*
X160800000Y-55200000D03*
X144399000Y-69088000D03*
X157988000Y-68453000D03*
X108800000Y-66206000D03*
X112141000Y-65913000D03*
X128016000Y-67818000D03*
X108077000Y-72263000D03*
X146050000Y-72644000D03*
X159639000Y-68453000D03*
X128397000Y-72390000D03*
X110998000Y-55245000D03*
X121158000Y-55245000D03*
X128651000Y-55245000D03*
X141478000Y-55245000D03*
X146558000Y-55245000D03*
X154051000Y-64897000D03*
X139319000Y-65532000D03*
X148463000Y-67818000D03*
X150876000Y-70231000D03*
X153035000Y-74041000D03*
X153035000Y-77216000D03*
X161290000Y-68453000D03*
X161290000Y-63373000D03*
X158496000Y-65532000D03*
X156210000Y-68072000D03*
X104902000Y-66167000D03*
X101854000Y-77089000D03*
X121920000Y-73533000D03*
X120523000Y-65151000D03*
X121920000Y-65151000D03*
X115189000Y-65024000D03*
X116586000Y-65024000D03*
X140716000Y-65532000D03*
X136271000Y-64770000D03*
X136271000Y-66167000D03*
X116840000Y-77089000D03*
X136271000Y-70358000D03*
X137668000Y-70358000D03*
X152527000Y-70231000D03*
X156845000Y-54864000D03*
X150622000Y-54864000D03*
X104521000Y-54864000D03*
X99060000Y-64770000D03*
X99060000Y-74295000D03*
X100457000Y-69469000D03*
X157988000Y-77216000D03*
X145796000Y-65405000D03*
X133858000Y-55245000D03*
X115443000Y-66675000D03*
X130048000Y-65278000D03*
X137795000Y-66929000D03*
X132715000Y-71755000D03*
X140716000Y-72644000D03*
X115824000Y-71120000D03*
X133858000Y-64770000D03*
X109601000Y-72136000D03*
X142494000Y-72644000D03*
X129667000Y-68453000D03*
X128270000Y-64643000D03*
X144272000Y-72644000D03*
X132715000Y-73533000D03*
X111125000Y-72136000D03*
X134747000Y-66167000D03*
X113538000Y-55245000D03*
X106553000Y-72517000D03*
X118872000Y-73533000D03*
X116078000Y-55245000D03*
X126238000Y-67437000D03*
X113665000Y-65532000D03*
X118999000Y-67437000D03*
X145669000Y-67818000D03*
X124714000Y-75311000D03*
X123317000Y-75311000D03*
X149352000Y-75311000D03*
X148209000Y-75311000D03*
X102235000Y-73787000D03*
X102235000Y-75057000D03*
X123317000Y-65786000D03*
D12*
X157353000Y-69088000D02*
X157988000Y-68453000D01*
X144399000Y-69088000D02*
X157353000Y-69088000D01*
D13*
X108410000Y-65816000D02*
X108410000Y-62794000D01*
X108800000Y-66206000D02*
X108410000Y-65816000D01*
D12*
X112141000Y-67437000D02*
X112141000Y-65913000D01*
X113411000Y-68707000D02*
X112141000Y-67437000D01*
X130810000Y-67310000D02*
X132715000Y-69215000D01*
X128524000Y-67310000D02*
X130810000Y-67310000D01*
X128016000Y-67818000D02*
X128524000Y-67310000D01*
X128016000Y-67818000D02*
X127127000Y-68707000D01*
X132715000Y-69215000D02*
X144272000Y-69215000D01*
X144272000Y-69215000D02*
X144399000Y-69088000D01*
X127127000Y-68707000D02*
X113411000Y-68707000D01*
D13*
X110950000Y-62794000D02*
X110950000Y-64564000D01*
D12*
X108204000Y-72136000D02*
X108077000Y-72263000D01*
X110950000Y-64564000D02*
X110871000Y-64643000D01*
X110871000Y-64643000D02*
X110871000Y-68834000D01*
X110871000Y-68834000D02*
X108204000Y-71501000D01*
X108204000Y-71501000D02*
X108204000Y-72136000D01*
X129159000Y-72390000D02*
X131445000Y-74676000D01*
X145923000Y-72644000D02*
X146050000Y-72644000D01*
X128397000Y-72390000D02*
X129159000Y-72390000D01*
X131445000Y-74676000D02*
X143891000Y-74676000D01*
X143891000Y-74676000D02*
X145923000Y-72644000D01*
X117094000Y-73279000D02*
X109093000Y-73279000D01*
X118110000Y-72263000D02*
X117094000Y-73279000D01*
X109093000Y-73279000D02*
X108077000Y-72263000D01*
X124968000Y-72263000D02*
X118110000Y-72263000D01*
X128397000Y-72390000D02*
X127635000Y-72390000D01*
X127635000Y-72390000D02*
X126873000Y-73152000D01*
X126873000Y-73152000D02*
X125857000Y-73152000D01*
X125857000Y-73152000D02*
X124968000Y-72263000D01*
X159639000Y-68580000D02*
X159639000Y-68453000D01*
X155575000Y-72644000D02*
X159639000Y-68580000D01*
X146050000Y-72644000D02*
X155575000Y-72644000D01*
D13*
X110950000Y-55293000D02*
X110998000Y-55245000D01*
X110950000Y-57206000D02*
X110950000Y-55293000D01*
X121110000Y-55293000D02*
X121158000Y-55245000D01*
X121110000Y-57206000D02*
X121110000Y-55293000D01*
X128730000Y-55324000D02*
X128651000Y-55245000D01*
X128730000Y-57206000D02*
X128730000Y-55324000D01*
X141430000Y-55293000D02*
X141478000Y-55245000D01*
X141430000Y-57206000D02*
X141430000Y-55293000D01*
X146510000Y-55293000D02*
X146558000Y-55245000D01*
X146510000Y-57206000D02*
X146510000Y-55293000D01*
X154130000Y-64818000D02*
X154051000Y-64897000D01*
X154130000Y-62794000D02*
X154130000Y-64818000D01*
D14*
X102362000Y-77597000D02*
X101854000Y-77089000D01*
X152654000Y-77597000D02*
X102362000Y-77597000D01*
X153035000Y-77216000D02*
X152654000Y-77597000D01*
D13*
X116586000Y-65024000D02*
X116713000Y-65151000D01*
X116586000Y-65024000D02*
X115189000Y-65024000D01*
X116713000Y-65151000D02*
X120523000Y-65151000D01*
X116030000Y-64945000D02*
X116030000Y-62794000D01*
X115951000Y-65024000D02*
X116030000Y-64945000D01*
X115189000Y-65024000D02*
X115951000Y-65024000D01*
X140716000Y-65532000D02*
X139319000Y-65532000D01*
X136271000Y-64770000D02*
X136350000Y-64691000D01*
X136350000Y-64691000D02*
X136350000Y-62794000D01*
X136271000Y-66167000D02*
X136271000Y-64770000D01*
D15*
X150622000Y-70485000D02*
X150876000Y-70231000D01*
X136398000Y-70485000D02*
X150622000Y-70485000D01*
X136271000Y-70358000D02*
X136398000Y-70485000D01*
D13*
X133810000Y-55293000D02*
X133858000Y-55245000D01*
X133810000Y-57206000D02*
X133810000Y-55293000D01*
D12*
X117729000Y-66675000D02*
X115443000Y-66675000D01*
X119888000Y-66294000D02*
X118110000Y-66294000D01*
X118110000Y-66294000D02*
X117729000Y-66675000D01*
X120523000Y-66929000D02*
X119888000Y-66294000D01*
X130048000Y-65278000D02*
X129794000Y-65278000D01*
X129794000Y-65278000D02*
X129413000Y-65659000D01*
X124968000Y-66929000D02*
X120523000Y-66929000D01*
X129413000Y-65659000D02*
X126238000Y-65659000D01*
X126238000Y-65659000D02*
X124968000Y-66929000D01*
X133477000Y-67437000D02*
X131699000Y-65659000D01*
X137287000Y-67437000D02*
X133477000Y-67437000D01*
X137795000Y-66929000D02*
X137287000Y-67437000D01*
X131699000Y-65659000D02*
X130683000Y-65659000D01*
X130683000Y-65659000D02*
X130302000Y-65278000D01*
X130302000Y-65278000D02*
X130048000Y-65278000D01*
D13*
X133810000Y-64722000D02*
X133858000Y-64770000D01*
X133810000Y-62794000D02*
X133810000Y-64722000D01*
D12*
X132588000Y-71755000D02*
X132715000Y-71755000D01*
X131318000Y-70485000D02*
X132588000Y-71755000D01*
X116459000Y-70485000D02*
X131318000Y-70485000D01*
X115824000Y-71120000D02*
X116459000Y-70485000D01*
X133604000Y-72644000D02*
X132715000Y-71755000D01*
X140716000Y-72644000D02*
X133604000Y-72644000D01*
X109601000Y-71882000D02*
X109601000Y-72136000D01*
X129667000Y-68453000D02*
X128524000Y-69596000D01*
X111887000Y-69596000D02*
X109601000Y-71882000D01*
X128524000Y-69596000D02*
X111887000Y-69596000D01*
D13*
X128730000Y-64183000D02*
X128730000Y-62794000D01*
X128270000Y-64643000D02*
X128730000Y-64183000D01*
D12*
X141351000Y-71501000D02*
X142494000Y-72644000D01*
X129667000Y-68453000D02*
X130683000Y-68453000D01*
X130683000Y-68453000D02*
X132588000Y-70358000D01*
X132588000Y-70358000D02*
X133477000Y-70358000D01*
X134620000Y-71501000D02*
X141351000Y-71501000D01*
X133477000Y-70358000D02*
X134620000Y-71501000D01*
X132969000Y-73787000D02*
X143129000Y-73787000D01*
X143129000Y-73787000D02*
X144272000Y-72644000D01*
X132715000Y-73533000D02*
X132969000Y-73787000D01*
D13*
X131270000Y-63960000D02*
X131270000Y-62794000D01*
X131699000Y-64389000D02*
X131270000Y-63960000D01*
D12*
X133477000Y-66167000D02*
X131699000Y-64389000D01*
X134747000Y-66167000D02*
X133477000Y-66167000D01*
X117475000Y-71374000D02*
X130683000Y-71374000D01*
X116459000Y-72390000D02*
X117475000Y-71374000D01*
X130683000Y-71374000D02*
X132715000Y-73406000D01*
X114935000Y-72390000D02*
X116459000Y-72390000D01*
X132715000Y-73406000D02*
X132715000Y-73533000D01*
X111125000Y-72136000D02*
X111125000Y-71882000D01*
X111125000Y-71882000D02*
X112141000Y-70866000D01*
X112141000Y-70866000D02*
X113411000Y-70866000D01*
X113411000Y-70866000D02*
X114935000Y-72390000D01*
D13*
X113490000Y-55293000D02*
X113538000Y-55245000D01*
X113490000Y-57206000D02*
X113490000Y-55293000D01*
D12*
X108077000Y-74041000D02*
X106553000Y-72517000D01*
X118872000Y-73533000D02*
X118364000Y-74041000D01*
X118364000Y-74041000D02*
X108077000Y-74041000D01*
D13*
X116030000Y-55293000D02*
X116078000Y-55245000D01*
X116030000Y-57206000D02*
X116030000Y-55293000D01*
D12*
X113665000Y-67310000D02*
X113665000Y-65532000D01*
X118999000Y-67437000D02*
X118745000Y-67437000D01*
X114173000Y-67818000D02*
X113665000Y-67310000D01*
X118745000Y-67437000D02*
X118364000Y-67818000D01*
X118364000Y-67818000D02*
X114173000Y-67818000D01*
X125984000Y-67437000D02*
X126238000Y-67437000D01*
X118999000Y-67437000D02*
X119253000Y-67437000D01*
X119253000Y-67437000D02*
X119634000Y-67818000D01*
X125603000Y-67818000D02*
X125984000Y-67437000D01*
X119634000Y-67818000D02*
X125603000Y-67818000D01*
X127254000Y-66421000D02*
X126238000Y-67437000D01*
X143129000Y-68326000D02*
X133096000Y-68326000D01*
X143637000Y-67818000D02*
X143129000Y-68326000D01*
X131191000Y-66421000D02*
X127254000Y-66421000D01*
X133096000Y-68326000D02*
X131191000Y-66421000D01*
X145669000Y-67818000D02*
X143637000Y-67818000D01*
D16*
X148209000Y-75311000D02*
X149352000Y-75311000D01*
X123317000Y-75311000D02*
X124714000Y-75311000D01*
X147320000Y-76200000D02*
X148209000Y-75311000D01*
X125603000Y-76200000D02*
X147320000Y-76200000D01*
X124714000Y-75311000D02*
X125603000Y-76200000D01*
X102235000Y-75057000D02*
X102489000Y-75311000D01*
X102489000Y-75311000D02*
X123317000Y-75311000D01*
X102235000Y-75057000D02*
X102235000Y-73787000D01*
D13*
X105870000Y-62794000D02*
X105870000Y-63040000D01*
X105870000Y-63040000D02*
X105410000Y-63500000D01*
D16*
X102235000Y-66675000D02*
X102235000Y-73787000D01*
X105410000Y-63500000D02*
X102235000Y-66675000D01*
D13*
X126190000Y-63802000D02*
X126190000Y-62794000D01*
X124206000Y-65786000D02*
X126190000Y-63802000D01*
X123317000Y-65786000D02*
X124206000Y-65786000D01*
D12*
G36*
X159523798Y-54152648D02*
G01*
X159343992Y-54421748D01*
X159220139Y-54720755D01*
X159157000Y-55038179D01*
X159157000Y-55361821D01*
X159220139Y-55679245D01*
X159343992Y-55978252D01*
X159523798Y-56247352D01*
X159752648Y-56476202D01*
X160021748Y-56656008D01*
X160320755Y-56779861D01*
X160638179Y-56843000D01*
X160961821Y-56843000D01*
X161279245Y-56779861D01*
X161578252Y-56656008D01*
X161847352Y-56476202D01*
X161992000Y-56331554D01*
X161992000Y-58529458D01*
X161948349Y-58424075D01*
X161584250Y-57879161D01*
X161120839Y-57415750D01*
X160575925Y-57051651D01*
X159970450Y-56800855D01*
X159327681Y-56673000D01*
X158672319Y-56673000D01*
X158029550Y-56800855D01*
X157424075Y-57051651D01*
X156879161Y-57415750D01*
X156415750Y-57879161D01*
X156051651Y-58424075D01*
X155800855Y-59029550D01*
X155673000Y-59672319D01*
X155673000Y-60327681D01*
X155800855Y-60970450D01*
X156051651Y-61575925D01*
X156415750Y-62120839D01*
X156879161Y-62584250D01*
X157424075Y-62948349D01*
X158029550Y-63199145D01*
X158672319Y-63327000D01*
X159327681Y-63327000D01*
X159970450Y-63199145D01*
X160575925Y-62948349D01*
X161120839Y-62584250D01*
X161584250Y-62120839D01*
X161948349Y-61575925D01*
X161992000Y-61470542D01*
X161992001Y-75668447D01*
X161847352Y-75523798D01*
X161578252Y-75343992D01*
X161279245Y-75220139D01*
X160961821Y-75157000D01*
X160638179Y-75157000D01*
X160320755Y-75220139D01*
X160021748Y-75343992D01*
X159752648Y-75523798D01*
X159523798Y-75752648D01*
X159343992Y-76021748D01*
X159220139Y-76320755D01*
X159157000Y-76638179D01*
X159157000Y-76961821D01*
X159220139Y-77279245D01*
X159343992Y-77578252D01*
X159523798Y-77847352D01*
X159668446Y-77992000D01*
X100331554Y-77992000D01*
X100476202Y-77847352D01*
X100656008Y-77578252D01*
X100779861Y-77279245D01*
X100843000Y-76961821D01*
X100843000Y-76638179D01*
X100779861Y-76320755D01*
X100656008Y-76021748D01*
X100476202Y-75752648D01*
X100247352Y-75523798D01*
X99978252Y-75343992D01*
X99679245Y-75220139D01*
X99361821Y-75157000D01*
X99038179Y-75157000D01*
X98720755Y-75220139D01*
X98421748Y-75343992D01*
X98152648Y-75523798D01*
X98008000Y-75668446D01*
X98008000Y-66675000D01*
X101086471Y-66675000D01*
X101092000Y-66731139D01*
X101092001Y-73730844D01*
X101092000Y-73730854D01*
X101092000Y-75000861D01*
X101086471Y-75057000D01*
X101092000Y-75113139D01*
X101092000Y-75113145D01*
X101108539Y-75281066D01*
X101173897Y-75496522D01*
X101280032Y-75695088D01*
X101422867Y-75869133D01*
X101466481Y-75904926D01*
X101641075Y-76079521D01*
X101676867Y-76123133D01*
X101850911Y-76265968D01*
X102049477Y-76372103D01*
X102214786Y-76422249D01*
X102264932Y-76437461D01*
X102287600Y-76439694D01*
X102432854Y-76454000D01*
X102432860Y-76454000D01*
X102488999Y-76459529D01*
X102545138Y-76454000D01*
X124240555Y-76454000D01*
X124755077Y-76968523D01*
X124790867Y-77012133D01*
X124964911Y-77154968D01*
X125163477Y-77261103D01*
X125313574Y-77306635D01*
X125378932Y-77326461D01*
X125399517Y-77328488D01*
X125546854Y-77343000D01*
X125546861Y-77343000D01*
X125603000Y-77348529D01*
X125659139Y-77343000D01*
X147263861Y-77343000D01*
X147320000Y-77348529D01*
X147376139Y-77343000D01*
X147376146Y-77343000D01*
X147544067Y-77326461D01*
X147759523Y-77261103D01*
X147958089Y-77154968D01*
X148132133Y-77012133D01*
X148167927Y-76968518D01*
X148682446Y-76454000D01*
X149408146Y-76454000D01*
X149576067Y-76437461D01*
X149791523Y-76372103D01*
X149990089Y-76265968D01*
X150164133Y-76123133D01*
X150306968Y-75949089D01*
X150413103Y-75750523D01*
X150478461Y-75535067D01*
X150500530Y-75311000D01*
X150478461Y-75086933D01*
X150413103Y-74871477D01*
X150306968Y-74672911D01*
X150164133Y-74498867D01*
X149990089Y-74356032D01*
X149791523Y-74249897D01*
X149576067Y-74184539D01*
X149408146Y-74168000D01*
X148265139Y-74168000D01*
X148209000Y-74162471D01*
X148152861Y-74168000D01*
X148152854Y-74168000D01*
X148005517Y-74182512D01*
X147984932Y-74184539D01*
X147919757Y-74204310D01*
X147769477Y-74249897D01*
X147570911Y-74356032D01*
X147396867Y-74498867D01*
X147361077Y-74542477D01*
X146846555Y-75057000D01*
X144227514Y-75057000D01*
X144251948Y-75036948D01*
X144267855Y-75017565D01*
X145794069Y-73491352D01*
X145963229Y-73525000D01*
X146136771Y-73525000D01*
X146306978Y-73491144D01*
X146467310Y-73424732D01*
X146611605Y-73328318D01*
X146734318Y-73205605D01*
X146770135Y-73152000D01*
X155550056Y-73152000D01*
X155575000Y-73154457D01*
X155599944Y-73152000D01*
X155599947Y-73152000D01*
X155674585Y-73144649D01*
X155770343Y-73115601D01*
X155858595Y-73068429D01*
X155935948Y-73004948D01*
X155951855Y-72985565D01*
X159603420Y-69334000D01*
X159725771Y-69334000D01*
X159895978Y-69300144D01*
X160056310Y-69233732D01*
X160200605Y-69137318D01*
X160323318Y-69014605D01*
X160419732Y-68870310D01*
X160486144Y-68709978D01*
X160520000Y-68539771D01*
X160520000Y-68366229D01*
X160486144Y-68196022D01*
X160419732Y-68035690D01*
X160323318Y-67891395D01*
X160200605Y-67768682D01*
X160056310Y-67672268D01*
X159895978Y-67605856D01*
X159725771Y-67572000D01*
X159552229Y-67572000D01*
X159382022Y-67605856D01*
X159221690Y-67672268D01*
X159077395Y-67768682D01*
X158954682Y-67891395D01*
X158858268Y-68035690D01*
X158813500Y-68143769D01*
X158768732Y-68035690D01*
X158672318Y-67891395D01*
X158549605Y-67768682D01*
X158405310Y-67672268D01*
X158244978Y-67605856D01*
X158074771Y-67572000D01*
X157901229Y-67572000D01*
X157731022Y-67605856D01*
X157570690Y-67672268D01*
X157426395Y-67768682D01*
X157303682Y-67891395D01*
X157207268Y-68035690D01*
X157140856Y-68196022D01*
X157107000Y-68366229D01*
X157107000Y-68539771D01*
X157115002Y-68580000D01*
X146114345Y-68580000D01*
X146230605Y-68502318D01*
X146353318Y-68379605D01*
X146449732Y-68235310D01*
X146516144Y-68074978D01*
X146550000Y-67904771D01*
X146550000Y-67731229D01*
X146516144Y-67561022D01*
X146449732Y-67400690D01*
X146353318Y-67256395D01*
X146230605Y-67133682D01*
X146086310Y-67037268D01*
X145925978Y-66970856D01*
X145755771Y-66937000D01*
X145582229Y-66937000D01*
X145412022Y-66970856D01*
X145251690Y-67037268D01*
X145107395Y-67133682D01*
X144984682Y-67256395D01*
X144948865Y-67310000D01*
X143661943Y-67310000D01*
X143636999Y-67307543D01*
X143612055Y-67310000D01*
X143612053Y-67310000D01*
X143537415Y-67317351D01*
X143441657Y-67346399D01*
X143441655Y-67346400D01*
X143353404Y-67393571D01*
X143333890Y-67409586D01*
X143276052Y-67457052D01*
X143260150Y-67476429D01*
X142918580Y-67818000D01*
X137623514Y-67818000D01*
X137647888Y-67797997D01*
X137708229Y-67810000D01*
X137881771Y-67810000D01*
X138051978Y-67776144D01*
X138212310Y-67709732D01*
X138356605Y-67613318D01*
X138479318Y-67490605D01*
X138575732Y-67346310D01*
X138642144Y-67185978D01*
X138676000Y-67015771D01*
X138676000Y-66842229D01*
X138642144Y-66672022D01*
X138575732Y-66511690D01*
X138479318Y-66367395D01*
X138356605Y-66244682D01*
X138212310Y-66148268D01*
X138051978Y-66081856D01*
X137881771Y-66048000D01*
X137708229Y-66048000D01*
X137538022Y-66081856D01*
X137377690Y-66148268D01*
X137233395Y-66244682D01*
X137110682Y-66367395D01*
X137014268Y-66511690D01*
X136947856Y-66672022D01*
X136914000Y-66842229D01*
X136914000Y-66929000D01*
X135192345Y-66929000D01*
X135308605Y-66851318D01*
X135431318Y-66728605D01*
X135527732Y-66584310D01*
X135594144Y-66423978D01*
X135628000Y-66253771D01*
X135628000Y-66080229D01*
X135594144Y-65910022D01*
X135527732Y-65749690D01*
X135431318Y-65605395D01*
X135308605Y-65482682D01*
X135164310Y-65386268D01*
X135003978Y-65319856D01*
X134833771Y-65286000D01*
X134660229Y-65286000D01*
X134569818Y-65303984D01*
X134600751Y-65266291D01*
X134683302Y-65111852D01*
X134734136Y-64944274D01*
X134751300Y-64769999D01*
X134734136Y-64595725D01*
X134699000Y-64479897D01*
X134699000Y-64082713D01*
X134700843Y-64064000D01*
X134700843Y-63079750D01*
X135207000Y-63079750D01*
X135207000Y-64126542D01*
X135231403Y-64249223D01*
X135279270Y-64364785D01*
X135348763Y-64468789D01*
X135437211Y-64557237D01*
X135541215Y-64626730D01*
X135656777Y-64674597D01*
X135779458Y-64699000D01*
X136064250Y-64699000D01*
X136223000Y-64540250D01*
X136223000Y-62921000D01*
X136477000Y-62921000D01*
X136477000Y-64540250D01*
X136635750Y-64699000D01*
X136920542Y-64699000D01*
X137043223Y-64674597D01*
X137158785Y-64626730D01*
X137262789Y-64557237D01*
X137351237Y-64468789D01*
X137420730Y-64364785D01*
X137468597Y-64249223D01*
X137493000Y-64126542D01*
X137493000Y-63079750D01*
X137334250Y-62921000D01*
X136477000Y-62921000D01*
X136223000Y-62921000D01*
X135365750Y-62921000D01*
X135207000Y-63079750D01*
X134700843Y-63079750D01*
X134700843Y-61595000D01*
X135207000Y-61595000D01*
X135207000Y-62508250D01*
X135365750Y-62667000D01*
X136223000Y-62667000D01*
X136223000Y-62647000D01*
X136477000Y-62647000D01*
X136477000Y-62667000D01*
X137334250Y-62667000D01*
X137493000Y-62508250D01*
X137493000Y-61595000D01*
X137999157Y-61595000D01*
X137999157Y-64064000D01*
X138006513Y-64138689D01*
X138028299Y-64210508D01*
X138063678Y-64276696D01*
X138111289Y-64334711D01*
X138169304Y-64382322D01*
X138235492Y-64417701D01*
X138307311Y-64439487D01*
X138382000Y-64446843D01*
X139398000Y-64446843D01*
X139472689Y-64439487D01*
X139544508Y-64417701D01*
X139610696Y-64382322D01*
X139668711Y-64334711D01*
X139716322Y-64276696D01*
X139751701Y-64210508D01*
X139773487Y-64138689D01*
X139780843Y-64064000D01*
X139780843Y-61595000D01*
X140539157Y-61595000D01*
X140539157Y-64064000D01*
X140546513Y-64138689D01*
X140568299Y-64210508D01*
X140603678Y-64276696D01*
X140651289Y-64334711D01*
X140709304Y-64382322D01*
X140775492Y-64417701D01*
X140847311Y-64439487D01*
X140922000Y-64446843D01*
X141938000Y-64446843D01*
X142012689Y-64439487D01*
X142084508Y-64417701D01*
X142150696Y-64382322D01*
X142208711Y-64334711D01*
X142256322Y-64276696D01*
X142291701Y-64210508D01*
X142313487Y-64138689D01*
X142320843Y-64064000D01*
X142320843Y-61595000D01*
X143079157Y-61595000D01*
X143079157Y-64064000D01*
X143086513Y-64138689D01*
X143108299Y-64210508D01*
X143143678Y-64276696D01*
X143191289Y-64334711D01*
X143249304Y-64382322D01*
X143315492Y-64417701D01*
X143387311Y-64439487D01*
X143462000Y-64446843D01*
X144478000Y-64446843D01*
X144552689Y-64439487D01*
X144624508Y-64417701D01*
X144690696Y-64382322D01*
X144748711Y-64334711D01*
X144796322Y-64276696D01*
X144831701Y-64210508D01*
X144853487Y-64138689D01*
X144860843Y-64064000D01*
X144860843Y-61595000D01*
X145619157Y-61595000D01*
X145619157Y-64064000D01*
X145626513Y-64138689D01*
X145648299Y-64210508D01*
X145683678Y-64276696D01*
X145731289Y-64334711D01*
X145789304Y-64382322D01*
X145855492Y-64417701D01*
X145927311Y-64439487D01*
X146002000Y-64446843D01*
X147018000Y-64446843D01*
X147092689Y-64439487D01*
X147164508Y-64417701D01*
X147230696Y-64382322D01*
X147288711Y-64334711D01*
X147336322Y-64276696D01*
X147371701Y-64210508D01*
X147393487Y-64138689D01*
X147400843Y-64064000D01*
X147400843Y-61595000D01*
X148159157Y-61595000D01*
X148159157Y-64064000D01*
X148166513Y-64138689D01*
X148188299Y-64210508D01*
X148223678Y-64276696D01*
X148271289Y-64334711D01*
X148329304Y-64382322D01*
X148395492Y-64417701D01*
X148467311Y-64439487D01*
X148542000Y-64446843D01*
X149558000Y-64446843D01*
X149632689Y-64439487D01*
X149704508Y-64417701D01*
X149770696Y-64382322D01*
X149828711Y-64334711D01*
X149876322Y-64276696D01*
X149911701Y-64210508D01*
X149933487Y-64138689D01*
X149940843Y-64064000D01*
X149940843Y-61595000D01*
X150699157Y-61595000D01*
X150699157Y-64064000D01*
X150706513Y-64138689D01*
X150728299Y-64210508D01*
X150763678Y-64276696D01*
X150811289Y-64334711D01*
X150869304Y-64382322D01*
X150935492Y-64417701D01*
X151007311Y-64439487D01*
X151082000Y-64446843D01*
X152098000Y-64446843D01*
X152172689Y-64439487D01*
X152244508Y-64417701D01*
X152310696Y-64382322D01*
X152368711Y-64334711D01*
X152416322Y-64276696D01*
X152451701Y-64210508D01*
X152473487Y-64138689D01*
X152480843Y-64064000D01*
X152480843Y-63079750D01*
X152987000Y-63079750D01*
X152987000Y-64126542D01*
X153011403Y-64249223D01*
X153059270Y-64364785D01*
X153128763Y-64468789D01*
X153217211Y-64557237D01*
X153321215Y-64626730D01*
X153436777Y-64674597D01*
X153559458Y-64699000D01*
X153844250Y-64699000D01*
X154003000Y-64540250D01*
X154003000Y-62921000D01*
X154257000Y-62921000D01*
X154257000Y-64540250D01*
X154415750Y-64699000D01*
X154700542Y-64699000D01*
X154823223Y-64674597D01*
X154938785Y-64626730D01*
X155042789Y-64557237D01*
X155131237Y-64468789D01*
X155200730Y-64364785D01*
X155248597Y-64249223D01*
X155273000Y-64126542D01*
X155273000Y-63079750D01*
X155114250Y-62921000D01*
X154257000Y-62921000D01*
X154003000Y-62921000D01*
X153145750Y-62921000D01*
X152987000Y-63079750D01*
X152480843Y-63079750D01*
X152480843Y-61595000D01*
X152987000Y-61595000D01*
X152987000Y-62508250D01*
X153145750Y-62667000D01*
X154003000Y-62667000D01*
X154003000Y-62647000D01*
X154257000Y-62647000D01*
X154257000Y-62667000D01*
X155114250Y-62667000D01*
X155273000Y-62508250D01*
X155273000Y-61461458D01*
X155248597Y-61338777D01*
X155200730Y-61223215D01*
X155194000Y-61213143D01*
X155194000Y-58547000D01*
X155191560Y-58522224D01*
X155184333Y-58498399D01*
X155172597Y-58476443D01*
X155156803Y-58457197D01*
X155137557Y-58441403D01*
X155115601Y-58429667D01*
X155091776Y-58422440D01*
X155067000Y-58420000D01*
X155020843Y-58420000D01*
X155020843Y-55936000D01*
X155013487Y-55861311D01*
X154991701Y-55789492D01*
X154956322Y-55723304D01*
X154908711Y-55665289D01*
X154850696Y-55617678D01*
X154784508Y-55582299D01*
X154712689Y-55560513D01*
X154638000Y-55553157D01*
X153622000Y-55553157D01*
X153547311Y-55560513D01*
X153475492Y-55582299D01*
X153409304Y-55617678D01*
X153351289Y-55665289D01*
X153303678Y-55723304D01*
X153268299Y-55789492D01*
X153246513Y-55861311D01*
X153239157Y-55936000D01*
X153239157Y-58420000D01*
X152480843Y-58420000D01*
X152480843Y-55936000D01*
X152473487Y-55861311D01*
X152451701Y-55789492D01*
X152416322Y-55723304D01*
X152368711Y-55665289D01*
X152310696Y-55617678D01*
X152244508Y-55582299D01*
X152172689Y-55560513D01*
X152098000Y-55553157D01*
X151082000Y-55553157D01*
X151007311Y-55560513D01*
X150935492Y-55582299D01*
X150869304Y-55617678D01*
X150811289Y-55665289D01*
X150763678Y-55723304D01*
X150728299Y-55789492D01*
X150706513Y-55861311D01*
X150699157Y-55936000D01*
X150699157Y-58420000D01*
X149940843Y-58420000D01*
X149940843Y-55936000D01*
X149933487Y-55861311D01*
X149911701Y-55789492D01*
X149876322Y-55723304D01*
X149828711Y-55665289D01*
X149770696Y-55617678D01*
X149704508Y-55582299D01*
X149632689Y-55560513D01*
X149558000Y-55553157D01*
X148542000Y-55553157D01*
X148467311Y-55560513D01*
X148395492Y-55582299D01*
X148329304Y-55617678D01*
X148271289Y-55665289D01*
X148223678Y-55723304D01*
X148188299Y-55789492D01*
X148166513Y-55861311D01*
X148159157Y-55936000D01*
X148159157Y-58420000D01*
X147653000Y-58420000D01*
X147653000Y-57491750D01*
X147494250Y-57333000D01*
X146637000Y-57333000D01*
X146637000Y-57353000D01*
X146383000Y-57353000D01*
X146383000Y-57333000D01*
X145525750Y-57333000D01*
X145367000Y-57491750D01*
X145367000Y-58420000D01*
X144860843Y-58420000D01*
X144860843Y-55936000D01*
X144854684Y-55873458D01*
X145367000Y-55873458D01*
X145367000Y-56920250D01*
X145525750Y-57079000D01*
X146383000Y-57079000D01*
X146383000Y-55459750D01*
X146637000Y-55459750D01*
X146637000Y-57079000D01*
X147494250Y-57079000D01*
X147653000Y-56920250D01*
X147653000Y-55873458D01*
X147628597Y-55750777D01*
X147580730Y-55635215D01*
X147511237Y-55531211D01*
X147422789Y-55442763D01*
X147318785Y-55373270D01*
X147203223Y-55325403D01*
X147080542Y-55301000D01*
X146795750Y-55301000D01*
X146637000Y-55459750D01*
X146383000Y-55459750D01*
X146224250Y-55301000D01*
X145939458Y-55301000D01*
X145816777Y-55325403D01*
X145701215Y-55373270D01*
X145597211Y-55442763D01*
X145508763Y-55531211D01*
X145439270Y-55635215D01*
X145391403Y-55750777D01*
X145367000Y-55873458D01*
X144854684Y-55873458D01*
X144853487Y-55861311D01*
X144831701Y-55789492D01*
X144796322Y-55723304D01*
X144748711Y-55665289D01*
X144690696Y-55617678D01*
X144624508Y-55582299D01*
X144552689Y-55560513D01*
X144478000Y-55553157D01*
X143462000Y-55553157D01*
X143387311Y-55560513D01*
X143315492Y-55582299D01*
X143249304Y-55617678D01*
X143191289Y-55665289D01*
X143143678Y-55723304D01*
X143108299Y-55789492D01*
X143086513Y-55861311D01*
X143079157Y-55936000D01*
X143079157Y-58420000D01*
X142573000Y-58420000D01*
X142573000Y-57491750D01*
X142414250Y-57333000D01*
X141557000Y-57333000D01*
X141557000Y-57353000D01*
X141303000Y-57353000D01*
X141303000Y-57333000D01*
X140445750Y-57333000D01*
X140287000Y-57491750D01*
X140287000Y-58420000D01*
X139780843Y-58420000D01*
X139780843Y-55936000D01*
X139774684Y-55873458D01*
X140287000Y-55873458D01*
X140287000Y-56920250D01*
X140445750Y-57079000D01*
X141303000Y-57079000D01*
X141303000Y-55459750D01*
X141557000Y-55459750D01*
X141557000Y-57079000D01*
X142414250Y-57079000D01*
X142573000Y-56920250D01*
X142573000Y-55873458D01*
X142548597Y-55750777D01*
X142500730Y-55635215D01*
X142431237Y-55531211D01*
X142342789Y-55442763D01*
X142238785Y-55373270D01*
X142123223Y-55325403D01*
X142000542Y-55301000D01*
X141715750Y-55301000D01*
X141557000Y-55459750D01*
X141303000Y-55459750D01*
X141144250Y-55301000D01*
X140859458Y-55301000D01*
X140736777Y-55325403D01*
X140621215Y-55373270D01*
X140517211Y-55442763D01*
X140428763Y-55531211D01*
X140359270Y-55635215D01*
X140311403Y-55750777D01*
X140287000Y-55873458D01*
X139774684Y-55873458D01*
X139773487Y-55861311D01*
X139751701Y-55789492D01*
X139716322Y-55723304D01*
X139668711Y-55665289D01*
X139610696Y-55617678D01*
X139544508Y-55582299D01*
X139472689Y-55560513D01*
X139398000Y-55553157D01*
X138382000Y-55553157D01*
X138307311Y-55560513D01*
X138235492Y-55582299D01*
X138169304Y-55617678D01*
X138111289Y-55665289D01*
X138063678Y-55723304D01*
X138028299Y-55789492D01*
X138006513Y-55861311D01*
X137999157Y-55936000D01*
X137999157Y-58420000D01*
X137240843Y-58420000D01*
X137240843Y-55936000D01*
X137233487Y-55861311D01*
X137211701Y-55789492D01*
X137176322Y-55723304D01*
X137128711Y-55665289D01*
X137070696Y-55617678D01*
X137004508Y-55582299D01*
X136932689Y-55560513D01*
X136858000Y-55553157D01*
X135842000Y-55553157D01*
X135767311Y-55560513D01*
X135695492Y-55582299D01*
X135629304Y-55617678D01*
X135571289Y-55665289D01*
X135523678Y-55723304D01*
X135488299Y-55789492D01*
X135466513Y-55861311D01*
X135459157Y-55936000D01*
X135459157Y-58420000D01*
X134700843Y-58420000D01*
X134700843Y-55936000D01*
X134699000Y-55917287D01*
X134699000Y-55535103D01*
X134734136Y-55419275D01*
X134751300Y-55245001D01*
X134734136Y-55070726D01*
X134683302Y-54903148D01*
X134600751Y-54748709D01*
X134489659Y-54613341D01*
X134354291Y-54502249D01*
X134199852Y-54419698D01*
X134032274Y-54368864D01*
X133857999Y-54351700D01*
X133683725Y-54368864D01*
X133516148Y-54419698D01*
X133361709Y-54502249D01*
X133260260Y-54585506D01*
X133212262Y-54633503D01*
X133178342Y-54661341D01*
X133150507Y-54695258D01*
X133150505Y-54695260D01*
X133067248Y-54796709D01*
X132984698Y-54951148D01*
X132933864Y-55118726D01*
X132916700Y-55293000D01*
X132921001Y-55336670D01*
X132921001Y-55917280D01*
X132919157Y-55936000D01*
X132919157Y-58420000D01*
X132160843Y-58420000D01*
X132160843Y-55936000D01*
X132153487Y-55861311D01*
X132131701Y-55789492D01*
X132096322Y-55723304D01*
X132048711Y-55665289D01*
X131990696Y-55617678D01*
X131924508Y-55582299D01*
X131852689Y-55560513D01*
X131778000Y-55553157D01*
X130762000Y-55553157D01*
X130687311Y-55560513D01*
X130615492Y-55582299D01*
X130549304Y-55617678D01*
X130491289Y-55665289D01*
X130443678Y-55723304D01*
X130408299Y-55789492D01*
X130386513Y-55861311D01*
X130379157Y-55936000D01*
X130379157Y-58420000D01*
X129873000Y-58420000D01*
X129873000Y-57491750D01*
X129714250Y-57333000D01*
X128857000Y-57333000D01*
X128857000Y-57353000D01*
X128603000Y-57353000D01*
X128603000Y-57333000D01*
X127745750Y-57333000D01*
X127587000Y-57491750D01*
X127587000Y-58420000D01*
X127080843Y-58420000D01*
X127080843Y-55936000D01*
X127074684Y-55873458D01*
X127587000Y-55873458D01*
X127587000Y-56920250D01*
X127745750Y-57079000D01*
X128603000Y-57079000D01*
X128603000Y-55459750D01*
X128857000Y-55459750D01*
X128857000Y-57079000D01*
X129714250Y-57079000D01*
X129873000Y-56920250D01*
X129873000Y-55873458D01*
X129848597Y-55750777D01*
X129800730Y-55635215D01*
X129731237Y-55531211D01*
X129642789Y-55442763D01*
X129538785Y-55373270D01*
X129423223Y-55325403D01*
X129300542Y-55301000D01*
X129015750Y-55301000D01*
X128857000Y-55459750D01*
X128603000Y-55459750D01*
X128444250Y-55301000D01*
X128159458Y-55301000D01*
X128036777Y-55325403D01*
X127921215Y-55373270D01*
X127817211Y-55442763D01*
X127728763Y-55531211D01*
X127659270Y-55635215D01*
X127611403Y-55750777D01*
X127587000Y-55873458D01*
X127074684Y-55873458D01*
X127073487Y-55861311D01*
X127051701Y-55789492D01*
X127016322Y-55723304D01*
X126968711Y-55665289D01*
X126910696Y-55617678D01*
X126844508Y-55582299D01*
X126772689Y-55560513D01*
X126698000Y-55553157D01*
X125682000Y-55553157D01*
X125607311Y-55560513D01*
X125535492Y-55582299D01*
X125469304Y-55617678D01*
X125411289Y-55665289D01*
X125363678Y-55723304D01*
X125328299Y-55789492D01*
X125306513Y-55861311D01*
X125299157Y-55936000D01*
X125299157Y-58420000D01*
X124540843Y-58420000D01*
X124540843Y-55936000D01*
X124533487Y-55861311D01*
X124511701Y-55789492D01*
X124476322Y-55723304D01*
X124428711Y-55665289D01*
X124370696Y-55617678D01*
X124304508Y-55582299D01*
X124232689Y-55560513D01*
X124158000Y-55553157D01*
X123142000Y-55553157D01*
X123067311Y-55560513D01*
X122995492Y-55582299D01*
X122929304Y-55617678D01*
X122871289Y-55665289D01*
X122823678Y-55723304D01*
X122788299Y-55789492D01*
X122766513Y-55861311D01*
X122759157Y-55936000D01*
X122759157Y-58420000D01*
X122253000Y-58420000D01*
X122253000Y-57491750D01*
X122094250Y-57333000D01*
X121237000Y-57333000D01*
X121237000Y-57353000D01*
X120983000Y-57353000D01*
X120983000Y-57333000D01*
X120125750Y-57333000D01*
X119967000Y-57491750D01*
X119967000Y-58420000D01*
X119460843Y-58420000D01*
X119460843Y-55936000D01*
X119454684Y-55873458D01*
X119967000Y-55873458D01*
X119967000Y-56920250D01*
X120125750Y-57079000D01*
X120983000Y-57079000D01*
X120983000Y-55459750D01*
X121237000Y-55459750D01*
X121237000Y-57079000D01*
X122094250Y-57079000D01*
X122253000Y-56920250D01*
X122253000Y-55873458D01*
X122228597Y-55750777D01*
X122180730Y-55635215D01*
X122111237Y-55531211D01*
X122022789Y-55442763D01*
X121918785Y-55373270D01*
X121803223Y-55325403D01*
X121680542Y-55301000D01*
X121395750Y-55301000D01*
X121237000Y-55459750D01*
X120983000Y-55459750D01*
X120824250Y-55301000D01*
X120539458Y-55301000D01*
X120416777Y-55325403D01*
X120301215Y-55373270D01*
X120197211Y-55442763D01*
X120108763Y-55531211D01*
X120039270Y-55635215D01*
X119991403Y-55750777D01*
X119967000Y-55873458D01*
X119454684Y-55873458D01*
X119453487Y-55861311D01*
X119431701Y-55789492D01*
X119396322Y-55723304D01*
X119348711Y-55665289D01*
X119290696Y-55617678D01*
X119224508Y-55582299D01*
X119152689Y-55560513D01*
X119078000Y-55553157D01*
X118062000Y-55553157D01*
X117987311Y-55560513D01*
X117915492Y-55582299D01*
X117849304Y-55617678D01*
X117791289Y-55665289D01*
X117743678Y-55723304D01*
X117708299Y-55789492D01*
X117686513Y-55861311D01*
X117679157Y-55936000D01*
X117679157Y-58420000D01*
X116920843Y-58420000D01*
X116920843Y-55936000D01*
X116919000Y-55917287D01*
X116919000Y-55535103D01*
X116954136Y-55419275D01*
X116971300Y-55245001D01*
X116954136Y-55070726D01*
X116903302Y-54903148D01*
X116820751Y-54748709D01*
X116709659Y-54613341D01*
X116574291Y-54502249D01*
X116419852Y-54419698D01*
X116252274Y-54368864D01*
X116077999Y-54351700D01*
X115903725Y-54368864D01*
X115736148Y-54419698D01*
X115581709Y-54502249D01*
X115480260Y-54585506D01*
X115432262Y-54633503D01*
X115398342Y-54661341D01*
X115370507Y-54695258D01*
X115370505Y-54695260D01*
X115287248Y-54796709D01*
X115204698Y-54951148D01*
X115153864Y-55118726D01*
X115136700Y-55293000D01*
X115141001Y-55336670D01*
X115141001Y-55917280D01*
X115139157Y-55936000D01*
X115139157Y-58420000D01*
X114380843Y-58420000D01*
X114380843Y-55936000D01*
X114379000Y-55917287D01*
X114379000Y-55535103D01*
X114414136Y-55419275D01*
X114431300Y-55245001D01*
X114414136Y-55070726D01*
X114363302Y-54903148D01*
X114280751Y-54748709D01*
X114169659Y-54613341D01*
X114034291Y-54502249D01*
X113879852Y-54419698D01*
X113712274Y-54368864D01*
X113537999Y-54351700D01*
X113363725Y-54368864D01*
X113196148Y-54419698D01*
X113041709Y-54502249D01*
X112940260Y-54585506D01*
X112892262Y-54633503D01*
X112858342Y-54661341D01*
X112830507Y-54695258D01*
X112830505Y-54695260D01*
X112747248Y-54796709D01*
X112664698Y-54951148D01*
X112613864Y-55118726D01*
X112596700Y-55293000D01*
X112601001Y-55336670D01*
X112601001Y-55917280D01*
X112599157Y-55936000D01*
X112599157Y-58420000D01*
X112093000Y-58420000D01*
X112093000Y-57491750D01*
X111934250Y-57333000D01*
X111077000Y-57333000D01*
X111077000Y-57353000D01*
X110823000Y-57353000D01*
X110823000Y-57333000D01*
X109965750Y-57333000D01*
X109807000Y-57491750D01*
X109807000Y-58420000D01*
X109300843Y-58420000D01*
X109300843Y-55936000D01*
X109294684Y-55873458D01*
X109807000Y-55873458D01*
X109807000Y-56920250D01*
X109965750Y-57079000D01*
X110823000Y-57079000D01*
X110823000Y-55459750D01*
X111077000Y-55459750D01*
X111077000Y-57079000D01*
X111934250Y-57079000D01*
X112093000Y-56920250D01*
X112093000Y-55873458D01*
X112068597Y-55750777D01*
X112020730Y-55635215D01*
X111951237Y-55531211D01*
X111862789Y-55442763D01*
X111758785Y-55373270D01*
X111643223Y-55325403D01*
X111520542Y-55301000D01*
X111235750Y-55301000D01*
X111077000Y-55459750D01*
X110823000Y-55459750D01*
X110664250Y-55301000D01*
X110379458Y-55301000D01*
X110256777Y-55325403D01*
X110141215Y-55373270D01*
X110037211Y-55442763D01*
X109948763Y-55531211D01*
X109879270Y-55635215D01*
X109831403Y-55750777D01*
X109807000Y-55873458D01*
X109294684Y-55873458D01*
X109293487Y-55861311D01*
X109271701Y-55789492D01*
X109236322Y-55723304D01*
X109188711Y-55665289D01*
X109130696Y-55617678D01*
X109064508Y-55582299D01*
X108992689Y-55560513D01*
X108918000Y-55553157D01*
X107902000Y-55553157D01*
X107827311Y-55560513D01*
X107755492Y-55582299D01*
X107689304Y-55617678D01*
X107631289Y-55665289D01*
X107583678Y-55723304D01*
X107548299Y-55789492D01*
X107526513Y-55861311D01*
X107519157Y-55936000D01*
X107519157Y-58420000D01*
X106760843Y-58420000D01*
X106760843Y-55936000D01*
X106753487Y-55861311D01*
X106731701Y-55789492D01*
X106696322Y-55723304D01*
X106648711Y-55665289D01*
X106590696Y-55617678D01*
X106524508Y-55582299D01*
X106452689Y-55560513D01*
X106378000Y-55553157D01*
X105362000Y-55553157D01*
X105287311Y-55560513D01*
X105215492Y-55582299D01*
X105149304Y-55617678D01*
X105091289Y-55665289D01*
X105043678Y-55723304D01*
X105008299Y-55789492D01*
X104986513Y-55861311D01*
X104979157Y-55936000D01*
X104979157Y-58420000D01*
X104902000Y-58420000D01*
X104877224Y-58422440D01*
X104853399Y-58429667D01*
X104831443Y-58441403D01*
X104812197Y-58457197D01*
X104796403Y-58476443D01*
X104784667Y-58498399D01*
X104777440Y-58522224D01*
X104775000Y-58547000D01*
X104775000Y-61468000D01*
X104777440Y-61492776D01*
X104784667Y-61516601D01*
X104796403Y-61538557D01*
X104812197Y-61557803D01*
X104831443Y-61573597D01*
X104853399Y-61585333D01*
X104877224Y-61592560D01*
X104902000Y-61595000D01*
X104979157Y-61595000D01*
X104979157Y-62436265D01*
X104970476Y-62438898D01*
X104771911Y-62545033D01*
X104641478Y-62652076D01*
X101466482Y-65827073D01*
X101422867Y-65862867D01*
X101280032Y-66036912D01*
X101173897Y-66235478D01*
X101108539Y-66450934D01*
X101092000Y-66618855D01*
X101092000Y-66618861D01*
X101086471Y-66675000D01*
X98008000Y-66675000D01*
X98008000Y-61470542D01*
X98051651Y-61575925D01*
X98415750Y-62120839D01*
X98879161Y-62584250D01*
X99424075Y-62948349D01*
X100029550Y-63199145D01*
X100672319Y-63327000D01*
X101327681Y-63327000D01*
X101970450Y-63199145D01*
X102575925Y-62948349D01*
X103120839Y-62584250D01*
X103584250Y-62120839D01*
X103948349Y-61575925D01*
X104199145Y-60970450D01*
X104327000Y-60327681D01*
X104327000Y-59672319D01*
X104199145Y-59029550D01*
X103948349Y-58424075D01*
X103584250Y-57879161D01*
X103120839Y-57415750D01*
X102575925Y-57051651D01*
X101970450Y-56800855D01*
X101327681Y-56673000D01*
X100672319Y-56673000D01*
X100029550Y-56800855D01*
X99424075Y-57051651D01*
X98879161Y-57415750D01*
X98415750Y-57879161D01*
X98051651Y-58424075D01*
X98008000Y-58529458D01*
X98008000Y-54008000D01*
X159668446Y-54008000D01*
X159523798Y-54152648D01*
X159523798Y-54152648D01*
G37*
X159523798Y-54152648D02*
X159343992Y-54421748D01*
X159220139Y-54720755D01*
X159157000Y-55038179D01*
X159157000Y-55361821D01*
X159220139Y-55679245D01*
X159343992Y-55978252D01*
X159523798Y-56247352D01*
X159752648Y-56476202D01*
X160021748Y-56656008D01*
X160320755Y-56779861D01*
X160638179Y-56843000D01*
X160961821Y-56843000D01*
X161279245Y-56779861D01*
X161578252Y-56656008D01*
X161847352Y-56476202D01*
X161992000Y-56331554D01*
X161992000Y-58529458D01*
X161948349Y-58424075D01*
X161584250Y-57879161D01*
X161120839Y-57415750D01*
X160575925Y-57051651D01*
X159970450Y-56800855D01*
X159327681Y-56673000D01*
X158672319Y-56673000D01*
X158029550Y-56800855D01*
X157424075Y-57051651D01*
X156879161Y-57415750D01*
X156415750Y-57879161D01*
X156051651Y-58424075D01*
X155800855Y-59029550D01*
X155673000Y-59672319D01*
X155673000Y-60327681D01*
X155800855Y-60970450D01*
X156051651Y-61575925D01*
X156415750Y-62120839D01*
X156879161Y-62584250D01*
X157424075Y-62948349D01*
X158029550Y-63199145D01*
X158672319Y-63327000D01*
X159327681Y-63327000D01*
X159970450Y-63199145D01*
X160575925Y-62948349D01*
X161120839Y-62584250D01*
X161584250Y-62120839D01*
X161948349Y-61575925D01*
X161992000Y-61470542D01*
X161992001Y-75668447D01*
X161847352Y-75523798D01*
X161578252Y-75343992D01*
X161279245Y-75220139D01*
X160961821Y-75157000D01*
X160638179Y-75157000D01*
X160320755Y-75220139D01*
X160021748Y-75343992D01*
X159752648Y-75523798D01*
X159523798Y-75752648D01*
X159343992Y-76021748D01*
X159220139Y-76320755D01*
X159157000Y-76638179D01*
X159157000Y-76961821D01*
X159220139Y-77279245D01*
X159343992Y-77578252D01*
X159523798Y-77847352D01*
X159668446Y-77992000D01*
X100331554Y-77992000D01*
X100476202Y-77847352D01*
X100656008Y-77578252D01*
X100779861Y-77279245D01*
X100843000Y-76961821D01*
X100843000Y-76638179D01*
X100779861Y-76320755D01*
X100656008Y-76021748D01*
X100476202Y-75752648D01*
X100247352Y-75523798D01*
X99978252Y-75343992D01*
X99679245Y-75220139D01*
X99361821Y-75157000D01*
X99038179Y-75157000D01*
X98720755Y-75220139D01*
X98421748Y-75343992D01*
X98152648Y-75523798D01*
X98008000Y-75668446D01*
X98008000Y-66675000D01*
X101086471Y-66675000D01*
X101092000Y-66731139D01*
X101092001Y-73730844D01*
X101092000Y-73730854D01*
X101092000Y-75000861D01*
X101086471Y-75057000D01*
X101092000Y-75113139D01*
X101092000Y-75113145D01*
X101108539Y-75281066D01*
X101173897Y-75496522D01*
X101280032Y-75695088D01*
X101422867Y-75869133D01*
X101466481Y-75904926D01*
X101641075Y-76079521D01*
X101676867Y-76123133D01*
X101850911Y-76265968D01*
X102049477Y-76372103D01*
X102214786Y-76422249D01*
X102264932Y-76437461D01*
X102287600Y-76439694D01*
X102432854Y-76454000D01*
X102432860Y-76454000D01*
X102488999Y-76459529D01*
X102545138Y-76454000D01*
X124240555Y-76454000D01*
X124755077Y-76968523D01*
X124790867Y-77012133D01*
X124964911Y-77154968D01*
X125163477Y-77261103D01*
X125313574Y-77306635D01*
X125378932Y-77326461D01*
X125399517Y-77328488D01*
X125546854Y-77343000D01*
X125546861Y-77343000D01*
X125603000Y-77348529D01*
X125659139Y-77343000D01*
X147263861Y-77343000D01*
X147320000Y-77348529D01*
X147376139Y-77343000D01*
X147376146Y-77343000D01*
X147544067Y-77326461D01*
X147759523Y-77261103D01*
X147958089Y-77154968D01*
X148132133Y-77012133D01*
X148167927Y-76968518D01*
X148682446Y-76454000D01*
X149408146Y-76454000D01*
X149576067Y-76437461D01*
X149791523Y-76372103D01*
X149990089Y-76265968D01*
X150164133Y-76123133D01*
X150306968Y-75949089D01*
X150413103Y-75750523D01*
X150478461Y-75535067D01*
X150500530Y-75311000D01*
X150478461Y-75086933D01*
X150413103Y-74871477D01*
X150306968Y-74672911D01*
X150164133Y-74498867D01*
X149990089Y-74356032D01*
X149791523Y-74249897D01*
X149576067Y-74184539D01*
X149408146Y-74168000D01*
X148265139Y-74168000D01*
X148209000Y-74162471D01*
X148152861Y-74168000D01*
X148152854Y-74168000D01*
X148005517Y-74182512D01*
X147984932Y-74184539D01*
X147919757Y-74204310D01*
X147769477Y-74249897D01*
X147570911Y-74356032D01*
X147396867Y-74498867D01*
X147361077Y-74542477D01*
X146846555Y-75057000D01*
X144227514Y-75057000D01*
X144251948Y-75036948D01*
X144267855Y-75017565D01*
X145794069Y-73491352D01*
X145963229Y-73525000D01*
X146136771Y-73525000D01*
X146306978Y-73491144D01*
X146467310Y-73424732D01*
X146611605Y-73328318D01*
X146734318Y-73205605D01*
X146770135Y-73152000D01*
X155550056Y-73152000D01*
X155575000Y-73154457D01*
X155599944Y-73152000D01*
X155599947Y-73152000D01*
X155674585Y-73144649D01*
X155770343Y-73115601D01*
X155858595Y-73068429D01*
X155935948Y-73004948D01*
X155951855Y-72985565D01*
X159603420Y-69334000D01*
X159725771Y-69334000D01*
X159895978Y-69300144D01*
X160056310Y-69233732D01*
X160200605Y-69137318D01*
X160323318Y-69014605D01*
X160419732Y-68870310D01*
X160486144Y-68709978D01*
X160520000Y-68539771D01*
X160520000Y-68366229D01*
X160486144Y-68196022D01*
X160419732Y-68035690D01*
X160323318Y-67891395D01*
X160200605Y-67768682D01*
X160056310Y-67672268D01*
X159895978Y-67605856D01*
X159725771Y-67572000D01*
X159552229Y-67572000D01*
X159382022Y-67605856D01*
X159221690Y-67672268D01*
X159077395Y-67768682D01*
X158954682Y-67891395D01*
X158858268Y-68035690D01*
X158813500Y-68143769D01*
X158768732Y-68035690D01*
X158672318Y-67891395D01*
X158549605Y-67768682D01*
X158405310Y-67672268D01*
X158244978Y-67605856D01*
X158074771Y-67572000D01*
X157901229Y-67572000D01*
X157731022Y-67605856D01*
X157570690Y-67672268D01*
X157426395Y-67768682D01*
X157303682Y-67891395D01*
X157207268Y-68035690D01*
X157140856Y-68196022D01*
X157107000Y-68366229D01*
X157107000Y-68539771D01*
X157115002Y-68580000D01*
X146114345Y-68580000D01*
X146230605Y-68502318D01*
X146353318Y-68379605D01*
X146449732Y-68235310D01*
X146516144Y-68074978D01*
X146550000Y-67904771D01*
X146550000Y-67731229D01*
X146516144Y-67561022D01*
X146449732Y-67400690D01*
X146353318Y-67256395D01*
X146230605Y-67133682D01*
X146086310Y-67037268D01*
X145925978Y-66970856D01*
X145755771Y-66937000D01*
X145582229Y-66937000D01*
X145412022Y-66970856D01*
X145251690Y-67037268D01*
X145107395Y-67133682D01*
X144984682Y-67256395D01*
X144948865Y-67310000D01*
X143661943Y-67310000D01*
X143636999Y-67307543D01*
X143612055Y-67310000D01*
X143612053Y-67310000D01*
X143537415Y-67317351D01*
X143441657Y-67346399D01*
X143441655Y-67346400D01*
X143353404Y-67393571D01*
X143333890Y-67409586D01*
X143276052Y-67457052D01*
X143260150Y-67476429D01*
X142918580Y-67818000D01*
X137623514Y-67818000D01*
X137647888Y-67797997D01*
X137708229Y-67810000D01*
X137881771Y-67810000D01*
X138051978Y-67776144D01*
X138212310Y-67709732D01*
X138356605Y-67613318D01*
X138479318Y-67490605D01*
X138575732Y-67346310D01*
X138642144Y-67185978D01*
X138676000Y-67015771D01*
X138676000Y-66842229D01*
X138642144Y-66672022D01*
X138575732Y-66511690D01*
X138479318Y-66367395D01*
X138356605Y-66244682D01*
X138212310Y-66148268D01*
X138051978Y-66081856D01*
X137881771Y-66048000D01*
X137708229Y-66048000D01*
X137538022Y-66081856D01*
X137377690Y-66148268D01*
X137233395Y-66244682D01*
X137110682Y-66367395D01*
X137014268Y-66511690D01*
X136947856Y-66672022D01*
X136914000Y-66842229D01*
X136914000Y-66929000D01*
X135192345Y-66929000D01*
X135308605Y-66851318D01*
X135431318Y-66728605D01*
X135527732Y-66584310D01*
X135594144Y-66423978D01*
X135628000Y-66253771D01*
X135628000Y-66080229D01*
X135594144Y-65910022D01*
X135527732Y-65749690D01*
X135431318Y-65605395D01*
X135308605Y-65482682D01*
X135164310Y-65386268D01*
X135003978Y-65319856D01*
X134833771Y-65286000D01*
X134660229Y-65286000D01*
X134569818Y-65303984D01*
X134600751Y-65266291D01*
X134683302Y-65111852D01*
X134734136Y-64944274D01*
X134751300Y-64769999D01*
X134734136Y-64595725D01*
X134699000Y-64479897D01*
X134699000Y-64082713D01*
X134700843Y-64064000D01*
X134700843Y-63079750D01*
X135207000Y-63079750D01*
X135207000Y-64126542D01*
X135231403Y-64249223D01*
X135279270Y-64364785D01*
X135348763Y-64468789D01*
X135437211Y-64557237D01*
X135541215Y-64626730D01*
X135656777Y-64674597D01*
X135779458Y-64699000D01*
X136064250Y-64699000D01*
X136223000Y-64540250D01*
X136223000Y-62921000D01*
X136477000Y-62921000D01*
X136477000Y-64540250D01*
X136635750Y-64699000D01*
X136920542Y-64699000D01*
X137043223Y-64674597D01*
X137158785Y-64626730D01*
X137262789Y-64557237D01*
X137351237Y-64468789D01*
X137420730Y-64364785D01*
X137468597Y-64249223D01*
X137493000Y-64126542D01*
X137493000Y-63079750D01*
X137334250Y-62921000D01*
X136477000Y-62921000D01*
X136223000Y-62921000D01*
X135365750Y-62921000D01*
X135207000Y-63079750D01*
X134700843Y-63079750D01*
X134700843Y-61595000D01*
X135207000Y-61595000D01*
X135207000Y-62508250D01*
X135365750Y-62667000D01*
X136223000Y-62667000D01*
X136223000Y-62647000D01*
X136477000Y-62647000D01*
X136477000Y-62667000D01*
X137334250Y-62667000D01*
X137493000Y-62508250D01*
X137493000Y-61595000D01*
X137999157Y-61595000D01*
X137999157Y-64064000D01*
X138006513Y-64138689D01*
X138028299Y-64210508D01*
X138063678Y-64276696D01*
X138111289Y-64334711D01*
X138169304Y-64382322D01*
X138235492Y-64417701D01*
X138307311Y-64439487D01*
X138382000Y-64446843D01*
X139398000Y-64446843D01*
X139472689Y-64439487D01*
X139544508Y-64417701D01*
X139610696Y-64382322D01*
X139668711Y-64334711D01*
X139716322Y-64276696D01*
X139751701Y-64210508D01*
X139773487Y-64138689D01*
X139780843Y-64064000D01*
X139780843Y-61595000D01*
X140539157Y-61595000D01*
X140539157Y-64064000D01*
X140546513Y-64138689D01*
X140568299Y-64210508D01*
X140603678Y-64276696D01*
X140651289Y-64334711D01*
X140709304Y-64382322D01*
X140775492Y-64417701D01*
X140847311Y-64439487D01*
X140922000Y-64446843D01*
X141938000Y-64446843D01*
X142012689Y-64439487D01*
X142084508Y-64417701D01*
X142150696Y-64382322D01*
X142208711Y-64334711D01*
X142256322Y-64276696D01*
X142291701Y-64210508D01*
X142313487Y-64138689D01*
X142320843Y-64064000D01*
X142320843Y-61595000D01*
X143079157Y-61595000D01*
X143079157Y-64064000D01*
X143086513Y-64138689D01*
X143108299Y-64210508D01*
X143143678Y-64276696D01*
X143191289Y-64334711D01*
X143249304Y-64382322D01*
X143315492Y-64417701D01*
X143387311Y-64439487D01*
X143462000Y-64446843D01*
X144478000Y-64446843D01*
X144552689Y-64439487D01*
X144624508Y-64417701D01*
X144690696Y-64382322D01*
X144748711Y-64334711D01*
X144796322Y-64276696D01*
X144831701Y-64210508D01*
X144853487Y-64138689D01*
X144860843Y-64064000D01*
X144860843Y-61595000D01*
X145619157Y-61595000D01*
X145619157Y-64064000D01*
X145626513Y-64138689D01*
X145648299Y-64210508D01*
X145683678Y-64276696D01*
X145731289Y-64334711D01*
X145789304Y-64382322D01*
X145855492Y-64417701D01*
X145927311Y-64439487D01*
X146002000Y-64446843D01*
X147018000Y-64446843D01*
X147092689Y-64439487D01*
X147164508Y-64417701D01*
X147230696Y-64382322D01*
X147288711Y-64334711D01*
X147336322Y-64276696D01*
X147371701Y-64210508D01*
X147393487Y-64138689D01*
X147400843Y-64064000D01*
X147400843Y-61595000D01*
X148159157Y-61595000D01*
X148159157Y-64064000D01*
X148166513Y-64138689D01*
X148188299Y-64210508D01*
X148223678Y-64276696D01*
X148271289Y-64334711D01*
X148329304Y-64382322D01*
X148395492Y-64417701D01*
X148467311Y-64439487D01*
X148542000Y-64446843D01*
X149558000Y-64446843D01*
X149632689Y-64439487D01*
X149704508Y-64417701D01*
X149770696Y-64382322D01*
X149828711Y-64334711D01*
X149876322Y-64276696D01*
X149911701Y-64210508D01*
X149933487Y-64138689D01*
X149940843Y-64064000D01*
X149940843Y-61595000D01*
X150699157Y-61595000D01*
X150699157Y-64064000D01*
X150706513Y-64138689D01*
X150728299Y-64210508D01*
X150763678Y-64276696D01*
X150811289Y-64334711D01*
X150869304Y-64382322D01*
X150935492Y-64417701D01*
X151007311Y-64439487D01*
X151082000Y-64446843D01*
X152098000Y-64446843D01*
X152172689Y-64439487D01*
X152244508Y-64417701D01*
X152310696Y-64382322D01*
X152368711Y-64334711D01*
X152416322Y-64276696D01*
X152451701Y-64210508D01*
X152473487Y-64138689D01*
X152480843Y-64064000D01*
X152480843Y-63079750D01*
X152987000Y-63079750D01*
X152987000Y-64126542D01*
X153011403Y-64249223D01*
X153059270Y-64364785D01*
X153128763Y-64468789D01*
X153217211Y-64557237D01*
X153321215Y-64626730D01*
X153436777Y-64674597D01*
X153559458Y-64699000D01*
X153844250Y-64699000D01*
X154003000Y-64540250D01*
X154003000Y-62921000D01*
X154257000Y-62921000D01*
X154257000Y-64540250D01*
X154415750Y-64699000D01*
X154700542Y-64699000D01*
X154823223Y-64674597D01*
X154938785Y-64626730D01*
X155042789Y-64557237D01*
X155131237Y-64468789D01*
X155200730Y-64364785D01*
X155248597Y-64249223D01*
X155273000Y-64126542D01*
X155273000Y-63079750D01*
X155114250Y-62921000D01*
X154257000Y-62921000D01*
X154003000Y-62921000D01*
X153145750Y-62921000D01*
X152987000Y-63079750D01*
X152480843Y-63079750D01*
X152480843Y-61595000D01*
X152987000Y-61595000D01*
X152987000Y-62508250D01*
X153145750Y-62667000D01*
X154003000Y-62667000D01*
X154003000Y-62647000D01*
X154257000Y-62647000D01*
X154257000Y-62667000D01*
X155114250Y-62667000D01*
X155273000Y-62508250D01*
X155273000Y-61461458D01*
X155248597Y-61338777D01*
X155200730Y-61223215D01*
X155194000Y-61213143D01*
X155194000Y-58547000D01*
X155191560Y-58522224D01*
X155184333Y-58498399D01*
X155172597Y-58476443D01*
X155156803Y-58457197D01*
X155137557Y-58441403D01*
X155115601Y-58429667D01*
X155091776Y-58422440D01*
X155067000Y-58420000D01*
X155020843Y-58420000D01*
X155020843Y-55936000D01*
X155013487Y-55861311D01*
X154991701Y-55789492D01*
X154956322Y-55723304D01*
X154908711Y-55665289D01*
X154850696Y-55617678D01*
X154784508Y-55582299D01*
X154712689Y-55560513D01*
X154638000Y-55553157D01*
X153622000Y-55553157D01*
X153547311Y-55560513D01*
X153475492Y-55582299D01*
X153409304Y-55617678D01*
X153351289Y-55665289D01*
X153303678Y-55723304D01*
X153268299Y-55789492D01*
X153246513Y-55861311D01*
X153239157Y-55936000D01*
X153239157Y-58420000D01*
X152480843Y-58420000D01*
X152480843Y-55936000D01*
X152473487Y-55861311D01*
X152451701Y-55789492D01*
X152416322Y-55723304D01*
X152368711Y-55665289D01*
X152310696Y-55617678D01*
X152244508Y-55582299D01*
X152172689Y-55560513D01*
X152098000Y-55553157D01*
X151082000Y-55553157D01*
X151007311Y-55560513D01*
X150935492Y-55582299D01*
X150869304Y-55617678D01*
X150811289Y-55665289D01*
X150763678Y-55723304D01*
X150728299Y-55789492D01*
X150706513Y-55861311D01*
X150699157Y-55936000D01*
X150699157Y-58420000D01*
X149940843Y-58420000D01*
X149940843Y-55936000D01*
X149933487Y-55861311D01*
X149911701Y-55789492D01*
X149876322Y-55723304D01*
X149828711Y-55665289D01*
X149770696Y-55617678D01*
X149704508Y-55582299D01*
X149632689Y-55560513D01*
X149558000Y-55553157D01*
X148542000Y-55553157D01*
X148467311Y-55560513D01*
X148395492Y-55582299D01*
X148329304Y-55617678D01*
X148271289Y-55665289D01*
X148223678Y-55723304D01*
X148188299Y-55789492D01*
X148166513Y-55861311D01*
X148159157Y-55936000D01*
X148159157Y-58420000D01*
X147653000Y-58420000D01*
X147653000Y-57491750D01*
X147494250Y-57333000D01*
X146637000Y-57333000D01*
X146637000Y-57353000D01*
X146383000Y-57353000D01*
X146383000Y-57333000D01*
X145525750Y-57333000D01*
X145367000Y-57491750D01*
X145367000Y-58420000D01*
X144860843Y-58420000D01*
X144860843Y-55936000D01*
X144854684Y-55873458D01*
X145367000Y-55873458D01*
X145367000Y-56920250D01*
X145525750Y-57079000D01*
X146383000Y-57079000D01*
X146383000Y-55459750D01*
X146637000Y-55459750D01*
X146637000Y-57079000D01*
X147494250Y-57079000D01*
X147653000Y-56920250D01*
X147653000Y-55873458D01*
X147628597Y-55750777D01*
X147580730Y-55635215D01*
X147511237Y-55531211D01*
X147422789Y-55442763D01*
X147318785Y-55373270D01*
X147203223Y-55325403D01*
X147080542Y-55301000D01*
X146795750Y-55301000D01*
X146637000Y-55459750D01*
X146383000Y-55459750D01*
X146224250Y-55301000D01*
X145939458Y-55301000D01*
X145816777Y-55325403D01*
X145701215Y-55373270D01*
X145597211Y-55442763D01*
X145508763Y-55531211D01*
X145439270Y-55635215D01*
X145391403Y-55750777D01*
X145367000Y-55873458D01*
X144854684Y-55873458D01*
X144853487Y-55861311D01*
X144831701Y-55789492D01*
X144796322Y-55723304D01*
X144748711Y-55665289D01*
X144690696Y-55617678D01*
X144624508Y-55582299D01*
X144552689Y-55560513D01*
X144478000Y-55553157D01*
X143462000Y-55553157D01*
X143387311Y-55560513D01*
X143315492Y-55582299D01*
X143249304Y-55617678D01*
X143191289Y-55665289D01*
X143143678Y-55723304D01*
X143108299Y-55789492D01*
X143086513Y-55861311D01*
X143079157Y-55936000D01*
X143079157Y-58420000D01*
X142573000Y-58420000D01*
X142573000Y-57491750D01*
X142414250Y-57333000D01*
X141557000Y-57333000D01*
X141557000Y-57353000D01*
X141303000Y-57353000D01*
X141303000Y-57333000D01*
X140445750Y-57333000D01*
X140287000Y-57491750D01*
X140287000Y-58420000D01*
X139780843Y-58420000D01*
X139780843Y-55936000D01*
X139774684Y-55873458D01*
X140287000Y-55873458D01*
X140287000Y-56920250D01*
X140445750Y-57079000D01*
X141303000Y-57079000D01*
X141303000Y-55459750D01*
X141557000Y-55459750D01*
X141557000Y-57079000D01*
X142414250Y-57079000D01*
X142573000Y-56920250D01*
X142573000Y-55873458D01*
X142548597Y-55750777D01*
X142500730Y-55635215D01*
X142431237Y-55531211D01*
X142342789Y-55442763D01*
X142238785Y-55373270D01*
X142123223Y-55325403D01*
X142000542Y-55301000D01*
X141715750Y-55301000D01*
X141557000Y-55459750D01*
X141303000Y-55459750D01*
X141144250Y-55301000D01*
X140859458Y-55301000D01*
X140736777Y-55325403D01*
X140621215Y-55373270D01*
X140517211Y-55442763D01*
X140428763Y-55531211D01*
X140359270Y-55635215D01*
X140311403Y-55750777D01*
X140287000Y-55873458D01*
X139774684Y-55873458D01*
X139773487Y-55861311D01*
X139751701Y-55789492D01*
X139716322Y-55723304D01*
X139668711Y-55665289D01*
X139610696Y-55617678D01*
X139544508Y-55582299D01*
X139472689Y-55560513D01*
X139398000Y-55553157D01*
X138382000Y-55553157D01*
X138307311Y-55560513D01*
X138235492Y-55582299D01*
X138169304Y-55617678D01*
X138111289Y-55665289D01*
X138063678Y-55723304D01*
X138028299Y-55789492D01*
X138006513Y-55861311D01*
X137999157Y-55936000D01*
X137999157Y-58420000D01*
X137240843Y-58420000D01*
X137240843Y-55936000D01*
X137233487Y-55861311D01*
X137211701Y-55789492D01*
X137176322Y-55723304D01*
X137128711Y-55665289D01*
X137070696Y-55617678D01*
X137004508Y-55582299D01*
X136932689Y-55560513D01*
X136858000Y-55553157D01*
X135842000Y-55553157D01*
X135767311Y-55560513D01*
X135695492Y-55582299D01*
X135629304Y-55617678D01*
X135571289Y-55665289D01*
X135523678Y-55723304D01*
X135488299Y-55789492D01*
X135466513Y-55861311D01*
X135459157Y-55936000D01*
X135459157Y-58420000D01*
X134700843Y-58420000D01*
X134700843Y-55936000D01*
X134699000Y-55917287D01*
X134699000Y-55535103D01*
X134734136Y-55419275D01*
X134751300Y-55245001D01*
X134734136Y-55070726D01*
X134683302Y-54903148D01*
X134600751Y-54748709D01*
X134489659Y-54613341D01*
X134354291Y-54502249D01*
X134199852Y-54419698D01*
X134032274Y-54368864D01*
X133857999Y-54351700D01*
X133683725Y-54368864D01*
X133516148Y-54419698D01*
X133361709Y-54502249D01*
X133260260Y-54585506D01*
X133212262Y-54633503D01*
X133178342Y-54661341D01*
X133150507Y-54695258D01*
X133150505Y-54695260D01*
X133067248Y-54796709D01*
X132984698Y-54951148D01*
X132933864Y-55118726D01*
X132916700Y-55293000D01*
X132921001Y-55336670D01*
X132921001Y-55917280D01*
X132919157Y-55936000D01*
X132919157Y-58420000D01*
X132160843Y-58420000D01*
X132160843Y-55936000D01*
X132153487Y-55861311D01*
X132131701Y-55789492D01*
X132096322Y-55723304D01*
X132048711Y-55665289D01*
X131990696Y-55617678D01*
X131924508Y-55582299D01*
X131852689Y-55560513D01*
X131778000Y-55553157D01*
X130762000Y-55553157D01*
X130687311Y-55560513D01*
X130615492Y-55582299D01*
X130549304Y-55617678D01*
X130491289Y-55665289D01*
X130443678Y-55723304D01*
X130408299Y-55789492D01*
X130386513Y-55861311D01*
X130379157Y-55936000D01*
X130379157Y-58420000D01*
X129873000Y-58420000D01*
X129873000Y-57491750D01*
X129714250Y-57333000D01*
X128857000Y-57333000D01*
X128857000Y-57353000D01*
X128603000Y-57353000D01*
X128603000Y-57333000D01*
X127745750Y-57333000D01*
X127587000Y-57491750D01*
X127587000Y-58420000D01*
X127080843Y-58420000D01*
X127080843Y-55936000D01*
X127074684Y-55873458D01*
X127587000Y-55873458D01*
X127587000Y-56920250D01*
X127745750Y-57079000D01*
X128603000Y-57079000D01*
X128603000Y-55459750D01*
X128857000Y-55459750D01*
X128857000Y-57079000D01*
X129714250Y-57079000D01*
X129873000Y-56920250D01*
X129873000Y-55873458D01*
X129848597Y-55750777D01*
X129800730Y-55635215D01*
X129731237Y-55531211D01*
X129642789Y-55442763D01*
X129538785Y-55373270D01*
X129423223Y-55325403D01*
X129300542Y-55301000D01*
X129015750Y-55301000D01*
X128857000Y-55459750D01*
X128603000Y-55459750D01*
X128444250Y-55301000D01*
X128159458Y-55301000D01*
X128036777Y-55325403D01*
X127921215Y-55373270D01*
X127817211Y-55442763D01*
X127728763Y-55531211D01*
X127659270Y-55635215D01*
X127611403Y-55750777D01*
X127587000Y-55873458D01*
X127074684Y-55873458D01*
X127073487Y-55861311D01*
X127051701Y-55789492D01*
X127016322Y-55723304D01*
X126968711Y-55665289D01*
X126910696Y-55617678D01*
X126844508Y-55582299D01*
X126772689Y-55560513D01*
X126698000Y-55553157D01*
X125682000Y-55553157D01*
X125607311Y-55560513D01*
X125535492Y-55582299D01*
X125469304Y-55617678D01*
X125411289Y-55665289D01*
X125363678Y-55723304D01*
X125328299Y-55789492D01*
X125306513Y-55861311D01*
X125299157Y-55936000D01*
X125299157Y-58420000D01*
X124540843Y-58420000D01*
X124540843Y-55936000D01*
X124533487Y-55861311D01*
X124511701Y-55789492D01*
X124476322Y-55723304D01*
X124428711Y-55665289D01*
X124370696Y-55617678D01*
X124304508Y-55582299D01*
X124232689Y-55560513D01*
X124158000Y-55553157D01*
X123142000Y-55553157D01*
X123067311Y-55560513D01*
X122995492Y-55582299D01*
X122929304Y-55617678D01*
X122871289Y-55665289D01*
X122823678Y-55723304D01*
X122788299Y-55789492D01*
X122766513Y-55861311D01*
X122759157Y-55936000D01*
X122759157Y-58420000D01*
X122253000Y-58420000D01*
X122253000Y-57491750D01*
X122094250Y-57333000D01*
X121237000Y-57333000D01*
X121237000Y-57353000D01*
X120983000Y-57353000D01*
X120983000Y-57333000D01*
X120125750Y-57333000D01*
X119967000Y-57491750D01*
X119967000Y-58420000D01*
X119460843Y-58420000D01*
X119460843Y-55936000D01*
X119454684Y-55873458D01*
X119967000Y-55873458D01*
X119967000Y-56920250D01*
X120125750Y-57079000D01*
X120983000Y-57079000D01*
X120983000Y-55459750D01*
X121237000Y-55459750D01*
X121237000Y-57079000D01*
X122094250Y-57079000D01*
X122253000Y-56920250D01*
X122253000Y-55873458D01*
X122228597Y-55750777D01*
X122180730Y-55635215D01*
X122111237Y-55531211D01*
X122022789Y-55442763D01*
X121918785Y-55373270D01*
X121803223Y-55325403D01*
X121680542Y-55301000D01*
X121395750Y-55301000D01*
X121237000Y-55459750D01*
X120983000Y-55459750D01*
X120824250Y-55301000D01*
X120539458Y-55301000D01*
X120416777Y-55325403D01*
X120301215Y-55373270D01*
X120197211Y-55442763D01*
X120108763Y-55531211D01*
X120039270Y-55635215D01*
X119991403Y-55750777D01*
X119967000Y-55873458D01*
X119454684Y-55873458D01*
X119453487Y-55861311D01*
X119431701Y-55789492D01*
X119396322Y-55723304D01*
X119348711Y-55665289D01*
X119290696Y-55617678D01*
X119224508Y-55582299D01*
X119152689Y-55560513D01*
X119078000Y-55553157D01*
X118062000Y-55553157D01*
X117987311Y-55560513D01*
X117915492Y-55582299D01*
X117849304Y-55617678D01*
X117791289Y-55665289D01*
X117743678Y-55723304D01*
X117708299Y-55789492D01*
X117686513Y-55861311D01*
X117679157Y-55936000D01*
X117679157Y-58420000D01*
X116920843Y-58420000D01*
X116920843Y-55936000D01*
X116919000Y-55917287D01*
X116919000Y-55535103D01*
X116954136Y-55419275D01*
X116971300Y-55245001D01*
X116954136Y-55070726D01*
X116903302Y-54903148D01*
X116820751Y-54748709D01*
X116709659Y-54613341D01*
X116574291Y-54502249D01*
X116419852Y-54419698D01*
X116252274Y-54368864D01*
X116077999Y-54351700D01*
X115903725Y-54368864D01*
X115736148Y-54419698D01*
X115581709Y-54502249D01*
X115480260Y-54585506D01*
X115432262Y-54633503D01*
X115398342Y-54661341D01*
X115370507Y-54695258D01*
X115370505Y-54695260D01*
X115287248Y-54796709D01*
X115204698Y-54951148D01*
X115153864Y-55118726D01*
X115136700Y-55293000D01*
X115141001Y-55336670D01*
X115141001Y-55917280D01*
X115139157Y-55936000D01*
X115139157Y-58420000D01*
X114380843Y-58420000D01*
X114380843Y-55936000D01*
X114379000Y-55917287D01*
X114379000Y-55535103D01*
X114414136Y-55419275D01*
X114431300Y-55245001D01*
X114414136Y-55070726D01*
X114363302Y-54903148D01*
X114280751Y-54748709D01*
X114169659Y-54613341D01*
X114034291Y-54502249D01*
X113879852Y-54419698D01*
X113712274Y-54368864D01*
X113537999Y-54351700D01*
X113363725Y-54368864D01*
X113196148Y-54419698D01*
X113041709Y-54502249D01*
X112940260Y-54585506D01*
X112892262Y-54633503D01*
X112858342Y-54661341D01*
X112830507Y-54695258D01*
X112830505Y-54695260D01*
X112747248Y-54796709D01*
X112664698Y-54951148D01*
X112613864Y-55118726D01*
X112596700Y-55293000D01*
X112601001Y-55336670D01*
X112601001Y-55917280D01*
X112599157Y-55936000D01*
X112599157Y-58420000D01*
X112093000Y-58420000D01*
X112093000Y-57491750D01*
X111934250Y-57333000D01*
X111077000Y-57333000D01*
X111077000Y-57353000D01*
X110823000Y-57353000D01*
X110823000Y-57333000D01*
X109965750Y-57333000D01*
X109807000Y-57491750D01*
X109807000Y-58420000D01*
X109300843Y-58420000D01*
X109300843Y-55936000D01*
X109294684Y-55873458D01*
X109807000Y-55873458D01*
X109807000Y-56920250D01*
X109965750Y-57079000D01*
X110823000Y-57079000D01*
X110823000Y-55459750D01*
X111077000Y-55459750D01*
X111077000Y-57079000D01*
X111934250Y-57079000D01*
X112093000Y-56920250D01*
X112093000Y-55873458D01*
X112068597Y-55750777D01*
X112020730Y-55635215D01*
X111951237Y-55531211D01*
X111862789Y-55442763D01*
X111758785Y-55373270D01*
X111643223Y-55325403D01*
X111520542Y-55301000D01*
X111235750Y-55301000D01*
X111077000Y-55459750D01*
X110823000Y-55459750D01*
X110664250Y-55301000D01*
X110379458Y-55301000D01*
X110256777Y-55325403D01*
X110141215Y-55373270D01*
X110037211Y-55442763D01*
X109948763Y-55531211D01*
X109879270Y-55635215D01*
X109831403Y-55750777D01*
X109807000Y-55873458D01*
X109294684Y-55873458D01*
X109293487Y-55861311D01*
X109271701Y-55789492D01*
X109236322Y-55723304D01*
X109188711Y-55665289D01*
X109130696Y-55617678D01*
X109064508Y-55582299D01*
X108992689Y-55560513D01*
X108918000Y-55553157D01*
X107902000Y-55553157D01*
X107827311Y-55560513D01*
X107755492Y-55582299D01*
X107689304Y-55617678D01*
X107631289Y-55665289D01*
X107583678Y-55723304D01*
X107548299Y-55789492D01*
X107526513Y-55861311D01*
X107519157Y-55936000D01*
X107519157Y-58420000D01*
X106760843Y-58420000D01*
X106760843Y-55936000D01*
X106753487Y-55861311D01*
X106731701Y-55789492D01*
X106696322Y-55723304D01*
X106648711Y-55665289D01*
X106590696Y-55617678D01*
X106524508Y-55582299D01*
X106452689Y-55560513D01*
X106378000Y-55553157D01*
X105362000Y-55553157D01*
X105287311Y-55560513D01*
X105215492Y-55582299D01*
X105149304Y-55617678D01*
X105091289Y-55665289D01*
X105043678Y-55723304D01*
X105008299Y-55789492D01*
X104986513Y-55861311D01*
X104979157Y-55936000D01*
X104979157Y-58420000D01*
X104902000Y-58420000D01*
X104877224Y-58422440D01*
X104853399Y-58429667D01*
X104831443Y-58441403D01*
X104812197Y-58457197D01*
X104796403Y-58476443D01*
X104784667Y-58498399D01*
X104777440Y-58522224D01*
X104775000Y-58547000D01*
X104775000Y-61468000D01*
X104777440Y-61492776D01*
X104784667Y-61516601D01*
X104796403Y-61538557D01*
X104812197Y-61557803D01*
X104831443Y-61573597D01*
X104853399Y-61585333D01*
X104877224Y-61592560D01*
X104902000Y-61595000D01*
X104979157Y-61595000D01*
X104979157Y-62436265D01*
X104970476Y-62438898D01*
X104771911Y-62545033D01*
X104641478Y-62652076D01*
X101466482Y-65827073D01*
X101422867Y-65862867D01*
X101280032Y-66036912D01*
X101173897Y-66235478D01*
X101108539Y-66450934D01*
X101092000Y-66618855D01*
X101092000Y-66618861D01*
X101086471Y-66675000D01*
X98008000Y-66675000D01*
X98008000Y-61470542D01*
X98051651Y-61575925D01*
X98415750Y-62120839D01*
X98879161Y-62584250D01*
X99424075Y-62948349D01*
X100029550Y-63199145D01*
X100672319Y-63327000D01*
X101327681Y-63327000D01*
X101970450Y-63199145D01*
X102575925Y-62948349D01*
X103120839Y-62584250D01*
X103584250Y-62120839D01*
X103948349Y-61575925D01*
X104199145Y-60970450D01*
X104327000Y-60327681D01*
X104327000Y-59672319D01*
X104199145Y-59029550D01*
X103948349Y-58424075D01*
X103584250Y-57879161D01*
X103120839Y-57415750D01*
X102575925Y-57051651D01*
X101970450Y-56800855D01*
X101327681Y-56673000D01*
X100672319Y-56673000D01*
X100029550Y-56800855D01*
X99424075Y-57051651D01*
X98879161Y-57415750D01*
X98415750Y-57879161D01*
X98051651Y-58424075D01*
X98008000Y-58529458D01*
X98008000Y-54008000D01*
X159668446Y-54008000D01*
X159523798Y-54152648D01*
G36*
X125480145Y-73493565D02*
G01*
X125496052Y-73512948D01*
X125573405Y-73576429D01*
X125661657Y-73623601D01*
X125757415Y-73652649D01*
X125832053Y-73660000D01*
X125832056Y-73660000D01*
X125857000Y-73662457D01*
X125881944Y-73660000D01*
X126848056Y-73660000D01*
X126873000Y-73662457D01*
X126897944Y-73660000D01*
X126897947Y-73660000D01*
X126972585Y-73652649D01*
X127068343Y-73623601D01*
X127156595Y-73576429D01*
X127233948Y-73512948D01*
X127249855Y-73493565D01*
X127752249Y-72991172D01*
X127835395Y-73074318D01*
X127979690Y-73170732D01*
X128140022Y-73237144D01*
X128310229Y-73271000D01*
X128483771Y-73271000D01*
X128653978Y-73237144D01*
X128814310Y-73170732D01*
X128958605Y-73074318D01*
X129041751Y-72991172D01*
X131068150Y-75017571D01*
X131084052Y-75036948D01*
X131103429Y-75052850D01*
X131108486Y-75057000D01*
X126076446Y-75057000D01*
X125561927Y-74542482D01*
X125526133Y-74498867D01*
X125352089Y-74356032D01*
X125153523Y-74249897D01*
X124938067Y-74184539D01*
X124770146Y-74168000D01*
X124770139Y-74168000D01*
X124714000Y-74162471D01*
X124657861Y-74168000D01*
X119482923Y-74168000D01*
X119556318Y-74094605D01*
X119652732Y-73950310D01*
X119719144Y-73789978D01*
X119753000Y-73619771D01*
X119753000Y-73446229D01*
X119719144Y-73276022D01*
X119652732Y-73115690D01*
X119556318Y-72971395D01*
X119433605Y-72848682D01*
X119317345Y-72771000D01*
X124757580Y-72771000D01*
X125480145Y-73493565D01*
X125480145Y-73493565D01*
G37*
X125480145Y-73493565D02*
X125496052Y-73512948D01*
X125573405Y-73576429D01*
X125661657Y-73623601D01*
X125757415Y-73652649D01*
X125832053Y-73660000D01*
X125832056Y-73660000D01*
X125857000Y-73662457D01*
X125881944Y-73660000D01*
X126848056Y-73660000D01*
X126873000Y-73662457D01*
X126897944Y-73660000D01*
X126897947Y-73660000D01*
X126972585Y-73652649D01*
X127068343Y-73623601D01*
X127156595Y-73576429D01*
X127233948Y-73512948D01*
X127249855Y-73493565D01*
X127752249Y-72991172D01*
X127835395Y-73074318D01*
X127979690Y-73170732D01*
X128140022Y-73237144D01*
X128310229Y-73271000D01*
X128483771Y-73271000D01*
X128653978Y-73237144D01*
X128814310Y-73170732D01*
X128958605Y-73074318D01*
X129041751Y-72991172D01*
X131068150Y-75017571D01*
X131084052Y-75036948D01*
X131103429Y-75052850D01*
X131108486Y-75057000D01*
X126076446Y-75057000D01*
X125561927Y-74542482D01*
X125526133Y-74498867D01*
X125352089Y-74356032D01*
X125153523Y-74249897D01*
X124938067Y-74184539D01*
X124770146Y-74168000D01*
X124770139Y-74168000D01*
X124714000Y-74162471D01*
X124657861Y-74168000D01*
X119482923Y-74168000D01*
X119556318Y-74094605D01*
X119652732Y-73950310D01*
X119719144Y-73789978D01*
X119753000Y-73619771D01*
X119753000Y-73446229D01*
X119719144Y-73276022D01*
X119652732Y-73115690D01*
X119556318Y-72971395D01*
X119433605Y-72848682D01*
X119317345Y-72771000D01*
X124757580Y-72771000D01*
X125480145Y-73493565D01*
G36*
X107519157Y-64064000D02*
G01*
X107521001Y-64082719D01*
X107521000Y-65772340D01*
X107516700Y-65816000D01*
X107521000Y-65859660D01*
X107521000Y-65859666D01*
X107529838Y-65949399D01*
X107533864Y-65990274D01*
X107549852Y-66042978D01*
X107584697Y-66157850D01*
X107667247Y-66312290D01*
X107778341Y-66447659D01*
X107812265Y-66475499D01*
X108202260Y-66865494D01*
X108303709Y-66948751D01*
X108458147Y-67031302D01*
X108625724Y-67082136D01*
X108799999Y-67099300D01*
X108974274Y-67082136D01*
X109141851Y-67031302D01*
X109296291Y-66948751D01*
X109431658Y-66837658D01*
X109542751Y-66702291D01*
X109625302Y-66547851D01*
X109676136Y-66380274D01*
X109693300Y-66205999D01*
X109676136Y-66031724D01*
X109625302Y-65864147D01*
X109542751Y-65709709D01*
X109459494Y-65608260D01*
X109299000Y-65447766D01*
X109299000Y-64082713D01*
X109300843Y-64064000D01*
X109300843Y-61595000D01*
X110059157Y-61595000D01*
X110059157Y-64064000D01*
X110061001Y-64082720D01*
X110061001Y-64607667D01*
X110073865Y-64738274D01*
X110124698Y-64905851D01*
X110207248Y-65060291D01*
X110318342Y-65195659D01*
X110363000Y-65232309D01*
X110363001Y-68623579D01*
X107862435Y-71124145D01*
X107843052Y-71140052D01*
X107779571Y-71217405D01*
X107732399Y-71305658D01*
X107703351Y-71401416D01*
X107696906Y-71466852D01*
X107659690Y-71482268D01*
X107515395Y-71578682D01*
X107392682Y-71701395D01*
X107296268Y-71845690D01*
X107245657Y-71967875D01*
X107237318Y-71955395D01*
X107114605Y-71832682D01*
X106970310Y-71736268D01*
X106809978Y-71669856D01*
X106639771Y-71636000D01*
X106466229Y-71636000D01*
X106296022Y-71669856D01*
X106135690Y-71736268D01*
X105991395Y-71832682D01*
X105926542Y-71897535D01*
X105859351Y-71735322D01*
X105751993Y-71574649D01*
X105615351Y-71438007D01*
X105454678Y-71330649D01*
X105276147Y-71256699D01*
X105086620Y-71219000D01*
X104893380Y-71219000D01*
X104703853Y-71256699D01*
X104525322Y-71330649D01*
X104364649Y-71438007D01*
X104228007Y-71574649D01*
X104120649Y-71735322D01*
X104046699Y-71913853D01*
X104009000Y-72103380D01*
X104009000Y-72296620D01*
X104046699Y-72486147D01*
X104120649Y-72664678D01*
X104228007Y-72825351D01*
X104364649Y-72961993D01*
X104525322Y-73069351D01*
X104703853Y-73143301D01*
X104893380Y-73181000D01*
X105086620Y-73181000D01*
X105276147Y-73143301D01*
X105454678Y-73069351D01*
X105615351Y-72961993D01*
X105734416Y-72842928D01*
X105772268Y-72934310D01*
X105868682Y-73078605D01*
X105991395Y-73201318D01*
X106135690Y-73297732D01*
X106296022Y-73364144D01*
X106466229Y-73398000D01*
X106639771Y-73398000D01*
X106703002Y-73385423D01*
X107485579Y-74168000D01*
X103378000Y-74168000D01*
X103378000Y-67148445D01*
X106079603Y-64446843D01*
X106378000Y-64446843D01*
X106452689Y-64439487D01*
X106524508Y-64417701D01*
X106590696Y-64382322D01*
X106648711Y-64334711D01*
X106696322Y-64276696D01*
X106731701Y-64210508D01*
X106753487Y-64138689D01*
X106760843Y-64064000D01*
X106760843Y-63064948D01*
X106763300Y-63040001D01*
X106760843Y-63015054D01*
X106760843Y-61595000D01*
X107519157Y-61595000D01*
X107519157Y-64064000D01*
X107519157Y-64064000D01*
G37*
X107519157Y-64064000D02*
X107521001Y-64082719D01*
X107521000Y-65772340D01*
X107516700Y-65816000D01*
X107521000Y-65859660D01*
X107521000Y-65859666D01*
X107529838Y-65949399D01*
X107533864Y-65990274D01*
X107549852Y-66042978D01*
X107584697Y-66157850D01*
X107667247Y-66312290D01*
X107778341Y-66447659D01*
X107812265Y-66475499D01*
X108202260Y-66865494D01*
X108303709Y-66948751D01*
X108458147Y-67031302D01*
X108625724Y-67082136D01*
X108799999Y-67099300D01*
X108974274Y-67082136D01*
X109141851Y-67031302D01*
X109296291Y-66948751D01*
X109431658Y-66837658D01*
X109542751Y-66702291D01*
X109625302Y-66547851D01*
X109676136Y-66380274D01*
X109693300Y-66205999D01*
X109676136Y-66031724D01*
X109625302Y-65864147D01*
X109542751Y-65709709D01*
X109459494Y-65608260D01*
X109299000Y-65447766D01*
X109299000Y-64082713D01*
X109300843Y-64064000D01*
X109300843Y-61595000D01*
X110059157Y-61595000D01*
X110059157Y-64064000D01*
X110061001Y-64082720D01*
X110061001Y-64607667D01*
X110073865Y-64738274D01*
X110124698Y-64905851D01*
X110207248Y-65060291D01*
X110318342Y-65195659D01*
X110363000Y-65232309D01*
X110363001Y-68623579D01*
X107862435Y-71124145D01*
X107843052Y-71140052D01*
X107779571Y-71217405D01*
X107732399Y-71305658D01*
X107703351Y-71401416D01*
X107696906Y-71466852D01*
X107659690Y-71482268D01*
X107515395Y-71578682D01*
X107392682Y-71701395D01*
X107296268Y-71845690D01*
X107245657Y-71967875D01*
X107237318Y-71955395D01*
X107114605Y-71832682D01*
X106970310Y-71736268D01*
X106809978Y-71669856D01*
X106639771Y-71636000D01*
X106466229Y-71636000D01*
X106296022Y-71669856D01*
X106135690Y-71736268D01*
X105991395Y-71832682D01*
X105926542Y-71897535D01*
X105859351Y-71735322D01*
X105751993Y-71574649D01*
X105615351Y-71438007D01*
X105454678Y-71330649D01*
X105276147Y-71256699D01*
X105086620Y-71219000D01*
X104893380Y-71219000D01*
X104703853Y-71256699D01*
X104525322Y-71330649D01*
X104364649Y-71438007D01*
X104228007Y-71574649D01*
X104120649Y-71735322D01*
X104046699Y-71913853D01*
X104009000Y-72103380D01*
X104009000Y-72296620D01*
X104046699Y-72486147D01*
X104120649Y-72664678D01*
X104228007Y-72825351D01*
X104364649Y-72961993D01*
X104525322Y-73069351D01*
X104703853Y-73143301D01*
X104893380Y-73181000D01*
X105086620Y-73181000D01*
X105276147Y-73143301D01*
X105454678Y-73069351D01*
X105615351Y-72961993D01*
X105734416Y-72842928D01*
X105772268Y-72934310D01*
X105868682Y-73078605D01*
X105991395Y-73201318D01*
X106135690Y-73297732D01*
X106296022Y-73364144D01*
X106466229Y-73398000D01*
X106639771Y-73398000D01*
X106703002Y-73385423D01*
X107485579Y-74168000D01*
X103378000Y-74168000D01*
X103378000Y-67148445D01*
X106079603Y-64446843D01*
X106378000Y-64446843D01*
X106452689Y-64439487D01*
X106524508Y-64417701D01*
X106590696Y-64382322D01*
X106648711Y-64334711D01*
X106696322Y-64276696D01*
X106731701Y-64210508D01*
X106753487Y-64138689D01*
X106760843Y-64064000D01*
X106760843Y-63064948D01*
X106763300Y-63040001D01*
X106760843Y-63015054D01*
X106760843Y-61595000D01*
X107519157Y-61595000D01*
X107519157Y-64064000D01*
G36*
X155364580Y-72136000D02*
G01*
X146770135Y-72136000D01*
X146734318Y-72082395D01*
X146611605Y-71959682D01*
X146467310Y-71863268D01*
X146306978Y-71796856D01*
X146136771Y-71763000D01*
X145963229Y-71763000D01*
X145793022Y-71796856D01*
X145632690Y-71863268D01*
X145488395Y-71959682D01*
X145365682Y-72082395D01*
X145269268Y-72226690D01*
X145202856Y-72387022D01*
X145169000Y-72557229D01*
X145169000Y-72679579D01*
X145153000Y-72695579D01*
X145153000Y-72557229D01*
X145119144Y-72387022D01*
X145052732Y-72226690D01*
X144956318Y-72082395D01*
X144833605Y-71959682D01*
X144689310Y-71863268D01*
X144528978Y-71796856D01*
X144358771Y-71763000D01*
X144185229Y-71763000D01*
X144015022Y-71796856D01*
X143854690Y-71863268D01*
X143710395Y-71959682D01*
X143587682Y-72082395D01*
X143491268Y-72226690D01*
X143424856Y-72387022D01*
X143391000Y-72557229D01*
X143391000Y-72730771D01*
X143403577Y-72794002D01*
X143352204Y-72845376D01*
X143375000Y-72730771D01*
X143375000Y-72557229D01*
X143341144Y-72387022D01*
X143274732Y-72226690D01*
X143178318Y-72082395D01*
X143055605Y-71959682D01*
X142911310Y-71863268D01*
X142750978Y-71796856D01*
X142580771Y-71763000D01*
X142407229Y-71763000D01*
X142343998Y-71775577D01*
X141727855Y-71159435D01*
X141711948Y-71140052D01*
X141634595Y-71076571D01*
X141546343Y-71029399D01*
X141450585Y-71000351D01*
X141375947Y-70993000D01*
X141375944Y-70993000D01*
X141351000Y-70990543D01*
X141326056Y-70993000D01*
X134830421Y-70993000D01*
X133853855Y-70016435D01*
X133837948Y-69997052D01*
X133760595Y-69933571D01*
X133672343Y-69886399D01*
X133576585Y-69857351D01*
X133501947Y-69850000D01*
X133501944Y-69850000D01*
X133477000Y-69847543D01*
X133452056Y-69850000D01*
X132798420Y-69850000D01*
X132669384Y-69720964D01*
X132690053Y-69723000D01*
X132690056Y-69723000D01*
X132715000Y-69725457D01*
X132739944Y-69723000D01*
X143788077Y-69723000D01*
X143837395Y-69772318D01*
X143981690Y-69868732D01*
X144142022Y-69935144D01*
X144312229Y-69969000D01*
X144485771Y-69969000D01*
X144655978Y-69935144D01*
X144816310Y-69868732D01*
X144960605Y-69772318D01*
X145083318Y-69649605D01*
X145119135Y-69596000D01*
X157328056Y-69596000D01*
X157353000Y-69598457D01*
X157377944Y-69596000D01*
X157377947Y-69596000D01*
X157452585Y-69588649D01*
X157548343Y-69559601D01*
X157636595Y-69512429D01*
X157713948Y-69448948D01*
X157729855Y-69429565D01*
X157837997Y-69321423D01*
X157901229Y-69334000D01*
X158074771Y-69334000D01*
X158189376Y-69311204D01*
X155364580Y-72136000D01*
X155364580Y-72136000D01*
G37*
X155364580Y-72136000D02*
X146770135Y-72136000D01*
X146734318Y-72082395D01*
X146611605Y-71959682D01*
X146467310Y-71863268D01*
X146306978Y-71796856D01*
X146136771Y-71763000D01*
X145963229Y-71763000D01*
X145793022Y-71796856D01*
X145632690Y-71863268D01*
X145488395Y-71959682D01*
X145365682Y-72082395D01*
X145269268Y-72226690D01*
X145202856Y-72387022D01*
X145169000Y-72557229D01*
X145169000Y-72679579D01*
X145153000Y-72695579D01*
X145153000Y-72557229D01*
X145119144Y-72387022D01*
X145052732Y-72226690D01*
X144956318Y-72082395D01*
X144833605Y-71959682D01*
X144689310Y-71863268D01*
X144528978Y-71796856D01*
X144358771Y-71763000D01*
X144185229Y-71763000D01*
X144015022Y-71796856D01*
X143854690Y-71863268D01*
X143710395Y-71959682D01*
X143587682Y-72082395D01*
X143491268Y-72226690D01*
X143424856Y-72387022D01*
X143391000Y-72557229D01*
X143391000Y-72730771D01*
X143403577Y-72794002D01*
X143352204Y-72845376D01*
X143375000Y-72730771D01*
X143375000Y-72557229D01*
X143341144Y-72387022D01*
X143274732Y-72226690D01*
X143178318Y-72082395D01*
X143055605Y-71959682D01*
X142911310Y-71863268D01*
X142750978Y-71796856D01*
X142580771Y-71763000D01*
X142407229Y-71763000D01*
X142343998Y-71775577D01*
X141727855Y-71159435D01*
X141711948Y-71140052D01*
X141634595Y-71076571D01*
X141546343Y-71029399D01*
X141450585Y-71000351D01*
X141375947Y-70993000D01*
X141375944Y-70993000D01*
X141351000Y-70990543D01*
X141326056Y-70993000D01*
X134830421Y-70993000D01*
X133853855Y-70016435D01*
X133837948Y-69997052D01*
X133760595Y-69933571D01*
X133672343Y-69886399D01*
X133576585Y-69857351D01*
X133501947Y-69850000D01*
X133501944Y-69850000D01*
X133477000Y-69847543D01*
X133452056Y-69850000D01*
X132798420Y-69850000D01*
X132669384Y-69720964D01*
X132690053Y-69723000D01*
X132690056Y-69723000D01*
X132715000Y-69725457D01*
X132739944Y-69723000D01*
X143788077Y-69723000D01*
X143837395Y-69772318D01*
X143981690Y-69868732D01*
X144142022Y-69935144D01*
X144312229Y-69969000D01*
X144485771Y-69969000D01*
X144655978Y-69935144D01*
X144816310Y-69868732D01*
X144960605Y-69772318D01*
X145083318Y-69649605D01*
X145119135Y-69596000D01*
X157328056Y-69596000D01*
X157353000Y-69598457D01*
X157377944Y-69596000D01*
X157377947Y-69596000D01*
X157452585Y-69588649D01*
X157548343Y-69559601D01*
X157636595Y-69512429D01*
X157713948Y-69448948D01*
X157729855Y-69429565D01*
X157837997Y-69321423D01*
X157901229Y-69334000D01*
X158074771Y-69334000D01*
X158189376Y-69311204D01*
X155364580Y-72136000D01*
G36*
X112599157Y-64064000D02*
G01*
X112606513Y-64138689D01*
X112628299Y-64210508D01*
X112663678Y-64276696D01*
X112711289Y-64334711D01*
X112769304Y-64382322D01*
X112835492Y-64417701D01*
X112907311Y-64439487D01*
X112982000Y-64446843D01*
X113998000Y-64446843D01*
X114072689Y-64439487D01*
X114144508Y-64417701D01*
X114210696Y-64382322D01*
X114268711Y-64334711D01*
X114316322Y-64276696D01*
X114351701Y-64210508D01*
X114373487Y-64138689D01*
X114380843Y-64064000D01*
X114380843Y-63079750D01*
X114887000Y-63079750D01*
X114887000Y-64126542D01*
X114911403Y-64249223D01*
X114959270Y-64364785D01*
X115028763Y-64468789D01*
X115117211Y-64557237D01*
X115221215Y-64626730D01*
X115336777Y-64674597D01*
X115459458Y-64699000D01*
X115744250Y-64699000D01*
X115903000Y-64540250D01*
X115903000Y-62921000D01*
X116157000Y-62921000D01*
X116157000Y-64540250D01*
X116315750Y-64699000D01*
X116600542Y-64699000D01*
X116723223Y-64674597D01*
X116838785Y-64626730D01*
X116942789Y-64557237D01*
X117031237Y-64468789D01*
X117100730Y-64364785D01*
X117148597Y-64249223D01*
X117173000Y-64126542D01*
X117173000Y-63079750D01*
X117014250Y-62921000D01*
X116157000Y-62921000D01*
X115903000Y-62921000D01*
X115045750Y-62921000D01*
X114887000Y-63079750D01*
X114380843Y-63079750D01*
X114380843Y-61595000D01*
X114887000Y-61595000D01*
X114887000Y-62508250D01*
X115045750Y-62667000D01*
X115903000Y-62667000D01*
X115903000Y-62647000D01*
X116157000Y-62647000D01*
X116157000Y-62667000D01*
X117014250Y-62667000D01*
X117173000Y-62508250D01*
X117173000Y-61595000D01*
X117679157Y-61595000D01*
X117679157Y-64064000D01*
X117686513Y-64138689D01*
X117708299Y-64210508D01*
X117743678Y-64276696D01*
X117791289Y-64334711D01*
X117849304Y-64382322D01*
X117915492Y-64417701D01*
X117987311Y-64439487D01*
X118062000Y-64446843D01*
X119078000Y-64446843D01*
X119152689Y-64439487D01*
X119224508Y-64417701D01*
X119290696Y-64382322D01*
X119348711Y-64334711D01*
X119396322Y-64276696D01*
X119431701Y-64210508D01*
X119453487Y-64138689D01*
X119460843Y-64064000D01*
X119460843Y-61595000D01*
X120219157Y-61595000D01*
X120219157Y-64064000D01*
X120226513Y-64138689D01*
X120248299Y-64210508D01*
X120283678Y-64276696D01*
X120331289Y-64334711D01*
X120389304Y-64382322D01*
X120455492Y-64417701D01*
X120527311Y-64439487D01*
X120602000Y-64446843D01*
X121618000Y-64446843D01*
X121692689Y-64439487D01*
X121764508Y-64417701D01*
X121830696Y-64382322D01*
X121888711Y-64334711D01*
X121936322Y-64276696D01*
X121971701Y-64210508D01*
X121993487Y-64138689D01*
X122000843Y-64064000D01*
X122000843Y-61595000D01*
X122759157Y-61595000D01*
X122759157Y-64064000D01*
X122766513Y-64138689D01*
X122788299Y-64210508D01*
X122823678Y-64276696D01*
X122871289Y-64334711D01*
X122929304Y-64382322D01*
X122995492Y-64417701D01*
X123067311Y-64439487D01*
X123142000Y-64446843D01*
X124158000Y-64446843D01*
X124232689Y-64439487D01*
X124304508Y-64417701D01*
X124331482Y-64403283D01*
X123837765Y-64897000D01*
X123273333Y-64897000D01*
X123142726Y-64909864D01*
X122975149Y-64960697D01*
X122820709Y-65043247D01*
X122685341Y-65154341D01*
X122574247Y-65289709D01*
X122491697Y-65444149D01*
X122440864Y-65611726D01*
X122423699Y-65786000D01*
X122440864Y-65960274D01*
X122491697Y-66127851D01*
X122574247Y-66282291D01*
X122685341Y-66417659D01*
X122689412Y-66421000D01*
X120733420Y-66421000D01*
X120264855Y-65952435D01*
X120248948Y-65933052D01*
X120171595Y-65869571D01*
X120083343Y-65822399D01*
X119987585Y-65793351D01*
X119912947Y-65786000D01*
X119912944Y-65786000D01*
X119888000Y-65783543D01*
X119863056Y-65786000D01*
X118134943Y-65786000D01*
X118109999Y-65783543D01*
X118085055Y-65786000D01*
X118085053Y-65786000D01*
X118010415Y-65793351D01*
X117914657Y-65822399D01*
X117914655Y-65822400D01*
X117826404Y-65869571D01*
X117776480Y-65910543D01*
X117749052Y-65933052D01*
X117733149Y-65952430D01*
X117518580Y-66167000D01*
X116163135Y-66167000D01*
X116127318Y-66113395D01*
X116004605Y-65990682D01*
X115860310Y-65894268D01*
X115699978Y-65827856D01*
X115529771Y-65794000D01*
X115356229Y-65794000D01*
X115186022Y-65827856D01*
X115025690Y-65894268D01*
X114881395Y-65990682D01*
X114758682Y-66113395D01*
X114662268Y-66257690D01*
X114595856Y-66418022D01*
X114562000Y-66588229D01*
X114562000Y-66761771D01*
X114595856Y-66931978D01*
X114662268Y-67092310D01*
X114758682Y-67236605D01*
X114832077Y-67310000D01*
X114383421Y-67310000D01*
X114173000Y-67099580D01*
X114173000Y-66252135D01*
X114226605Y-66216318D01*
X114349318Y-66093605D01*
X114445732Y-65949310D01*
X114512144Y-65788978D01*
X114546000Y-65618771D01*
X114546000Y-65445229D01*
X114512144Y-65275022D01*
X114445732Y-65114690D01*
X114349318Y-64970395D01*
X114226605Y-64847682D01*
X114082310Y-64751268D01*
X113921978Y-64684856D01*
X113751771Y-64651000D01*
X113578229Y-64651000D01*
X113408022Y-64684856D01*
X113247690Y-64751268D01*
X113103395Y-64847682D01*
X112980682Y-64970395D01*
X112884268Y-65114690D01*
X112817856Y-65275022D01*
X112806423Y-65332500D01*
X112702605Y-65228682D01*
X112558310Y-65132268D01*
X112397978Y-65065856D01*
X112227771Y-65032000D01*
X112054229Y-65032000D01*
X111884022Y-65065856D01*
X111723690Y-65132268D01*
X111579395Y-65228682D01*
X111456682Y-65351395D01*
X111379000Y-65467655D01*
X111379000Y-65342721D01*
X111446291Y-65306753D01*
X111581659Y-65195659D01*
X111692753Y-65060291D01*
X111775303Y-64905851D01*
X111826136Y-64738274D01*
X111839000Y-64607667D01*
X111839000Y-64082713D01*
X111840843Y-64064000D01*
X111840843Y-61595000D01*
X112599157Y-61595000D01*
X112599157Y-64064000D01*
X112599157Y-64064000D01*
G37*
X112599157Y-64064000D02*
X112606513Y-64138689D01*
X112628299Y-64210508D01*
X112663678Y-64276696D01*
X112711289Y-64334711D01*
X112769304Y-64382322D01*
X112835492Y-64417701D01*
X112907311Y-64439487D01*
X112982000Y-64446843D01*
X113998000Y-64446843D01*
X114072689Y-64439487D01*
X114144508Y-64417701D01*
X114210696Y-64382322D01*
X114268711Y-64334711D01*
X114316322Y-64276696D01*
X114351701Y-64210508D01*
X114373487Y-64138689D01*
X114380843Y-64064000D01*
X114380843Y-63079750D01*
X114887000Y-63079750D01*
X114887000Y-64126542D01*
X114911403Y-64249223D01*
X114959270Y-64364785D01*
X115028763Y-64468789D01*
X115117211Y-64557237D01*
X115221215Y-64626730D01*
X115336777Y-64674597D01*
X115459458Y-64699000D01*
X115744250Y-64699000D01*
X115903000Y-64540250D01*
X115903000Y-62921000D01*
X116157000Y-62921000D01*
X116157000Y-64540250D01*
X116315750Y-64699000D01*
X116600542Y-64699000D01*
X116723223Y-64674597D01*
X116838785Y-64626730D01*
X116942789Y-64557237D01*
X117031237Y-64468789D01*
X117100730Y-64364785D01*
X117148597Y-64249223D01*
X117173000Y-64126542D01*
X117173000Y-63079750D01*
X117014250Y-62921000D01*
X116157000Y-62921000D01*
X115903000Y-62921000D01*
X115045750Y-62921000D01*
X114887000Y-63079750D01*
X114380843Y-63079750D01*
X114380843Y-61595000D01*
X114887000Y-61595000D01*
X114887000Y-62508250D01*
X115045750Y-62667000D01*
X115903000Y-62667000D01*
X115903000Y-62647000D01*
X116157000Y-62647000D01*
X116157000Y-62667000D01*
X117014250Y-62667000D01*
X117173000Y-62508250D01*
X117173000Y-61595000D01*
X117679157Y-61595000D01*
X117679157Y-64064000D01*
X117686513Y-64138689D01*
X117708299Y-64210508D01*
X117743678Y-64276696D01*
X117791289Y-64334711D01*
X117849304Y-64382322D01*
X117915492Y-64417701D01*
X117987311Y-64439487D01*
X118062000Y-64446843D01*
X119078000Y-64446843D01*
X119152689Y-64439487D01*
X119224508Y-64417701D01*
X119290696Y-64382322D01*
X119348711Y-64334711D01*
X119396322Y-64276696D01*
X119431701Y-64210508D01*
X119453487Y-64138689D01*
X119460843Y-64064000D01*
X119460843Y-61595000D01*
X120219157Y-61595000D01*
X120219157Y-64064000D01*
X120226513Y-64138689D01*
X120248299Y-64210508D01*
X120283678Y-64276696D01*
X120331289Y-64334711D01*
X120389304Y-64382322D01*
X120455492Y-64417701D01*
X120527311Y-64439487D01*
X120602000Y-64446843D01*
X121618000Y-64446843D01*
X121692689Y-64439487D01*
X121764508Y-64417701D01*
X121830696Y-64382322D01*
X121888711Y-64334711D01*
X121936322Y-64276696D01*
X121971701Y-64210508D01*
X121993487Y-64138689D01*
X122000843Y-64064000D01*
X122000843Y-61595000D01*
X122759157Y-61595000D01*
X122759157Y-64064000D01*
X122766513Y-64138689D01*
X122788299Y-64210508D01*
X122823678Y-64276696D01*
X122871289Y-64334711D01*
X122929304Y-64382322D01*
X122995492Y-64417701D01*
X123067311Y-64439487D01*
X123142000Y-64446843D01*
X124158000Y-64446843D01*
X124232689Y-64439487D01*
X124304508Y-64417701D01*
X124331482Y-64403283D01*
X123837765Y-64897000D01*
X123273333Y-64897000D01*
X123142726Y-64909864D01*
X122975149Y-64960697D01*
X122820709Y-65043247D01*
X122685341Y-65154341D01*
X122574247Y-65289709D01*
X122491697Y-65444149D01*
X122440864Y-65611726D01*
X122423699Y-65786000D01*
X122440864Y-65960274D01*
X122491697Y-66127851D01*
X122574247Y-66282291D01*
X122685341Y-66417659D01*
X122689412Y-66421000D01*
X120733420Y-66421000D01*
X120264855Y-65952435D01*
X120248948Y-65933052D01*
X120171595Y-65869571D01*
X120083343Y-65822399D01*
X119987585Y-65793351D01*
X119912947Y-65786000D01*
X119912944Y-65786000D01*
X119888000Y-65783543D01*
X119863056Y-65786000D01*
X118134943Y-65786000D01*
X118109999Y-65783543D01*
X118085055Y-65786000D01*
X118085053Y-65786000D01*
X118010415Y-65793351D01*
X117914657Y-65822399D01*
X117914655Y-65822400D01*
X117826404Y-65869571D01*
X117776480Y-65910543D01*
X117749052Y-65933052D01*
X117733149Y-65952430D01*
X117518580Y-66167000D01*
X116163135Y-66167000D01*
X116127318Y-66113395D01*
X116004605Y-65990682D01*
X115860310Y-65894268D01*
X115699978Y-65827856D01*
X115529771Y-65794000D01*
X115356229Y-65794000D01*
X115186022Y-65827856D01*
X115025690Y-65894268D01*
X114881395Y-65990682D01*
X114758682Y-66113395D01*
X114662268Y-66257690D01*
X114595856Y-66418022D01*
X114562000Y-66588229D01*
X114562000Y-66761771D01*
X114595856Y-66931978D01*
X114662268Y-67092310D01*
X114758682Y-67236605D01*
X114832077Y-67310000D01*
X114383421Y-67310000D01*
X114173000Y-67099580D01*
X114173000Y-66252135D01*
X114226605Y-66216318D01*
X114349318Y-66093605D01*
X114445732Y-65949310D01*
X114512144Y-65788978D01*
X114546000Y-65618771D01*
X114546000Y-65445229D01*
X114512144Y-65275022D01*
X114445732Y-65114690D01*
X114349318Y-64970395D01*
X114226605Y-64847682D01*
X114082310Y-64751268D01*
X113921978Y-64684856D01*
X113751771Y-64651000D01*
X113578229Y-64651000D01*
X113408022Y-64684856D01*
X113247690Y-64751268D01*
X113103395Y-64847682D01*
X112980682Y-64970395D01*
X112884268Y-65114690D01*
X112817856Y-65275022D01*
X112806423Y-65332500D01*
X112702605Y-65228682D01*
X112558310Y-65132268D01*
X112397978Y-65065856D01*
X112227771Y-65032000D01*
X112054229Y-65032000D01*
X111884022Y-65065856D01*
X111723690Y-65132268D01*
X111579395Y-65228682D01*
X111456682Y-65351395D01*
X111379000Y-65467655D01*
X111379000Y-65342721D01*
X111446291Y-65306753D01*
X111581659Y-65195659D01*
X111692753Y-65060291D01*
X111775303Y-64905851D01*
X111826136Y-64738274D01*
X111839000Y-64607667D01*
X111839000Y-64082713D01*
X111840843Y-64064000D01*
X111840843Y-61595000D01*
X112599157Y-61595000D01*
X112599157Y-64064000D01*
M02*
