G04 #@! TF.GenerationSoftware,KiCad,Pcbnew,5.1.0-rc2-unknown-036be7d~80~ubuntu16.04.1*
G04 #@! TF.CreationDate,2023-05-24T11:50:46+03:00*
G04 #@! TF.ProjectId,RPI-UEXT-MPQ_Rev_A,5250492d-5545-4585-942d-4d50515f5265,A*
G04 #@! TF.SameCoordinates,Original*
G04 #@! TF.FileFunction,Legend,Top*
G04 #@! TF.FilePolarity,Positive*
%FSLAX46Y46*%
G04 Gerber Fmt 4.6, Leading zero omitted, Abs format (unit mm)*
G04 Created by KiCad (PCBNEW 5.1.0-rc2-unknown-036be7d~80~ubuntu16.04.1) date 2023-05-24 11:50:46*
%MOMM*%
%LPD*%
G04 APERTURE LIST*
%ADD10C,0.254000*%
%ADD11C,0.317500*%
%ADD12C,0.370000*%
%ADD13C,1.000000*%
%ADD14C,0.150000*%
%ADD15C,0.380000*%
%ADD16C,0.400000*%
%ADD17C,0.420000*%
%ADD18C,0.100000*%
%ADD19C,0.700000*%
%ADD20C,0.500000*%
%ADD21C,0.180000*%
%ADD22C,0.190500*%
G04 APERTURE END LIST*
D10*
X101382285Y-78056619D02*
X100801714Y-78056619D01*
X101092000Y-78056619D02*
X101092000Y-77040619D01*
X100995238Y-77185761D01*
X100898476Y-77282523D01*
X100801714Y-77330904D01*
X113048142Y-60536666D02*
X112999761Y-60488285D01*
X112903000Y-60343142D01*
X112854619Y-60246380D01*
X112806238Y-60101238D01*
X112757857Y-59859333D01*
X112757857Y-59665809D01*
X112806238Y-59423904D01*
X112854619Y-59278761D01*
X112903000Y-59182000D01*
X112999761Y-59036857D01*
X113048142Y-58988476D01*
X113870619Y-60101238D02*
X113773857Y-60149619D01*
X113580333Y-60149619D01*
X113483571Y-60101238D01*
X113435190Y-60052857D01*
X113386809Y-59956095D01*
X113386809Y-59665809D01*
X113435190Y-59569047D01*
X113483571Y-59520666D01*
X113580333Y-59472285D01*
X113773857Y-59472285D01*
X113870619Y-59520666D01*
X114209285Y-60536666D02*
X114257666Y-60488285D01*
X114354428Y-60343142D01*
X114402809Y-60246380D01*
X114451190Y-60101238D01*
X114499571Y-59859333D01*
X114499571Y-59665809D01*
X114451190Y-59423904D01*
X114402809Y-59278761D01*
X114354428Y-59182000D01*
X114257666Y-59036857D01*
X114209285Y-58988476D01*
X115709095Y-59230380D02*
X115757476Y-59182000D01*
X115854238Y-59133619D01*
X116096142Y-59133619D01*
X116192904Y-59182000D01*
X116241285Y-59230380D01*
X116289666Y-59327142D01*
X116289666Y-59423904D01*
X116241285Y-59569047D01*
X115660714Y-60149619D01*
X116289666Y-60149619D01*
X116918619Y-59133619D02*
X117015380Y-59133619D01*
X117112142Y-59182000D01*
X117160523Y-59230380D01*
X117208904Y-59327142D01*
X117257285Y-59520666D01*
X117257285Y-59762571D01*
X117208904Y-59956095D01*
X117160523Y-60052857D01*
X117112142Y-60101238D01*
X117015380Y-60149619D01*
X116918619Y-60149619D01*
X116821857Y-60101238D01*
X116773476Y-60052857D01*
X116725095Y-59956095D01*
X116676714Y-59762571D01*
X116676714Y-59520666D01*
X116725095Y-59327142D01*
X116773476Y-59230380D01*
X116821857Y-59182000D01*
X116918619Y-59133619D01*
X117644333Y-59230380D02*
X117692714Y-59182000D01*
X117789476Y-59133619D01*
X118031380Y-59133619D01*
X118128142Y-59182000D01*
X118176523Y-59230380D01*
X118224904Y-59327142D01*
X118224904Y-59423904D01*
X118176523Y-59569047D01*
X117595952Y-60149619D01*
X118224904Y-60149619D01*
X118563571Y-59133619D02*
X119192523Y-59133619D01*
X118853857Y-59520666D01*
X118999000Y-59520666D01*
X119095761Y-59569047D01*
X119144142Y-59617428D01*
X119192523Y-59714190D01*
X119192523Y-59956095D01*
X119144142Y-60052857D01*
X119095761Y-60101238D01*
X118999000Y-60149619D01*
X118708714Y-60149619D01*
X118611952Y-60101238D01*
X118563571Y-60052857D01*
D11*
X139058952Y-62084857D02*
X139300857Y-62931523D01*
X139542761Y-62326761D01*
X139784666Y-62931523D01*
X140026571Y-62084857D01*
X140389428Y-62084857D02*
X140631333Y-62931523D01*
X140873238Y-62326761D01*
X141115142Y-62931523D01*
X141357047Y-62084857D01*
X141719904Y-62084857D02*
X141961809Y-62931523D01*
X142203714Y-62326761D01*
X142445619Y-62931523D01*
X142687523Y-62084857D01*
X143171333Y-62810571D02*
X143231809Y-62871047D01*
X143171333Y-62931523D01*
X143110857Y-62871047D01*
X143171333Y-62810571D01*
X143171333Y-62931523D01*
X143957523Y-62931523D02*
X143836571Y-62871047D01*
X143776095Y-62810571D01*
X143715619Y-62689619D01*
X143715619Y-62326761D01*
X143776095Y-62205809D01*
X143836571Y-62145333D01*
X143957523Y-62084857D01*
X144138952Y-62084857D01*
X144259904Y-62145333D01*
X144320380Y-62205809D01*
X144380857Y-62326761D01*
X144380857Y-62689619D01*
X144320380Y-62810571D01*
X144259904Y-62871047D01*
X144138952Y-62931523D01*
X143957523Y-62931523D01*
X145106571Y-62931523D02*
X144985619Y-62871047D01*
X144925142Y-62750095D01*
X144925142Y-61661523D01*
X145590380Y-62931523D02*
X145590380Y-62084857D01*
X145590380Y-61661523D02*
X145529904Y-61722000D01*
X145590380Y-61782476D01*
X145650857Y-61722000D01*
X145590380Y-61661523D01*
X145590380Y-61782476D01*
X146195142Y-62931523D02*
X146195142Y-62084857D01*
X146195142Y-62205809D02*
X146255619Y-62145333D01*
X146376571Y-62084857D01*
X146558000Y-62084857D01*
X146678952Y-62145333D01*
X146739428Y-62266285D01*
X146739428Y-62931523D01*
X146739428Y-62266285D02*
X146799904Y-62145333D01*
X146920857Y-62084857D01*
X147102285Y-62084857D01*
X147223238Y-62145333D01*
X147283714Y-62266285D01*
X147283714Y-62931523D01*
X148372285Y-62871047D02*
X148251333Y-62931523D01*
X148009428Y-62931523D01*
X147888476Y-62871047D01*
X147828000Y-62750095D01*
X147828000Y-62266285D01*
X147888476Y-62145333D01*
X148009428Y-62084857D01*
X148251333Y-62084857D01*
X148372285Y-62145333D01*
X148432761Y-62266285D01*
X148432761Y-62387238D01*
X147828000Y-62508190D01*
X148856095Y-62931523D02*
X149521333Y-62084857D01*
X148856095Y-62084857D02*
X149521333Y-62931523D01*
X150005142Y-62810571D02*
X150065619Y-62871047D01*
X150005142Y-62931523D01*
X149944666Y-62871047D01*
X150005142Y-62810571D01*
X150005142Y-62931523D01*
X151154190Y-62871047D02*
X151033238Y-62931523D01*
X150791333Y-62931523D01*
X150670380Y-62871047D01*
X150609904Y-62810571D01*
X150549428Y-62689619D01*
X150549428Y-62326761D01*
X150609904Y-62205809D01*
X150670380Y-62145333D01*
X150791333Y-62084857D01*
X151033238Y-62084857D01*
X151154190Y-62145333D01*
X151879904Y-62931523D02*
X151758952Y-62871047D01*
X151698476Y-62810571D01*
X151638000Y-62689619D01*
X151638000Y-62326761D01*
X151698476Y-62205809D01*
X151758952Y-62145333D01*
X151879904Y-62084857D01*
X152061333Y-62084857D01*
X152182285Y-62145333D01*
X152242761Y-62205809D01*
X152303238Y-62326761D01*
X152303238Y-62689619D01*
X152242761Y-62810571D01*
X152182285Y-62871047D01*
X152061333Y-62931523D01*
X151879904Y-62931523D01*
X152847523Y-62931523D02*
X152847523Y-62084857D01*
X152847523Y-62205809D02*
X152908000Y-62145333D01*
X153028952Y-62084857D01*
X153210380Y-62084857D01*
X153331333Y-62145333D01*
X153391809Y-62266285D01*
X153391809Y-62931523D01*
X153391809Y-62266285D02*
X153452285Y-62145333D01*
X153573238Y-62084857D01*
X153754666Y-62084857D01*
X153875619Y-62145333D01*
X153936095Y-62266285D01*
X153936095Y-62931523D01*
D10*
X105234619Y-60149619D02*
X104895952Y-59665809D01*
X104654047Y-60149619D02*
X104654047Y-59133619D01*
X105041095Y-59133619D01*
X105137857Y-59182000D01*
X105186238Y-59230380D01*
X105234619Y-59327142D01*
X105234619Y-59472285D01*
X105186238Y-59569047D01*
X105137857Y-59617428D01*
X105041095Y-59665809D01*
X104654047Y-59665809D01*
X106057095Y-60101238D02*
X105960333Y-60149619D01*
X105766809Y-60149619D01*
X105670047Y-60101238D01*
X105621666Y-60004476D01*
X105621666Y-59617428D01*
X105670047Y-59520666D01*
X105766809Y-59472285D01*
X105960333Y-59472285D01*
X106057095Y-59520666D01*
X106105476Y-59617428D01*
X106105476Y-59714190D01*
X105621666Y-59810952D01*
X106444142Y-59472285D02*
X106686047Y-60149619D01*
X106927952Y-59472285D01*
X107315000Y-60052857D02*
X107363380Y-60101238D01*
X107315000Y-60149619D01*
X107266619Y-60101238D01*
X107315000Y-60052857D01*
X107315000Y-60149619D01*
X108524523Y-59859333D02*
X109008333Y-59859333D01*
X108427761Y-60149619D02*
X108766428Y-59133619D01*
X109105095Y-60149619D01*
D11*
X105416047Y-57597523D02*
X104992714Y-56992761D01*
X104690333Y-57597523D02*
X104690333Y-56327523D01*
X105174142Y-56327523D01*
X105295095Y-56388000D01*
X105355571Y-56448476D01*
X105416047Y-56569428D01*
X105416047Y-56750857D01*
X105355571Y-56871809D01*
X105295095Y-56932285D01*
X105174142Y-56992761D01*
X104690333Y-56992761D01*
X105960333Y-57597523D02*
X105960333Y-56327523D01*
X106444142Y-56327523D01*
X106565095Y-56388000D01*
X106625571Y-56448476D01*
X106686047Y-56569428D01*
X106686047Y-56750857D01*
X106625571Y-56871809D01*
X106565095Y-56932285D01*
X106444142Y-56992761D01*
X105960333Y-56992761D01*
X107230333Y-57597523D02*
X107230333Y-56327523D01*
X107835095Y-57113714D02*
X108802714Y-57113714D01*
X109407476Y-56327523D02*
X109407476Y-57355619D01*
X109467952Y-57476571D01*
X109528428Y-57537047D01*
X109649380Y-57597523D01*
X109891285Y-57597523D01*
X110012238Y-57537047D01*
X110072714Y-57476571D01*
X110133190Y-57355619D01*
X110133190Y-56327523D01*
X110737952Y-56932285D02*
X111161285Y-56932285D01*
X111342714Y-57597523D02*
X110737952Y-57597523D01*
X110737952Y-56327523D01*
X111342714Y-56327523D01*
X111766047Y-56327523D02*
X112612714Y-57597523D01*
X112612714Y-56327523D02*
X111766047Y-57597523D01*
X112915095Y-56327523D02*
X113640809Y-56327523D01*
X113277952Y-57597523D02*
X113277952Y-56327523D01*
X114064142Y-57113714D02*
X115031761Y-57113714D01*
X115636523Y-57597523D02*
X115636523Y-56327523D01*
X116059857Y-57234666D01*
X116483190Y-56327523D01*
X116483190Y-57597523D01*
X117087952Y-57597523D02*
X117087952Y-56327523D01*
X117571761Y-56327523D01*
X117692714Y-56388000D01*
X117753190Y-56448476D01*
X117813666Y-56569428D01*
X117813666Y-56750857D01*
X117753190Y-56871809D01*
X117692714Y-56932285D01*
X117571761Y-56992761D01*
X117087952Y-56992761D01*
X119204619Y-57718476D02*
X119083666Y-57658000D01*
X118962714Y-57537047D01*
X118781285Y-57355619D01*
X118660333Y-57295142D01*
X118539380Y-57295142D01*
X118599857Y-57597523D02*
X118478904Y-57537047D01*
X118357952Y-57416095D01*
X118297476Y-57174190D01*
X118297476Y-56750857D01*
X118357952Y-56508952D01*
X118478904Y-56388000D01*
X118599857Y-56327523D01*
X118841761Y-56327523D01*
X118962714Y-56388000D01*
X119083666Y-56508952D01*
X119144142Y-56750857D01*
X119144142Y-57174190D01*
X119083666Y-57416095D01*
X118962714Y-57537047D01*
X118841761Y-57597523D01*
X118599857Y-57597523D01*
D12*
X130589020Y-59690000D02*
G75*
G03X130959860Y-57825640I-746760J1117600D01*
G01*
X130970020Y-57840880D02*
G75*
G03X129044700Y-57642760I-1061720J-863600D01*
G01*
X129019300Y-57668160D02*
G75*
G03X129095500Y-59522360I965200J-889000D01*
G01*
D13*
X131084320Y-59740800D02*
X131417060Y-60472320D01*
X131084320Y-59832240D02*
X132265420Y-60845700D01*
X131198620Y-59695080D02*
X131815840Y-60022740D01*
X131518660Y-59275980D02*
X132128260Y-59382660D01*
X132354320Y-58117740D02*
X131632960Y-58265060D01*
X132113020Y-57424320D02*
X131457700Y-57790080D01*
X131244340Y-56555640D02*
X130825240Y-57142380D01*
X130657600Y-56304180D02*
X130436620Y-56989980D01*
X129392680Y-56288940D02*
X129560320Y-56898540D01*
X128958340Y-56548020D02*
X129133600Y-56906160D01*
X127960120Y-57325260D02*
X128417320Y-57614820D01*
X127784860Y-57805320D02*
X128226820Y-57965340D01*
X127459740Y-59049920D02*
X128165860Y-58922920D01*
X127708660Y-59695080D02*
X128272540Y-59215020D01*
X128374140Y-60594240D02*
X128739900Y-59832240D01*
X133164580Y-58541920D02*
X131696460Y-58628280D01*
X132173980Y-56357520D02*
X131061460Y-57424320D01*
X129908300Y-55300880D02*
X129913380Y-56814720D01*
X127647700Y-56276240D02*
X128709420Y-57383680D01*
X126662180Y-58562240D02*
X128079500Y-58501280D01*
X127698500Y-60766960D02*
X128551940Y-59745880D01*
D14*
X128714500Y-59336940D02*
X129021840Y-59603640D01*
X128384300Y-56423560D02*
X129367280Y-55930800D01*
X130563620Y-59928760D02*
X130441700Y-59644280D01*
X130700780Y-59474100D02*
X130446780Y-59639200D01*
X129199640Y-59471560D02*
X129425700Y-59646820D01*
X128831340Y-59357260D02*
X129090420Y-59695080D01*
X128607820Y-59136280D02*
X128701800Y-59306460D01*
X128607820Y-59136280D02*
X128701800Y-59306460D01*
X128470660Y-58282840D02*
X128602740Y-59105800D01*
X128894840Y-57546240D02*
X128475740Y-58277760D01*
X129766060Y-57116980D02*
X128894840Y-57546240D01*
X130581400Y-57284620D02*
X129766060Y-57124600D01*
X131091940Y-57713880D02*
X130581400Y-57284620D01*
X131325620Y-58386980D02*
X131091940Y-57713880D01*
X131320540Y-58892440D02*
X131320540Y-58374280D01*
X130944620Y-59603640D02*
X131320540Y-58892440D01*
X130766820Y-59725560D02*
X130944620Y-59603640D01*
X127495300Y-55704740D02*
X128379220Y-56426100D01*
X127739140Y-57058560D02*
X127137160Y-56149240D01*
X127734060Y-57053480D02*
X127347980Y-58051700D01*
X126204980Y-58320940D02*
X127320040Y-58074560D01*
X126347220Y-58265060D02*
X126347220Y-58915300D01*
X130723640Y-59667140D02*
X131251960Y-61048900D01*
X131114800Y-61346080D02*
X130728720Y-60365640D01*
X131643120Y-61018420D02*
X131114800Y-61346080D01*
X132326380Y-61351160D02*
X131505960Y-60822840D01*
X131462780Y-61046360D02*
X132339080Y-61666120D01*
X132349240Y-61661040D02*
X133032500Y-60970160D01*
X132745480Y-60886340D02*
X132260340Y-61417200D01*
X132778500Y-59250580D02*
X132397500Y-60231020D01*
X132674360Y-59283600D02*
X133797040Y-59072780D01*
X133812280Y-58094880D02*
X133809740Y-59052460D01*
X133728460Y-58836560D02*
X132621020Y-59060080D01*
X132425440Y-57066180D02*
X132791200Y-57934860D01*
X133040120Y-56184800D02*
X132336540Y-57175400D01*
X132341620Y-55486300D02*
X133035040Y-56177180D01*
X131325620Y-56161940D02*
X132336540Y-55488840D01*
X130639820Y-55775860D02*
X131445000Y-56113680D01*
X130423920Y-54686200D02*
X130649980Y-55857140D01*
X129458720Y-54686200D02*
X130423920Y-54686200D01*
X129448560Y-54693820D02*
X129247900Y-55719980D01*
X128460500Y-56088280D02*
X129364740Y-55709820D01*
X127525780Y-55440580D02*
X128496060Y-56156860D01*
X126839980Y-56156860D02*
X127513080Y-55443120D01*
X126860300Y-56192420D02*
X127454660Y-57045860D01*
X127121920Y-57876440D02*
X127457200Y-57043320D01*
X126052580Y-58074560D02*
X127223520Y-57871360D01*
X126055120Y-58077100D02*
X126055120Y-59062620D01*
X126055120Y-59070240D02*
X127127000Y-59265820D01*
X126817120Y-60977780D02*
X127414020Y-60114180D01*
X127546100Y-61673740D02*
X126824740Y-60980320D01*
X128379220Y-61102240D02*
X127553720Y-61666120D01*
X128391920Y-61112400D02*
X128737360Y-61333380D01*
X128775460Y-61315600D02*
X129425700Y-59646820D01*
D12*
X132341620Y-61506100D02*
X132895340Y-60960000D01*
X132275580Y-60065920D02*
X132895340Y-60952380D01*
X131152900Y-61132720D02*
X130578860Y-59692540D01*
X131490720Y-60947300D02*
X131152900Y-61132720D01*
X132326380Y-61513720D02*
X131490720Y-60947300D01*
X132681980Y-59154060D02*
X132275580Y-60065920D01*
X133695440Y-58983880D02*
X132681980Y-59154060D01*
X133695440Y-58148220D02*
X133695440Y-58983880D01*
X132613400Y-57919620D02*
X133695440Y-58148220D01*
X132273040Y-56982360D02*
X132613400Y-57919620D01*
X132890260Y-56192420D02*
X132273040Y-56982360D01*
X132336540Y-55643780D02*
X132890260Y-56189880D01*
X131432300Y-56276240D02*
X132336540Y-55641800D01*
X130517900Y-55831740D02*
X131419600Y-56281320D01*
X130304540Y-54813200D02*
X130517900Y-55831740D01*
X129537460Y-54792880D02*
X130322320Y-54792880D01*
X129545080Y-54805580D02*
X129339340Y-55819040D01*
X128440180Y-56245760D02*
X129286000Y-55839360D01*
X127551180Y-55603140D02*
X128379220Y-56255920D01*
D15*
X127002540Y-56161940D02*
X127502920Y-55628540D01*
D12*
X127012700Y-56184800D02*
X127568960Y-57035700D01*
X127241300Y-57952640D02*
X127589280Y-57086500D01*
X126192280Y-58168540D02*
X127210820Y-57988200D01*
D15*
X126204980Y-58181240D02*
X126199900Y-58968640D01*
D12*
X126194820Y-58958480D02*
X127144780Y-59176920D01*
X127172720Y-59199780D02*
X127530860Y-60083700D01*
X126997460Y-60960000D02*
X127530860Y-60126880D01*
D15*
X126982220Y-60960000D02*
X127546100Y-61498480D01*
D16*
X127558800Y-61498480D02*
X128338580Y-60967620D01*
D12*
X128348740Y-60949840D02*
X128666240Y-61155580D01*
D17*
X128694180Y-61135260D02*
X129245360Y-59712860D01*
D18*
X150101300Y-56337200D02*
X151472900Y-56337200D01*
X151472900Y-56337200D02*
X151523700Y-56337200D01*
X151523700Y-56337200D02*
X152781000Y-57581800D01*
X148577300Y-56451500D02*
X148678900Y-56451500D01*
X148729700Y-56388000D02*
X148729700Y-56375300D01*
X148729700Y-56375300D02*
X147434300Y-56375300D01*
X147434300Y-56375300D02*
X147408900Y-56375300D01*
X147408900Y-56375300D02*
X146786600Y-56870600D01*
X148729700Y-59397900D02*
X148729700Y-56388000D01*
X145072100Y-56438800D02*
X144995900Y-56438800D01*
X144919700Y-56375300D02*
X146164300Y-56375300D01*
X146164300Y-56375300D02*
X146748500Y-56857900D01*
X144919700Y-59372500D02*
X144919700Y-56388000D01*
X144183100Y-58966100D02*
X144272000Y-58966100D01*
X143840200Y-58966100D02*
X143776700Y-58966100D01*
X143700500Y-59029600D02*
X144310100Y-59029600D01*
X144310100Y-59029600D02*
X144335500Y-59029600D01*
X144335500Y-59029600D02*
X144335500Y-57010300D01*
X143700500Y-57010300D02*
X143700500Y-59029600D01*
X142201900Y-56400700D02*
X142316200Y-56400700D01*
X142074900Y-56324500D02*
X142379700Y-56324500D01*
X142379700Y-56324500D02*
X142379700Y-59359800D01*
X141897100Y-56413400D02*
X141833600Y-56400700D01*
X141782800Y-56324500D02*
X141770100Y-56324500D01*
X141770100Y-56324500D02*
X141757400Y-56324500D01*
X141757400Y-56324500D02*
X141757400Y-59474100D01*
X142062200Y-56324500D02*
X141782800Y-56324500D01*
D19*
X142062200Y-59397900D02*
X142062200Y-56667400D01*
X148399500Y-56680100D02*
X148399500Y-59283600D01*
X140284200Y-56667400D02*
X139280900Y-56667400D01*
X140906500Y-57277000D02*
X140906500Y-59207400D01*
X138684000Y-57315100D02*
X138684000Y-57556400D01*
X138684000Y-59283600D02*
X139268200Y-59855100D01*
X138696700Y-59296300D02*
X138696700Y-58534300D01*
X139255500Y-59855100D02*
X140296900Y-59855100D01*
D16*
X151743659Y-58242200D02*
G75*
G03X151743659Y-58242200I-359659J0D01*
G01*
D19*
X150876000Y-58242200D02*
X149656800Y-58242200D01*
D16*
X154677135Y-56502300D02*
G75*
G03X154677135Y-56502300I-359435J0D01*
G01*
D19*
X153949400Y-56857900D02*
X153085800Y-57751600D01*
D20*
X152527000Y-57848500D02*
X153085800Y-57848500D01*
D19*
X151409400Y-56667400D02*
X152501600Y-57734200D01*
X150187500Y-56667400D02*
X151409400Y-56667400D01*
X149656800Y-57150000D02*
X150139400Y-56642000D01*
X149656800Y-57175400D02*
X149656800Y-59410600D01*
X149656800Y-59410600D02*
X150088600Y-59842400D01*
X150088600Y-59842400D02*
X151409400Y-59842400D01*
X151409400Y-59842400D02*
X152552400Y-58724800D01*
D20*
X152552400Y-58623200D02*
X153085800Y-58623200D01*
D19*
X153898600Y-59537600D02*
X153060400Y-58724800D01*
D16*
X154558266Y-59893200D02*
G75*
G03X154558266Y-59893200I-329466J0D01*
G01*
X148762729Y-59804300D02*
G75*
G03X148762729Y-59804300I-363229J0D01*
G01*
D19*
X147497800Y-56692800D02*
X148386800Y-56692800D01*
D16*
X147157518Y-58521600D02*
G75*
G03X147157518Y-58521600I-370918J0D01*
G01*
D19*
X146862800Y-57200800D02*
X147497800Y-56692800D01*
X146786600Y-57988200D02*
X146786600Y-57277000D01*
X146075400Y-56692800D02*
X146685000Y-57200800D01*
X145237200Y-56692800D02*
X146075400Y-56692800D01*
X145237200Y-59283600D02*
X145237200Y-56692800D01*
D16*
X145609559Y-59791600D02*
G75*
G03X145609559Y-59791600I-359659J0D01*
G01*
X144404218Y-56591200D02*
G75*
G03X144404218Y-56591200I-373518J0D01*
G01*
D19*
X144018000Y-57124600D02*
X144018000Y-58724800D01*
D16*
X144384324Y-59817000D02*
G75*
G03X144384324Y-59817000I-366324J0D01*
G01*
D19*
X143505200Y-59842400D02*
X142519400Y-59842400D01*
X142519400Y-59842400D02*
X142062200Y-59385200D01*
X140893800Y-59245500D02*
X140335000Y-59829700D01*
X140284200Y-56680100D02*
X140919200Y-57289700D01*
X138684000Y-57264300D02*
X139192000Y-56756300D01*
D16*
X139034147Y-58039000D02*
G75*
G03X139034147Y-58039000I-337447J0D01*
G01*
D10*
X155860000Y-74785000D02*
X159800000Y-74785000D01*
X149699000Y-74000000D02*
X140301000Y-74000000D01*
G36*
X149699000Y-74000000D02*
G01*
X149699000Y-71946000D01*
X140301000Y-71946000D01*
X140301000Y-74000000D01*
X149699000Y-74000000D01*
G37*
X149699000Y-74000000D02*
X149699000Y-71946000D01*
X140301000Y-71946000D01*
X140301000Y-74000000D01*
X149699000Y-74000000D01*
X121900000Y-74850000D02*
X125050000Y-74850000D01*
X121900000Y-74850000D02*
X121900000Y-69550000D01*
X121900000Y-69550000D02*
X125050000Y-69550000D01*
X134900000Y-69550000D02*
X134900000Y-74850000D01*
X134900000Y-74850000D02*
X131750000Y-74850000D01*
X134900000Y-69550000D02*
X131750000Y-69550000D01*
X117436000Y-68898000D02*
X117944000Y-68898000D01*
X117563000Y-75502000D02*
X117817000Y-75502000D01*
X100164000Y-75502000D02*
X99783000Y-75502000D01*
X100164000Y-68898000D02*
X99783000Y-68898000D01*
X99910000Y-69025000D02*
X102450000Y-69025000D01*
X115150000Y-69025000D02*
X117690000Y-69025000D01*
X117690000Y-75375000D02*
X117690000Y-69025000D01*
X99910000Y-69025000D02*
X99910000Y-75375000D01*
X98640000Y-67755000D02*
X99910000Y-67755000D01*
X118960000Y-76645000D02*
X115150000Y-76645000D01*
X118960000Y-76645000D02*
X118960000Y-67755000D01*
X98640000Y-67755000D02*
X98640000Y-76645000D01*
X117690000Y-75375000D02*
X115150000Y-75375000D01*
X102450000Y-75375000D02*
X99910000Y-75375000D01*
X117690000Y-67755000D02*
X117690000Y-67501000D01*
X117690000Y-67501000D02*
X116420000Y-67501000D01*
X116420000Y-67755000D02*
X116420000Y-67501000D01*
X117690000Y-67755000D02*
X118960000Y-67755000D01*
X115150000Y-67755000D02*
X116420000Y-67755000D01*
X101180000Y-67501000D02*
X99910000Y-67501000D01*
X99910000Y-67501000D02*
X99910000Y-67755000D01*
X101180000Y-67501000D02*
X101180000Y-67755000D01*
X101180000Y-67755000D02*
X102450000Y-67755000D01*
X115150000Y-75629000D02*
X117944000Y-75629000D01*
X117944000Y-75629000D02*
X117944000Y-68771000D01*
X117944000Y-68771000D02*
X115150000Y-68771000D01*
X102450000Y-68771000D02*
X99656000Y-68771000D01*
X99656000Y-68771000D02*
X99656000Y-75629000D01*
X99656000Y-75629000D02*
X102450000Y-75629000D01*
X102450000Y-76645000D02*
X98640000Y-76645000D01*
X115150000Y-69025000D02*
X115150000Y-68771000D01*
X115150000Y-75629000D02*
X115150000Y-75375000D01*
X102450000Y-75629000D02*
X102450000Y-75375000D01*
X102450000Y-69025000D02*
X102450000Y-68771000D01*
X124974701Y-63347379D02*
X124869940Y-63294998D01*
X124817559Y-63242617D01*
X124765178Y-63137855D01*
X124765178Y-62823569D01*
X124817559Y-62718807D01*
X124869940Y-62666426D01*
X124974701Y-62614045D01*
X125131844Y-62614045D01*
X125236606Y-62666426D01*
X125288987Y-62718807D01*
X125341368Y-62823569D01*
X125341368Y-63137855D01*
X125288987Y-63242617D01*
X125236606Y-63294998D01*
X125131844Y-63347379D01*
X124974701Y-63347379D01*
X125812797Y-62614045D02*
X125812797Y-63714045D01*
X125812797Y-62666426D02*
X125917559Y-62614045D01*
X126127082Y-62614045D01*
X126231844Y-62666426D01*
X126284225Y-62718807D01*
X126336606Y-62823569D01*
X126336606Y-63137855D01*
X126284225Y-63242617D01*
X126231844Y-63294998D01*
X126127082Y-63347379D01*
X125917559Y-63347379D01*
X125812797Y-63294998D01*
X127227082Y-63294998D02*
X127122320Y-63347379D01*
X126912797Y-63347379D01*
X126808035Y-63294998D01*
X126755654Y-63190236D01*
X126755654Y-62771188D01*
X126808035Y-62666426D01*
X126912797Y-62614045D01*
X127122320Y-62614045D01*
X127227082Y-62666426D01*
X127279463Y-62771188D01*
X127279463Y-62875950D01*
X126755654Y-62980712D01*
X127750892Y-62614045D02*
X127750892Y-63347379D01*
X127750892Y-62718807D02*
X127803273Y-62666426D01*
X127908035Y-62614045D01*
X128065178Y-62614045D01*
X128169940Y-62666426D01*
X128222320Y-62771188D01*
X128222320Y-63347379D01*
D21*
X129290202Y-63393580D02*
X129290202Y-62393580D01*
X129718774Y-63393580D02*
X129718774Y-62869771D01*
X129671155Y-62774533D01*
X129575917Y-62726914D01*
X129433060Y-62726914D01*
X129337821Y-62774533D01*
X129290202Y-62822152D01*
X130623536Y-63393580D02*
X130623536Y-62869771D01*
X130575917Y-62774533D01*
X130480679Y-62726914D01*
X130290202Y-62726914D01*
X130194964Y-62774533D01*
X130623536Y-63345961D02*
X130528298Y-63393580D01*
X130290202Y-63393580D01*
X130194964Y-63345961D01*
X130147345Y-63250723D01*
X130147345Y-63155485D01*
X130194964Y-63060247D01*
X130290202Y-63012628D01*
X130528298Y-63012628D01*
X130623536Y-62965009D01*
X131099726Y-63393580D02*
X131099726Y-62726914D01*
X131099726Y-62917390D02*
X131147345Y-62822152D01*
X131194964Y-62774533D01*
X131290202Y-62726914D01*
X131385440Y-62726914D01*
X132147345Y-63393580D02*
X132147345Y-62393580D01*
X132147345Y-63345961D02*
X132052107Y-63393580D01*
X131861631Y-63393580D01*
X131766393Y-63345961D01*
X131718774Y-63298342D01*
X131671155Y-63203104D01*
X131671155Y-62917390D01*
X131718774Y-62822152D01*
X131766393Y-62774533D01*
X131861631Y-62726914D01*
X132052107Y-62726914D01*
X132147345Y-62774533D01*
X132528298Y-62726914D02*
X132718774Y-63393580D01*
X132909250Y-62917390D01*
X133099726Y-63393580D01*
X133290202Y-62726914D01*
X134099726Y-63393580D02*
X134099726Y-62869771D01*
X134052107Y-62774533D01*
X133956869Y-62726914D01*
X133766393Y-62726914D01*
X133671155Y-62774533D01*
X134099726Y-63345961D02*
X134004488Y-63393580D01*
X133766393Y-63393580D01*
X133671155Y-63345961D01*
X133623536Y-63250723D01*
X133623536Y-63155485D01*
X133671155Y-63060247D01*
X133766393Y-63012628D01*
X134004488Y-63012628D01*
X134099726Y-62965009D01*
X134575917Y-63393580D02*
X134575917Y-62726914D01*
X134575917Y-62917390D02*
X134623536Y-62822152D01*
X134671155Y-62774533D01*
X134766393Y-62726914D01*
X134861631Y-62726914D01*
X135575917Y-63345961D02*
X135480679Y-63393580D01*
X135290202Y-63393580D01*
X135194964Y-63345961D01*
X135147345Y-63250723D01*
X135147345Y-62869771D01*
X135194964Y-62774533D01*
X135290202Y-62726914D01*
X135480679Y-62726914D01*
X135575917Y-62774533D01*
X135623536Y-62869771D01*
X135623536Y-62965009D01*
X135147345Y-63060247D01*
D11*
X155798761Y-67751476D02*
X155677809Y-67691000D01*
X155556857Y-67570047D01*
X155375428Y-67388619D01*
X155254476Y-67328142D01*
X155133523Y-67328142D01*
X155194000Y-67630523D02*
X155073047Y-67570047D01*
X154952095Y-67449095D01*
X154891619Y-67207190D01*
X154891619Y-66783857D01*
X154952095Y-66541952D01*
X155073047Y-66421000D01*
X155194000Y-66360523D01*
X155435904Y-66360523D01*
X155556857Y-66421000D01*
X155677809Y-66541952D01*
X155738285Y-66783857D01*
X155738285Y-67207190D01*
X155677809Y-67449095D01*
X155556857Y-67570047D01*
X155435904Y-67630523D01*
X155194000Y-67630523D01*
X156161619Y-66360523D02*
X156464000Y-67630523D01*
X156705904Y-66723380D01*
X156947809Y-67630523D01*
X157250190Y-66360523D01*
X157673523Y-67570047D02*
X157854952Y-67630523D01*
X158157333Y-67630523D01*
X158278285Y-67570047D01*
X158338761Y-67509571D01*
X158399238Y-67388619D01*
X158399238Y-67267666D01*
X158338761Y-67146714D01*
X158278285Y-67086238D01*
X158157333Y-67025761D01*
X157915428Y-66965285D01*
X157794476Y-66904809D01*
X157734000Y-66844333D01*
X157673523Y-66723380D01*
X157673523Y-66602428D01*
X157734000Y-66481476D01*
X157794476Y-66421000D01*
X157915428Y-66360523D01*
X158217809Y-66360523D01*
X158399238Y-66421000D01*
X158762095Y-66360523D02*
X159487809Y-66360523D01*
X159124952Y-67630523D02*
X159124952Y-66360523D01*
X160576380Y-67630523D02*
X159850666Y-67630523D01*
X160213523Y-67630523D02*
X160213523Y-66360523D01*
X160092571Y-66541952D01*
X159971619Y-66662904D01*
X159850666Y-66723380D01*
D22*
X155556714Y-69650714D02*
X155121285Y-69650714D01*
X155339000Y-69650714D02*
X155339000Y-68888714D01*
X155266428Y-68997571D01*
X155193857Y-69070142D01*
X155121285Y-69106428D01*
D11*
X141066761Y-67545857D02*
X141066761Y-68815857D01*
X141066761Y-67606333D02*
X141187714Y-67545857D01*
X141429619Y-67545857D01*
X141550571Y-67606333D01*
X141611047Y-67666809D01*
X141671523Y-67787761D01*
X141671523Y-68150619D01*
X141611047Y-68271571D01*
X141550571Y-68332047D01*
X141429619Y-68392523D01*
X141187714Y-68392523D01*
X141066761Y-68332047D01*
X142215809Y-67122523D02*
X142215809Y-68150619D01*
X142276285Y-68271571D01*
X142336761Y-68332047D01*
X142457714Y-68392523D01*
X142699619Y-68392523D01*
X142820571Y-68332047D01*
X142881047Y-68271571D01*
X142941523Y-68150619D01*
X142941523Y-67122523D01*
X143546285Y-67727285D02*
X143969619Y-67727285D01*
X144151047Y-68392523D02*
X143546285Y-68392523D01*
X143546285Y-67122523D01*
X144151047Y-67122523D01*
X144574380Y-67122523D02*
X145421047Y-68392523D01*
X145421047Y-67122523D02*
X144574380Y-68392523D01*
X145723428Y-67122523D02*
X146449142Y-67122523D01*
X146086285Y-68392523D02*
X146086285Y-67122523D01*
X147537714Y-68392523D02*
X146812000Y-68392523D01*
X147174857Y-68392523D02*
X147174857Y-67122523D01*
X147053904Y-67303952D01*
X146932952Y-67424904D01*
X146812000Y-67485380D01*
D10*
X149862285Y-69441619D02*
X149281714Y-69441619D01*
X149572000Y-69441619D02*
X149572000Y-68425619D01*
X149475238Y-68570761D01*
X149378476Y-68667523D01*
X149281714Y-68715904D01*
D11*
X124665619Y-67122523D02*
X124665619Y-66275857D01*
X124665619Y-66396809D02*
X124726095Y-66336333D01*
X124847047Y-66275857D01*
X125028476Y-66275857D01*
X125149428Y-66336333D01*
X125209904Y-66457285D01*
X125209904Y-67122523D01*
X125209904Y-66457285D02*
X125270380Y-66336333D01*
X125391333Y-66275857D01*
X125572761Y-66275857D01*
X125693714Y-66336333D01*
X125754190Y-66457285D01*
X125754190Y-67122523D01*
X126358952Y-65852523D02*
X126358952Y-66880619D01*
X126419428Y-67001571D01*
X126479904Y-67062047D01*
X126600857Y-67122523D01*
X126842761Y-67122523D01*
X126963714Y-67062047D01*
X127024190Y-67001571D01*
X127084666Y-66880619D01*
X127084666Y-65852523D01*
X127689428Y-66457285D02*
X128112761Y-66457285D01*
X128294190Y-67122523D02*
X127689428Y-67122523D01*
X127689428Y-65852523D01*
X128294190Y-65852523D01*
X128717523Y-65852523D02*
X129564190Y-67122523D01*
X129564190Y-65852523D02*
X128717523Y-67122523D01*
X129866571Y-65852523D02*
X130592285Y-65852523D01*
X130229428Y-67122523D02*
X130229428Y-65852523D01*
X131680857Y-67122523D02*
X130955142Y-67122523D01*
X131318000Y-67122523D02*
X131318000Y-65852523D01*
X131197047Y-66033952D01*
X131076095Y-66154904D01*
X130955142Y-66215380D01*
D10*
X126147285Y-77040619D02*
X125566714Y-77040619D01*
X125857000Y-77040619D02*
X125857000Y-76024619D01*
X125760238Y-76169761D01*
X125663476Y-76266523D01*
X125566714Y-76314904D01*
D11*
X106081285Y-64455523D02*
X106081285Y-65483619D01*
X106141761Y-65604571D01*
X106202238Y-65665047D01*
X106323190Y-65725523D01*
X106565095Y-65725523D01*
X106686047Y-65665047D01*
X106746523Y-65604571D01*
X106807000Y-65483619D01*
X106807000Y-64455523D01*
X107411761Y-65060285D02*
X107835095Y-65060285D01*
X108016523Y-65725523D02*
X107411761Y-65725523D01*
X107411761Y-64455523D01*
X108016523Y-64455523D01*
X108439857Y-64455523D02*
X109286523Y-65725523D01*
X109286523Y-64455523D02*
X108439857Y-65725523D01*
X109588904Y-64455523D02*
X110314619Y-64455523D01*
X109951761Y-65725523D02*
X109951761Y-64455523D01*
X111403190Y-65725523D02*
X110677476Y-65725523D01*
X111040333Y-65725523D02*
X111040333Y-64455523D01*
X110919380Y-64636952D01*
X110798428Y-64757904D01*
X110677476Y-64818380D01*
D10*
X115878095Y-71468523D02*
X115152380Y-71468523D01*
X115515238Y-71468523D02*
X115515238Y-70198523D01*
X115394285Y-70379952D01*
X115273333Y-70500904D01*
X115152380Y-70561380D01*
X116664285Y-70198523D02*
X116785238Y-70198523D01*
X116906190Y-70259000D01*
X116966666Y-70319476D01*
X117027142Y-70440428D01*
X117087619Y-70682333D01*
X117087619Y-70984714D01*
X117027142Y-71226619D01*
X116966666Y-71347571D01*
X116906190Y-71408047D01*
X116785238Y-71468523D01*
X116664285Y-71468523D01*
X116543333Y-71408047D01*
X116482857Y-71347571D01*
X116422380Y-71226619D01*
X116361904Y-70984714D01*
X116361904Y-70682333D01*
X116422380Y-70440428D01*
X116482857Y-70319476D01*
X116543333Y-70259000D01*
X116664285Y-70198523D01*
X101542857Y-74044523D02*
X100817142Y-74044523D01*
X101180000Y-74044523D02*
X101180000Y-72774523D01*
X101059047Y-72955952D01*
X100938095Y-73076904D01*
X100817142Y-73137380D01*
X100817142Y-70355476D02*
X100877619Y-70295000D01*
X100998571Y-70234523D01*
X101300952Y-70234523D01*
X101421904Y-70295000D01*
X101482380Y-70355476D01*
X101542857Y-70476428D01*
X101542857Y-70597380D01*
X101482380Y-70778809D01*
X100756666Y-71504523D01*
X101542857Y-71504523D01*
X115924095Y-74044523D02*
X116166000Y-74044523D01*
X116286952Y-73984047D01*
X116347428Y-73923571D01*
X116468380Y-73742142D01*
X116528857Y-73500238D01*
X116528857Y-73016428D01*
X116468380Y-72895476D01*
X116407904Y-72835000D01*
X116286952Y-72774523D01*
X116045047Y-72774523D01*
X115924095Y-72835000D01*
X115863619Y-72895476D01*
X115803142Y-73016428D01*
X115803142Y-73318809D01*
X115863619Y-73439761D01*
X115924095Y-73500238D01*
X116045047Y-73560714D01*
X116286952Y-73560714D01*
X116407904Y-73500238D01*
X116468380Y-73439761D01*
X116528857Y-73318809D01*
M02*
