M48
; DRILL file {KiCad 5.1.0-rc2-unknown-036be7d~80~ubuntu16.04.1} date 24.05.2023 (ср) 11:50:48 EEST
; FORMAT={-:-/ absolute / inch / decimal}
; #@! TF.CreationDate,2023-05-24T11:50:48+03:00*
; #@! TF.GenerationSoftware,Kicad,Pcbnew,5.1.0-rc2-unknown-036be7d~80~ubuntu16.04.1
; #@! TF.FileFunction,Plated,1,2,PTH
FMAT,2
INCH
T1C0.0236
%
G90
G05
T1
X3.9Y-2.55
X3.9Y-2.925
X3.955Y-2.735
X4.01Y-3.035
X4.025Y-2.905
X4.025Y-2.955
X4.115Y-2.16
X4.13Y-2.605
X4.195Y-2.855
X4.255Y-2.845
X4.2835Y-2.6065
X4.315Y-2.84
X4.37Y-2.175
X4.375Y-2.84
X4.415Y-2.595
X4.47Y-2.175
X4.475Y-2.58
X4.535Y-2.56
X4.545Y-2.625
X4.56Y-2.8
X4.57Y-2.175
X4.59Y-2.56
X4.6Y-3.035
X4.68Y-2.895
X4.685Y-2.655
X4.745Y-2.565
X4.77Y-2.175
X4.8Y-2.565
X4.8Y-2.895
X4.855Y-2.59
X4.855Y-2.965
X4.91Y-2.965
X4.97Y-2.655
X5.04Y-2.67
X5.05Y-2.545
X5.055Y-2.85
X5.065Y-2.175
X5.105Y-2.695
X5.12Y-2.57
X5.225Y-2.825
X5.225Y-2.895
X5.27Y-2.175
X5.27Y-2.55
X5.305Y-2.605
X5.365Y-2.55
X5.365Y-2.605
X5.365Y-2.77
X5.42Y-2.77
X5.425Y-2.635
X5.485Y-2.58
X5.54Y-2.58
X5.54Y-2.86
X5.57Y-2.175
X5.61Y-2.86
X5.68Y-2.86
X5.685Y-2.72
X5.735Y-2.67
X5.74Y-2.575
X5.75Y-2.86
X5.77Y-2.175
X5.835Y-2.965
X5.845Y-2.67
X5.88Y-2.965
X5.93Y-2.16
X5.94Y-2.765
X6.005Y-2.765
X6.025Y-2.915
X6.025Y-3.04
X6.065Y-2.555
X6.15Y-2.68
X6.175Y-2.16
X6.22Y-2.695
X6.22Y-3.04
X6.24Y-2.58
X6.285Y-2.695
X6.35Y-2.495
X6.35Y-2.695
T0
M30
