G04 #@! TF.GenerationSoftware,KiCad,Pcbnew,5.1.0-rc2-unknown-036be7d~80~ubuntu16.04.1*
G04 #@! TF.CreationDate,2023-05-24T11:50:45+03:00*
G04 #@! TF.ProjectId,RPI-UEXT-MPQ_Rev_A,5250492d-5545-4585-942d-4d50515f5265,A*
G04 #@! TF.SameCoordinates,Original*
G04 #@! TF.FileFunction,Paste,Top*
G04 #@! TF.FilePolarity,Positive*
%FSLAX46Y46*%
G04 Gerber Fmt 4.6, Leading zero omitted, Abs format (unit mm)*
G04 Created by KiCad (PCBNEW 5.1.0-rc2-unknown-036be7d~80~ubuntu16.04.1) date 2023-05-24 11:50:45*
%MOMM*%
%LPD*%
G04 APERTURE LIST*
%ADD10R,0.500000X1.550000*%
%ADD11R,1.200000X4.500000*%
%ADD12R,0.600000X1.550000*%
%ADD13R,1.200000X3.100000*%
%ADD14R,0.874000X2.514000*%
%ADD15C,1.700000*%
%ADD16C,0.100000*%
G04 APERTURE END LIST*
D10*
X156300000Y-70100000D03*
D11*
X160600000Y-72575000D03*
X155000000Y-72575000D03*
D10*
X158300000Y-70100000D03*
X157300000Y-70100000D03*
X159300000Y-70100000D03*
D12*
X149500000Y-70775000D03*
X148500000Y-70775000D03*
X147500000Y-70775000D03*
X146500000Y-70775000D03*
X145500000Y-70775000D03*
X144500000Y-70775000D03*
X143500000Y-70775000D03*
X142500000Y-70775000D03*
X141500000Y-70775000D03*
X140500000Y-70775000D03*
D13*
X150800000Y-72550000D03*
X139200000Y-72550000D03*
D14*
X127130000Y-70249500D03*
X128400000Y-70249500D03*
X130940000Y-70249500D03*
X129670000Y-70249500D03*
X125860000Y-70249500D03*
X130940000Y-74150500D03*
X129670000Y-74150500D03*
X128400000Y-74150500D03*
X127130000Y-74150500D03*
X125860000Y-74150500D03*
D15*
X103720000Y-75325000D03*
D16*
G36*
X102870000Y-77600000D02*
G01*
X102870000Y-73050000D01*
X104570000Y-73050000D01*
X104570000Y-77600000D01*
X102870000Y-77600000D01*
X102870000Y-77600000D01*
G37*
D15*
X106260000Y-75325000D03*
D16*
G36*
X105410000Y-77600000D02*
G01*
X105410000Y-73050000D01*
X107110000Y-73050000D01*
X107110000Y-77600000D01*
X105410000Y-77600000D01*
X105410000Y-77600000D01*
G37*
D15*
X108800000Y-75325000D03*
D16*
G36*
X107950000Y-77600000D02*
G01*
X107950000Y-73050000D01*
X109650000Y-73050000D01*
X109650000Y-77600000D01*
X107950000Y-77600000D01*
X107950000Y-77600000D01*
G37*
D15*
X111340000Y-75325000D03*
D16*
G36*
X110490000Y-77600000D02*
G01*
X110490000Y-73050000D01*
X112190000Y-73050000D01*
X112190000Y-77600000D01*
X110490000Y-77600000D01*
X110490000Y-77600000D01*
G37*
D15*
X113880000Y-75325000D03*
D16*
G36*
X113030000Y-77600000D02*
G01*
X113030000Y-73050000D01*
X114730000Y-73050000D01*
X114730000Y-77600000D01*
X113030000Y-77600000D01*
X113030000Y-77600000D01*
G37*
D15*
X113880000Y-69075000D03*
D16*
G36*
X113030000Y-71350000D02*
G01*
X113030000Y-66800000D01*
X114730000Y-66800000D01*
X114730000Y-71350000D01*
X113030000Y-71350000D01*
X113030000Y-71350000D01*
G37*
D15*
X111340000Y-69075000D03*
D16*
G36*
X110490000Y-71350000D02*
G01*
X110490000Y-66800000D01*
X112190000Y-66800000D01*
X112190000Y-71350000D01*
X110490000Y-71350000D01*
X110490000Y-71350000D01*
G37*
D15*
X103720000Y-69075000D03*
D16*
G36*
X102870000Y-71350000D02*
G01*
X102870000Y-66800000D01*
X104570000Y-66800000D01*
X104570000Y-71350000D01*
X102870000Y-71350000D01*
X102870000Y-71350000D01*
G37*
D15*
X106260000Y-69075000D03*
D16*
G36*
X105410000Y-71350000D02*
G01*
X105410000Y-66800000D01*
X107110000Y-66800000D01*
X107110000Y-71350000D01*
X105410000Y-71350000D01*
X105410000Y-71350000D01*
G37*
D15*
X108800000Y-69075000D03*
D16*
G36*
X107950000Y-71350000D02*
G01*
X107950000Y-66800000D01*
X109650000Y-66800000D01*
X109650000Y-71350000D01*
X107950000Y-71350000D01*
X107950000Y-71350000D01*
G37*
M02*
