M48
; DRILL file {KiCad 5.1.0-rc2-unknown-036be7d~80~ubuntu16.04.1} date 22.05.2023 (пн)  9:45:23 EEST
; FORMAT={-:-/ absolute / inch / decimal}
; #@! TF.CreationDate,2023-05-22T09:45:23+03:00*
; #@! TF.GenerationSoftware,Kicad,Pcbnew,5.1.0-rc2-unknown-036be7d~80~ubuntu16.04.1
; #@! TF.FileFunction,Plated,1,2,PTH
FMAT,2
INCH
T1C0.0236
%
G90
G05
T1
X2.935Y-5.49
X2.95Y-5.9
X3.015Y-5.745
X3.05Y-6.0
X3.07Y-5.305
X3.07Y-5.365
X3.07Y-5.745
X3.145Y-6.315
X3.165Y-5.445
X3.165Y-5.49
X3.21Y-5.18
X3.21Y-5.23
X3.2252Y-6.0548
X3.255Y-6.17
X3.26Y-5.03
X3.27Y-5.56
X3.275Y-6.0548
X3.325Y-5.08
X3.34Y-5.22
X3.345Y-5.815
X3.405Y-5.08
X3.425Y-5.575
X3.425Y-5.815
X3.425Y-6.315
X3.43Y-5.22
X3.44Y-5.03
X3.445Y-6.06
X3.48Y-5.08
X3.505Y-5.815
X3.515Y-5.55
X3.52Y-5.22
X3.57Y-5.575
X3.58Y-5.285
X3.59Y-5.03
X3.59Y-5.42
X3.595Y-6.17
X3.6043Y-5.2207
X3.635Y-5.495
X3.66Y-5.815
X3.705Y-6.315
X3.8Y-5.55
X3.8Y-5.85
X3.9Y-5.35
X3.9Y-5.7
X3.9Y-6.0
T0
M30
