G04 #@! TF.GenerationSoftware,KiCad,Pcbnew,5.1.0-rc2-unknown-036be7d~80~ubuntu16.04.1*
G04 #@! TF.CreationDate,2023-05-22T09:45:20+03:00*
G04 #@! TF.ProjectId,UEXT-MPQ_Rev_A,55455854-2d4d-4505-915f-5265765f412e,A*
G04 #@! TF.SameCoordinates,Original*
G04 #@! TF.FileFunction,Paste,Top*
G04 #@! TF.FilePolarity,Positive*
%FSLAX46Y46*%
G04 Gerber Fmt 4.6, Leading zero omitted, Abs format (unit mm)*
G04 Created by KiCad (PCBNEW 5.1.0-rc2-unknown-036be7d~80~ubuntu16.04.1) date 2023-05-22 09:45:20*
%MOMM*%
%LPD*%
G04 APERTURE LIST*
%ADD10R,0.600000X1.550000*%
%ADD11R,1.200000X3.100000*%
%ADD12R,0.874000X2.514000*%
%ADD13C,1.700000*%
%ADD14C,0.100000*%
%ADD15R,0.500000X1.550000*%
%ADD16R,1.200000X4.500000*%
G04 APERTURE END LIST*
D10*
X82500000Y-130625000D03*
X83500000Y-130625000D03*
X84500000Y-130625000D03*
X85500000Y-130625000D03*
X86500000Y-130625000D03*
X87500000Y-130625000D03*
X88500000Y-130625000D03*
X89500000Y-130625000D03*
X90500000Y-130625000D03*
X91500000Y-130625000D03*
D11*
X81200000Y-128850000D03*
X92800000Y-128850000D03*
D12*
X84460000Y-138750500D03*
X85730000Y-138750500D03*
X87000000Y-138750500D03*
X88270000Y-138750500D03*
X89540000Y-138750500D03*
X84460000Y-134849500D03*
X88270000Y-134849500D03*
X89540000Y-134849500D03*
X87000000Y-134849500D03*
X85730000Y-134849500D03*
D13*
X81920000Y-150625000D03*
D14*
G36*
X81070000Y-152900000D02*
G01*
X81070000Y-148350000D01*
X82770000Y-148350000D01*
X82770000Y-152900000D01*
X81070000Y-152900000D01*
X81070000Y-152900000D01*
G37*
D13*
X84460000Y-150625000D03*
D14*
G36*
X83610000Y-152900000D02*
G01*
X83610000Y-148350000D01*
X85310000Y-148350000D01*
X85310000Y-152900000D01*
X83610000Y-152900000D01*
X83610000Y-152900000D01*
G37*
D13*
X87000000Y-150625000D03*
D14*
G36*
X86150000Y-152900000D02*
G01*
X86150000Y-148350000D01*
X87850000Y-148350000D01*
X87850000Y-152900000D01*
X86150000Y-152900000D01*
X86150000Y-152900000D01*
G37*
D13*
X89540000Y-150625000D03*
D14*
G36*
X88690000Y-152900000D02*
G01*
X88690000Y-148350000D01*
X90390000Y-148350000D01*
X90390000Y-152900000D01*
X88690000Y-152900000D01*
X88690000Y-152900000D01*
G37*
D13*
X92080000Y-150625000D03*
D14*
G36*
X91230000Y-152900000D02*
G01*
X91230000Y-148350000D01*
X92930000Y-148350000D01*
X92930000Y-152900000D01*
X91230000Y-152900000D01*
X91230000Y-152900000D01*
G37*
D13*
X92080000Y-144375000D03*
D14*
G36*
X91230000Y-146650000D02*
G01*
X91230000Y-142100000D01*
X92930000Y-142100000D01*
X92930000Y-146650000D01*
X91230000Y-146650000D01*
X91230000Y-146650000D01*
G37*
D13*
X89540000Y-144375000D03*
D14*
G36*
X88690000Y-146650000D02*
G01*
X88690000Y-142100000D01*
X90390000Y-142100000D01*
X90390000Y-146650000D01*
X88690000Y-146650000D01*
X88690000Y-146650000D01*
G37*
D13*
X81920000Y-144375000D03*
D14*
G36*
X81070000Y-146650000D02*
G01*
X81070000Y-142100000D01*
X82770000Y-142100000D01*
X82770000Y-146650000D01*
X81070000Y-146650000D01*
X81070000Y-146650000D01*
G37*
D13*
X84460000Y-144375000D03*
D14*
G36*
X83610000Y-146650000D02*
G01*
X83610000Y-142100000D01*
X85310000Y-142100000D01*
X85310000Y-146650000D01*
X83610000Y-146650000D01*
X83610000Y-146650000D01*
G37*
D13*
X87000000Y-144375000D03*
D14*
G36*
X86150000Y-146650000D02*
G01*
X86150000Y-142100000D01*
X87850000Y-142100000D01*
X87850000Y-146650000D01*
X86150000Y-146650000D01*
X86150000Y-146650000D01*
G37*
D15*
X88500000Y-155800000D03*
X86500000Y-155800000D03*
X87500000Y-155800000D03*
D16*
X84200000Y-158275000D03*
X89800000Y-158275000D03*
D15*
X85500000Y-155800000D03*
M02*
