G04 #@! TF.GenerationSoftware,KiCad,Pcbnew,5.1.0-rc2-unknown-036be7d~80~ubuntu16.04.1*
G04 #@! TF.CreationDate,2023-05-22T09:45:20+03:00*
G04 #@! TF.ProjectId,UEXT-MPQ_Rev_A,55455854-2d4d-4505-915f-5265765f412e,A*
G04 #@! TF.SameCoordinates,Original*
G04 #@! TF.FileFunction,Soldermask,Top*
G04 #@! TF.FilePolarity,Negative*
%FSLAX46Y46*%
G04 Gerber Fmt 4.6, Leading zero omitted, Abs format (unit mm)*
G04 Created by KiCad (PCBNEW 5.1.0-rc2-unknown-036be7d~80~ubuntu16.04.1) date 2023-05-22 09:45:20*
%MOMM*%
%LPD*%
G04 APERTURE LIST*
%ADD10R,0.701600X1.651600*%
%ADD11R,1.301600X3.201600*%
%ADD12R,0.861600X2.501600*%
%ADD13C,0.801600*%
%ADD14C,1.301600*%
%ADD15R,1.101600X4.351600*%
%ADD16C,1.254000*%
%ADD17C,3.401600*%
%ADD18R,0.601600X1.651600*%
%ADD19R,1.301600X4.601600*%
G04 APERTURE END LIST*
D10*
X82500000Y-130625000D03*
X83500000Y-130625000D03*
X84500000Y-130625000D03*
X85500000Y-130625000D03*
X86500000Y-130625000D03*
X87500000Y-130625000D03*
X88500000Y-130625000D03*
X89500000Y-130625000D03*
X90500000Y-130625000D03*
X91500000Y-130625000D03*
D11*
X81200000Y-128850000D03*
X92800000Y-128850000D03*
D12*
X84460000Y-138750500D03*
X85730000Y-138750500D03*
X87000000Y-138750500D03*
X88270000Y-138750500D03*
X89540000Y-138750500D03*
X84460000Y-134849500D03*
X88270000Y-134849500D03*
X89540000Y-134849500D03*
X87000000Y-134849500D03*
X85730000Y-134849500D03*
D13*
X88905000Y-136800000D03*
X85095000Y-136800000D03*
D14*
X90810000Y-147500000D03*
D15*
X81920000Y-150625000D03*
X81920000Y-144375000D03*
X84460000Y-150625000D03*
X84460000Y-144375000D03*
X87000000Y-150625000D03*
X87000000Y-144375000D03*
X89540000Y-150625000D03*
X89540000Y-144375000D03*
X92080000Y-150625000D03*
X92080000Y-144375000D03*
D14*
X83190000Y-147500000D03*
D16*
X99314000Y-155300000D03*
X74549000Y-155321000D03*
X74549000Y-132715000D03*
D17*
X76600000Y-130100000D03*
X97400000Y-130100000D03*
X76600000Y-157900000D03*
X97400000Y-157900000D03*
D16*
X99314000Y-132715000D03*
D18*
X88500000Y-155800000D03*
X86500000Y-155800000D03*
X87500000Y-155800000D03*
D19*
X84200000Y-158275000D03*
X89800000Y-158275000D03*
D18*
X85500000Y-155800000D03*
M02*
