G04 #@! TF.GenerationSoftware,KiCad,Pcbnew,5.1.0-rc2-unknown-036be7d~80~ubuntu16.04.1*
G04 #@! TF.CreationDate,2023-05-22T11:16:55+03:00*
G04 #@! TF.ProjectId,UEXT-MPQ_Rev_A,55455854-2d4d-4505-915f-5265765f412e,A*
G04 #@! TF.SameCoordinates,Original*
G04 #@! TF.FileFunction,Legend,Bot*
G04 #@! TF.FilePolarity,Positive*
%FSLAX46Y46*%
G04 Gerber Fmt 4.6, Leading zero omitted, Abs format (unit mm)*
G04 Created by KiCad (PCBNEW 5.1.0-rc2-unknown-036be7d~80~ubuntu16.04.1) date 2023-05-22 11:16:55*
%MOMM*%
%LPD*%
G04 APERTURE LIST*
%ADD10C,0.317500*%
%ADD11C,0.254000*%
%ADD12C,0.508000*%
%ADD13C,0.300000*%
%ADD14C,1.000000*%
%ADD15C,0.150000*%
%ADD16C,0.370000*%
%ADD17C,0.380000*%
%ADD18C,0.400000*%
%ADD19C,0.420000*%
%ADD20C,0.100000*%
%ADD21C,0.700000*%
%ADD22C,0.500000*%
%ADD23C,0.127000*%
%ADD24C,0.200000*%
%ADD25C,0.350000*%
%ADD26C,0.180000*%
G04 APERTURE END LIST*
D10*
X92468095Y-129733523D02*
X92468095Y-130761619D01*
X92407619Y-130882571D01*
X92347142Y-130943047D01*
X92226190Y-131003523D01*
X91984285Y-131003523D01*
X91863333Y-130943047D01*
X91802857Y-130882571D01*
X91742380Y-130761619D01*
X91742380Y-129733523D01*
X91137619Y-130338285D02*
X90714285Y-130338285D01*
X90532857Y-131003523D02*
X91137619Y-131003523D01*
X91137619Y-129733523D01*
X90532857Y-129733523D01*
X90109523Y-129733523D02*
X89262857Y-131003523D01*
X89262857Y-129733523D02*
X90109523Y-131003523D01*
X88960476Y-129733523D02*
X88234761Y-129733523D01*
X88597619Y-131003523D02*
X88597619Y-129733523D01*
X87811428Y-130519714D02*
X86843809Y-130519714D01*
X86239047Y-131003523D02*
X86239047Y-129733523D01*
X85815714Y-130640666D01*
X85392380Y-129733523D01*
X85392380Y-131003523D01*
X84787619Y-131003523D02*
X84787619Y-129733523D01*
X84303809Y-129733523D01*
X84182857Y-129794000D01*
X84122380Y-129854476D01*
X84061904Y-129975428D01*
X84061904Y-130156857D01*
X84122380Y-130277809D01*
X84182857Y-130338285D01*
X84303809Y-130398761D01*
X84787619Y-130398761D01*
X82670952Y-131124476D02*
X82791904Y-131064000D01*
X82912857Y-130943047D01*
X83094285Y-130761619D01*
X83215238Y-130701142D01*
X83336190Y-130701142D01*
X83275714Y-131003523D02*
X83396666Y-130943047D01*
X83517619Y-130822095D01*
X83578095Y-130580190D01*
X83578095Y-130156857D01*
X83517619Y-129914952D01*
X83396666Y-129794000D01*
X83275714Y-129733523D01*
X83033809Y-129733523D01*
X82912857Y-129794000D01*
X82791904Y-129914952D01*
X82731428Y-130156857D01*
X82731428Y-130580190D01*
X82791904Y-130822095D01*
X82912857Y-130943047D01*
X83033809Y-131003523D01*
X83275714Y-131003523D01*
D11*
X93502238Y-135037285D02*
X93308714Y-135714619D01*
X93115190Y-135230809D01*
X92921666Y-135714619D01*
X92728142Y-135037285D01*
X92437857Y-135037285D02*
X92244333Y-135714619D01*
X92050809Y-135230809D01*
X91857285Y-135714619D01*
X91663761Y-135037285D01*
X91373476Y-135037285D02*
X91179952Y-135714619D01*
X90986428Y-135230809D01*
X90792904Y-135714619D01*
X90599380Y-135037285D01*
X90212333Y-135617857D02*
X90163952Y-135666238D01*
X90212333Y-135714619D01*
X90260714Y-135666238D01*
X90212333Y-135617857D01*
X90212333Y-135714619D01*
X89583380Y-135714619D02*
X89680142Y-135666238D01*
X89728523Y-135617857D01*
X89776904Y-135521095D01*
X89776904Y-135230809D01*
X89728523Y-135134047D01*
X89680142Y-135085666D01*
X89583380Y-135037285D01*
X89438238Y-135037285D01*
X89341476Y-135085666D01*
X89293095Y-135134047D01*
X89244714Y-135230809D01*
X89244714Y-135521095D01*
X89293095Y-135617857D01*
X89341476Y-135666238D01*
X89438238Y-135714619D01*
X89583380Y-135714619D01*
X88664142Y-135714619D02*
X88760904Y-135666238D01*
X88809285Y-135569476D01*
X88809285Y-134698619D01*
X88277095Y-135714619D02*
X88277095Y-135037285D01*
X88277095Y-134698619D02*
X88325476Y-134747000D01*
X88277095Y-134795380D01*
X88228714Y-134747000D01*
X88277095Y-134698619D01*
X88277095Y-134795380D01*
X87793285Y-135714619D02*
X87793285Y-135037285D01*
X87793285Y-135134047D02*
X87744904Y-135085666D01*
X87648142Y-135037285D01*
X87503000Y-135037285D01*
X87406238Y-135085666D01*
X87357857Y-135182428D01*
X87357857Y-135714619D01*
X87357857Y-135182428D02*
X87309476Y-135085666D01*
X87212714Y-135037285D01*
X87067571Y-135037285D01*
X86970809Y-135085666D01*
X86922428Y-135182428D01*
X86922428Y-135714619D01*
X86051571Y-135666238D02*
X86148333Y-135714619D01*
X86341857Y-135714619D01*
X86438619Y-135666238D01*
X86487000Y-135569476D01*
X86487000Y-135182428D01*
X86438619Y-135085666D01*
X86341857Y-135037285D01*
X86148333Y-135037285D01*
X86051571Y-135085666D01*
X86003190Y-135182428D01*
X86003190Y-135279190D01*
X86487000Y-135375952D01*
X85664523Y-135714619D02*
X85132333Y-135037285D01*
X85664523Y-135037285D02*
X85132333Y-135714619D01*
X84745285Y-135617857D02*
X84696904Y-135666238D01*
X84745285Y-135714619D01*
X84793666Y-135666238D01*
X84745285Y-135617857D01*
X84745285Y-135714619D01*
X83826047Y-135666238D02*
X83922809Y-135714619D01*
X84116333Y-135714619D01*
X84213095Y-135666238D01*
X84261476Y-135617857D01*
X84309857Y-135521095D01*
X84309857Y-135230809D01*
X84261476Y-135134047D01*
X84213095Y-135085666D01*
X84116333Y-135037285D01*
X83922809Y-135037285D01*
X83826047Y-135085666D01*
X83245476Y-135714619D02*
X83342238Y-135666238D01*
X83390619Y-135617857D01*
X83439000Y-135521095D01*
X83439000Y-135230809D01*
X83390619Y-135134047D01*
X83342238Y-135085666D01*
X83245476Y-135037285D01*
X83100333Y-135037285D01*
X83003571Y-135085666D01*
X82955190Y-135134047D01*
X82906809Y-135230809D01*
X82906809Y-135521095D01*
X82955190Y-135617857D01*
X83003571Y-135666238D01*
X83100333Y-135714619D01*
X83245476Y-135714619D01*
X82471380Y-135714619D02*
X82471380Y-135037285D01*
X82471380Y-135134047D02*
X82423000Y-135085666D01*
X82326238Y-135037285D01*
X82181095Y-135037285D01*
X82084333Y-135085666D01*
X82035952Y-135182428D01*
X82035952Y-135714619D01*
X82035952Y-135182428D02*
X81987571Y-135085666D01*
X81890809Y-135037285D01*
X81745666Y-135037285D01*
X81648904Y-135085666D01*
X81600523Y-135182428D01*
X81600523Y-135714619D01*
X86087857Y-133815666D02*
X86136238Y-133767285D01*
X86233000Y-133622142D01*
X86281380Y-133525380D01*
X86329761Y-133380238D01*
X86378142Y-133138333D01*
X86378142Y-132944809D01*
X86329761Y-132702904D01*
X86281380Y-132557761D01*
X86233000Y-132461000D01*
X86136238Y-132315857D01*
X86087857Y-132267476D01*
X85265380Y-133380238D02*
X85362142Y-133428619D01*
X85555666Y-133428619D01*
X85652428Y-133380238D01*
X85700809Y-133331857D01*
X85749190Y-133235095D01*
X85749190Y-132944809D01*
X85700809Y-132848047D01*
X85652428Y-132799666D01*
X85555666Y-132751285D01*
X85362142Y-132751285D01*
X85265380Y-132799666D01*
X84926714Y-133815666D02*
X84878333Y-133767285D01*
X84781571Y-133622142D01*
X84733190Y-133525380D01*
X84684809Y-133380238D01*
X84636428Y-133138333D01*
X84636428Y-132944809D01*
X84684809Y-132702904D01*
X84733190Y-132557761D01*
X84781571Y-132461000D01*
X84878333Y-132315857D01*
X84926714Y-132267476D01*
X83426904Y-132509380D02*
X83378523Y-132461000D01*
X83281761Y-132412619D01*
X83039857Y-132412619D01*
X82943095Y-132461000D01*
X82894714Y-132509380D01*
X82846333Y-132606142D01*
X82846333Y-132702904D01*
X82894714Y-132848047D01*
X83475285Y-133428619D01*
X82846333Y-133428619D01*
X82217380Y-132412619D02*
X82120619Y-132412619D01*
X82023857Y-132461000D01*
X81975476Y-132509380D01*
X81927095Y-132606142D01*
X81878714Y-132799666D01*
X81878714Y-133041571D01*
X81927095Y-133235095D01*
X81975476Y-133331857D01*
X82023857Y-133380238D01*
X82120619Y-133428619D01*
X82217380Y-133428619D01*
X82314142Y-133380238D01*
X82362523Y-133331857D01*
X82410904Y-133235095D01*
X82459285Y-133041571D01*
X82459285Y-132799666D01*
X82410904Y-132606142D01*
X82362523Y-132509380D01*
X82314142Y-132461000D01*
X82217380Y-132412619D01*
X81491666Y-132509380D02*
X81443285Y-132461000D01*
X81346523Y-132412619D01*
X81104619Y-132412619D01*
X81007857Y-132461000D01*
X80959476Y-132509380D01*
X80911095Y-132606142D01*
X80911095Y-132702904D01*
X80959476Y-132848047D01*
X81540047Y-133428619D01*
X80911095Y-133428619D01*
X80572428Y-132412619D02*
X79943476Y-132412619D01*
X80282142Y-132799666D01*
X80137000Y-132799666D01*
X80040238Y-132848047D01*
X79991857Y-132896428D01*
X79943476Y-132993190D01*
X79943476Y-133235095D01*
X79991857Y-133331857D01*
X80040238Y-133380238D01*
X80137000Y-133428619D01*
X80427285Y-133428619D01*
X80524047Y-133380238D01*
X80572428Y-133331857D01*
X94028380Y-133428619D02*
X94367047Y-132944809D01*
X94608952Y-133428619D02*
X94608952Y-132412619D01*
X94221904Y-132412619D01*
X94125142Y-132461000D01*
X94076761Y-132509380D01*
X94028380Y-132606142D01*
X94028380Y-132751285D01*
X94076761Y-132848047D01*
X94125142Y-132896428D01*
X94221904Y-132944809D01*
X94608952Y-132944809D01*
X93205904Y-133380238D02*
X93302666Y-133428619D01*
X93496190Y-133428619D01*
X93592952Y-133380238D01*
X93641333Y-133283476D01*
X93641333Y-132896428D01*
X93592952Y-132799666D01*
X93496190Y-132751285D01*
X93302666Y-132751285D01*
X93205904Y-132799666D01*
X93157523Y-132896428D01*
X93157523Y-132993190D01*
X93641333Y-133089952D01*
X92818857Y-132751285D02*
X92576952Y-133428619D01*
X92335047Y-132751285D01*
X91948000Y-133331857D02*
X91899619Y-133380238D01*
X91948000Y-133428619D01*
X91996380Y-133380238D01*
X91948000Y-133331857D01*
X91948000Y-133428619D01*
X90738476Y-133138333D02*
X90254666Y-133138333D01*
X90835238Y-133428619D02*
X90496571Y-132412619D01*
X90157904Y-133428619D01*
X79628556Y-155853371D02*
G75*
G02X79375000Y-156464000I-865696J1511D01*
G01*
X78182020Y-154358180D02*
G75*
G02X78689200Y-155389580I-991420J-1127920D01*
G01*
X79099340Y-156494046D02*
G75*
G02X78689200Y-155397200I1118940J1043506D01*
G01*
X79376788Y-156592791D02*
G75*
G02X79072740Y-156466540I752J431051D01*
G01*
X78810340Y-156586613D02*
G75*
G02X78308200Y-155790900I709440J1003993D01*
G01*
X77928795Y-154452066D02*
G75*
G02X78282800Y-155442920I-1408755J-1061974D01*
G01*
X78461927Y-156592303D02*
G75*
G02X78262480Y-156568140I-1327J824263D01*
G01*
X78260497Y-156567453D02*
G75*
G02X77680820Y-156293820I205183J1185493D01*
G01*
X77656946Y-156271974D02*
G75*
G02X77343000Y-155514040I757934J757934D01*
G01*
X77343283Y-155514487D02*
G75*
G02X77414120Y-155145740I992857J447D01*
G01*
X77478148Y-154211136D02*
G75*
G02X77414120Y-155145740I-1478808J-368184D01*
G01*
X78780000Y-154232511D02*
G75*
G02X79502000Y-154876500I-601340J-1400909D01*
G01*
X79555794Y-154972321D02*
G75*
G02X79756000Y-155727400I-1323794J-755079D01*
G01*
X79757874Y-155727901D02*
G75*
G02X79672180Y-156171900I-1195674J501D01*
G01*
X79801720Y-156846612D02*
G75*
G02X79509620Y-156725620I0J413092D01*
G01*
X80159134Y-156696954D02*
G75*
G02X79801720Y-156845000I-357414J357414D01*
G01*
X80532258Y-156862710D02*
G75*
G02X80264000Y-156210000I653762J650170D01*
G01*
X80769978Y-157480280D02*
G75*
G02X80264000Y-156255720I1228842J1224560D01*
G01*
X84334379Y-152941186D02*
G75*
G02X82991960Y-153156920I-1812319J6992786D01*
G01*
X81210130Y-153730934D02*
G75*
G02X82473800Y-153230580I2134890J-3545866D01*
G01*
X80143641Y-154808765D02*
G75*
G02X81198720Y-153738580I3831299J-2722035D01*
G01*
X80263155Y-156083069D02*
G75*
G02X80383380Y-155145740I762845J378529D01*
G01*
X80554473Y-154957156D02*
G75*
G02X83108800Y-153687780I3654147J-4148444D01*
G01*
X85445541Y-152876778D02*
G75*
G02X83418680Y-153626820I-2631381J3997218D01*
G01*
X80711549Y-157168559D02*
G75*
G02X80264000Y-156083000I1086611J1083019D01*
G01*
X80137760Y-154431243D02*
G75*
G02X80197960Y-153753820I3049780J70363D01*
G01*
X80344736Y-153150585D02*
G75*
G02X82395060Y-151638000I2144304J-760715D01*
G01*
X86258952Y-151493522D02*
G75*
G02X84543900Y-151833580I-1268012J1900222D01*
G01*
X84232933Y-155417013D02*
G75*
G02X82367120Y-156083000I-1738813J1924813D01*
G01*
X86253464Y-152997447D02*
G75*
G02X84272120Y-155379420I-8344044J4925607D01*
G01*
X80540860Y-155806140D02*
G75*
G02X81259680Y-155808680I358140J-360680D01*
G01*
X81851500Y-156085066D02*
G75*
G02X81313020Y-155862020I0J761526D01*
G01*
X82169000Y-159893000D02*
G75*
G02X80645000Y-158369000I0J1524000D01*
G01*
X95504000Y-158369000D02*
G75*
G02X93980000Y-159893000I-1524000J0D01*
G01*
X93980000Y-156845000D02*
G75*
G02X95504000Y-158369000I0J-1524000D01*
G01*
X80645000Y-158369000D02*
G75*
G02X82169000Y-156845000I1524000J0D01*
G01*
X82169000Y-156845000D02*
X93980000Y-156845000D01*
X93980000Y-159893000D02*
X82169000Y-159893000D01*
X81313020Y-155862020D02*
X81259680Y-155808680D01*
X80540860Y-155808680D02*
X80264000Y-156083000D01*
X87122000Y-150876000D02*
X86255860Y-152991820D01*
X84272120Y-155379420D02*
X84236560Y-155414980D01*
X82367120Y-156083000D02*
X81851500Y-156083000D01*
X87122000Y-150876000D02*
X86260940Y-151495760D01*
X84543900Y-151833580D02*
X82395060Y-151638000D01*
X80345280Y-153154380D02*
X80197960Y-153753820D01*
X80139540Y-154432000D02*
X80139540Y-154813000D01*
X80241140Y-156037280D02*
X80264000Y-156083000D01*
X80899000Y-157353000D02*
X80713580Y-157167580D01*
X85727540Y-152527000D02*
X85445600Y-152874980D01*
X83418680Y-153626820D02*
X83108800Y-153687780D01*
X80553560Y-154957780D02*
X80383380Y-155145740D01*
X80139540Y-154813000D02*
X80142080Y-154810460D01*
X81198720Y-153738580D02*
X81206340Y-153733500D01*
X82473800Y-153230580D02*
X82991960Y-153156920D01*
X84340700Y-152941020D02*
X85727540Y-152527000D01*
X80899000Y-157480000D02*
X80391000Y-156718000D01*
X80264000Y-156255720D02*
X80264000Y-156210000D01*
X81026000Y-157353000D02*
X80535780Y-156862780D01*
X80264000Y-156591000D02*
X80159860Y-156697680D01*
X79509620Y-156725620D02*
X79375000Y-156591000D01*
X79375000Y-156591000D02*
X79672180Y-156171900D01*
X79555340Y-154970480D02*
X79502000Y-154876500D01*
X78780640Y-154231340D02*
X78359000Y-154051000D01*
X78359000Y-154051000D02*
X77343000Y-153670000D01*
X77343000Y-153670000D02*
X77477620Y-154208480D01*
X77657960Y-156270960D02*
X77680820Y-156293820D01*
X78460600Y-156591000D02*
X78816200Y-156591000D01*
X79362300Y-156591000D02*
X79375000Y-156591000D01*
X78282800Y-155399740D02*
X78308200Y-155790900D01*
X86741000Y-151384000D02*
X85727540Y-152021540D01*
D12*
X85727540Y-152021540D02*
X84582000Y-152021540D01*
X84582000Y-152021540D02*
X83566000Y-151892000D01*
X83566000Y-151892000D02*
X81915000Y-151892000D01*
X81915000Y-151892000D02*
X81280000Y-152273000D01*
X81280000Y-152273000D02*
X80772000Y-152781000D01*
X80772000Y-152781000D02*
X80518000Y-153289000D01*
X80518000Y-153289000D02*
X80391000Y-154305000D01*
X80391000Y-154305000D02*
X80899000Y-153670000D01*
X80899000Y-153670000D02*
X81534000Y-153289000D01*
X81534000Y-153289000D02*
X81280000Y-152781000D01*
X81280000Y-152781000D02*
X80899000Y-153289000D01*
X81661000Y-153289000D02*
X82296000Y-152908000D01*
X82296000Y-152908000D02*
X82804000Y-152908000D01*
X82804000Y-152908000D02*
X82931000Y-152908000D01*
X82931000Y-152908000D02*
X84074000Y-152781000D01*
X84074000Y-152781000D02*
X85344000Y-152400000D01*
X85344000Y-152400000D02*
X85852000Y-152273000D01*
X85852000Y-152273000D02*
X81280000Y-152273000D01*
X81280000Y-152273000D02*
X81280000Y-152527000D01*
X81280000Y-152781000D02*
X81280000Y-152527000D01*
X81280000Y-152527000D02*
X86233000Y-152450800D01*
X81153000Y-152908000D02*
X82804000Y-152908000D01*
X86741000Y-151384000D02*
X86233000Y-152273000D01*
X86233000Y-152273000D02*
X86106000Y-152781000D01*
X86106000Y-152781000D02*
X85727540Y-153289000D01*
X85727540Y-153289000D02*
X85727540Y-152908000D01*
X85727540Y-152908000D02*
X86106000Y-152021540D01*
X85598000Y-153416000D02*
X85217000Y-153924000D01*
X85217000Y-153924000D02*
X84963000Y-154305000D01*
X84963000Y-154305000D02*
X84074000Y-155194000D01*
X84074000Y-155194000D02*
X83566000Y-155575000D01*
X83566000Y-155575000D02*
X82677000Y-155829000D01*
X82677000Y-155829000D02*
X81788000Y-155829000D01*
X81788000Y-155829000D02*
X81026000Y-155321000D01*
X81026000Y-155321000D02*
X80645000Y-155448000D01*
X80645000Y-155448000D02*
X80391000Y-155702000D01*
X80391000Y-155702000D02*
X80645000Y-155194000D01*
X80645000Y-155194000D02*
X81153000Y-154686000D01*
X81153000Y-154686000D02*
X81838800Y-154279600D01*
X81838800Y-154279600D02*
X83235800Y-153797000D01*
X83235800Y-153797000D02*
X83845400Y-153797000D01*
X83845400Y-153797000D02*
X84582000Y-153543000D01*
X84582000Y-153543000D02*
X85344000Y-153162000D01*
X85217000Y-153543000D02*
X84455000Y-154178000D01*
X84455000Y-154178000D02*
X84328000Y-154051000D01*
X84328000Y-154051000D02*
X84201000Y-154051000D01*
X84201000Y-154051000D02*
X83058000Y-154178000D01*
X83058000Y-154178000D02*
X82042000Y-154432000D01*
X82042000Y-154432000D02*
X81407000Y-154940000D01*
X81407000Y-154940000D02*
X81280000Y-155067000D01*
X81280000Y-155067000D02*
X81407000Y-155321000D01*
X81407000Y-155321000D02*
X81661000Y-155321000D01*
X81661000Y-155321000D02*
X82042000Y-155448000D01*
X82042000Y-155448000D02*
X82677000Y-155448000D01*
X82677000Y-155448000D02*
X83058000Y-155321000D01*
X83058000Y-155321000D02*
X83566000Y-155194000D01*
X83566000Y-155194000D02*
X84201000Y-154686000D01*
X84201000Y-154686000D02*
X84328000Y-154559000D01*
X84328000Y-154559000D02*
X84201000Y-154432000D01*
X84201000Y-154432000D02*
X83693000Y-154432000D01*
X83693000Y-154432000D02*
X82677000Y-154686000D01*
X82677000Y-154686000D02*
X82423000Y-154686000D01*
X82423000Y-154686000D02*
X81915000Y-154940000D01*
X81915000Y-154940000D02*
X81915000Y-155067000D01*
X81915000Y-155067000D02*
X82042000Y-155194000D01*
X82042000Y-155194000D02*
X82423000Y-155067000D01*
X82423000Y-155067000D02*
X83693000Y-154813000D01*
D11*
X79072740Y-156466540D02*
X79100680Y-156494480D01*
X78689200Y-155397200D02*
X78689200Y-155389580D01*
X79629000Y-155851860D02*
X79629000Y-155829000D01*
X79629000Y-155829000D02*
X79629000Y-155575000D01*
X79629000Y-155575000D02*
X79502000Y-155575000D01*
X79502000Y-155575000D02*
X79375000Y-155575000D01*
X79375000Y-155575000D02*
X79375000Y-156210000D01*
X79502000Y-155575000D02*
X79502000Y-155702000D01*
X79502000Y-155702000D02*
X79502000Y-156083000D01*
X79502000Y-156083000D02*
X79502000Y-156210000D01*
X79502000Y-156210000D02*
X79502000Y-156337000D01*
X79375000Y-155575000D02*
X78994000Y-155575000D01*
X78994000Y-155575000D02*
X78740000Y-155575000D01*
X78740000Y-155575000D02*
X79248000Y-156464000D01*
X78994000Y-155575000D02*
X78994000Y-156083000D01*
X79502000Y-155702000D02*
X78867000Y-155702000D01*
X79629000Y-155829000D02*
X78867000Y-155829000D01*
X79629000Y-155956000D02*
X78867000Y-155956000D01*
X79502000Y-156083000D02*
X78867000Y-156083000D01*
X79502000Y-156210000D02*
X78994000Y-156210000D01*
X78740000Y-155448000D02*
X79629000Y-155448000D01*
X78740000Y-155321000D02*
X79629000Y-155321000D01*
X78740000Y-155194000D02*
X79502000Y-155194000D01*
X78740000Y-155067000D02*
X79502000Y-155067000D01*
X78613000Y-154940000D02*
X79502000Y-154940000D01*
X78613000Y-154813000D02*
X79375000Y-154813000D01*
X78486000Y-154686000D02*
X79248000Y-154686000D01*
X78486000Y-154559000D02*
X79121000Y-154559000D01*
X78359000Y-154432000D02*
X78867000Y-154432000D01*
X77597000Y-154305000D02*
X77724000Y-154305000D01*
X77724000Y-154305000D02*
X77851000Y-154305000D01*
X77851000Y-154305000D02*
X78740000Y-154305000D01*
X78359000Y-154178000D02*
X77597000Y-154178000D01*
X78105000Y-154051000D02*
X77470000Y-154051000D01*
X77978000Y-153924000D02*
X77470000Y-153924000D01*
X77851000Y-154305000D02*
X77851000Y-154813000D01*
X77724000Y-154305000D02*
X77724000Y-154813000D01*
X78105000Y-154813000D02*
X77597000Y-154813000D01*
X78105000Y-154940000D02*
X77597000Y-154940000D01*
X78232000Y-155067000D02*
X77597000Y-155067000D01*
X78232000Y-155194000D02*
X77470000Y-155194000D01*
X78232000Y-155321000D02*
X77470000Y-155321000D01*
X78232000Y-155448000D02*
X77470000Y-155448000D01*
X78232000Y-155575000D02*
X77470000Y-155575000D01*
X78232000Y-155702000D02*
X77470000Y-155702000D01*
X78232000Y-155829000D02*
X77470000Y-155829000D01*
X78308200Y-155956000D02*
X77470000Y-155956000D01*
X78359000Y-156083000D02*
X77597000Y-156083000D01*
X78359000Y-156210000D02*
X77724000Y-156210000D01*
X78486000Y-156337000D02*
X77851000Y-156337000D01*
X78613000Y-156464000D02*
X78105000Y-156464000D01*
X73942000Y-137255000D02*
G75*
G03X73942000Y-133255000I0J2000000D01*
G01*
D13*
X73991980Y-137005000D02*
G75*
G03X73992000Y-133505000I-49980J1750000D01*
G01*
D11*
X73942000Y-136755000D02*
G75*
G03X73942000Y-133755000I0J1500000D01*
G01*
D13*
X77491980Y-137005000D02*
G75*
G03X77492000Y-133505000I-49980J1750000D01*
G01*
D11*
X77442000Y-137255000D02*
G75*
G03X77442000Y-133255000I0J2000000D01*
G01*
X77442000Y-136755000D02*
G75*
G03X77442000Y-133755000I0J1500000D01*
G01*
X77442000Y-133255000D02*
X77442000Y-133755000D01*
X77442000Y-136755000D02*
X77442000Y-137255000D01*
X73942000Y-136755000D02*
X73942000Y-137255000D01*
X73942000Y-133255000D02*
X73942000Y-133755000D01*
X75442000Y-135005000D02*
X74192000Y-135005000D01*
X74192000Y-135005000D02*
X74192000Y-135505000D01*
X74192000Y-135505000D02*
X75442000Y-135505000D01*
X74192000Y-135255000D02*
X75442000Y-135255000D01*
D14*
X94213680Y-147751800D02*
X93880940Y-148483320D01*
X94213680Y-147843240D02*
X93032580Y-148856700D01*
X94099380Y-147706080D02*
X93482160Y-148033740D01*
X93779340Y-147286980D02*
X93169740Y-147393660D01*
X92943680Y-146128740D02*
X93665040Y-146276060D01*
X93184980Y-145435320D02*
X93840300Y-145801080D01*
X94053660Y-144566640D02*
X94472760Y-145153380D01*
X94640400Y-144315180D02*
X94861380Y-145000980D01*
X95905320Y-144299940D02*
X95737680Y-144909540D01*
X96339660Y-144559020D02*
X96164400Y-144917160D01*
X97337880Y-145336260D02*
X96880680Y-145625820D01*
X97513140Y-145816320D02*
X97071180Y-145976340D01*
X97838260Y-147060920D02*
X97132140Y-146933920D01*
X97589340Y-147706080D02*
X97025460Y-147226020D01*
X96923860Y-148605240D02*
X96558100Y-147843240D01*
X92133420Y-146552920D02*
X93601540Y-146639280D01*
X93124020Y-144368520D02*
X94236540Y-145435320D01*
X95389700Y-143311880D02*
X95384620Y-144825720D01*
X97650300Y-144287240D02*
X96588580Y-145394680D01*
X98635820Y-146573240D02*
X97218500Y-146512280D01*
X97599500Y-148777960D02*
X96746060Y-147756880D01*
D15*
X96583500Y-147347940D02*
X96276160Y-147614640D01*
X96913700Y-144434560D02*
X95930720Y-143941800D01*
X94734380Y-147939760D02*
X94856300Y-147655280D01*
X94597220Y-147485100D02*
X94851220Y-147650200D01*
X96098360Y-147482560D02*
X95872300Y-147657820D01*
X96466660Y-147368260D02*
X96207580Y-147706080D01*
X96690180Y-147147280D02*
X96596200Y-147317460D01*
X96690180Y-147147280D02*
X96596200Y-147317460D01*
X96827340Y-146293840D02*
X96695260Y-147116800D01*
X96403160Y-145557240D02*
X96822260Y-146288760D01*
X95531940Y-145127980D02*
X96403160Y-145557240D01*
X94716600Y-145295620D02*
X95531940Y-145135600D01*
X94206060Y-145724880D02*
X94716600Y-145295620D01*
X93972380Y-146397980D02*
X94206060Y-145724880D01*
X93977460Y-146903440D02*
X93977460Y-146385280D01*
X94353380Y-147614640D02*
X93977460Y-146903440D01*
X94531180Y-147736560D02*
X94353380Y-147614640D01*
X97802700Y-143715740D02*
X96918780Y-144437100D01*
X97558860Y-145069560D02*
X98160840Y-144160240D01*
X97563940Y-145064480D02*
X97950020Y-146062700D01*
X99093020Y-146331940D02*
X97977960Y-146085560D01*
X98950780Y-146276060D02*
X98950780Y-146926300D01*
X94574360Y-147678140D02*
X94046040Y-149059900D01*
X94183200Y-149357080D02*
X94569280Y-148376640D01*
X93654880Y-149029420D02*
X94183200Y-149357080D01*
X92971620Y-149362160D02*
X93792040Y-148833840D01*
X93835220Y-149057360D02*
X92958920Y-149677120D01*
X92948760Y-149672040D02*
X92265500Y-148981160D01*
X92552520Y-148897340D02*
X93037660Y-149428200D01*
X92519500Y-147261580D02*
X92900500Y-148242020D01*
X92623640Y-147294600D02*
X91500960Y-147083780D01*
X91485720Y-146105880D02*
X91488260Y-147063460D01*
X91569540Y-146847560D02*
X92676980Y-147071080D01*
X92872560Y-145077180D02*
X92506800Y-145945860D01*
X92257880Y-144195800D02*
X92961460Y-145186400D01*
X92956380Y-143497300D02*
X92262960Y-144188180D01*
X93972380Y-144172940D02*
X92961460Y-143499840D01*
X94658180Y-143786860D02*
X93853000Y-144124680D01*
X94874080Y-142697200D02*
X94648020Y-143868140D01*
X95839280Y-142697200D02*
X94874080Y-142697200D01*
X95849440Y-142704820D02*
X96050100Y-143730980D01*
X96837500Y-144099280D02*
X95933260Y-143720820D01*
X97772220Y-143451580D02*
X96801940Y-144167860D01*
X98458020Y-144167860D02*
X97784920Y-143454120D01*
X98437700Y-144203420D02*
X97843340Y-145056860D01*
X98176080Y-145887440D02*
X97840800Y-145054320D01*
X99245420Y-146085560D02*
X98074480Y-145882360D01*
X99242880Y-146088100D02*
X99242880Y-147073620D01*
X99242880Y-147081240D02*
X98171000Y-147276820D01*
X98480880Y-148988780D02*
X97883980Y-148125180D01*
X97751900Y-149684740D02*
X98473260Y-148991320D01*
X96918780Y-149113240D02*
X97744280Y-149677120D01*
X96906080Y-149123400D02*
X96560640Y-149344380D01*
X96522540Y-149326600D02*
X95872300Y-147657820D01*
D16*
X92956380Y-149517100D02*
X92402660Y-148971000D01*
X93022420Y-148076920D02*
X92402660Y-148963380D01*
X94145100Y-149143720D02*
X94719140Y-147703540D01*
X93807280Y-148958300D02*
X94145100Y-149143720D01*
X92971620Y-149524720D02*
X93807280Y-148958300D01*
X92616020Y-147165060D02*
X93022420Y-148076920D01*
X91602560Y-146994880D02*
X92616020Y-147165060D01*
X91602560Y-146159220D02*
X91602560Y-146994880D01*
X92684600Y-145930620D02*
X91602560Y-146159220D01*
X93024960Y-144993360D02*
X92684600Y-145930620D01*
X92407740Y-144203420D02*
X93024960Y-144993360D01*
X92961460Y-143654780D02*
X92407740Y-144200880D01*
X93865700Y-144287240D02*
X92961460Y-143652800D01*
X94780100Y-143842740D02*
X93878400Y-144292320D01*
X94993460Y-142824200D02*
X94780100Y-143842740D01*
X95760540Y-142803880D02*
X94975680Y-142803880D01*
X95752920Y-142816580D02*
X95958660Y-143830040D01*
X96857820Y-144256760D02*
X96012000Y-143850360D01*
X97746820Y-143614140D02*
X96918780Y-144266920D01*
D17*
X98295460Y-144172940D02*
X97795080Y-143639540D01*
D16*
X98285300Y-144195800D02*
X97729040Y-145046700D01*
X98056700Y-145963640D02*
X97708720Y-145097500D01*
X99105720Y-146179540D02*
X98087180Y-145999200D01*
D17*
X99093020Y-146192240D02*
X99098100Y-146979640D01*
D16*
X99103180Y-146969480D02*
X98153220Y-147187920D01*
X98125280Y-147210780D02*
X97767140Y-148094700D01*
X98300540Y-148971000D02*
X97767140Y-148137880D01*
D17*
X98315780Y-148971000D02*
X97751900Y-149509480D01*
D18*
X97739200Y-149509480D02*
X96959420Y-148978620D01*
D16*
X96949260Y-148960840D02*
X96631760Y-149166580D01*
D19*
X96603820Y-149146260D02*
X96052640Y-147723860D01*
D16*
X96278700Y-145679160D02*
G75*
G02X96202500Y-147533360I-965200J-889000D01*
G01*
X94327980Y-145851880D02*
G75*
G02X96253300Y-145653760I1061720J-863600D01*
G01*
X94708980Y-147701000D02*
G75*
G02X94338140Y-145836640I746760J1117600D01*
G01*
D20*
X83705700Y-137871200D02*
X82334100Y-137871200D01*
X82334100Y-137871200D02*
X82283300Y-137871200D01*
X82283300Y-137871200D02*
X81026000Y-139115800D01*
X85229700Y-137985500D02*
X85128100Y-137985500D01*
X85077300Y-137922000D02*
X85077300Y-137909300D01*
X85077300Y-137909300D02*
X86372700Y-137909300D01*
X86372700Y-137909300D02*
X86398100Y-137909300D01*
X86398100Y-137909300D02*
X87020400Y-138404600D01*
X85077300Y-140931900D02*
X85077300Y-137922000D01*
X88734900Y-137972800D02*
X88811100Y-137972800D01*
X88887300Y-137909300D02*
X87642700Y-137909300D01*
X87642700Y-137909300D02*
X87058500Y-138391900D01*
X88887300Y-140906500D02*
X88887300Y-137922000D01*
X89623900Y-140500100D02*
X89535000Y-140500100D01*
X89966800Y-140500100D02*
X90030300Y-140500100D01*
X90106500Y-140563600D02*
X89496900Y-140563600D01*
X89496900Y-140563600D02*
X89471500Y-140563600D01*
X89471500Y-140563600D02*
X89471500Y-138544300D01*
X90106500Y-138544300D02*
X90106500Y-140563600D01*
X91605100Y-137934700D02*
X91490800Y-137934700D01*
X91732100Y-137858500D02*
X91427300Y-137858500D01*
X91427300Y-137858500D02*
X91427300Y-140893800D01*
X91909900Y-137947400D02*
X91973400Y-137934700D01*
X92024200Y-137858500D02*
X92036900Y-137858500D01*
X92036900Y-137858500D02*
X92049600Y-137858500D01*
X92049600Y-137858500D02*
X92049600Y-141008100D01*
X91744800Y-137858500D02*
X92024200Y-137858500D01*
D21*
X91744800Y-140931900D02*
X91744800Y-138201400D01*
X85407500Y-138214100D02*
X85407500Y-140817600D01*
X93522800Y-138201400D02*
X94526100Y-138201400D01*
X92900500Y-138811000D02*
X92900500Y-140741400D01*
X95123000Y-138849100D02*
X95123000Y-139090400D01*
X95123000Y-140817600D02*
X94538800Y-141389100D01*
X95110300Y-140830300D02*
X95110300Y-140068300D01*
X94551500Y-141389100D02*
X93510100Y-141389100D01*
D18*
X82782659Y-139776200D02*
G75*
G03X82782659Y-139776200I-359659J0D01*
G01*
D21*
X82931000Y-139776200D02*
X84150200Y-139776200D01*
D18*
X79848735Y-138036300D02*
G75*
G03X79848735Y-138036300I-359435J0D01*
G01*
D21*
X79857600Y-138391900D02*
X80721200Y-139285600D01*
D22*
X81280000Y-139382500D02*
X80721200Y-139382500D01*
D21*
X82397600Y-138201400D02*
X81305400Y-139268200D01*
X83619500Y-138201400D02*
X82397600Y-138201400D01*
X84150200Y-138684000D02*
X83667600Y-138176000D01*
X84150200Y-138709400D02*
X84150200Y-140944600D01*
X84150200Y-140944600D02*
X83718400Y-141376400D01*
X83718400Y-141376400D02*
X82397600Y-141376400D01*
X82397600Y-141376400D02*
X81254600Y-140258800D01*
D22*
X81254600Y-140157200D02*
X80721200Y-140157200D01*
D21*
X79908400Y-141071600D02*
X80746600Y-140258800D01*
D18*
X79907666Y-141427200D02*
G75*
G03X79907666Y-141427200I-329466J0D01*
G01*
X85770729Y-141338300D02*
G75*
G03X85770729Y-141338300I-363229J0D01*
G01*
D21*
X86309200Y-138226800D02*
X85420200Y-138226800D01*
D18*
X87391318Y-140055600D02*
G75*
G03X87391318Y-140055600I-370918J0D01*
G01*
D21*
X86944200Y-138734800D02*
X86309200Y-138226800D01*
X87020400Y-139522200D02*
X87020400Y-138811000D01*
X87731600Y-138226800D02*
X87122000Y-138734800D01*
X88569800Y-138226800D02*
X87731600Y-138226800D01*
X88569800Y-140817600D02*
X88569800Y-138226800D01*
D18*
X88916759Y-141325600D02*
G75*
G03X88916759Y-141325600I-359659J0D01*
G01*
X90149818Y-138125200D02*
G75*
G03X90149818Y-138125200I-373518J0D01*
G01*
D21*
X89789000Y-138658600D02*
X89789000Y-140258800D01*
D18*
X90155324Y-141351000D02*
G75*
G03X90155324Y-141351000I-366324J0D01*
G01*
D21*
X90301800Y-141376400D02*
X91287600Y-141376400D01*
X91287600Y-141376400D02*
X91744800Y-140919200D01*
X92913200Y-140779500D02*
X93472000Y-141363700D01*
X93522800Y-138214100D02*
X92887800Y-138823700D01*
X95123000Y-138798300D02*
X94615000Y-138290300D01*
D18*
X95447747Y-139573000D02*
G75*
G03X95447747Y-139573000I-337447J0D01*
G01*
D15*
X83010000Y-149556000D02*
X83010000Y-150318000D01*
X87582000Y-149556000D02*
X83010000Y-149556000D01*
X87582000Y-150318000D02*
X87582000Y-149556000D01*
X83010000Y-150318000D02*
X87582000Y-150318000D01*
X83060800Y-149606800D02*
X87480400Y-149606800D01*
X87531200Y-149708400D02*
X83060800Y-149708400D01*
X83060800Y-149860800D02*
X87480400Y-149860800D01*
X83060800Y-150013200D02*
X87480400Y-150013200D01*
X87531200Y-149759200D02*
X83111600Y-149759200D01*
X87531200Y-149911600D02*
X83060800Y-149911600D01*
X83111600Y-150114800D02*
X87480400Y-150114800D01*
X87531200Y-150216400D02*
X83111600Y-150216400D01*
D11*
X87376000Y-144780000D02*
X83185000Y-148971000D01*
X87249000Y-148844000D02*
X83185000Y-144907000D01*
X86233000Y-148463000D02*
X84836000Y-148463000D01*
X86233000Y-148463000D02*
X86487000Y-145415000D01*
X86741000Y-145288000D02*
X83820000Y-145288000D01*
X85725000Y-148844000D02*
X85725000Y-148590000D01*
X86233000Y-148844000D02*
X85725000Y-148844000D01*
X86233000Y-148463000D02*
X86233000Y-148844000D01*
X84328000Y-147955000D02*
X84201000Y-145923000D01*
X84729609Y-148463000D02*
G75*
G03X84729609Y-148463000I-401609J0D01*
G01*
X86106000Y-144653000D02*
X86106000Y-145161000D01*
X86233000Y-144653000D02*
X86106000Y-144653000D01*
X86233000Y-145161000D02*
X86233000Y-144653000D01*
X83820000Y-145796000D02*
X83820000Y-145288000D01*
X84201000Y-145796000D02*
X83820000Y-145796000D01*
X84201000Y-145288000D02*
X84201000Y-145796000D01*
X84074000Y-145415000D02*
X84074000Y-145542000D01*
X84074000Y-145288000D02*
X83947000Y-145669000D01*
X84074000Y-145415000D02*
X84074000Y-145542000D01*
X83947000Y-145415000D02*
X83947000Y-145796000D01*
X84074000Y-145415000D02*
X83947000Y-145415000D01*
X84074000Y-145796000D02*
X84074000Y-145415000D01*
X85471000Y-146177000D02*
X85471000Y-145796000D01*
X84582000Y-146177000D02*
X85471000Y-146177000D01*
X84582000Y-145796000D02*
X84582000Y-146177000D01*
X85471000Y-145796000D02*
X84582000Y-145796000D01*
X85344000Y-145923000D02*
X84709000Y-145923000D01*
X85090000Y-144399000D02*
X85471000Y-144399000D01*
X85090000Y-144526000D02*
X85090000Y-144399000D01*
X85471000Y-144526000D02*
X85090000Y-144526000D01*
X85471000Y-144399000D02*
X85471000Y-144526000D01*
D23*
X84455000Y-148463000D02*
G75*
G03X84455000Y-148463000I-127000J0D01*
G01*
D11*
X84201000Y-145161000D02*
G75*
G02X86487000Y-145161000I1143000J-1143000D01*
G01*
X100430437Y-135067040D02*
G75*
G03X100430437Y-135067040I-1802237J0D01*
G01*
D24*
X99788980Y-133903720D02*
X97355660Y-136324340D01*
D11*
X77089000Y-142875000D02*
X80645000Y-149987000D01*
X80645000Y-149987000D02*
X73533000Y-149987000D01*
X73533000Y-149987000D02*
X74866500Y-147320000D01*
X74866500Y-147320000D02*
X75311000Y-146431000D01*
X75311000Y-146431000D02*
X77089000Y-142875000D01*
X78867000Y-146494500D02*
X73533000Y-149987000D01*
X76492100Y-146431000D02*
X75311000Y-146431000D01*
X74866500Y-147320000D02*
X75184000Y-147320000D01*
X77851000Y-148907500D02*
X77698600Y-148907500D01*
X78803500Y-147510500D02*
X78803500Y-148590000D01*
X78359000Y-148907500D02*
X78359000Y-148780500D01*
X78422500Y-148717000D02*
X78422500Y-147701000D01*
X78422500Y-148717000D02*
X78486000Y-148717000D01*
X78486000Y-148717000D02*
G75*
G02X78613000Y-148844000I0J-127000D01*
G01*
X78359000Y-148780500D02*
G75*
G02X78422500Y-148717000I63500J0D01*
G01*
X78420071Y-148973545D02*
G75*
G02X78359000Y-148907500I2429J63505D01*
G01*
X78803500Y-148590000D02*
G75*
G02X78422500Y-148971000I-381000J0D01*
G01*
X78614048Y-147194575D02*
G75*
G02X78803500Y-147510500I-168688J-315925D01*
G01*
X78611549Y-147193142D02*
G75*
G02X78295500Y-146875500I478971J792622D01*
G01*
X78420935Y-147702845D02*
G75*
G02X77724000Y-147256500I153965J1007685D01*
G01*
X77977068Y-148463674D02*
G75*
G02X77978000Y-148780500I-316568J-159346D01*
G01*
X77977967Y-148780600D02*
G75*
G02X77851000Y-148907500I-190467J63600D01*
G01*
X76649275Y-148019493D02*
G75*
G02X77089000Y-148145500I-825195J-3709947D01*
G01*
X77088915Y-148146965D02*
G75*
G02X77660500Y-148907500I-284395J-808795D01*
G01*
X77026708Y-147702166D02*
G75*
G02X77978000Y-148463000I-285688J-1332334D01*
G01*
X76514461Y-147956576D02*
G75*
G02X75692000Y-147510500I147819J1253796D01*
G01*
X75183301Y-147320474D02*
G75*
G02X75692000Y-147510500I64199J-604046D01*
G01*
X76707915Y-146369114D02*
G75*
G02X76492100Y-146431000I-182795J230214D01*
G01*
X76708721Y-146367678D02*
G75*
G02X78295500Y-146875500I466639J-1274902D01*
G01*
D25*
X93537193Y-159054800D02*
X93621860Y-159139466D01*
X93875860Y-159224133D01*
X94045193Y-159224133D01*
X94299193Y-159139466D01*
X94468526Y-158970133D01*
X94553193Y-158800800D01*
X94637860Y-158462133D01*
X94637860Y-158208133D01*
X94553193Y-157869466D01*
X94468526Y-157700133D01*
X94299193Y-157530800D01*
X94045193Y-157446133D01*
X93875860Y-157446133D01*
X93621860Y-157530800D01*
X93537193Y-157615466D01*
X92521193Y-159224133D02*
X92690526Y-159139466D01*
X92775193Y-159054800D01*
X92859860Y-158885466D01*
X92859860Y-158377466D01*
X92775193Y-158208133D01*
X92690526Y-158123466D01*
X92521193Y-158038800D01*
X92267193Y-158038800D01*
X92097860Y-158123466D01*
X92013193Y-158208133D01*
X91928526Y-158377466D01*
X91928526Y-158885466D01*
X92013193Y-159054800D01*
X92097860Y-159139466D01*
X92267193Y-159224133D01*
X92521193Y-159224133D01*
X91166526Y-159224133D02*
X91166526Y-158038800D01*
X91166526Y-158208133D02*
X91081860Y-158123466D01*
X90912526Y-158038800D01*
X90658526Y-158038800D01*
X90489193Y-158123466D01*
X90404526Y-158292800D01*
X90404526Y-159224133D01*
X90404526Y-158292800D02*
X90319860Y-158123466D01*
X90150526Y-158038800D01*
X89896526Y-158038800D01*
X89727193Y-158123466D01*
X89642526Y-158292800D01*
X89642526Y-159224133D01*
X88795860Y-158038800D02*
X88795860Y-159816800D01*
X88795860Y-158123466D02*
X88626526Y-158038800D01*
X88287860Y-158038800D01*
X88118526Y-158123466D01*
X88033860Y-158208133D01*
X87949193Y-158377466D01*
X87949193Y-158885466D01*
X88033860Y-159054800D01*
X88118526Y-159139466D01*
X88287860Y-159224133D01*
X88626526Y-159224133D01*
X88795860Y-159139466D01*
X86933193Y-159224133D02*
X87102526Y-159139466D01*
X87187193Y-158970133D01*
X87187193Y-157446133D01*
X86255860Y-159224133D02*
X86255860Y-158038800D01*
X86255860Y-157446133D02*
X86340526Y-157530800D01*
X86255860Y-157615466D01*
X86171193Y-157530800D01*
X86255860Y-157446133D01*
X86255860Y-157615466D01*
X84647193Y-159224133D02*
X84647193Y-158292800D01*
X84731860Y-158123466D01*
X84901193Y-158038800D01*
X85239860Y-158038800D01*
X85409193Y-158123466D01*
X84647193Y-159139466D02*
X84816526Y-159224133D01*
X85239860Y-159224133D01*
X85409193Y-159139466D01*
X85493860Y-158970133D01*
X85493860Y-158800800D01*
X85409193Y-158631466D01*
X85239860Y-158546800D01*
X84816526Y-158546800D01*
X84647193Y-158462133D01*
X83800526Y-158038800D02*
X83800526Y-159224133D01*
X83800526Y-158208133D02*
X83715860Y-158123466D01*
X83546526Y-158038800D01*
X83292526Y-158038800D01*
X83123193Y-158123466D01*
X83038526Y-158292800D01*
X83038526Y-159224133D01*
X82445860Y-158038800D02*
X81768526Y-158038800D01*
X82191860Y-157446133D02*
X82191860Y-158970133D01*
X82107193Y-159139466D01*
X81937860Y-159224133D01*
X81768526Y-159224133D01*
D22*
X92958634Y-156119081D02*
X93625300Y-155166700D01*
X94101491Y-156119081D02*
X94101491Y-154119081D01*
X93339586Y-154119081D01*
X93149110Y-154214320D01*
X93053872Y-154309558D01*
X92958634Y-154500034D01*
X92958634Y-154785748D01*
X93053872Y-154976224D01*
X93149110Y-155071462D01*
X93339586Y-155166700D01*
X94101491Y-155166700D01*
X91815777Y-156119081D02*
X92006253Y-156023843D01*
X92101491Y-155928605D01*
X92196729Y-155738129D01*
X92196729Y-155166700D01*
X92101491Y-154976224D01*
X92006253Y-154880986D01*
X91815777Y-154785748D01*
X91530062Y-154785748D01*
X91339586Y-154880986D01*
X91244348Y-154976224D01*
X91149110Y-155166700D01*
X91149110Y-155738129D01*
X91244348Y-155928605D01*
X91339586Y-156023843D01*
X91530062Y-156119081D01*
X91815777Y-156119081D01*
X90291967Y-156119081D02*
X90291967Y-154119081D01*
X90291967Y-155071462D02*
X89149110Y-155071462D01*
X89149110Y-156119081D02*
X89149110Y-154119081D01*
X88291967Y-156023843D02*
X88006253Y-156119081D01*
X87530062Y-156119081D01*
X87339586Y-156023843D01*
X87244348Y-155928605D01*
X87149110Y-155738129D01*
X87149110Y-155547653D01*
X87244348Y-155357177D01*
X87339586Y-155261939D01*
X87530062Y-155166700D01*
X87911015Y-155071462D01*
X88101491Y-154976224D01*
X88196729Y-154880986D01*
X88291967Y-154690510D01*
X88291967Y-154500034D01*
X88196729Y-154309558D01*
X88101491Y-154214320D01*
X87911015Y-154119081D01*
X87434824Y-154119081D01*
X87149110Y-154214320D01*
D26*
X96007797Y-151404580D02*
X96007797Y-150404580D01*
X95579225Y-151404580D02*
X95579225Y-150880771D01*
X95626844Y-150785533D01*
X95722082Y-150737914D01*
X95864940Y-150737914D01*
X95960178Y-150785533D01*
X96007797Y-150833152D01*
X94674463Y-151404580D02*
X94674463Y-150880771D01*
X94722082Y-150785533D01*
X94817320Y-150737914D01*
X95007797Y-150737914D01*
X95103035Y-150785533D01*
X94674463Y-151356961D02*
X94769701Y-151404580D01*
X95007797Y-151404580D01*
X95103035Y-151356961D01*
X95150654Y-151261723D01*
X95150654Y-151166485D01*
X95103035Y-151071247D01*
X95007797Y-151023628D01*
X94769701Y-151023628D01*
X94674463Y-150976009D01*
X94198273Y-151404580D02*
X94198273Y-150737914D01*
X94198273Y-150928390D02*
X94150654Y-150833152D01*
X94103035Y-150785533D01*
X94007797Y-150737914D01*
X93912559Y-150737914D01*
X93150654Y-151404580D02*
X93150654Y-150404580D01*
X93150654Y-151356961D02*
X93245892Y-151404580D01*
X93436368Y-151404580D01*
X93531606Y-151356961D01*
X93579225Y-151309342D01*
X93626844Y-151214104D01*
X93626844Y-150928390D01*
X93579225Y-150833152D01*
X93531606Y-150785533D01*
X93436368Y-150737914D01*
X93245892Y-150737914D01*
X93150654Y-150785533D01*
X92769701Y-150737914D02*
X92579225Y-151404580D01*
X92388749Y-150928390D01*
X92198273Y-151404580D01*
X92007797Y-150737914D01*
X91198273Y-151404580D02*
X91198273Y-150880771D01*
X91245892Y-150785533D01*
X91341130Y-150737914D01*
X91531606Y-150737914D01*
X91626844Y-150785533D01*
X91198273Y-151356961D02*
X91293511Y-151404580D01*
X91531606Y-151404580D01*
X91626844Y-151356961D01*
X91674463Y-151261723D01*
X91674463Y-151166485D01*
X91626844Y-151071247D01*
X91531606Y-151023628D01*
X91293511Y-151023628D01*
X91198273Y-150976009D01*
X90722082Y-151404580D02*
X90722082Y-150737914D01*
X90722082Y-150928390D02*
X90674463Y-150833152D01*
X90626844Y-150785533D01*
X90531606Y-150737914D01*
X90436368Y-150737914D01*
X89722082Y-151356961D02*
X89817320Y-151404580D01*
X90007797Y-151404580D01*
X90103035Y-151356961D01*
X90150654Y-151261723D01*
X90150654Y-150880771D01*
X90103035Y-150785533D01*
X90007797Y-150737914D01*
X89817320Y-150737914D01*
X89722082Y-150785533D01*
X89674463Y-150880771D01*
X89674463Y-150976009D01*
X90150654Y-151071247D01*
D11*
X100323298Y-151358379D02*
X100428060Y-151305998D01*
X100480440Y-151253617D01*
X100532821Y-151148855D01*
X100532821Y-150834569D01*
X100480440Y-150729807D01*
X100428060Y-150677426D01*
X100323298Y-150625045D01*
X100166155Y-150625045D01*
X100061393Y-150677426D01*
X100009012Y-150729807D01*
X99956631Y-150834569D01*
X99956631Y-151148855D01*
X100009012Y-151253617D01*
X100061393Y-151305998D01*
X100166155Y-151358379D01*
X100323298Y-151358379D01*
X99485202Y-150625045D02*
X99485202Y-151725045D01*
X99485202Y-150677426D02*
X99380440Y-150625045D01*
X99170917Y-150625045D01*
X99066155Y-150677426D01*
X99013774Y-150729807D01*
X98961393Y-150834569D01*
X98961393Y-151148855D01*
X99013774Y-151253617D01*
X99066155Y-151305998D01*
X99170917Y-151358379D01*
X99380440Y-151358379D01*
X99485202Y-151305998D01*
X98070917Y-151305998D02*
X98175679Y-151358379D01*
X98385202Y-151358379D01*
X98489964Y-151305998D01*
X98542345Y-151201236D01*
X98542345Y-150782188D01*
X98489964Y-150677426D01*
X98385202Y-150625045D01*
X98175679Y-150625045D01*
X98070917Y-150677426D01*
X98018536Y-150782188D01*
X98018536Y-150886950D01*
X98542345Y-150991712D01*
X97547107Y-150625045D02*
X97547107Y-151358379D01*
X97547107Y-150729807D02*
X97494726Y-150677426D01*
X97389964Y-150625045D01*
X97232821Y-150625045D01*
X97128060Y-150677426D01*
X97075679Y-150782188D01*
X97075679Y-151358379D01*
X99582788Y-135815767D02*
X99582788Y-134115767D01*
X99011360Y-134115767D01*
X98868502Y-134196720D01*
X98797074Y-134277672D01*
X98725645Y-134439577D01*
X98725645Y-134682434D01*
X98797074Y-134844339D01*
X98868502Y-134925291D01*
X99011360Y-135006243D01*
X99582788Y-135006243D01*
X98082788Y-135815767D02*
X98082788Y-134115767D01*
X98082788Y-134763386D02*
X97939931Y-134682434D01*
X97654217Y-134682434D01*
X97511360Y-134763386D01*
X97439931Y-134844339D01*
X97368502Y-135006243D01*
X97368502Y-135491958D01*
X97439931Y-135653862D01*
X97511360Y-135734815D01*
X97654217Y-135815767D01*
X97939931Y-135815767D01*
X98082788Y-135734815D01*
M02*
