G04 #@! TF.GenerationSoftware,KiCad,Pcbnew,5.1.0-rc2-unknown-036be7d~80~ubuntu16.04.1*
G04 #@! TF.CreationDate,2023-05-22T09:45:20+03:00*
G04 #@! TF.ProjectId,UEXT-MPQ_Rev_A,55455854-2d4d-4505-915f-5265765f412e,A*
G04 #@! TF.SameCoordinates,Original*
G04 #@! TF.FileFunction,Copper,L1,Top*
G04 #@! TF.FilePolarity,Positive*
%FSLAX46Y46*%
G04 Gerber Fmt 4.6, Leading zero omitted, Abs format (unit mm)*
G04 Created by KiCad (PCBNEW 5.1.0-rc2-unknown-036be7d~80~ubuntu16.04.1) date 2023-05-22 09:45:20*
%MOMM*%
%LPD*%
G04 APERTURE LIST*
%ADD10R,0.600000X1.550000*%
%ADD11R,1.200000X3.100000*%
%ADD12R,0.760000X2.400000*%
%ADD13R,1.000000X4.250000*%
%ADD14C,1.000000*%
%ADD15R,0.500000X1.550000*%
%ADD16R,1.200000X4.500000*%
%ADD17C,1.016000*%
%ADD18C,0.406400*%
%ADD19C,0.762000*%
%ADD20C,0.609600*%
%ADD21C,0.508000*%
%ADD22C,0.254000*%
G04 APERTURE END LIST*
D10*
X82500000Y-130625000D03*
X83500000Y-130625000D03*
X84500000Y-130625000D03*
X85500000Y-130625000D03*
X86500000Y-130625000D03*
X87500000Y-130625000D03*
X88500000Y-130625000D03*
X89500000Y-130625000D03*
X90500000Y-130625000D03*
X91500000Y-130625000D03*
D11*
X81200000Y-128850000D03*
X92800000Y-128850000D03*
D12*
X84460000Y-138750500D03*
X85730000Y-138750500D03*
X87000000Y-138750500D03*
X88270000Y-138750500D03*
X89540000Y-138750500D03*
X84460000Y-134849500D03*
X88270000Y-134849500D03*
X89540000Y-134849500D03*
X87000000Y-134849500D03*
X85730000Y-134849500D03*
D13*
X81920000Y-150625000D03*
X81920000Y-144375000D03*
X84460000Y-150625000D03*
X84460000Y-144375000D03*
X87000000Y-150625000D03*
X87000000Y-144375000D03*
X89540000Y-150625000D03*
X89540000Y-144375000D03*
X92080000Y-150625000D03*
X92080000Y-144375000D03*
D14*
X99314000Y-155300000D03*
X74549000Y-155321000D03*
X74549000Y-132715000D03*
X99314000Y-132715000D03*
D15*
X88500000Y-155800000D03*
X86500000Y-155800000D03*
X87500000Y-155800000D03*
D16*
X84200000Y-158275000D03*
X89800000Y-158275000D03*
D15*
X85500000Y-155800000D03*
D14*
X84963000Y-147701000D03*
X84455000Y-129032000D03*
X83058000Y-141224000D03*
X84836000Y-132588000D03*
X86995000Y-147701000D03*
X86487000Y-129032000D03*
X86995000Y-141605000D03*
X87503000Y-153924000D03*
X87122000Y-132588000D03*
X89027000Y-147701000D03*
X89281000Y-140970000D03*
X88392000Y-129032000D03*
X90678000Y-141605000D03*
X89408000Y-132588000D03*
X92964000Y-147701000D03*
X92329000Y-139573000D03*
X91549607Y-132605393D03*
X82677000Y-156718000D03*
X91313000Y-156718000D03*
X94107000Y-160401000D03*
X79883000Y-160401000D03*
X86995000Y-160401000D03*
X76581000Y-145923000D03*
X77978000Y-145923000D03*
X77978000Y-134747000D03*
X77978000Y-136271000D03*
X82804000Y-127762000D03*
X91186000Y-127762000D03*
X87376000Y-127762000D03*
X74930000Y-149860000D03*
X77470000Y-152400000D03*
X74549000Y-139446000D03*
X99060000Y-135890000D03*
X96520000Y-140970000D03*
X99060000Y-144780000D03*
X96520000Y-148590000D03*
X99060000Y-152400000D03*
X91186000Y-137668000D03*
X90932000Y-134239000D03*
X81920000Y-153792000D03*
X83185000Y-153792000D03*
X81534000Y-131572000D03*
X81534000Y-132842000D03*
X80391000Y-138303000D03*
X80391000Y-139446000D03*
D17*
X84460000Y-148204000D02*
X84963000Y-147701000D01*
X84460000Y-150625000D02*
X84460000Y-148204000D01*
D18*
X84963000Y-147701000D02*
X85725000Y-146939000D01*
X85725000Y-146939000D02*
X85725000Y-140716000D01*
D19*
X85730000Y-138750500D02*
X85730000Y-140203000D01*
D18*
X85730000Y-140711000D02*
X85725000Y-140716000D01*
X85730000Y-140203000D02*
X85730000Y-140711000D01*
D20*
X84500000Y-129077000D02*
X84455000Y-129032000D01*
X84500000Y-130625000D02*
X84500000Y-129077000D01*
D17*
X84460000Y-142626000D02*
X83058000Y-141224000D01*
X84460000Y-144375000D02*
X84460000Y-142626000D01*
D19*
X85730000Y-133482000D02*
X84836000Y-132588000D01*
X85730000Y-134849500D02*
X85730000Y-133482000D01*
D20*
X84836000Y-132334000D02*
X84836000Y-132588000D01*
X85500000Y-131670000D02*
X84836000Y-132334000D01*
X85500000Y-130625000D02*
X85500000Y-131670000D01*
D19*
X87000000Y-138750500D02*
X87000000Y-140203000D01*
D17*
X87000000Y-147706000D02*
X86995000Y-147701000D01*
X87000000Y-150625000D02*
X87000000Y-147706000D01*
D18*
X87000000Y-140203000D02*
X88265000Y-141468000D01*
X88265000Y-146431000D02*
X86995000Y-147701000D01*
X88265000Y-141468000D02*
X88265000Y-146431000D01*
D17*
X87000000Y-150625000D02*
X87000000Y-151770000D01*
X87000000Y-151770000D02*
X87757000Y-152527000D01*
D21*
X88773000Y-153543000D02*
X87757000Y-152527000D01*
X88773000Y-154432000D02*
X88773000Y-153543000D01*
X88500000Y-154705000D02*
X88773000Y-154432000D01*
X88500000Y-155800000D02*
X88500000Y-154705000D01*
D20*
X86500000Y-129045000D02*
X86487000Y-129032000D01*
X86500000Y-130625000D02*
X86500000Y-129045000D01*
D17*
X87000000Y-141610000D02*
X86995000Y-141605000D01*
X87000000Y-144375000D02*
X87000000Y-141610000D01*
D21*
X87500000Y-153927000D02*
X87503000Y-153924000D01*
X87500000Y-155800000D02*
X87500000Y-153927000D01*
D19*
X87000000Y-134625000D02*
X87000000Y-134849500D01*
X87122000Y-132588000D02*
X87000000Y-132710000D01*
D20*
X87500000Y-132210000D02*
X87500000Y-130625000D01*
D19*
X87000000Y-132710000D02*
X87000000Y-134625000D01*
D20*
X87122000Y-132588000D02*
X87500000Y-132210000D01*
D19*
X88270000Y-138750500D02*
X88270000Y-140203000D01*
D17*
X89540000Y-148214000D02*
X89027000Y-147701000D01*
X89540000Y-150625000D02*
X89540000Y-148214000D01*
D19*
X89037000Y-140970000D02*
X89281000Y-140970000D01*
X88270000Y-140203000D02*
X89037000Y-140970000D01*
D20*
X88519000Y-130606000D02*
X88500000Y-130625000D01*
X88519000Y-129159000D02*
X88519000Y-130606000D01*
X88392000Y-129032000D02*
X88519000Y-129159000D01*
D17*
X89540000Y-142743000D02*
X90678000Y-141605000D01*
X89540000Y-144375000D02*
X89540000Y-142743000D01*
D19*
X88270000Y-134849500D02*
X88270000Y-133482000D01*
D20*
X89500000Y-130625000D02*
X89500000Y-131353000D01*
D21*
X89164000Y-132588000D02*
X89408000Y-132588000D01*
X88270000Y-133482000D02*
X89164000Y-132588000D01*
X89500000Y-132496000D02*
X89500000Y-131353000D01*
X89408000Y-132588000D02*
X89500000Y-132496000D01*
D17*
X92080000Y-148585000D02*
X92964000Y-147701000D01*
X92080000Y-150625000D02*
X92080000Y-148585000D01*
D20*
X90500000Y-130625000D02*
X90500000Y-131555787D01*
D21*
X91549606Y-132605393D02*
X90500000Y-131555787D01*
X91549607Y-132605393D02*
X91549606Y-132605393D01*
D19*
X89789000Y-139573000D02*
X92329000Y-139573000D01*
X89540000Y-139324000D02*
X89789000Y-139573000D01*
X89540000Y-138750500D02*
X89540000Y-139324000D01*
D20*
X91500000Y-130870000D02*
X92075000Y-131445000D01*
X91500000Y-130625000D02*
X91500000Y-130870000D01*
D17*
X92080000Y-144375000D02*
X92080000Y-142616000D01*
X92080000Y-142616000D02*
X93091000Y-141605000D01*
D19*
X89662000Y-135636000D02*
X91059000Y-135636000D01*
X89540000Y-135514000D02*
X89662000Y-135636000D01*
X89540000Y-134849500D02*
X89540000Y-135514000D01*
D18*
X93853000Y-140843000D02*
X93091000Y-141605000D01*
X93853000Y-138430000D02*
X93853000Y-140843000D01*
X91059000Y-135636000D02*
X93853000Y-138430000D01*
X91059000Y-135636000D02*
X92964000Y-133731000D01*
X92964000Y-132334000D02*
X92964000Y-133731000D01*
X92075000Y-131445000D02*
X92964000Y-132334000D01*
D21*
X85500000Y-155477000D02*
X85217000Y-155194000D01*
X85217000Y-155194000D02*
X84074000Y-155194000D01*
X85500000Y-155800000D02*
X85500000Y-155477000D01*
D19*
X84460000Y-134849500D02*
X84357500Y-134747000D01*
X84357500Y-134747000D02*
X84201000Y-134747000D01*
D17*
X80857661Y-155194000D02*
X84074000Y-155194000D01*
X76581000Y-150917339D02*
X80857661Y-155194000D01*
X76581000Y-145923000D02*
X76581000Y-150917339D01*
X76581000Y-145923000D02*
X77978000Y-145923000D01*
X77978000Y-145923000D02*
X81915000Y-145923000D01*
X81915000Y-145923000D02*
X81920000Y-145918000D01*
X81920000Y-145918000D02*
X81920000Y-144375000D01*
X84201000Y-134747000D02*
X77978000Y-134747000D01*
D20*
X83312000Y-132080000D02*
X83312000Y-134747000D01*
X83500000Y-131892000D02*
X83312000Y-132080000D01*
X83500000Y-130625000D02*
X83500000Y-131892000D01*
D21*
X86500000Y-155800000D02*
X86500000Y-154572000D01*
X86500000Y-154572000D02*
X85732066Y-153804066D01*
D17*
X81932066Y-153804066D02*
X85732066Y-153804066D01*
X81920000Y-153792000D02*
X81932066Y-153804066D01*
X81920000Y-150625000D02*
X81920000Y-153792000D01*
D19*
X84460000Y-138750500D02*
X84272500Y-138938000D01*
X84272500Y-138938000D02*
X84201000Y-138938000D01*
D17*
X81534000Y-131572000D02*
X81534000Y-132842000D01*
X80391000Y-138303000D02*
X80391000Y-139446000D01*
X80645000Y-138938000D02*
X80391000Y-138684000D01*
X84201000Y-138938000D02*
X80645000Y-138938000D01*
D19*
X81762242Y-131572000D02*
X82181521Y-131152721D01*
X81534000Y-131572000D02*
X81762242Y-131572000D01*
D20*
X82181521Y-131051479D02*
X82181521Y-131152721D01*
X82499200Y-130733800D02*
X82181521Y-131051479D01*
X82499200Y-130625800D02*
X82499200Y-130733800D01*
X82500000Y-130625000D02*
X82499200Y-130625800D01*
D22*
G36*
X79989403Y-127114777D02*
G01*
X79965000Y-127237458D01*
X79965000Y-128564250D01*
X80123750Y-128723000D01*
X81073000Y-128723000D01*
X81073000Y-128703000D01*
X81327000Y-128703000D01*
X81327000Y-128723000D01*
X82276250Y-128723000D01*
X82435000Y-128564250D01*
X82435000Y-127237458D01*
X82410597Y-127114777D01*
X82387411Y-127058800D01*
X91612589Y-127058800D01*
X91589403Y-127114777D01*
X91565000Y-127237458D01*
X91565000Y-128564250D01*
X91723750Y-128723000D01*
X92673000Y-128723000D01*
X92673000Y-128703000D01*
X92927000Y-128703000D01*
X92927000Y-128723000D01*
X93876250Y-128723000D01*
X94035000Y-128564250D01*
X94035000Y-127237458D01*
X94010597Y-127114777D01*
X93987411Y-127058800D01*
X96048237Y-127058800D01*
X95824075Y-127151651D01*
X95279161Y-127515750D01*
X94815750Y-127979161D01*
X94451651Y-128524075D01*
X94200855Y-129129550D01*
X94073000Y-129772319D01*
X94073000Y-130427681D01*
X94200855Y-131070450D01*
X94451651Y-131675925D01*
X94815750Y-132220839D01*
X95279161Y-132684250D01*
X95824075Y-133048349D01*
X96429550Y-133299145D01*
X97072319Y-133427000D01*
X97727681Y-133427000D01*
X97822719Y-133408096D01*
X97857992Y-133493252D01*
X98037798Y-133762352D01*
X98266648Y-133991202D01*
X98535748Y-134171008D01*
X98834755Y-134294861D01*
X99152179Y-134358000D01*
X99475821Y-134358000D01*
X99793245Y-134294861D01*
X100092252Y-134171008D01*
X100361352Y-133991202D01*
X100441201Y-133911353D01*
X100441200Y-154103646D01*
X100361352Y-154023798D01*
X100092252Y-153843992D01*
X99793245Y-153720139D01*
X99475821Y-153657000D01*
X99152179Y-153657000D01*
X98834755Y-153720139D01*
X98535748Y-153843992D01*
X98266648Y-154023798D01*
X98037798Y-154252648D01*
X97857992Y-154521748D01*
X97828459Y-154593046D01*
X97727681Y-154573000D01*
X97072319Y-154573000D01*
X96429550Y-154700855D01*
X95824075Y-154951651D01*
X95279161Y-155315750D01*
X94815750Y-155779161D01*
X94451651Y-156324075D01*
X94200855Y-156929550D01*
X94073000Y-157572319D01*
X94073000Y-158227681D01*
X94200855Y-158870450D01*
X94451651Y-159475925D01*
X94815750Y-160020839D01*
X95279161Y-160484250D01*
X95824075Y-160848349D01*
X96048237Y-160941200D01*
X90881826Y-160941200D01*
X90893237Y-160929789D01*
X90962730Y-160825785D01*
X91010597Y-160710223D01*
X91035000Y-160587542D01*
X91035000Y-158560750D01*
X90876250Y-158402000D01*
X89927000Y-158402000D01*
X89927000Y-158422000D01*
X89673000Y-158422000D01*
X89673000Y-158402000D01*
X88723750Y-158402000D01*
X88565000Y-158560750D01*
X88565000Y-160587542D01*
X88589403Y-160710223D01*
X88637270Y-160825785D01*
X88706763Y-160929789D01*
X88718174Y-160941200D01*
X85281826Y-160941200D01*
X85293237Y-160929789D01*
X85362730Y-160825785D01*
X85410597Y-160710223D01*
X85435000Y-160587542D01*
X85435000Y-158560750D01*
X85276250Y-158402000D01*
X84327000Y-158402000D01*
X84327000Y-158422000D01*
X84073000Y-158422000D01*
X84073000Y-158402000D01*
X83123750Y-158402000D01*
X82965000Y-158560750D01*
X82965000Y-160587542D01*
X82989403Y-160710223D01*
X83037270Y-160825785D01*
X83106763Y-160929789D01*
X83118174Y-160941200D01*
X77951763Y-160941200D01*
X78175925Y-160848349D01*
X78720839Y-160484250D01*
X79184250Y-160020839D01*
X79548349Y-159475925D01*
X79799145Y-158870450D01*
X79927000Y-158227681D01*
X79927000Y-157572319D01*
X79799145Y-156929550D01*
X79548349Y-156324075D01*
X79306725Y-155962458D01*
X82965000Y-155962458D01*
X82965000Y-157989250D01*
X83123750Y-158148000D01*
X84073000Y-158148000D01*
X84073000Y-155548750D01*
X83914250Y-155390000D01*
X83537458Y-155390000D01*
X83414777Y-155414403D01*
X83299215Y-155462270D01*
X83195211Y-155531763D01*
X83106763Y-155620211D01*
X83037270Y-155724215D01*
X82989403Y-155839777D01*
X82965000Y-155962458D01*
X79306725Y-155962458D01*
X79184250Y-155779161D01*
X78720839Y-155315750D01*
X78175925Y-154951651D01*
X77570450Y-154700855D01*
X76927681Y-154573000D01*
X76272319Y-154573000D01*
X76036933Y-154619821D01*
X76005008Y-154542748D01*
X75825202Y-154273648D01*
X75596352Y-154044798D01*
X75327252Y-153864992D01*
X75028245Y-153741139D01*
X74710821Y-153678000D01*
X74387179Y-153678000D01*
X74069755Y-153741139D01*
X73770748Y-153864992D01*
X73558800Y-154006610D01*
X73558800Y-144660750D01*
X80785000Y-144660750D01*
X80785000Y-146562542D01*
X80809403Y-146685223D01*
X80857270Y-146800785D01*
X80926763Y-146904789D01*
X81015211Y-146993237D01*
X81119215Y-147062730D01*
X81234777Y-147110597D01*
X81357458Y-147135000D01*
X81634250Y-147135000D01*
X81793000Y-146976250D01*
X81793000Y-144502000D01*
X80943750Y-144502000D01*
X80785000Y-144660750D01*
X73558800Y-144660750D01*
X73558800Y-142187458D01*
X80785000Y-142187458D01*
X80785000Y-144089250D01*
X80943750Y-144248000D01*
X81793000Y-144248000D01*
X81793000Y-141773750D01*
X81634250Y-141615000D01*
X81357458Y-141615000D01*
X81234777Y-141639403D01*
X81119215Y-141687270D01*
X81015211Y-141756763D01*
X80926763Y-141845211D01*
X80857270Y-141949215D01*
X80809403Y-142064777D01*
X80785000Y-142187458D01*
X73558800Y-142187458D01*
X73558800Y-138684000D01*
X79446654Y-138684000D01*
X79451200Y-138730161D01*
X79451201Y-139492167D01*
X79464799Y-139630233D01*
X79518538Y-139807386D01*
X79605805Y-139970651D01*
X79723247Y-140113754D01*
X79866350Y-140231196D01*
X80029615Y-140318463D01*
X80206768Y-140372202D01*
X80391000Y-140390347D01*
X80575233Y-140372202D01*
X80752386Y-140318463D01*
X80915651Y-140231196D01*
X81058754Y-140113754D01*
X81176196Y-139970651D01*
X81225826Y-139877800D01*
X83646111Y-139877800D01*
X83646111Y-139950500D01*
X83654448Y-140035148D01*
X83679139Y-140116542D01*
X83719234Y-140191556D01*
X83773194Y-140257306D01*
X83838944Y-140311266D01*
X83913958Y-140351361D01*
X83995352Y-140376052D01*
X84080000Y-140384389D01*
X84840000Y-140384389D01*
X84924648Y-140376052D01*
X84932408Y-140373698D01*
X84975439Y-140515550D01*
X85050913Y-140656752D01*
X85088280Y-140702284D01*
X85086929Y-140716000D01*
X85090001Y-140747191D01*
X85090001Y-141838206D01*
X85044648Y-141824448D01*
X84981285Y-141818207D01*
X83689893Y-140526817D01*
X83582651Y-140438804D01*
X83419386Y-140351538D01*
X83242233Y-140297799D01*
X83058000Y-140279654D01*
X82873767Y-140297799D01*
X82696614Y-140351538D01*
X82533349Y-140438804D01*
X82390246Y-140556246D01*
X82272804Y-140699349D01*
X82185538Y-140862614D01*
X82131799Y-141039767D01*
X82113654Y-141224000D01*
X82131799Y-141408233D01*
X82185538Y-141585386D01*
X82202894Y-141617856D01*
X82047000Y-141773750D01*
X82047000Y-144248000D01*
X82896250Y-144248000D01*
X83055000Y-144089250D01*
X83055000Y-142550077D01*
X83520201Y-143015278D01*
X83520200Y-144421166D01*
X83526111Y-144481183D01*
X83526111Y-146500000D01*
X83528412Y-146523363D01*
X83490965Y-146507852D01*
X83291623Y-146468200D01*
X83088377Y-146468200D01*
X83055000Y-146474839D01*
X83055000Y-144660750D01*
X82896250Y-144502000D01*
X82047000Y-144502000D01*
X82047000Y-146976250D01*
X82205750Y-147135000D01*
X82224376Y-147135000D01*
X82197852Y-147199035D01*
X82158200Y-147398377D01*
X82158200Y-147601623D01*
X82197852Y-147800965D01*
X82275631Y-147988740D01*
X82327329Y-148066111D01*
X81420000Y-148066111D01*
X81335352Y-148074448D01*
X81253958Y-148099139D01*
X81178944Y-148139234D01*
X81113194Y-148193194D01*
X81059234Y-148258944D01*
X81019139Y-148333958D01*
X80994448Y-148415352D01*
X80986111Y-148500000D01*
X80986111Y-150518817D01*
X80980200Y-150578834D01*
X80980201Y-153745833D01*
X80975654Y-153792000D01*
X80993799Y-153976233D01*
X81047538Y-154153386D01*
X81134804Y-154316651D01*
X81139315Y-154322147D01*
X81252247Y-154459754D01*
X81258871Y-154465190D01*
X81264312Y-154471820D01*
X81407415Y-154589262D01*
X81570680Y-154676529D01*
X81747833Y-154730268D01*
X81885899Y-154743866D01*
X81885909Y-154743866D01*
X81932066Y-154748412D01*
X81978223Y-154743866D01*
X84679130Y-154743866D01*
X84639403Y-154839777D01*
X84615000Y-154962458D01*
X84615000Y-155390000D01*
X84485750Y-155390000D01*
X84327000Y-155548750D01*
X84327000Y-158148000D01*
X85276250Y-158148000D01*
X85435000Y-157989250D01*
X85435000Y-155962458D01*
X85410597Y-155839777D01*
X85362730Y-155724215D01*
X85353000Y-155709653D01*
X85353000Y-155673000D01*
X85375000Y-155673000D01*
X85375000Y-155653000D01*
X85625000Y-155653000D01*
X85625000Y-155673000D01*
X85647000Y-155673000D01*
X85647000Y-155927000D01*
X85625000Y-155927000D01*
X85625000Y-157051250D01*
X85783750Y-157210000D01*
X85812542Y-157210000D01*
X85935223Y-157185597D01*
X86050785Y-157137730D01*
X86154789Y-157068237D01*
X86217352Y-157005674D01*
X86250000Y-157008889D01*
X86750000Y-157008889D01*
X86834648Y-157000552D01*
X86916042Y-156975861D01*
X86991056Y-156935766D01*
X87000000Y-156928426D01*
X87008944Y-156935766D01*
X87083958Y-156975861D01*
X87165352Y-157000552D01*
X87250000Y-157008889D01*
X87750000Y-157008889D01*
X87834648Y-157000552D01*
X87916042Y-156975861D01*
X87991056Y-156935766D01*
X88000000Y-156928426D01*
X88008944Y-156935766D01*
X88083958Y-156975861D01*
X88165352Y-157000552D01*
X88250000Y-157008889D01*
X88565000Y-157008889D01*
X88565000Y-157989250D01*
X88723750Y-158148000D01*
X89673000Y-158148000D01*
X89673000Y-155548750D01*
X89927000Y-155548750D01*
X89927000Y-158148000D01*
X90876250Y-158148000D01*
X91035000Y-157989250D01*
X91035000Y-155962458D01*
X91010597Y-155839777D01*
X90962730Y-155724215D01*
X90893237Y-155620211D01*
X90804789Y-155531763D01*
X90700785Y-155462270D01*
X90585223Y-155414403D01*
X90462542Y-155390000D01*
X90085750Y-155390000D01*
X89927000Y-155548750D01*
X89673000Y-155548750D01*
X89514250Y-155390000D01*
X89185800Y-155390000D01*
X89185800Y-154989067D01*
X89234114Y-154940753D01*
X89260279Y-154919280D01*
X89345981Y-154814853D01*
X89409662Y-154695714D01*
X89448877Y-154566440D01*
X89458800Y-154465689D01*
X89458800Y-154465680D01*
X89462117Y-154432001D01*
X89458800Y-154398322D01*
X89458800Y-153576679D01*
X89462117Y-153543000D01*
X89458800Y-153509321D01*
X89458800Y-153509311D01*
X89448877Y-153408560D01*
X89409662Y-153279286D01*
X89358671Y-153183889D01*
X90040000Y-153183889D01*
X90124648Y-153175552D01*
X90206042Y-153150861D01*
X90281056Y-153110766D01*
X90346806Y-153056806D01*
X90400766Y-152991056D01*
X90440861Y-152916042D01*
X90465552Y-152834648D01*
X90473889Y-152750000D01*
X90473889Y-150731184D01*
X90479800Y-150671167D01*
X90479800Y-148480038D01*
X90509035Y-148492148D01*
X90708377Y-148531800D01*
X90911623Y-148531800D01*
X91110965Y-148492148D01*
X91146238Y-148477537D01*
X91135654Y-148585000D01*
X91140201Y-148631167D01*
X91140200Y-150671166D01*
X91146111Y-150731183D01*
X91146111Y-152750000D01*
X91154448Y-152834648D01*
X91179139Y-152916042D01*
X91219234Y-152991056D01*
X91273194Y-153056806D01*
X91338944Y-153110766D01*
X91413958Y-153150861D01*
X91495352Y-153175552D01*
X91580000Y-153183889D01*
X92580000Y-153183889D01*
X92664648Y-153175552D01*
X92746042Y-153150861D01*
X92821056Y-153110766D01*
X92886806Y-153056806D01*
X92940766Y-152991056D01*
X92980861Y-152916042D01*
X93005552Y-152834648D01*
X93013889Y-152750000D01*
X93013889Y-150731184D01*
X93019800Y-150671167D01*
X93019800Y-148974277D01*
X93661184Y-148332894D01*
X93749196Y-148225652D01*
X93836463Y-148062386D01*
X93890201Y-147885233D01*
X93908346Y-147701000D01*
X93890201Y-147516767D01*
X93836463Y-147339614D01*
X93749196Y-147176349D01*
X93631754Y-147033246D01*
X93488651Y-146915804D01*
X93325386Y-146828537D01*
X93148233Y-146774799D01*
X92964000Y-146756654D01*
X92924796Y-146760515D01*
X92940766Y-146741056D01*
X92980861Y-146666042D01*
X93005552Y-146584648D01*
X93013889Y-146500000D01*
X93013889Y-144481184D01*
X93019800Y-144421167D01*
X93019800Y-143005277D01*
X93788184Y-142236894D01*
X93876196Y-142129652D01*
X93963463Y-141966386D01*
X94017201Y-141789234D01*
X94035346Y-141605000D01*
X94031193Y-141562832D01*
X94279960Y-141314066D01*
X94304185Y-141294185D01*
X94324065Y-141269961D01*
X94324069Y-141269957D01*
X94383538Y-141197494D01*
X94442502Y-141087180D01*
X94449080Y-141065494D01*
X94478812Y-140967482D01*
X94488000Y-140874192D01*
X94488000Y-140874189D01*
X94491072Y-140843000D01*
X94488000Y-140811811D01*
X94488000Y-138461189D01*
X94491072Y-138430000D01*
X94488000Y-138398808D01*
X94478812Y-138305518D01*
X94442502Y-138185820D01*
X94428353Y-138159349D01*
X94383538Y-138075506D01*
X94324069Y-138003043D01*
X94324065Y-138003039D01*
X94304185Y-137978815D01*
X94279962Y-137958936D01*
X91957024Y-135636000D01*
X93390955Y-134202070D01*
X93415185Y-134182185D01*
X93486787Y-134094938D01*
X93494538Y-134085494D01*
X93553502Y-133975180D01*
X93562380Y-133945912D01*
X93589812Y-133855482D01*
X93599000Y-133762192D01*
X93599000Y-133762189D01*
X93602072Y-133731000D01*
X93599000Y-133699811D01*
X93599000Y-132365189D01*
X93602072Y-132334000D01*
X93598508Y-132297814D01*
X93589812Y-132209518D01*
X93553502Y-132089820D01*
X93548901Y-132081213D01*
X93494538Y-131979506D01*
X93435068Y-131907043D01*
X93415185Y-131882815D01*
X93390956Y-131862931D01*
X92788887Y-131260863D01*
X92758822Y-131161752D01*
X92690424Y-131033787D01*
X92621442Y-130949732D01*
X92610480Y-130938770D01*
X92673000Y-130876250D01*
X92673000Y-128977000D01*
X92927000Y-128977000D01*
X92927000Y-130876250D01*
X93085750Y-131035000D01*
X93462542Y-131035000D01*
X93585223Y-131010597D01*
X93700785Y-130962730D01*
X93804789Y-130893237D01*
X93893237Y-130804789D01*
X93962730Y-130700785D01*
X94010597Y-130585223D01*
X94035000Y-130462542D01*
X94035000Y-129135750D01*
X93876250Y-128977000D01*
X92927000Y-128977000D01*
X92673000Y-128977000D01*
X91723750Y-128977000D01*
X91565000Y-129135750D01*
X91565000Y-129416111D01*
X91200000Y-129416111D01*
X91115352Y-129424448D01*
X91033958Y-129449139D01*
X91000000Y-129467290D01*
X90966042Y-129449139D01*
X90884648Y-129424448D01*
X90800000Y-129416111D01*
X90200000Y-129416111D01*
X90115352Y-129424448D01*
X90033958Y-129449139D01*
X90000000Y-129467290D01*
X89966042Y-129449139D01*
X89884648Y-129424448D01*
X89800000Y-129416111D01*
X89255600Y-129416111D01*
X89255600Y-129381997D01*
X89287992Y-129303796D01*
X89323800Y-129123774D01*
X89323800Y-128940226D01*
X89287992Y-128760204D01*
X89217751Y-128590627D01*
X89115777Y-128438012D01*
X88985988Y-128308223D01*
X88833373Y-128206249D01*
X88663796Y-128136008D01*
X88483774Y-128100200D01*
X88300226Y-128100200D01*
X88120204Y-128136008D01*
X87950627Y-128206249D01*
X87798012Y-128308223D01*
X87668223Y-128438012D01*
X87566249Y-128590627D01*
X87496008Y-128760204D01*
X87460200Y-128940226D01*
X87460200Y-129123774D01*
X87496008Y-129303796D01*
X87542530Y-129416111D01*
X87336470Y-129416111D01*
X87382992Y-129303796D01*
X87418800Y-129123774D01*
X87418800Y-128940226D01*
X87382992Y-128760204D01*
X87312751Y-128590627D01*
X87210777Y-128438012D01*
X87080988Y-128308223D01*
X86928373Y-128206249D01*
X86758796Y-128136008D01*
X86578774Y-128100200D01*
X86395226Y-128100200D01*
X86215204Y-128136008D01*
X86045627Y-128206249D01*
X85893012Y-128308223D01*
X85763223Y-128438012D01*
X85661249Y-128590627D01*
X85591008Y-128760204D01*
X85555200Y-128940226D01*
X85555200Y-129123774D01*
X85591008Y-129303796D01*
X85637530Y-129416111D01*
X85304470Y-129416111D01*
X85350992Y-129303796D01*
X85386800Y-129123774D01*
X85386800Y-128940226D01*
X85350992Y-128760204D01*
X85280751Y-128590627D01*
X85178777Y-128438012D01*
X85048988Y-128308223D01*
X84896373Y-128206249D01*
X84726796Y-128136008D01*
X84546774Y-128100200D01*
X84363226Y-128100200D01*
X84183204Y-128136008D01*
X84013627Y-128206249D01*
X83861012Y-128308223D01*
X83731223Y-128438012D01*
X83629249Y-128590627D01*
X83559008Y-128760204D01*
X83523200Y-128940226D01*
X83523200Y-129123774D01*
X83559008Y-129303796D01*
X83627000Y-129467943D01*
X83627000Y-130498000D01*
X83647000Y-130498000D01*
X83647000Y-130752000D01*
X83627000Y-130752000D01*
X83627000Y-131876250D01*
X83785750Y-132035000D01*
X83862542Y-132035000D01*
X83985223Y-132010597D01*
X84100785Y-131962730D01*
X84204789Y-131893237D01*
X84264137Y-131833889D01*
X84287410Y-131833889D01*
X84242012Y-131864223D01*
X84112223Y-131994012D01*
X84010249Y-132146627D01*
X83940008Y-132316204D01*
X83904200Y-132496226D01*
X83904200Y-132679774D01*
X83940008Y-132859796D01*
X84005106Y-133016957D01*
X83894777Y-133038903D01*
X83779215Y-133086770D01*
X83675211Y-133156263D01*
X83586763Y-133244711D01*
X83517270Y-133348715D01*
X83469403Y-133464277D01*
X83445000Y-133586958D01*
X83445000Y-134563750D01*
X83603750Y-134722500D01*
X84333000Y-134722500D01*
X84333000Y-134702500D01*
X84587000Y-134702500D01*
X84587000Y-134722500D01*
X84607000Y-134722500D01*
X84607000Y-134976500D01*
X84587000Y-134976500D01*
X84587000Y-134996500D01*
X84333000Y-134996500D01*
X84333000Y-134976500D01*
X83603750Y-134976500D01*
X83445000Y-135135250D01*
X83445000Y-136112042D01*
X83469403Y-136234723D01*
X83517270Y-136350285D01*
X83586763Y-136454289D01*
X83675211Y-136542737D01*
X83779215Y-136612230D01*
X83894777Y-136660097D01*
X84017458Y-136684500D01*
X84174250Y-136684500D01*
X84332998Y-136525752D01*
X84332998Y-136623467D01*
X84313200Y-136722999D01*
X84313200Y-136877001D01*
X84343244Y-137028043D01*
X84379930Y-137116611D01*
X84080000Y-137116611D01*
X83995352Y-137124948D01*
X83913958Y-137149639D01*
X83838944Y-137189734D01*
X83773194Y-137243694D01*
X83719234Y-137309444D01*
X83679139Y-137384458D01*
X83654448Y-137465852D01*
X83646111Y-137550500D01*
X83646111Y-137998200D01*
X81280628Y-137998200D01*
X81263463Y-137941614D01*
X81176196Y-137778349D01*
X81058754Y-137635246D01*
X80915651Y-137517804D01*
X80752385Y-137430537D01*
X80575232Y-137376798D01*
X80391000Y-137358653D01*
X80206767Y-137376798D01*
X80029614Y-137430537D01*
X79866349Y-137517804D01*
X79723246Y-137635246D01*
X79605804Y-137778349D01*
X79518537Y-137941615D01*
X79464798Y-138118768D01*
X79451200Y-138256834D01*
X79451200Y-138637840D01*
X79446654Y-138684000D01*
X73558800Y-138684000D01*
X73558800Y-134029390D01*
X73770748Y-134171008D01*
X74069755Y-134294861D01*
X74387179Y-134358000D01*
X74710821Y-134358000D01*
X75028245Y-134294861D01*
X75327252Y-134171008D01*
X75596352Y-133991202D01*
X75825202Y-133762352D01*
X76005008Y-133493252D01*
X76050710Y-133382919D01*
X76272319Y-133427000D01*
X76927681Y-133427000D01*
X77570450Y-133299145D01*
X78175925Y-133048349D01*
X78720839Y-132684250D01*
X79184250Y-132220839D01*
X79548349Y-131675925D01*
X79799145Y-131070450D01*
X79927000Y-130427681D01*
X79927000Y-129772319D01*
X79800379Y-129135750D01*
X79965000Y-129135750D01*
X79965000Y-130462542D01*
X79989403Y-130585223D01*
X80037270Y-130700785D01*
X80106763Y-130804789D01*
X80195211Y-130893237D01*
X80299215Y-130962730D01*
X80414777Y-131010597D01*
X80537458Y-131035000D01*
X80758939Y-131035000D01*
X80748804Y-131047349D01*
X80661537Y-131210615D01*
X80607798Y-131387768D01*
X80594200Y-131525834D01*
X80594201Y-132888167D01*
X80607799Y-133026233D01*
X80661538Y-133203386D01*
X80748805Y-133366651D01*
X80866247Y-133509754D01*
X81009350Y-133627196D01*
X81172615Y-133714463D01*
X81349768Y-133768202D01*
X81534000Y-133786347D01*
X81718233Y-133768202D01*
X81895386Y-133714463D01*
X82058651Y-133627196D01*
X82201754Y-133509754D01*
X82319196Y-133366651D01*
X82406463Y-133203386D01*
X82460202Y-133026233D01*
X82473800Y-132888167D01*
X82473800Y-132009914D01*
X82649825Y-131833889D01*
X82735863Y-131833889D01*
X82795211Y-131893237D01*
X82899215Y-131962730D01*
X83014777Y-132010597D01*
X83137458Y-132035000D01*
X83214250Y-132035000D01*
X83373000Y-131876250D01*
X83373000Y-130752000D01*
X83353000Y-130752000D01*
X83353000Y-130498000D01*
X83373000Y-130498000D01*
X83373000Y-129373750D01*
X83214250Y-129215000D01*
X83137458Y-129215000D01*
X83014777Y-129239403D01*
X82899215Y-129287270D01*
X82795211Y-129356763D01*
X82735863Y-129416111D01*
X82435000Y-129416111D01*
X82435000Y-129135750D01*
X82276250Y-128977000D01*
X81327000Y-128977000D01*
X81327000Y-128997000D01*
X81073000Y-128997000D01*
X81073000Y-128977000D01*
X80123750Y-128977000D01*
X79965000Y-129135750D01*
X79800379Y-129135750D01*
X79799145Y-129129550D01*
X79548349Y-128524075D01*
X79184250Y-127979161D01*
X78720839Y-127515750D01*
X78175925Y-127151651D01*
X77951763Y-127058800D01*
X80012589Y-127058800D01*
X79989403Y-127114777D01*
X79989403Y-127114777D01*
G37*
X79989403Y-127114777D02*
X79965000Y-127237458D01*
X79965000Y-128564250D01*
X80123750Y-128723000D01*
X81073000Y-128723000D01*
X81073000Y-128703000D01*
X81327000Y-128703000D01*
X81327000Y-128723000D01*
X82276250Y-128723000D01*
X82435000Y-128564250D01*
X82435000Y-127237458D01*
X82410597Y-127114777D01*
X82387411Y-127058800D01*
X91612589Y-127058800D01*
X91589403Y-127114777D01*
X91565000Y-127237458D01*
X91565000Y-128564250D01*
X91723750Y-128723000D01*
X92673000Y-128723000D01*
X92673000Y-128703000D01*
X92927000Y-128703000D01*
X92927000Y-128723000D01*
X93876250Y-128723000D01*
X94035000Y-128564250D01*
X94035000Y-127237458D01*
X94010597Y-127114777D01*
X93987411Y-127058800D01*
X96048237Y-127058800D01*
X95824075Y-127151651D01*
X95279161Y-127515750D01*
X94815750Y-127979161D01*
X94451651Y-128524075D01*
X94200855Y-129129550D01*
X94073000Y-129772319D01*
X94073000Y-130427681D01*
X94200855Y-131070450D01*
X94451651Y-131675925D01*
X94815750Y-132220839D01*
X95279161Y-132684250D01*
X95824075Y-133048349D01*
X96429550Y-133299145D01*
X97072319Y-133427000D01*
X97727681Y-133427000D01*
X97822719Y-133408096D01*
X97857992Y-133493252D01*
X98037798Y-133762352D01*
X98266648Y-133991202D01*
X98535748Y-134171008D01*
X98834755Y-134294861D01*
X99152179Y-134358000D01*
X99475821Y-134358000D01*
X99793245Y-134294861D01*
X100092252Y-134171008D01*
X100361352Y-133991202D01*
X100441201Y-133911353D01*
X100441200Y-154103646D01*
X100361352Y-154023798D01*
X100092252Y-153843992D01*
X99793245Y-153720139D01*
X99475821Y-153657000D01*
X99152179Y-153657000D01*
X98834755Y-153720139D01*
X98535748Y-153843992D01*
X98266648Y-154023798D01*
X98037798Y-154252648D01*
X97857992Y-154521748D01*
X97828459Y-154593046D01*
X97727681Y-154573000D01*
X97072319Y-154573000D01*
X96429550Y-154700855D01*
X95824075Y-154951651D01*
X95279161Y-155315750D01*
X94815750Y-155779161D01*
X94451651Y-156324075D01*
X94200855Y-156929550D01*
X94073000Y-157572319D01*
X94073000Y-158227681D01*
X94200855Y-158870450D01*
X94451651Y-159475925D01*
X94815750Y-160020839D01*
X95279161Y-160484250D01*
X95824075Y-160848349D01*
X96048237Y-160941200D01*
X90881826Y-160941200D01*
X90893237Y-160929789D01*
X90962730Y-160825785D01*
X91010597Y-160710223D01*
X91035000Y-160587542D01*
X91035000Y-158560750D01*
X90876250Y-158402000D01*
X89927000Y-158402000D01*
X89927000Y-158422000D01*
X89673000Y-158422000D01*
X89673000Y-158402000D01*
X88723750Y-158402000D01*
X88565000Y-158560750D01*
X88565000Y-160587542D01*
X88589403Y-160710223D01*
X88637270Y-160825785D01*
X88706763Y-160929789D01*
X88718174Y-160941200D01*
X85281826Y-160941200D01*
X85293237Y-160929789D01*
X85362730Y-160825785D01*
X85410597Y-160710223D01*
X85435000Y-160587542D01*
X85435000Y-158560750D01*
X85276250Y-158402000D01*
X84327000Y-158402000D01*
X84327000Y-158422000D01*
X84073000Y-158422000D01*
X84073000Y-158402000D01*
X83123750Y-158402000D01*
X82965000Y-158560750D01*
X82965000Y-160587542D01*
X82989403Y-160710223D01*
X83037270Y-160825785D01*
X83106763Y-160929789D01*
X83118174Y-160941200D01*
X77951763Y-160941200D01*
X78175925Y-160848349D01*
X78720839Y-160484250D01*
X79184250Y-160020839D01*
X79548349Y-159475925D01*
X79799145Y-158870450D01*
X79927000Y-158227681D01*
X79927000Y-157572319D01*
X79799145Y-156929550D01*
X79548349Y-156324075D01*
X79306725Y-155962458D01*
X82965000Y-155962458D01*
X82965000Y-157989250D01*
X83123750Y-158148000D01*
X84073000Y-158148000D01*
X84073000Y-155548750D01*
X83914250Y-155390000D01*
X83537458Y-155390000D01*
X83414777Y-155414403D01*
X83299215Y-155462270D01*
X83195211Y-155531763D01*
X83106763Y-155620211D01*
X83037270Y-155724215D01*
X82989403Y-155839777D01*
X82965000Y-155962458D01*
X79306725Y-155962458D01*
X79184250Y-155779161D01*
X78720839Y-155315750D01*
X78175925Y-154951651D01*
X77570450Y-154700855D01*
X76927681Y-154573000D01*
X76272319Y-154573000D01*
X76036933Y-154619821D01*
X76005008Y-154542748D01*
X75825202Y-154273648D01*
X75596352Y-154044798D01*
X75327252Y-153864992D01*
X75028245Y-153741139D01*
X74710821Y-153678000D01*
X74387179Y-153678000D01*
X74069755Y-153741139D01*
X73770748Y-153864992D01*
X73558800Y-154006610D01*
X73558800Y-144660750D01*
X80785000Y-144660750D01*
X80785000Y-146562542D01*
X80809403Y-146685223D01*
X80857270Y-146800785D01*
X80926763Y-146904789D01*
X81015211Y-146993237D01*
X81119215Y-147062730D01*
X81234777Y-147110597D01*
X81357458Y-147135000D01*
X81634250Y-147135000D01*
X81793000Y-146976250D01*
X81793000Y-144502000D01*
X80943750Y-144502000D01*
X80785000Y-144660750D01*
X73558800Y-144660750D01*
X73558800Y-142187458D01*
X80785000Y-142187458D01*
X80785000Y-144089250D01*
X80943750Y-144248000D01*
X81793000Y-144248000D01*
X81793000Y-141773750D01*
X81634250Y-141615000D01*
X81357458Y-141615000D01*
X81234777Y-141639403D01*
X81119215Y-141687270D01*
X81015211Y-141756763D01*
X80926763Y-141845211D01*
X80857270Y-141949215D01*
X80809403Y-142064777D01*
X80785000Y-142187458D01*
X73558800Y-142187458D01*
X73558800Y-138684000D01*
X79446654Y-138684000D01*
X79451200Y-138730161D01*
X79451201Y-139492167D01*
X79464799Y-139630233D01*
X79518538Y-139807386D01*
X79605805Y-139970651D01*
X79723247Y-140113754D01*
X79866350Y-140231196D01*
X80029615Y-140318463D01*
X80206768Y-140372202D01*
X80391000Y-140390347D01*
X80575233Y-140372202D01*
X80752386Y-140318463D01*
X80915651Y-140231196D01*
X81058754Y-140113754D01*
X81176196Y-139970651D01*
X81225826Y-139877800D01*
X83646111Y-139877800D01*
X83646111Y-139950500D01*
X83654448Y-140035148D01*
X83679139Y-140116542D01*
X83719234Y-140191556D01*
X83773194Y-140257306D01*
X83838944Y-140311266D01*
X83913958Y-140351361D01*
X83995352Y-140376052D01*
X84080000Y-140384389D01*
X84840000Y-140384389D01*
X84924648Y-140376052D01*
X84932408Y-140373698D01*
X84975439Y-140515550D01*
X85050913Y-140656752D01*
X85088280Y-140702284D01*
X85086929Y-140716000D01*
X85090001Y-140747191D01*
X85090001Y-141838206D01*
X85044648Y-141824448D01*
X84981285Y-141818207D01*
X83689893Y-140526817D01*
X83582651Y-140438804D01*
X83419386Y-140351538D01*
X83242233Y-140297799D01*
X83058000Y-140279654D01*
X82873767Y-140297799D01*
X82696614Y-140351538D01*
X82533349Y-140438804D01*
X82390246Y-140556246D01*
X82272804Y-140699349D01*
X82185538Y-140862614D01*
X82131799Y-141039767D01*
X82113654Y-141224000D01*
X82131799Y-141408233D01*
X82185538Y-141585386D01*
X82202894Y-141617856D01*
X82047000Y-141773750D01*
X82047000Y-144248000D01*
X82896250Y-144248000D01*
X83055000Y-144089250D01*
X83055000Y-142550077D01*
X83520201Y-143015278D01*
X83520200Y-144421166D01*
X83526111Y-144481183D01*
X83526111Y-146500000D01*
X83528412Y-146523363D01*
X83490965Y-146507852D01*
X83291623Y-146468200D01*
X83088377Y-146468200D01*
X83055000Y-146474839D01*
X83055000Y-144660750D01*
X82896250Y-144502000D01*
X82047000Y-144502000D01*
X82047000Y-146976250D01*
X82205750Y-147135000D01*
X82224376Y-147135000D01*
X82197852Y-147199035D01*
X82158200Y-147398377D01*
X82158200Y-147601623D01*
X82197852Y-147800965D01*
X82275631Y-147988740D01*
X82327329Y-148066111D01*
X81420000Y-148066111D01*
X81335352Y-148074448D01*
X81253958Y-148099139D01*
X81178944Y-148139234D01*
X81113194Y-148193194D01*
X81059234Y-148258944D01*
X81019139Y-148333958D01*
X80994448Y-148415352D01*
X80986111Y-148500000D01*
X80986111Y-150518817D01*
X80980200Y-150578834D01*
X80980201Y-153745833D01*
X80975654Y-153792000D01*
X80993799Y-153976233D01*
X81047538Y-154153386D01*
X81134804Y-154316651D01*
X81139315Y-154322147D01*
X81252247Y-154459754D01*
X81258871Y-154465190D01*
X81264312Y-154471820D01*
X81407415Y-154589262D01*
X81570680Y-154676529D01*
X81747833Y-154730268D01*
X81885899Y-154743866D01*
X81885909Y-154743866D01*
X81932066Y-154748412D01*
X81978223Y-154743866D01*
X84679130Y-154743866D01*
X84639403Y-154839777D01*
X84615000Y-154962458D01*
X84615000Y-155390000D01*
X84485750Y-155390000D01*
X84327000Y-155548750D01*
X84327000Y-158148000D01*
X85276250Y-158148000D01*
X85435000Y-157989250D01*
X85435000Y-155962458D01*
X85410597Y-155839777D01*
X85362730Y-155724215D01*
X85353000Y-155709653D01*
X85353000Y-155673000D01*
X85375000Y-155673000D01*
X85375000Y-155653000D01*
X85625000Y-155653000D01*
X85625000Y-155673000D01*
X85647000Y-155673000D01*
X85647000Y-155927000D01*
X85625000Y-155927000D01*
X85625000Y-157051250D01*
X85783750Y-157210000D01*
X85812542Y-157210000D01*
X85935223Y-157185597D01*
X86050785Y-157137730D01*
X86154789Y-157068237D01*
X86217352Y-157005674D01*
X86250000Y-157008889D01*
X86750000Y-157008889D01*
X86834648Y-157000552D01*
X86916042Y-156975861D01*
X86991056Y-156935766D01*
X87000000Y-156928426D01*
X87008944Y-156935766D01*
X87083958Y-156975861D01*
X87165352Y-157000552D01*
X87250000Y-157008889D01*
X87750000Y-157008889D01*
X87834648Y-157000552D01*
X87916042Y-156975861D01*
X87991056Y-156935766D01*
X88000000Y-156928426D01*
X88008944Y-156935766D01*
X88083958Y-156975861D01*
X88165352Y-157000552D01*
X88250000Y-157008889D01*
X88565000Y-157008889D01*
X88565000Y-157989250D01*
X88723750Y-158148000D01*
X89673000Y-158148000D01*
X89673000Y-155548750D01*
X89927000Y-155548750D01*
X89927000Y-158148000D01*
X90876250Y-158148000D01*
X91035000Y-157989250D01*
X91035000Y-155962458D01*
X91010597Y-155839777D01*
X90962730Y-155724215D01*
X90893237Y-155620211D01*
X90804789Y-155531763D01*
X90700785Y-155462270D01*
X90585223Y-155414403D01*
X90462542Y-155390000D01*
X90085750Y-155390000D01*
X89927000Y-155548750D01*
X89673000Y-155548750D01*
X89514250Y-155390000D01*
X89185800Y-155390000D01*
X89185800Y-154989067D01*
X89234114Y-154940753D01*
X89260279Y-154919280D01*
X89345981Y-154814853D01*
X89409662Y-154695714D01*
X89448877Y-154566440D01*
X89458800Y-154465689D01*
X89458800Y-154465680D01*
X89462117Y-154432001D01*
X89458800Y-154398322D01*
X89458800Y-153576679D01*
X89462117Y-153543000D01*
X89458800Y-153509321D01*
X89458800Y-153509311D01*
X89448877Y-153408560D01*
X89409662Y-153279286D01*
X89358671Y-153183889D01*
X90040000Y-153183889D01*
X90124648Y-153175552D01*
X90206042Y-153150861D01*
X90281056Y-153110766D01*
X90346806Y-153056806D01*
X90400766Y-152991056D01*
X90440861Y-152916042D01*
X90465552Y-152834648D01*
X90473889Y-152750000D01*
X90473889Y-150731184D01*
X90479800Y-150671167D01*
X90479800Y-148480038D01*
X90509035Y-148492148D01*
X90708377Y-148531800D01*
X90911623Y-148531800D01*
X91110965Y-148492148D01*
X91146238Y-148477537D01*
X91135654Y-148585000D01*
X91140201Y-148631167D01*
X91140200Y-150671166D01*
X91146111Y-150731183D01*
X91146111Y-152750000D01*
X91154448Y-152834648D01*
X91179139Y-152916042D01*
X91219234Y-152991056D01*
X91273194Y-153056806D01*
X91338944Y-153110766D01*
X91413958Y-153150861D01*
X91495352Y-153175552D01*
X91580000Y-153183889D01*
X92580000Y-153183889D01*
X92664648Y-153175552D01*
X92746042Y-153150861D01*
X92821056Y-153110766D01*
X92886806Y-153056806D01*
X92940766Y-152991056D01*
X92980861Y-152916042D01*
X93005552Y-152834648D01*
X93013889Y-152750000D01*
X93013889Y-150731184D01*
X93019800Y-150671167D01*
X93019800Y-148974277D01*
X93661184Y-148332894D01*
X93749196Y-148225652D01*
X93836463Y-148062386D01*
X93890201Y-147885233D01*
X93908346Y-147701000D01*
X93890201Y-147516767D01*
X93836463Y-147339614D01*
X93749196Y-147176349D01*
X93631754Y-147033246D01*
X93488651Y-146915804D01*
X93325386Y-146828537D01*
X93148233Y-146774799D01*
X92964000Y-146756654D01*
X92924796Y-146760515D01*
X92940766Y-146741056D01*
X92980861Y-146666042D01*
X93005552Y-146584648D01*
X93013889Y-146500000D01*
X93013889Y-144481184D01*
X93019800Y-144421167D01*
X93019800Y-143005277D01*
X93788184Y-142236894D01*
X93876196Y-142129652D01*
X93963463Y-141966386D01*
X94017201Y-141789234D01*
X94035346Y-141605000D01*
X94031193Y-141562832D01*
X94279960Y-141314066D01*
X94304185Y-141294185D01*
X94324065Y-141269961D01*
X94324069Y-141269957D01*
X94383538Y-141197494D01*
X94442502Y-141087180D01*
X94449080Y-141065494D01*
X94478812Y-140967482D01*
X94488000Y-140874192D01*
X94488000Y-140874189D01*
X94491072Y-140843000D01*
X94488000Y-140811811D01*
X94488000Y-138461189D01*
X94491072Y-138430000D01*
X94488000Y-138398808D01*
X94478812Y-138305518D01*
X94442502Y-138185820D01*
X94428353Y-138159349D01*
X94383538Y-138075506D01*
X94324069Y-138003043D01*
X94324065Y-138003039D01*
X94304185Y-137978815D01*
X94279962Y-137958936D01*
X91957024Y-135636000D01*
X93390955Y-134202070D01*
X93415185Y-134182185D01*
X93486787Y-134094938D01*
X93494538Y-134085494D01*
X93553502Y-133975180D01*
X93562380Y-133945912D01*
X93589812Y-133855482D01*
X93599000Y-133762192D01*
X93599000Y-133762189D01*
X93602072Y-133731000D01*
X93599000Y-133699811D01*
X93599000Y-132365189D01*
X93602072Y-132334000D01*
X93598508Y-132297814D01*
X93589812Y-132209518D01*
X93553502Y-132089820D01*
X93548901Y-132081213D01*
X93494538Y-131979506D01*
X93435068Y-131907043D01*
X93415185Y-131882815D01*
X93390956Y-131862931D01*
X92788887Y-131260863D01*
X92758822Y-131161752D01*
X92690424Y-131033787D01*
X92621442Y-130949732D01*
X92610480Y-130938770D01*
X92673000Y-130876250D01*
X92673000Y-128977000D01*
X92927000Y-128977000D01*
X92927000Y-130876250D01*
X93085750Y-131035000D01*
X93462542Y-131035000D01*
X93585223Y-131010597D01*
X93700785Y-130962730D01*
X93804789Y-130893237D01*
X93893237Y-130804789D01*
X93962730Y-130700785D01*
X94010597Y-130585223D01*
X94035000Y-130462542D01*
X94035000Y-129135750D01*
X93876250Y-128977000D01*
X92927000Y-128977000D01*
X92673000Y-128977000D01*
X91723750Y-128977000D01*
X91565000Y-129135750D01*
X91565000Y-129416111D01*
X91200000Y-129416111D01*
X91115352Y-129424448D01*
X91033958Y-129449139D01*
X91000000Y-129467290D01*
X90966042Y-129449139D01*
X90884648Y-129424448D01*
X90800000Y-129416111D01*
X90200000Y-129416111D01*
X90115352Y-129424448D01*
X90033958Y-129449139D01*
X90000000Y-129467290D01*
X89966042Y-129449139D01*
X89884648Y-129424448D01*
X89800000Y-129416111D01*
X89255600Y-129416111D01*
X89255600Y-129381997D01*
X89287992Y-129303796D01*
X89323800Y-129123774D01*
X89323800Y-128940226D01*
X89287992Y-128760204D01*
X89217751Y-128590627D01*
X89115777Y-128438012D01*
X88985988Y-128308223D01*
X88833373Y-128206249D01*
X88663796Y-128136008D01*
X88483774Y-128100200D01*
X88300226Y-128100200D01*
X88120204Y-128136008D01*
X87950627Y-128206249D01*
X87798012Y-128308223D01*
X87668223Y-128438012D01*
X87566249Y-128590627D01*
X87496008Y-128760204D01*
X87460200Y-128940226D01*
X87460200Y-129123774D01*
X87496008Y-129303796D01*
X87542530Y-129416111D01*
X87336470Y-129416111D01*
X87382992Y-129303796D01*
X87418800Y-129123774D01*
X87418800Y-128940226D01*
X87382992Y-128760204D01*
X87312751Y-128590627D01*
X87210777Y-128438012D01*
X87080988Y-128308223D01*
X86928373Y-128206249D01*
X86758796Y-128136008D01*
X86578774Y-128100200D01*
X86395226Y-128100200D01*
X86215204Y-128136008D01*
X86045627Y-128206249D01*
X85893012Y-128308223D01*
X85763223Y-128438012D01*
X85661249Y-128590627D01*
X85591008Y-128760204D01*
X85555200Y-128940226D01*
X85555200Y-129123774D01*
X85591008Y-129303796D01*
X85637530Y-129416111D01*
X85304470Y-129416111D01*
X85350992Y-129303796D01*
X85386800Y-129123774D01*
X85386800Y-128940226D01*
X85350992Y-128760204D01*
X85280751Y-128590627D01*
X85178777Y-128438012D01*
X85048988Y-128308223D01*
X84896373Y-128206249D01*
X84726796Y-128136008D01*
X84546774Y-128100200D01*
X84363226Y-128100200D01*
X84183204Y-128136008D01*
X84013627Y-128206249D01*
X83861012Y-128308223D01*
X83731223Y-128438012D01*
X83629249Y-128590627D01*
X83559008Y-128760204D01*
X83523200Y-128940226D01*
X83523200Y-129123774D01*
X83559008Y-129303796D01*
X83627000Y-129467943D01*
X83627000Y-130498000D01*
X83647000Y-130498000D01*
X83647000Y-130752000D01*
X83627000Y-130752000D01*
X83627000Y-131876250D01*
X83785750Y-132035000D01*
X83862542Y-132035000D01*
X83985223Y-132010597D01*
X84100785Y-131962730D01*
X84204789Y-131893237D01*
X84264137Y-131833889D01*
X84287410Y-131833889D01*
X84242012Y-131864223D01*
X84112223Y-131994012D01*
X84010249Y-132146627D01*
X83940008Y-132316204D01*
X83904200Y-132496226D01*
X83904200Y-132679774D01*
X83940008Y-132859796D01*
X84005106Y-133016957D01*
X83894777Y-133038903D01*
X83779215Y-133086770D01*
X83675211Y-133156263D01*
X83586763Y-133244711D01*
X83517270Y-133348715D01*
X83469403Y-133464277D01*
X83445000Y-133586958D01*
X83445000Y-134563750D01*
X83603750Y-134722500D01*
X84333000Y-134722500D01*
X84333000Y-134702500D01*
X84587000Y-134702500D01*
X84587000Y-134722500D01*
X84607000Y-134722500D01*
X84607000Y-134976500D01*
X84587000Y-134976500D01*
X84587000Y-134996500D01*
X84333000Y-134996500D01*
X84333000Y-134976500D01*
X83603750Y-134976500D01*
X83445000Y-135135250D01*
X83445000Y-136112042D01*
X83469403Y-136234723D01*
X83517270Y-136350285D01*
X83586763Y-136454289D01*
X83675211Y-136542737D01*
X83779215Y-136612230D01*
X83894777Y-136660097D01*
X84017458Y-136684500D01*
X84174250Y-136684500D01*
X84332998Y-136525752D01*
X84332998Y-136623467D01*
X84313200Y-136722999D01*
X84313200Y-136877001D01*
X84343244Y-137028043D01*
X84379930Y-137116611D01*
X84080000Y-137116611D01*
X83995352Y-137124948D01*
X83913958Y-137149639D01*
X83838944Y-137189734D01*
X83773194Y-137243694D01*
X83719234Y-137309444D01*
X83679139Y-137384458D01*
X83654448Y-137465852D01*
X83646111Y-137550500D01*
X83646111Y-137998200D01*
X81280628Y-137998200D01*
X81263463Y-137941614D01*
X81176196Y-137778349D01*
X81058754Y-137635246D01*
X80915651Y-137517804D01*
X80752385Y-137430537D01*
X80575232Y-137376798D01*
X80391000Y-137358653D01*
X80206767Y-137376798D01*
X80029614Y-137430537D01*
X79866349Y-137517804D01*
X79723246Y-137635246D01*
X79605804Y-137778349D01*
X79518537Y-137941615D01*
X79464798Y-138118768D01*
X79451200Y-138256834D01*
X79451200Y-138637840D01*
X79446654Y-138684000D01*
X73558800Y-138684000D01*
X73558800Y-134029390D01*
X73770748Y-134171008D01*
X74069755Y-134294861D01*
X74387179Y-134358000D01*
X74710821Y-134358000D01*
X75028245Y-134294861D01*
X75327252Y-134171008D01*
X75596352Y-133991202D01*
X75825202Y-133762352D01*
X76005008Y-133493252D01*
X76050710Y-133382919D01*
X76272319Y-133427000D01*
X76927681Y-133427000D01*
X77570450Y-133299145D01*
X78175925Y-133048349D01*
X78720839Y-132684250D01*
X79184250Y-132220839D01*
X79548349Y-131675925D01*
X79799145Y-131070450D01*
X79927000Y-130427681D01*
X79927000Y-129772319D01*
X79800379Y-129135750D01*
X79965000Y-129135750D01*
X79965000Y-130462542D01*
X79989403Y-130585223D01*
X80037270Y-130700785D01*
X80106763Y-130804789D01*
X80195211Y-130893237D01*
X80299215Y-130962730D01*
X80414777Y-131010597D01*
X80537458Y-131035000D01*
X80758939Y-131035000D01*
X80748804Y-131047349D01*
X80661537Y-131210615D01*
X80607798Y-131387768D01*
X80594200Y-131525834D01*
X80594201Y-132888167D01*
X80607799Y-133026233D01*
X80661538Y-133203386D01*
X80748805Y-133366651D01*
X80866247Y-133509754D01*
X81009350Y-133627196D01*
X81172615Y-133714463D01*
X81349768Y-133768202D01*
X81534000Y-133786347D01*
X81718233Y-133768202D01*
X81895386Y-133714463D01*
X82058651Y-133627196D01*
X82201754Y-133509754D01*
X82319196Y-133366651D01*
X82406463Y-133203386D01*
X82460202Y-133026233D01*
X82473800Y-132888167D01*
X82473800Y-132009914D01*
X82649825Y-131833889D01*
X82735863Y-131833889D01*
X82795211Y-131893237D01*
X82899215Y-131962730D01*
X83014777Y-132010597D01*
X83137458Y-132035000D01*
X83214250Y-132035000D01*
X83373000Y-131876250D01*
X83373000Y-130752000D01*
X83353000Y-130752000D01*
X83353000Y-130498000D01*
X83373000Y-130498000D01*
X83373000Y-129373750D01*
X83214250Y-129215000D01*
X83137458Y-129215000D01*
X83014777Y-129239403D01*
X82899215Y-129287270D01*
X82795211Y-129356763D01*
X82735863Y-129416111D01*
X82435000Y-129416111D01*
X82435000Y-129135750D01*
X82276250Y-128977000D01*
X81327000Y-128977000D01*
X81327000Y-128997000D01*
X81073000Y-128997000D01*
X81073000Y-128977000D01*
X80123750Y-128977000D01*
X79965000Y-129135750D01*
X79800379Y-129135750D01*
X79799145Y-129129550D01*
X79548349Y-128524075D01*
X79184250Y-127979161D01*
X78720839Y-127515750D01*
X78175925Y-127151651D01*
X77951763Y-127058800D01*
X80012589Y-127058800D01*
X79989403Y-127114777D01*
G36*
X93218000Y-138693026D02*
G01*
X93218000Y-139284325D01*
X93154751Y-139131627D01*
X93052777Y-138979012D01*
X92922988Y-138849223D01*
X92770373Y-138747249D01*
X92600796Y-138677008D01*
X92420774Y-138641200D01*
X92237226Y-138641200D01*
X92057204Y-138677008D01*
X91887627Y-138747249D01*
X91868244Y-138760200D01*
X90353889Y-138760200D01*
X90353889Y-137550500D01*
X90345552Y-137465852D01*
X90320861Y-137384458D01*
X90280766Y-137309444D01*
X90226806Y-137243694D01*
X90161056Y-137189734D01*
X90086042Y-137149639D01*
X90004648Y-137124948D01*
X89920000Y-137116611D01*
X89620070Y-137116611D01*
X89656756Y-137028043D01*
X89686800Y-136877001D01*
X89686800Y-136722999D01*
X89656756Y-136571957D01*
X89620070Y-136483389D01*
X89920000Y-136483389D01*
X90004648Y-136475052D01*
X90086042Y-136450361D01*
X90088962Y-136448800D01*
X90973776Y-136448800D01*
X93218000Y-138693026D01*
X93218000Y-138693026D01*
G37*
X93218000Y-138693026D02*
X93218000Y-139284325D01*
X93154751Y-139131627D01*
X93052777Y-138979012D01*
X92922988Y-138849223D01*
X92770373Y-138747249D01*
X92600796Y-138677008D01*
X92420774Y-138641200D01*
X92237226Y-138641200D01*
X92057204Y-138677008D01*
X91887627Y-138747249D01*
X91868244Y-138760200D01*
X90353889Y-138760200D01*
X90353889Y-137550500D01*
X90345552Y-137465852D01*
X90320861Y-137384458D01*
X90280766Y-137309444D01*
X90226806Y-137243694D01*
X90161056Y-137189734D01*
X90086042Y-137149639D01*
X90004648Y-137124948D01*
X89920000Y-137116611D01*
X89620070Y-137116611D01*
X89656756Y-137028043D01*
X89686800Y-136877001D01*
X89686800Y-136722999D01*
X89656756Y-136571957D01*
X89620070Y-136483389D01*
X89920000Y-136483389D01*
X90004648Y-136475052D01*
X90086042Y-136450361D01*
X90088962Y-136448800D01*
X90973776Y-136448800D01*
X93218000Y-138693026D01*
G36*
X90617807Y-132643462D02*
G01*
X90617807Y-132697167D01*
X90653615Y-132877189D01*
X90723856Y-133046766D01*
X90825830Y-133199381D01*
X90955619Y-133329170D01*
X91108234Y-133431144D01*
X91277811Y-133501385D01*
X91457833Y-133537193D01*
X91641381Y-133537193D01*
X91821403Y-133501385D01*
X91990980Y-133431144D01*
X92143595Y-133329170D01*
X92273384Y-133199381D01*
X92329001Y-133116145D01*
X92329001Y-133467974D01*
X90973776Y-134823200D01*
X90353889Y-134823200D01*
X90353889Y-133649500D01*
X90345552Y-133564852D01*
X90320861Y-133483458D01*
X90280766Y-133408444D01*
X90226806Y-133342694D01*
X90161056Y-133288734D01*
X90086042Y-133248639D01*
X90069994Y-133243771D01*
X90131777Y-133181988D01*
X90233751Y-133029373D01*
X90303992Y-132859796D01*
X90339800Y-132679774D01*
X90339800Y-132496226D01*
X90307330Y-132332984D01*
X90617807Y-132643462D01*
X90617807Y-132643462D01*
G37*
X90617807Y-132643462D02*
X90617807Y-132697167D01*
X90653615Y-132877189D01*
X90723856Y-133046766D01*
X90825830Y-133199381D01*
X90955619Y-133329170D01*
X91108234Y-133431144D01*
X91277811Y-133501385D01*
X91457833Y-133537193D01*
X91641381Y-133537193D01*
X91821403Y-133501385D01*
X91990980Y-133431144D01*
X92143595Y-133329170D01*
X92273384Y-133199381D01*
X92329001Y-133116145D01*
X92329001Y-133467974D01*
X90973776Y-134823200D01*
X90353889Y-134823200D01*
X90353889Y-133649500D01*
X90345552Y-133564852D01*
X90320861Y-133483458D01*
X90280766Y-133408444D01*
X90226806Y-133342694D01*
X90161056Y-133288734D01*
X90086042Y-133248639D01*
X90069994Y-133243771D01*
X90131777Y-133181988D01*
X90233751Y-133029373D01*
X90303992Y-132859796D01*
X90339800Y-132679774D01*
X90339800Y-132496226D01*
X90307330Y-132332984D01*
X90617807Y-132643462D01*
M02*
