M48
; DRILL file {KiCad 5.1.0-rc2-unknown-036be7d~80~ubuntu16.04.1} date 22.05.2023 (пн) 15:02:49 EEST
; FORMAT={-:-/ absolute / inch / decimal}
; #@! TF.CreationDate,2023-05-22T15:02:49+03:00*
; #@! TF.GenerationSoftware,Kicad,Pcbnew,5.1.0-rc2-unknown-036be7d~80~ubuntu16.04.1
; #@! TF.FileFunction,Plated,1,2,PTH
FMAT,2
INCH
T1C0.0236
%
G90
G05
T1
X2.95Y-5.4
X2.95Y-5.65
X2.95Y-5.9
X2.95Y-6.15
X2.95Y-6.4
X3.075Y-6.1
X3.075Y-6.155
X3.135Y-5.025
X3.14Y-6.72
X3.165Y-5.19
X3.165Y-5.435
X3.165Y-5.685
X3.165Y-5.93
X3.215Y-5.19
X3.215Y-5.435
X3.215Y-5.685
X3.215Y-5.93
X3.2254Y-6.46
X3.26Y-6.58
X3.27Y-5.215
X3.27Y-5.465
X3.27Y-5.71
X3.27Y-5.96
X3.275Y-6.46
X3.325Y-5.825
X3.34Y-6.225
X3.4Y-6.225
X3.405Y-5.825
X3.425Y-5.025
X3.425Y-6.72
X3.445Y-6.465
X3.45Y-5.975
X3.485Y-5.825
X3.5Y-6.225
X3.575Y-5.955
X3.59Y-6.58
X3.645Y-6.225
X3.71Y-6.72
X3.715Y-5.025
X3.9Y-5.35
X3.9Y-5.6
X3.9Y-5.85
X3.9Y-6.1
X3.9Y-6.35
T0
M30
