G04 #@! TF.GenerationSoftware,KiCad,Pcbnew,5.1.0-rc2-unknown-036be7d~80~ubuntu16.04.1*
G04 #@! TF.CreationDate,2023-05-22T15:02:47+03:00*
G04 #@! TF.ProjectId,UEXT-P4Q_Rev_A,55455854-2d50-4345-915f-5265765f412e,A*
G04 #@! TF.SameCoordinates,Original*
G04 #@! TF.FileFunction,Copper,L1,Top*
G04 #@! TF.FilePolarity,Positive*
%FSLAX46Y46*%
G04 Gerber Fmt 4.6, Leading zero omitted, Abs format (unit mm)*
G04 Created by KiCad (PCBNEW 5.1.0-rc2-unknown-036be7d~80~ubuntu16.04.1) date 2023-05-22 15:02:47*
%MOMM*%
%LPD*%
G04 APERTURE LIST*
%ADD10C,1.000000*%
%ADD11R,1.200000X3.100000*%
%ADD12R,0.600000X1.550000*%
%ADD13R,0.500000X1.550000*%
%ADD14R,1.200000X4.500000*%
%ADD15R,1.000000X4.250000*%
%ADD16C,0.508000*%
%ADD17C,1.016000*%
%ADD18C,0.254000*%
G04 APERTURE END LIST*
D10*
X99441000Y-165608000D03*
X74549000Y-165608000D03*
X74549000Y-132715000D03*
X99441000Y-132715000D03*
D11*
X92800000Y-128850000D03*
X81200000Y-128850000D03*
D12*
X91500000Y-130625000D03*
X90500000Y-130625000D03*
X89500000Y-130625000D03*
X88500000Y-130625000D03*
X87500000Y-130625000D03*
X86500000Y-130625000D03*
X85500000Y-130625000D03*
X84500000Y-130625000D03*
X83500000Y-130625000D03*
X82500000Y-130625000D03*
D13*
X88500000Y-166100000D03*
X86500000Y-166100000D03*
X87500000Y-166100000D03*
D14*
X84200000Y-168575000D03*
X89800000Y-168575000D03*
D13*
X85500000Y-166100000D03*
D15*
X81920000Y-160925000D03*
X81920000Y-154675000D03*
X84460000Y-160925000D03*
X84460000Y-154675000D03*
X87000000Y-160925000D03*
X87000000Y-154675000D03*
X89540000Y-160925000D03*
X89540000Y-154675000D03*
X92080000Y-160925000D03*
X92080000Y-154675000D03*
D11*
X92800000Y-135150000D03*
X81200000Y-135150000D03*
D12*
X91500000Y-136925000D03*
X90500000Y-136925000D03*
X89500000Y-136925000D03*
X88500000Y-136925000D03*
X87500000Y-136925000D03*
X86500000Y-136925000D03*
X85500000Y-136925000D03*
X84500000Y-136925000D03*
X83500000Y-136925000D03*
X82500000Y-136925000D03*
X82500000Y-143225000D03*
X83500000Y-143225000D03*
X84500000Y-143225000D03*
X85500000Y-143225000D03*
X86500000Y-143225000D03*
X87500000Y-143225000D03*
X88500000Y-143225000D03*
X89500000Y-143225000D03*
X90500000Y-143225000D03*
X91500000Y-143225000D03*
D11*
X81200000Y-141450000D03*
X92800000Y-141450000D03*
X92800000Y-147750000D03*
X81200000Y-147750000D03*
D12*
X91500000Y-149525000D03*
X90500000Y-149525000D03*
X89500000Y-149525000D03*
X88500000Y-149525000D03*
X87500000Y-149525000D03*
X86500000Y-149525000D03*
X85500000Y-149525000D03*
X84500000Y-149525000D03*
X83500000Y-149525000D03*
X82500000Y-149525000D03*
D10*
X84455000Y-147955000D03*
X84836000Y-158115000D03*
X86487000Y-147955000D03*
X86360000Y-158115000D03*
X87503000Y-164211000D03*
X87630000Y-151765000D03*
X88519000Y-147955000D03*
X88900000Y-158115000D03*
X90805000Y-151257000D03*
X92583000Y-158115000D03*
X78105000Y-156337000D03*
X82804000Y-167132000D03*
X91186000Y-167132000D03*
X86995000Y-170688000D03*
X79756000Y-170688000D03*
X94234000Y-170688000D03*
X83058000Y-151384000D03*
X83058000Y-145034000D03*
X83058000Y-138811000D03*
X83058000Y-132461000D03*
X74930000Y-162560000D03*
X74930000Y-156210000D03*
X74930000Y-149860000D03*
X74930000Y-143510000D03*
X74930000Y-137160000D03*
X99060000Y-135890000D03*
X99060000Y-142240000D03*
X99060000Y-148590000D03*
X99060000Y-154940000D03*
X99060000Y-161290000D03*
X78105000Y-154940000D03*
X86995000Y-127635000D03*
X94361000Y-127635000D03*
X79629000Y-127635000D03*
X81925000Y-164084000D03*
X83185000Y-164084000D03*
X81661000Y-150622000D03*
X80391000Y-150622000D03*
X80391000Y-144399000D03*
X81661000Y-144399000D03*
X80391000Y-138049000D03*
X81661000Y-138049000D03*
X80391000Y-131826000D03*
X81661000Y-131826000D03*
D16*
X84500000Y-148000000D02*
X84455000Y-147955000D01*
X84500000Y-149525000D02*
X84500000Y-148000000D01*
D17*
X84460000Y-158491000D02*
X84836000Y-158115000D01*
X84460000Y-160925000D02*
X84460000Y-158491000D01*
D16*
X84500000Y-147910000D02*
X84455000Y-147955000D01*
X84500000Y-143225000D02*
X84500000Y-147910000D01*
X84500000Y-143225000D02*
X84500000Y-138131000D01*
X84500000Y-136925000D02*
X84500000Y-138131000D01*
X84500000Y-136925000D02*
X84500000Y-132760000D01*
X84500000Y-130625000D02*
X84500000Y-132760000D01*
D17*
X84460000Y-154675000D02*
X84460000Y-152151000D01*
D16*
X85500000Y-151111000D02*
X84460000Y-152151000D01*
X85500000Y-149525000D02*
X85500000Y-151111000D01*
X85471000Y-149496000D02*
X85500000Y-149525000D01*
X85471000Y-143254000D02*
X85471000Y-149496000D01*
X85500000Y-143225000D02*
X85471000Y-143254000D01*
X85500000Y-143225000D02*
X85500000Y-138205000D01*
X85500000Y-136925000D02*
X85500000Y-138205000D01*
X85500000Y-136925000D02*
X85500000Y-132813000D01*
X85500000Y-130625000D02*
X85500000Y-132813000D01*
D17*
X87000000Y-162057000D02*
X87884000Y-162941000D01*
X87000000Y-160925000D02*
X87000000Y-162057000D01*
D16*
X88500000Y-166100000D02*
X88500000Y-165119000D01*
X88500000Y-165119000D02*
X88773000Y-164846000D01*
X88773000Y-163830000D02*
X87884000Y-162941000D01*
X88773000Y-164846000D02*
X88773000Y-163830000D01*
X86500000Y-147968000D02*
X86487000Y-147955000D01*
X86500000Y-149525000D02*
X86500000Y-147968000D01*
D17*
X87000000Y-158755000D02*
X87000000Y-160925000D01*
X86360000Y-158115000D02*
X87000000Y-158755000D01*
D16*
X86500000Y-147942000D02*
X86487000Y-147955000D01*
X86500000Y-143225000D02*
X86500000Y-147942000D01*
X86500000Y-143225000D02*
X86500000Y-139052000D01*
X86500000Y-136925000D02*
X86500000Y-139052000D01*
X86500000Y-136925000D02*
X86500000Y-132829000D01*
X86500000Y-130625000D02*
X86500000Y-132829000D01*
X87500000Y-164214000D02*
X87500000Y-166100000D01*
X87503000Y-164211000D02*
X87500000Y-164214000D01*
D17*
X87000000Y-152395000D02*
X87000000Y-154675000D01*
X87630000Y-151765000D02*
X87000000Y-152395000D01*
D16*
X87630000Y-151765000D02*
X87500000Y-151635000D01*
X87500000Y-151635000D02*
X87500000Y-149525000D01*
X87500000Y-149525000D02*
X87500000Y-144275000D01*
X87500000Y-143225000D02*
X87500000Y-144275000D01*
X87500000Y-143225000D02*
X87500000Y-139068000D01*
X87500000Y-136925000D02*
X87500000Y-139068000D01*
X87500000Y-136925000D02*
X87500000Y-132845000D01*
X87500000Y-130625000D02*
X87500000Y-132845000D01*
X88500000Y-147974000D02*
X88519000Y-147955000D01*
X88500000Y-149525000D02*
X88500000Y-147974000D01*
D17*
X89540000Y-158755000D02*
X88900000Y-158115000D01*
X89540000Y-160925000D02*
X89540000Y-158755000D01*
D16*
X88500000Y-147936000D02*
X88519000Y-147955000D01*
X88500000Y-143225000D02*
X88500000Y-147936000D01*
X88500000Y-143225000D02*
X88500000Y-139084000D01*
X88500000Y-136925000D02*
X88500000Y-139084000D01*
X88500000Y-136925000D02*
X88500000Y-132861000D01*
X88500000Y-130625000D02*
X88500000Y-132861000D01*
D17*
X89540000Y-154675000D02*
X89540000Y-152151000D01*
D16*
X89500000Y-152111000D02*
X89540000Y-152151000D01*
X89500000Y-149525000D02*
X89500000Y-152111000D01*
X89535000Y-149490000D02*
X89500000Y-149525000D01*
X89535000Y-143260000D02*
X89535000Y-149490000D01*
X89500000Y-143225000D02*
X89535000Y-143260000D01*
X89500000Y-143225000D02*
X89500000Y-139100000D01*
X89500000Y-136925000D02*
X89500000Y-139100000D01*
X89500000Y-136925000D02*
X89500000Y-132877000D01*
X89500000Y-130625000D02*
X89500000Y-132877000D01*
X90500000Y-150952000D02*
X90805000Y-151257000D01*
X90500000Y-149525000D02*
X90500000Y-150952000D01*
D17*
X92080000Y-158618000D02*
X92583000Y-158115000D01*
X92080000Y-160925000D02*
X92080000Y-158618000D01*
D16*
X90500000Y-149525000D02*
X90500000Y-144958000D01*
X90500000Y-143225000D02*
X90500000Y-144958000D01*
X90500000Y-143225000D02*
X90500000Y-139116000D01*
X90500000Y-136925000D02*
X90500000Y-139116000D01*
X90500000Y-136925000D02*
X90500000Y-132766000D01*
X90500000Y-130625000D02*
X90500000Y-132766000D01*
D17*
X92080000Y-154675000D02*
X92080000Y-152151000D01*
D16*
X92075000Y-152146000D02*
X92080000Y-152151000D01*
X92075000Y-150876000D02*
X92075000Y-152146000D01*
X91500000Y-150301000D02*
X92075000Y-150876000D01*
X91500000Y-149525000D02*
X91500000Y-150301000D01*
X91500000Y-149525000D02*
X91500000Y-145228000D01*
X91500000Y-143225000D02*
X91500000Y-145228000D01*
X91500000Y-143225000D02*
X91500000Y-139252000D01*
X91500000Y-136925000D02*
X91500000Y-139252000D01*
X91500000Y-136925000D02*
X91500000Y-132909000D01*
X91500000Y-130625000D02*
X91500000Y-132909000D01*
D17*
X81920000Y-154675000D02*
X81920000Y-156078000D01*
X81920000Y-156078000D02*
X81661000Y-156337000D01*
X81661000Y-156337000D02*
X78105000Y-156337000D01*
D16*
X85500000Y-166100000D02*
X85500000Y-165891000D01*
X85090000Y-165481000D02*
X84074000Y-165481000D01*
X85500000Y-165891000D02*
X85090000Y-165481000D01*
D17*
X80645000Y-165481000D02*
X84074000Y-165481000D01*
X78105000Y-162941000D02*
X80645000Y-165481000D01*
X78105000Y-156337000D02*
X78105000Y-162941000D01*
D16*
X83500000Y-144592000D02*
X83058000Y-145034000D01*
X83500000Y-143225000D02*
X83500000Y-144592000D01*
X83500000Y-150942000D02*
X83058000Y-151384000D01*
X83500000Y-149525000D02*
X83500000Y-150942000D01*
X83500000Y-138369000D02*
X83058000Y-138811000D01*
X83500000Y-136925000D02*
X83500000Y-138369000D01*
X83500000Y-132019000D02*
X83058000Y-132461000D01*
X83500000Y-130625000D02*
X83500000Y-132019000D01*
D17*
X78105000Y-156337000D02*
X78105000Y-154940000D01*
X81920000Y-160925000D02*
X81920000Y-164079000D01*
X81920000Y-164079000D02*
X81925000Y-164084000D01*
X81925000Y-164084000D02*
X85725000Y-164084000D01*
D16*
X86500000Y-164859000D02*
X85725000Y-164084000D01*
X86500000Y-166100000D02*
X86500000Y-164859000D01*
X82500000Y-149783000D02*
X81661000Y-150622000D01*
X82500000Y-149525000D02*
X82500000Y-149783000D01*
D17*
X80391000Y-150622000D02*
X81661000Y-150622000D01*
D16*
X82500000Y-143560000D02*
X81661000Y-144399000D01*
X82500000Y-143225000D02*
X82500000Y-143560000D01*
D17*
X81661000Y-144399000D02*
X80391000Y-144399000D01*
D16*
X82500000Y-137210000D02*
X81661000Y-138049000D01*
X82500000Y-136925000D02*
X82500000Y-137210000D01*
D17*
X81661000Y-138049000D02*
X80391000Y-138049000D01*
D16*
X82500000Y-130987000D02*
X81661000Y-131826000D01*
X82500000Y-130625000D02*
X82500000Y-130987000D01*
D17*
X81661000Y-131826000D02*
X80391000Y-131826000D01*
D18*
G36*
X79989403Y-127114777D02*
G01*
X79965000Y-127237458D01*
X79965000Y-128564250D01*
X80123750Y-128723000D01*
X81073000Y-128723000D01*
X81073000Y-128703000D01*
X81327000Y-128703000D01*
X81327000Y-128723000D01*
X82276250Y-128723000D01*
X82435000Y-128564250D01*
X82435000Y-127237458D01*
X82410597Y-127114777D01*
X82366369Y-127008000D01*
X91633631Y-127008000D01*
X91589403Y-127114777D01*
X91565000Y-127237458D01*
X91565000Y-128564250D01*
X91723750Y-128723000D01*
X92673000Y-128723000D01*
X92673000Y-128703000D01*
X92927000Y-128703000D01*
X92927000Y-128723000D01*
X93876250Y-128723000D01*
X94035000Y-128564250D01*
X94035000Y-127237458D01*
X94010597Y-127114777D01*
X93966369Y-127008000D01*
X96170879Y-127008000D01*
X95824075Y-127151651D01*
X95279161Y-127515750D01*
X94815750Y-127979161D01*
X94451651Y-128524075D01*
X94200855Y-129129550D01*
X94073000Y-129772319D01*
X94073000Y-130427681D01*
X94200855Y-131070450D01*
X94451651Y-131675925D01*
X94815750Y-132220839D01*
X95279161Y-132684250D01*
X95824075Y-133048349D01*
X96429550Y-133299145D01*
X97072319Y-133427000D01*
X97727681Y-133427000D01*
X97940052Y-133384757D01*
X97984992Y-133493252D01*
X98164798Y-133762352D01*
X98393648Y-133991202D01*
X98662748Y-134171008D01*
X98961755Y-134294861D01*
X99279179Y-134358000D01*
X99602821Y-134358000D01*
X99920245Y-134294861D01*
X100219252Y-134171008D01*
X100488352Y-133991202D01*
X100492001Y-133987553D01*
X100492000Y-164335446D01*
X100488352Y-164331798D01*
X100219252Y-164151992D01*
X99920245Y-164028139D01*
X99602821Y-163965000D01*
X99279179Y-163965000D01*
X98961755Y-164028139D01*
X98662748Y-164151992D01*
X98393648Y-164331798D01*
X98164798Y-164560648D01*
X97984992Y-164829748D01*
X97948853Y-164916994D01*
X97727681Y-164873000D01*
X97072319Y-164873000D01*
X96429550Y-165000855D01*
X95824075Y-165251651D01*
X95279161Y-165615750D01*
X94815750Y-166079161D01*
X94451651Y-166624075D01*
X94200855Y-167229550D01*
X94073000Y-167872319D01*
X94073000Y-168527681D01*
X94200855Y-169170450D01*
X94451651Y-169775925D01*
X94815750Y-170320839D01*
X95279161Y-170784250D01*
X95824075Y-171148349D01*
X96170879Y-171292000D01*
X90831026Y-171292000D01*
X90893237Y-171229789D01*
X90962730Y-171125785D01*
X91010597Y-171010223D01*
X91035000Y-170887542D01*
X91035000Y-168860750D01*
X90876250Y-168702000D01*
X89927000Y-168702000D01*
X89927000Y-168722000D01*
X89673000Y-168722000D01*
X89673000Y-168702000D01*
X88723750Y-168702000D01*
X88565000Y-168860750D01*
X88565000Y-170887542D01*
X88589403Y-171010223D01*
X88637270Y-171125785D01*
X88706763Y-171229789D01*
X88768974Y-171292000D01*
X85231026Y-171292000D01*
X85293237Y-171229789D01*
X85362730Y-171125785D01*
X85410597Y-171010223D01*
X85435000Y-170887542D01*
X85435000Y-168860750D01*
X85276250Y-168702000D01*
X84327000Y-168702000D01*
X84327000Y-168722000D01*
X84073000Y-168722000D01*
X84073000Y-168702000D01*
X83123750Y-168702000D01*
X82965000Y-168860750D01*
X82965000Y-170887542D01*
X82989403Y-171010223D01*
X83037270Y-171125785D01*
X83106763Y-171229789D01*
X83168974Y-171292000D01*
X77829121Y-171292000D01*
X78175925Y-171148349D01*
X78720839Y-170784250D01*
X79184250Y-170320839D01*
X79548349Y-169775925D01*
X79799145Y-169170450D01*
X79927000Y-168527681D01*
X79927000Y-167872319D01*
X79799145Y-167229550D01*
X79548349Y-166624075D01*
X79306725Y-166262458D01*
X82965000Y-166262458D01*
X82965000Y-168289250D01*
X83123750Y-168448000D01*
X84073000Y-168448000D01*
X84073000Y-165848750D01*
X83914250Y-165690000D01*
X83537458Y-165690000D01*
X83414777Y-165714403D01*
X83299215Y-165762270D01*
X83195211Y-165831763D01*
X83106763Y-165920211D01*
X83037270Y-166024215D01*
X82989403Y-166139777D01*
X82965000Y-166262458D01*
X79306725Y-166262458D01*
X79184250Y-166079161D01*
X78720839Y-165615750D01*
X78175925Y-165251651D01*
X77570450Y-165000855D01*
X76927681Y-164873000D01*
X76272319Y-164873000D01*
X76041908Y-164918832D01*
X76005008Y-164829748D01*
X75825202Y-164560648D01*
X75596352Y-164331798D01*
X75327252Y-164151992D01*
X75151035Y-164079000D01*
X81026700Y-164079000D01*
X81043864Y-164253274D01*
X81094698Y-164420852D01*
X81177248Y-164575291D01*
X81253181Y-164667815D01*
X81288342Y-164710659D01*
X81291085Y-164712910D01*
X81293341Y-164715659D01*
X81428709Y-164826753D01*
X81583149Y-164909303D01*
X81750726Y-164960136D01*
X81881333Y-164973000D01*
X81881339Y-164973000D01*
X81924999Y-164977300D01*
X81968659Y-164973000D01*
X84721491Y-164973000D01*
X84687270Y-165024215D01*
X84639403Y-165139777D01*
X84615000Y-165262458D01*
X84615000Y-165690000D01*
X84485750Y-165690000D01*
X84327000Y-165848750D01*
X84327000Y-168448000D01*
X85276250Y-168448000D01*
X85435000Y-168289250D01*
X85435000Y-166262458D01*
X85410597Y-166139777D01*
X85362730Y-166024215D01*
X85353000Y-166009653D01*
X85353000Y-165973000D01*
X85375000Y-165973000D01*
X85375000Y-165953000D01*
X85625000Y-165953000D01*
X85625000Y-165973000D01*
X85647000Y-165973000D01*
X85647000Y-166227000D01*
X85625000Y-166227000D01*
X85625000Y-167351250D01*
X85783750Y-167510000D01*
X85812542Y-167510000D01*
X85935223Y-167485597D01*
X86050785Y-167437730D01*
X86154789Y-167368237D01*
X86243237Y-167279789D01*
X86257901Y-167257843D01*
X86750000Y-167257843D01*
X86824689Y-167250487D01*
X86896508Y-167228701D01*
X86962696Y-167193322D01*
X87000000Y-167162708D01*
X87037304Y-167193322D01*
X87103492Y-167228701D01*
X87175311Y-167250487D01*
X87250000Y-167257843D01*
X87750000Y-167257843D01*
X87824689Y-167250487D01*
X87896508Y-167228701D01*
X87962696Y-167193322D01*
X88000000Y-167162708D01*
X88037304Y-167193322D01*
X88103492Y-167228701D01*
X88175311Y-167250487D01*
X88250000Y-167257843D01*
X88565000Y-167257843D01*
X88565000Y-168289250D01*
X88723750Y-168448000D01*
X89673000Y-168448000D01*
X89673000Y-165848750D01*
X89927000Y-165848750D01*
X89927000Y-168448000D01*
X90876250Y-168448000D01*
X91035000Y-168289250D01*
X91035000Y-166262458D01*
X91010597Y-166139777D01*
X90962730Y-166024215D01*
X90893237Y-165920211D01*
X90804789Y-165831763D01*
X90700785Y-165762270D01*
X90585223Y-165714403D01*
X90462542Y-165690000D01*
X90085750Y-165690000D01*
X89927000Y-165848750D01*
X89673000Y-165848750D01*
X89514250Y-165690000D01*
X89137458Y-165690000D01*
X89135000Y-165690489D01*
X89135000Y-165382024D01*
X89199951Y-165317073D01*
X89224185Y-165297185D01*
X89303537Y-165200494D01*
X89362502Y-165090180D01*
X89398812Y-164970482D01*
X89408000Y-164877192D01*
X89408000Y-164877182D01*
X89411071Y-164846001D01*
X89408000Y-164814820D01*
X89408000Y-163861189D01*
X89411072Y-163830000D01*
X89406841Y-163787044D01*
X89398812Y-163705518D01*
X89362502Y-163585820D01*
X89330892Y-163526682D01*
X89303538Y-163475506D01*
X89268525Y-163432843D01*
X90040000Y-163432843D01*
X90114689Y-163425487D01*
X90186508Y-163403701D01*
X90252696Y-163368322D01*
X90310711Y-163320711D01*
X90358322Y-163262696D01*
X90393701Y-163196508D01*
X90415487Y-163124689D01*
X90422843Y-163050000D01*
X90422843Y-161031178D01*
X90429000Y-160968667D01*
X90429000Y-158798660D01*
X90433300Y-158755000D01*
X90429000Y-158711340D01*
X90429000Y-158711333D01*
X90428248Y-158703700D01*
X90523853Y-158743301D01*
X90713380Y-158781000D01*
X90906620Y-158781000D01*
X91096147Y-158743301D01*
X91191001Y-158704011D01*
X91191000Y-160968666D01*
X91197157Y-161031177D01*
X91197157Y-163050000D01*
X91204513Y-163124689D01*
X91226299Y-163196508D01*
X91261678Y-163262696D01*
X91309289Y-163320711D01*
X91367304Y-163368322D01*
X91433492Y-163403701D01*
X91505311Y-163425487D01*
X91580000Y-163432843D01*
X92580000Y-163432843D01*
X92654689Y-163425487D01*
X92726508Y-163403701D01*
X92792696Y-163368322D01*
X92850711Y-163320711D01*
X92898322Y-163262696D01*
X92933701Y-163196508D01*
X92955487Y-163124689D01*
X92962843Y-163050000D01*
X92962843Y-161031178D01*
X92969000Y-160968667D01*
X92969000Y-158986234D01*
X93242494Y-158712740D01*
X93325751Y-158611292D01*
X93408302Y-158456853D01*
X93459136Y-158289276D01*
X93476300Y-158115001D01*
X93459136Y-157940726D01*
X93408302Y-157773149D01*
X93325751Y-157618709D01*
X93214658Y-157483342D01*
X93079291Y-157372249D01*
X92924851Y-157289698D01*
X92757274Y-157238864D01*
X92582999Y-157221700D01*
X92408724Y-157238864D01*
X92241147Y-157289698D01*
X92086708Y-157372249D01*
X91985260Y-157455506D01*
X91782105Y-157658661D01*
X91753301Y-157513853D01*
X91679351Y-157335322D01*
X91577290Y-157182576D01*
X91580000Y-157182843D01*
X92580000Y-157182843D01*
X92654689Y-157175487D01*
X92726508Y-157153701D01*
X92792696Y-157118322D01*
X92850711Y-157070711D01*
X92898322Y-157012696D01*
X92933701Y-156946508D01*
X92955487Y-156874689D01*
X92962843Y-156800000D01*
X92962843Y-154781178D01*
X92969000Y-154718667D01*
X92969000Y-152107333D01*
X92956136Y-151976726D01*
X92905303Y-151809149D01*
X92822753Y-151654709D01*
X92711659Y-151519341D01*
X92710000Y-151517979D01*
X92710000Y-150907189D01*
X92713072Y-150876000D01*
X92708297Y-150827519D01*
X92700812Y-150751518D01*
X92664502Y-150631820D01*
X92632892Y-150572682D01*
X92605538Y-150521506D01*
X92546069Y-150449043D01*
X92546065Y-150449039D01*
X92526185Y-150424815D01*
X92501961Y-150404935D01*
X92182843Y-150085818D01*
X92182843Y-149935000D01*
X92514250Y-149935000D01*
X92673000Y-149776250D01*
X92673000Y-147877000D01*
X92927000Y-147877000D01*
X92927000Y-149776250D01*
X93085750Y-149935000D01*
X93462542Y-149935000D01*
X93585223Y-149910597D01*
X93700785Y-149862730D01*
X93804789Y-149793237D01*
X93893237Y-149704789D01*
X93962730Y-149600785D01*
X94010597Y-149485223D01*
X94035000Y-149362542D01*
X94035000Y-148035750D01*
X93876250Y-147877000D01*
X92927000Y-147877000D01*
X92673000Y-147877000D01*
X92653000Y-147877000D01*
X92653000Y-147623000D01*
X92673000Y-147623000D01*
X92673000Y-145723750D01*
X92927000Y-145723750D01*
X92927000Y-147623000D01*
X93876250Y-147623000D01*
X94035000Y-147464250D01*
X94035000Y-146137458D01*
X94010597Y-146014777D01*
X93962730Y-145899215D01*
X93893237Y-145795211D01*
X93804789Y-145706763D01*
X93700785Y-145637270D01*
X93585223Y-145589403D01*
X93462542Y-145565000D01*
X93085750Y-145565000D01*
X92927000Y-145723750D01*
X92673000Y-145723750D01*
X92514250Y-145565000D01*
X92137458Y-145565000D01*
X92135000Y-145565489D01*
X92135000Y-144181494D01*
X92153701Y-144146508D01*
X92175487Y-144074689D01*
X92182843Y-144000000D01*
X92182843Y-143635000D01*
X92514250Y-143635000D01*
X92673000Y-143476250D01*
X92673000Y-141577000D01*
X92927000Y-141577000D01*
X92927000Y-143476250D01*
X93085750Y-143635000D01*
X93462542Y-143635000D01*
X93585223Y-143610597D01*
X93700785Y-143562730D01*
X93804789Y-143493237D01*
X93893237Y-143404789D01*
X93962730Y-143300785D01*
X94010597Y-143185223D01*
X94035000Y-143062542D01*
X94035000Y-141735750D01*
X93876250Y-141577000D01*
X92927000Y-141577000D01*
X92673000Y-141577000D01*
X92653000Y-141577000D01*
X92653000Y-141323000D01*
X92673000Y-141323000D01*
X92673000Y-139423750D01*
X92927000Y-139423750D01*
X92927000Y-141323000D01*
X93876250Y-141323000D01*
X94035000Y-141164250D01*
X94035000Y-139837458D01*
X94010597Y-139714777D01*
X93962730Y-139599215D01*
X93893237Y-139495211D01*
X93804789Y-139406763D01*
X93700785Y-139337270D01*
X93585223Y-139289403D01*
X93462542Y-139265000D01*
X93085750Y-139265000D01*
X92927000Y-139423750D01*
X92673000Y-139423750D01*
X92514250Y-139265000D01*
X92137458Y-139265000D01*
X92135000Y-139265489D01*
X92135000Y-137881494D01*
X92153701Y-137846508D01*
X92175487Y-137774689D01*
X92182843Y-137700000D01*
X92182843Y-137335000D01*
X92514250Y-137335000D01*
X92673000Y-137176250D01*
X92673000Y-135277000D01*
X92927000Y-135277000D01*
X92927000Y-137176250D01*
X93085750Y-137335000D01*
X93462542Y-137335000D01*
X93585223Y-137310597D01*
X93700785Y-137262730D01*
X93804789Y-137193237D01*
X93893237Y-137104789D01*
X93962730Y-137000785D01*
X94010597Y-136885223D01*
X94035000Y-136762542D01*
X94035000Y-135435750D01*
X93876250Y-135277000D01*
X92927000Y-135277000D01*
X92673000Y-135277000D01*
X92653000Y-135277000D01*
X92653000Y-135023000D01*
X92673000Y-135023000D01*
X92673000Y-133123750D01*
X92927000Y-133123750D01*
X92927000Y-135023000D01*
X93876250Y-135023000D01*
X94035000Y-134864250D01*
X94035000Y-133537458D01*
X94010597Y-133414777D01*
X93962730Y-133299215D01*
X93893237Y-133195211D01*
X93804789Y-133106763D01*
X93700785Y-133037270D01*
X93585223Y-132989403D01*
X93462542Y-132965000D01*
X93085750Y-132965000D01*
X92927000Y-133123750D01*
X92673000Y-133123750D01*
X92514250Y-132965000D01*
X92137458Y-132965000D01*
X92135000Y-132965489D01*
X92135000Y-131581494D01*
X92153701Y-131546508D01*
X92175487Y-131474689D01*
X92182843Y-131400000D01*
X92182843Y-131035000D01*
X92514250Y-131035000D01*
X92673000Y-130876250D01*
X92673000Y-128977000D01*
X92927000Y-128977000D01*
X92927000Y-130876250D01*
X93085750Y-131035000D01*
X93462542Y-131035000D01*
X93585223Y-131010597D01*
X93700785Y-130962730D01*
X93804789Y-130893237D01*
X93893237Y-130804789D01*
X93962730Y-130700785D01*
X94010597Y-130585223D01*
X94035000Y-130462542D01*
X94035000Y-129135750D01*
X93876250Y-128977000D01*
X92927000Y-128977000D01*
X92673000Y-128977000D01*
X91723750Y-128977000D01*
X91565000Y-129135750D01*
X91565000Y-129467157D01*
X91200000Y-129467157D01*
X91125311Y-129474513D01*
X91053492Y-129496299D01*
X91000000Y-129524892D01*
X90946508Y-129496299D01*
X90874689Y-129474513D01*
X90800000Y-129467157D01*
X90200000Y-129467157D01*
X90125311Y-129474513D01*
X90053492Y-129496299D01*
X90000000Y-129524892D01*
X89946508Y-129496299D01*
X89874689Y-129474513D01*
X89800000Y-129467157D01*
X89200000Y-129467157D01*
X89125311Y-129474513D01*
X89053492Y-129496299D01*
X89000000Y-129524892D01*
X88946508Y-129496299D01*
X88874689Y-129474513D01*
X88800000Y-129467157D01*
X88200000Y-129467157D01*
X88125311Y-129474513D01*
X88053492Y-129496299D01*
X88000000Y-129524892D01*
X87946508Y-129496299D01*
X87874689Y-129474513D01*
X87800000Y-129467157D01*
X87200000Y-129467157D01*
X87125311Y-129474513D01*
X87053492Y-129496299D01*
X87000000Y-129524892D01*
X86946508Y-129496299D01*
X86874689Y-129474513D01*
X86800000Y-129467157D01*
X86200000Y-129467157D01*
X86125311Y-129474513D01*
X86053492Y-129496299D01*
X86000000Y-129524892D01*
X85946508Y-129496299D01*
X85874689Y-129474513D01*
X85800000Y-129467157D01*
X85200000Y-129467157D01*
X85125311Y-129474513D01*
X85053492Y-129496299D01*
X85000000Y-129524892D01*
X84946508Y-129496299D01*
X84874689Y-129474513D01*
X84800000Y-129467157D01*
X84307901Y-129467157D01*
X84293237Y-129445211D01*
X84204789Y-129356763D01*
X84100785Y-129287270D01*
X83985223Y-129239403D01*
X83862542Y-129215000D01*
X83785750Y-129215000D01*
X83627000Y-129373750D01*
X83627000Y-130498000D01*
X83647000Y-130498000D01*
X83647000Y-130752000D01*
X83627000Y-130752000D01*
X83627000Y-131876250D01*
X83785750Y-132035000D01*
X83862542Y-132035000D01*
X83865001Y-132034511D01*
X83865001Y-132728808D01*
X83865000Y-135515489D01*
X83862542Y-135515000D01*
X83785750Y-135515000D01*
X83627000Y-135673750D01*
X83627000Y-136798000D01*
X83647000Y-136798000D01*
X83647000Y-137052000D01*
X83627000Y-137052000D01*
X83627000Y-138176250D01*
X83785750Y-138335000D01*
X83862542Y-138335000D01*
X83865001Y-138334511D01*
X83865000Y-141815489D01*
X83862542Y-141815000D01*
X83785750Y-141815000D01*
X83627000Y-141973750D01*
X83627000Y-143098000D01*
X83647000Y-143098000D01*
X83647000Y-143352000D01*
X83627000Y-143352000D01*
X83627000Y-144476250D01*
X83785750Y-144635000D01*
X83862542Y-144635000D01*
X83865000Y-144634511D01*
X83865001Y-147299076D01*
X83770682Y-147393395D01*
X83674268Y-147537690D01*
X83607856Y-147698022D01*
X83574000Y-147868229D01*
X83574000Y-148041771D01*
X83607856Y-148211978D01*
X83631556Y-148269194D01*
X83627000Y-148273750D01*
X83627000Y-149398000D01*
X83647000Y-149398000D01*
X83647000Y-149652000D01*
X83627000Y-149652000D01*
X83627000Y-150776250D01*
X83785750Y-150935000D01*
X83862542Y-150935000D01*
X83985223Y-150910597D01*
X84100785Y-150862730D01*
X84204789Y-150793237D01*
X84293237Y-150704789D01*
X84307901Y-150682843D01*
X84800000Y-150682843D01*
X84865001Y-150676441D01*
X84865001Y-150847974D01*
X84454761Y-151258215D01*
X84285727Y-151274864D01*
X84118150Y-151325697D01*
X83963710Y-151408247D01*
X83828342Y-151519341D01*
X83717248Y-151654709D01*
X83634698Y-151809149D01*
X83583865Y-151976726D01*
X83571001Y-152107333D01*
X83571000Y-154718666D01*
X83577157Y-154781177D01*
X83577157Y-156800000D01*
X83584513Y-156874689D01*
X83593845Y-156905451D01*
X83476147Y-156856699D01*
X83286620Y-156819000D01*
X83093380Y-156819000D01*
X83055000Y-156826634D01*
X83055000Y-154960750D01*
X82896250Y-154802000D01*
X82047000Y-154802000D01*
X82047000Y-157276250D01*
X82205750Y-157435000D01*
X82279361Y-157435000D01*
X82246699Y-157513853D01*
X82209000Y-157703380D01*
X82209000Y-157896620D01*
X82246699Y-158086147D01*
X82320649Y-158264678D01*
X82422710Y-158417424D01*
X82420000Y-158417157D01*
X81420000Y-158417157D01*
X81345311Y-158424513D01*
X81273492Y-158446299D01*
X81207304Y-158481678D01*
X81149289Y-158529289D01*
X81101678Y-158587304D01*
X81066299Y-158653492D01*
X81044513Y-158725311D01*
X81037157Y-158800000D01*
X81037157Y-160818823D01*
X81031000Y-160881334D01*
X81031001Y-164035330D01*
X81026700Y-164079000D01*
X75151035Y-164079000D01*
X75028245Y-164028139D01*
X74710821Y-163965000D01*
X74387179Y-163965000D01*
X74069755Y-164028139D01*
X73770748Y-164151992D01*
X73508000Y-164327554D01*
X73508000Y-154960750D01*
X80785000Y-154960750D01*
X80785000Y-156862542D01*
X80809403Y-156985223D01*
X80857270Y-157100785D01*
X80926763Y-157204789D01*
X81015211Y-157293237D01*
X81119215Y-157362730D01*
X81234777Y-157410597D01*
X81357458Y-157435000D01*
X81634250Y-157435000D01*
X81793000Y-157276250D01*
X81793000Y-154802000D01*
X80943750Y-154802000D01*
X80785000Y-154960750D01*
X73508000Y-154960750D01*
X73508000Y-152487458D01*
X80785000Y-152487458D01*
X80785000Y-154389250D01*
X80943750Y-154548000D01*
X81793000Y-154548000D01*
X81793000Y-152073750D01*
X82047000Y-152073750D01*
X82047000Y-154548000D01*
X82896250Y-154548000D01*
X83055000Y-154389250D01*
X83055000Y-152487458D01*
X83030597Y-152364777D01*
X82982730Y-152249215D01*
X82913237Y-152145211D01*
X82824789Y-152056763D01*
X82720785Y-151987270D01*
X82605223Y-151939403D01*
X82482542Y-151915000D01*
X82205750Y-151915000D01*
X82047000Y-152073750D01*
X81793000Y-152073750D01*
X81634250Y-151915000D01*
X81357458Y-151915000D01*
X81234777Y-151939403D01*
X81119215Y-151987270D01*
X81015211Y-152056763D01*
X80926763Y-152145211D01*
X80857270Y-152249215D01*
X80809403Y-152364777D01*
X80785000Y-152487458D01*
X73508000Y-152487458D01*
X73508000Y-150622000D01*
X79497699Y-150622000D01*
X79514864Y-150796274D01*
X79565697Y-150963851D01*
X79648247Y-151118291D01*
X79759341Y-151253659D01*
X79894709Y-151364753D01*
X80049149Y-151447303D01*
X80216726Y-151498136D01*
X80347333Y-151511000D01*
X81704667Y-151511000D01*
X81835274Y-151498136D01*
X82002851Y-151447303D01*
X82157291Y-151364753D01*
X82292659Y-151253659D01*
X82403753Y-151118291D01*
X82486303Y-150963851D01*
X82537136Y-150796274D01*
X82548308Y-150682843D01*
X82692099Y-150682843D01*
X82706763Y-150704789D01*
X82795211Y-150793237D01*
X82899215Y-150862730D01*
X83014777Y-150910597D01*
X83137458Y-150935000D01*
X83214250Y-150935000D01*
X83373000Y-150776250D01*
X83373000Y-149652000D01*
X83353000Y-149652000D01*
X83353000Y-149398000D01*
X83373000Y-149398000D01*
X83373000Y-148273750D01*
X83214250Y-148115000D01*
X83137458Y-148115000D01*
X83014777Y-148139403D01*
X82899215Y-148187270D01*
X82795211Y-148256763D01*
X82706763Y-148345211D01*
X82692099Y-148367157D01*
X82435000Y-148367157D01*
X82435000Y-148035750D01*
X82276250Y-147877000D01*
X81327000Y-147877000D01*
X81327000Y-147897000D01*
X81073000Y-147897000D01*
X81073000Y-147877000D01*
X80123750Y-147877000D01*
X79965000Y-148035750D01*
X79965000Y-149362542D01*
X79989403Y-149485223D01*
X80037270Y-149600785D01*
X80106763Y-149704789D01*
X80163871Y-149761897D01*
X80049149Y-149796697D01*
X79894709Y-149879247D01*
X79759341Y-149990341D01*
X79648247Y-150125709D01*
X79565697Y-150280149D01*
X79514864Y-150447726D01*
X79497699Y-150622000D01*
X73508000Y-150622000D01*
X73508000Y-146137458D01*
X79965000Y-146137458D01*
X79965000Y-147464250D01*
X80123750Y-147623000D01*
X81073000Y-147623000D01*
X81073000Y-145723750D01*
X81327000Y-145723750D01*
X81327000Y-147623000D01*
X82276250Y-147623000D01*
X82435000Y-147464250D01*
X82435000Y-146137458D01*
X82410597Y-146014777D01*
X82362730Y-145899215D01*
X82293237Y-145795211D01*
X82204789Y-145706763D01*
X82100785Y-145637270D01*
X81985223Y-145589403D01*
X81862542Y-145565000D01*
X81485750Y-145565000D01*
X81327000Y-145723750D01*
X81073000Y-145723750D01*
X80914250Y-145565000D01*
X80537458Y-145565000D01*
X80414777Y-145589403D01*
X80299215Y-145637270D01*
X80195211Y-145706763D01*
X80106763Y-145795211D01*
X80037270Y-145899215D01*
X79989403Y-146014777D01*
X79965000Y-146137458D01*
X73508000Y-146137458D01*
X73508000Y-144399000D01*
X79497699Y-144399000D01*
X79514864Y-144573274D01*
X79565697Y-144740851D01*
X79648247Y-144895291D01*
X79759341Y-145030659D01*
X79894709Y-145141753D01*
X80049149Y-145224303D01*
X80216726Y-145275136D01*
X80347333Y-145288000D01*
X81704667Y-145288000D01*
X81835274Y-145275136D01*
X82002851Y-145224303D01*
X82157291Y-145141753D01*
X82292659Y-145030659D01*
X82403753Y-144895291D01*
X82486303Y-144740851D01*
X82537136Y-144573274D01*
X82553785Y-144404240D01*
X82575182Y-144382843D01*
X82692099Y-144382843D01*
X82706763Y-144404789D01*
X82795211Y-144493237D01*
X82899215Y-144562730D01*
X83014777Y-144610597D01*
X83137458Y-144635000D01*
X83214250Y-144635000D01*
X83373000Y-144476250D01*
X83373000Y-143352000D01*
X83353000Y-143352000D01*
X83353000Y-143098000D01*
X83373000Y-143098000D01*
X83373000Y-141973750D01*
X83214250Y-141815000D01*
X83137458Y-141815000D01*
X83014777Y-141839403D01*
X82899215Y-141887270D01*
X82795211Y-141956763D01*
X82706763Y-142045211D01*
X82692099Y-142067157D01*
X82435000Y-142067157D01*
X82435000Y-141735750D01*
X82276250Y-141577000D01*
X81327000Y-141577000D01*
X81327000Y-141597000D01*
X81073000Y-141597000D01*
X81073000Y-141577000D01*
X80123750Y-141577000D01*
X79965000Y-141735750D01*
X79965000Y-143062542D01*
X79989403Y-143185223D01*
X80037270Y-143300785D01*
X80106763Y-143404789D01*
X80195211Y-143493237D01*
X80236619Y-143520905D01*
X80216726Y-143522864D01*
X80049149Y-143573697D01*
X79894709Y-143656247D01*
X79759341Y-143767341D01*
X79648247Y-143902709D01*
X79565697Y-144057149D01*
X79514864Y-144224726D01*
X79497699Y-144399000D01*
X73508000Y-144399000D01*
X73508000Y-139837458D01*
X79965000Y-139837458D01*
X79965000Y-141164250D01*
X80123750Y-141323000D01*
X81073000Y-141323000D01*
X81073000Y-139423750D01*
X81327000Y-139423750D01*
X81327000Y-141323000D01*
X82276250Y-141323000D01*
X82435000Y-141164250D01*
X82435000Y-139837458D01*
X82410597Y-139714777D01*
X82362730Y-139599215D01*
X82293237Y-139495211D01*
X82204789Y-139406763D01*
X82100785Y-139337270D01*
X81985223Y-139289403D01*
X81862542Y-139265000D01*
X81485750Y-139265000D01*
X81327000Y-139423750D01*
X81073000Y-139423750D01*
X80914250Y-139265000D01*
X80537458Y-139265000D01*
X80414777Y-139289403D01*
X80299215Y-139337270D01*
X80195211Y-139406763D01*
X80106763Y-139495211D01*
X80037270Y-139599215D01*
X79989403Y-139714777D01*
X79965000Y-139837458D01*
X73508000Y-139837458D01*
X73508000Y-138049000D01*
X79497699Y-138049000D01*
X79514864Y-138223274D01*
X79565697Y-138390851D01*
X79648247Y-138545291D01*
X79759341Y-138680659D01*
X79894709Y-138791753D01*
X80049149Y-138874303D01*
X80216726Y-138925136D01*
X80347333Y-138938000D01*
X81704667Y-138938000D01*
X81835274Y-138925136D01*
X82002851Y-138874303D01*
X82157291Y-138791753D01*
X82292659Y-138680659D01*
X82403753Y-138545291D01*
X82486303Y-138390851D01*
X82537136Y-138223274D01*
X82550968Y-138082843D01*
X82692099Y-138082843D01*
X82706763Y-138104789D01*
X82795211Y-138193237D01*
X82899215Y-138262730D01*
X83014777Y-138310597D01*
X83137458Y-138335000D01*
X83214250Y-138335000D01*
X83373000Y-138176250D01*
X83373000Y-137052000D01*
X83353000Y-137052000D01*
X83353000Y-136798000D01*
X83373000Y-136798000D01*
X83373000Y-135673750D01*
X83214250Y-135515000D01*
X83137458Y-135515000D01*
X83014777Y-135539403D01*
X82899215Y-135587270D01*
X82795211Y-135656763D01*
X82706763Y-135745211D01*
X82692099Y-135767157D01*
X82435000Y-135767157D01*
X82435000Y-135435750D01*
X82276250Y-135277000D01*
X81327000Y-135277000D01*
X81327000Y-135297000D01*
X81073000Y-135297000D01*
X81073000Y-135277000D01*
X80123750Y-135277000D01*
X79965000Y-135435750D01*
X79965000Y-136762542D01*
X79989403Y-136885223D01*
X80037270Y-137000785D01*
X80106763Y-137104789D01*
X80184587Y-137182613D01*
X80049149Y-137223697D01*
X79894709Y-137306247D01*
X79759341Y-137417341D01*
X79648247Y-137552709D01*
X79565697Y-137707149D01*
X79514864Y-137874726D01*
X79497699Y-138049000D01*
X73508000Y-138049000D01*
X73508000Y-133995446D01*
X73770748Y-134171008D01*
X74069755Y-134294861D01*
X74387179Y-134358000D01*
X74710821Y-134358000D01*
X75028245Y-134294861D01*
X75327252Y-134171008D01*
X75596352Y-133991202D01*
X75825202Y-133762352D01*
X75975470Y-133537458D01*
X79965000Y-133537458D01*
X79965000Y-134864250D01*
X80123750Y-135023000D01*
X81073000Y-135023000D01*
X81073000Y-133123750D01*
X81327000Y-133123750D01*
X81327000Y-135023000D01*
X82276250Y-135023000D01*
X82435000Y-134864250D01*
X82435000Y-133537458D01*
X82410597Y-133414777D01*
X82362730Y-133299215D01*
X82293237Y-133195211D01*
X82204789Y-133106763D01*
X82100785Y-133037270D01*
X81985223Y-132989403D01*
X81862542Y-132965000D01*
X81485750Y-132965000D01*
X81327000Y-133123750D01*
X81073000Y-133123750D01*
X80914250Y-132965000D01*
X80537458Y-132965000D01*
X80414777Y-132989403D01*
X80299215Y-133037270D01*
X80195211Y-133106763D01*
X80106763Y-133195211D01*
X80037270Y-133299215D01*
X79989403Y-133414777D01*
X79965000Y-133537458D01*
X75975470Y-133537458D01*
X76005008Y-133493252D01*
X76050710Y-133382919D01*
X76272319Y-133427000D01*
X76927681Y-133427000D01*
X77570450Y-133299145D01*
X78175925Y-133048349D01*
X78720839Y-132684250D01*
X79184250Y-132220839D01*
X79506279Y-131738887D01*
X79497699Y-131826000D01*
X79514864Y-132000274D01*
X79565697Y-132167851D01*
X79648247Y-132322291D01*
X79759341Y-132457659D01*
X79894709Y-132568753D01*
X80049149Y-132651303D01*
X80216726Y-132702136D01*
X80347333Y-132715000D01*
X81704667Y-132715000D01*
X81835274Y-132702136D01*
X82002851Y-132651303D01*
X82157291Y-132568753D01*
X82292659Y-132457659D01*
X82403753Y-132322291D01*
X82486303Y-132167851D01*
X82537136Y-132000274D01*
X82553785Y-131831240D01*
X82602182Y-131782843D01*
X82692099Y-131782843D01*
X82706763Y-131804789D01*
X82795211Y-131893237D01*
X82899215Y-131962730D01*
X83014777Y-132010597D01*
X83137458Y-132035000D01*
X83214250Y-132035000D01*
X83373000Y-131876250D01*
X83373000Y-130752000D01*
X83353000Y-130752000D01*
X83353000Y-130498000D01*
X83373000Y-130498000D01*
X83373000Y-129373750D01*
X83214250Y-129215000D01*
X83137458Y-129215000D01*
X83014777Y-129239403D01*
X82899215Y-129287270D01*
X82795211Y-129356763D01*
X82706763Y-129445211D01*
X82692099Y-129467157D01*
X82435000Y-129467157D01*
X82435000Y-129135750D01*
X82276250Y-128977000D01*
X81327000Y-128977000D01*
X81327000Y-128997000D01*
X81073000Y-128997000D01*
X81073000Y-128977000D01*
X80123750Y-128977000D01*
X79965000Y-129135750D01*
X79965000Y-130462542D01*
X79989403Y-130585223D01*
X80037270Y-130700785D01*
X80106763Y-130804789D01*
X80195211Y-130893237D01*
X80271836Y-130944436D01*
X80216726Y-130949864D01*
X80049149Y-131000697D01*
X79894709Y-131083247D01*
X79759341Y-131194341D01*
X79736095Y-131222666D01*
X79799145Y-131070450D01*
X79927000Y-130427681D01*
X79927000Y-129772319D01*
X79799145Y-129129550D01*
X79548349Y-128524075D01*
X79184250Y-127979161D01*
X78720839Y-127515750D01*
X78175925Y-127151651D01*
X77829121Y-127008000D01*
X80033631Y-127008000D01*
X79989403Y-127114777D01*
X79989403Y-127114777D01*
G37*
X79989403Y-127114777D02*
X79965000Y-127237458D01*
X79965000Y-128564250D01*
X80123750Y-128723000D01*
X81073000Y-128723000D01*
X81073000Y-128703000D01*
X81327000Y-128703000D01*
X81327000Y-128723000D01*
X82276250Y-128723000D01*
X82435000Y-128564250D01*
X82435000Y-127237458D01*
X82410597Y-127114777D01*
X82366369Y-127008000D01*
X91633631Y-127008000D01*
X91589403Y-127114777D01*
X91565000Y-127237458D01*
X91565000Y-128564250D01*
X91723750Y-128723000D01*
X92673000Y-128723000D01*
X92673000Y-128703000D01*
X92927000Y-128703000D01*
X92927000Y-128723000D01*
X93876250Y-128723000D01*
X94035000Y-128564250D01*
X94035000Y-127237458D01*
X94010597Y-127114777D01*
X93966369Y-127008000D01*
X96170879Y-127008000D01*
X95824075Y-127151651D01*
X95279161Y-127515750D01*
X94815750Y-127979161D01*
X94451651Y-128524075D01*
X94200855Y-129129550D01*
X94073000Y-129772319D01*
X94073000Y-130427681D01*
X94200855Y-131070450D01*
X94451651Y-131675925D01*
X94815750Y-132220839D01*
X95279161Y-132684250D01*
X95824075Y-133048349D01*
X96429550Y-133299145D01*
X97072319Y-133427000D01*
X97727681Y-133427000D01*
X97940052Y-133384757D01*
X97984992Y-133493252D01*
X98164798Y-133762352D01*
X98393648Y-133991202D01*
X98662748Y-134171008D01*
X98961755Y-134294861D01*
X99279179Y-134358000D01*
X99602821Y-134358000D01*
X99920245Y-134294861D01*
X100219252Y-134171008D01*
X100488352Y-133991202D01*
X100492001Y-133987553D01*
X100492000Y-164335446D01*
X100488352Y-164331798D01*
X100219252Y-164151992D01*
X99920245Y-164028139D01*
X99602821Y-163965000D01*
X99279179Y-163965000D01*
X98961755Y-164028139D01*
X98662748Y-164151992D01*
X98393648Y-164331798D01*
X98164798Y-164560648D01*
X97984992Y-164829748D01*
X97948853Y-164916994D01*
X97727681Y-164873000D01*
X97072319Y-164873000D01*
X96429550Y-165000855D01*
X95824075Y-165251651D01*
X95279161Y-165615750D01*
X94815750Y-166079161D01*
X94451651Y-166624075D01*
X94200855Y-167229550D01*
X94073000Y-167872319D01*
X94073000Y-168527681D01*
X94200855Y-169170450D01*
X94451651Y-169775925D01*
X94815750Y-170320839D01*
X95279161Y-170784250D01*
X95824075Y-171148349D01*
X96170879Y-171292000D01*
X90831026Y-171292000D01*
X90893237Y-171229789D01*
X90962730Y-171125785D01*
X91010597Y-171010223D01*
X91035000Y-170887542D01*
X91035000Y-168860750D01*
X90876250Y-168702000D01*
X89927000Y-168702000D01*
X89927000Y-168722000D01*
X89673000Y-168722000D01*
X89673000Y-168702000D01*
X88723750Y-168702000D01*
X88565000Y-168860750D01*
X88565000Y-170887542D01*
X88589403Y-171010223D01*
X88637270Y-171125785D01*
X88706763Y-171229789D01*
X88768974Y-171292000D01*
X85231026Y-171292000D01*
X85293237Y-171229789D01*
X85362730Y-171125785D01*
X85410597Y-171010223D01*
X85435000Y-170887542D01*
X85435000Y-168860750D01*
X85276250Y-168702000D01*
X84327000Y-168702000D01*
X84327000Y-168722000D01*
X84073000Y-168722000D01*
X84073000Y-168702000D01*
X83123750Y-168702000D01*
X82965000Y-168860750D01*
X82965000Y-170887542D01*
X82989403Y-171010223D01*
X83037270Y-171125785D01*
X83106763Y-171229789D01*
X83168974Y-171292000D01*
X77829121Y-171292000D01*
X78175925Y-171148349D01*
X78720839Y-170784250D01*
X79184250Y-170320839D01*
X79548349Y-169775925D01*
X79799145Y-169170450D01*
X79927000Y-168527681D01*
X79927000Y-167872319D01*
X79799145Y-167229550D01*
X79548349Y-166624075D01*
X79306725Y-166262458D01*
X82965000Y-166262458D01*
X82965000Y-168289250D01*
X83123750Y-168448000D01*
X84073000Y-168448000D01*
X84073000Y-165848750D01*
X83914250Y-165690000D01*
X83537458Y-165690000D01*
X83414777Y-165714403D01*
X83299215Y-165762270D01*
X83195211Y-165831763D01*
X83106763Y-165920211D01*
X83037270Y-166024215D01*
X82989403Y-166139777D01*
X82965000Y-166262458D01*
X79306725Y-166262458D01*
X79184250Y-166079161D01*
X78720839Y-165615750D01*
X78175925Y-165251651D01*
X77570450Y-165000855D01*
X76927681Y-164873000D01*
X76272319Y-164873000D01*
X76041908Y-164918832D01*
X76005008Y-164829748D01*
X75825202Y-164560648D01*
X75596352Y-164331798D01*
X75327252Y-164151992D01*
X75151035Y-164079000D01*
X81026700Y-164079000D01*
X81043864Y-164253274D01*
X81094698Y-164420852D01*
X81177248Y-164575291D01*
X81253181Y-164667815D01*
X81288342Y-164710659D01*
X81291085Y-164712910D01*
X81293341Y-164715659D01*
X81428709Y-164826753D01*
X81583149Y-164909303D01*
X81750726Y-164960136D01*
X81881333Y-164973000D01*
X81881339Y-164973000D01*
X81924999Y-164977300D01*
X81968659Y-164973000D01*
X84721491Y-164973000D01*
X84687270Y-165024215D01*
X84639403Y-165139777D01*
X84615000Y-165262458D01*
X84615000Y-165690000D01*
X84485750Y-165690000D01*
X84327000Y-165848750D01*
X84327000Y-168448000D01*
X85276250Y-168448000D01*
X85435000Y-168289250D01*
X85435000Y-166262458D01*
X85410597Y-166139777D01*
X85362730Y-166024215D01*
X85353000Y-166009653D01*
X85353000Y-165973000D01*
X85375000Y-165973000D01*
X85375000Y-165953000D01*
X85625000Y-165953000D01*
X85625000Y-165973000D01*
X85647000Y-165973000D01*
X85647000Y-166227000D01*
X85625000Y-166227000D01*
X85625000Y-167351250D01*
X85783750Y-167510000D01*
X85812542Y-167510000D01*
X85935223Y-167485597D01*
X86050785Y-167437730D01*
X86154789Y-167368237D01*
X86243237Y-167279789D01*
X86257901Y-167257843D01*
X86750000Y-167257843D01*
X86824689Y-167250487D01*
X86896508Y-167228701D01*
X86962696Y-167193322D01*
X87000000Y-167162708D01*
X87037304Y-167193322D01*
X87103492Y-167228701D01*
X87175311Y-167250487D01*
X87250000Y-167257843D01*
X87750000Y-167257843D01*
X87824689Y-167250487D01*
X87896508Y-167228701D01*
X87962696Y-167193322D01*
X88000000Y-167162708D01*
X88037304Y-167193322D01*
X88103492Y-167228701D01*
X88175311Y-167250487D01*
X88250000Y-167257843D01*
X88565000Y-167257843D01*
X88565000Y-168289250D01*
X88723750Y-168448000D01*
X89673000Y-168448000D01*
X89673000Y-165848750D01*
X89927000Y-165848750D01*
X89927000Y-168448000D01*
X90876250Y-168448000D01*
X91035000Y-168289250D01*
X91035000Y-166262458D01*
X91010597Y-166139777D01*
X90962730Y-166024215D01*
X90893237Y-165920211D01*
X90804789Y-165831763D01*
X90700785Y-165762270D01*
X90585223Y-165714403D01*
X90462542Y-165690000D01*
X90085750Y-165690000D01*
X89927000Y-165848750D01*
X89673000Y-165848750D01*
X89514250Y-165690000D01*
X89137458Y-165690000D01*
X89135000Y-165690489D01*
X89135000Y-165382024D01*
X89199951Y-165317073D01*
X89224185Y-165297185D01*
X89303537Y-165200494D01*
X89362502Y-165090180D01*
X89398812Y-164970482D01*
X89408000Y-164877192D01*
X89408000Y-164877182D01*
X89411071Y-164846001D01*
X89408000Y-164814820D01*
X89408000Y-163861189D01*
X89411072Y-163830000D01*
X89406841Y-163787044D01*
X89398812Y-163705518D01*
X89362502Y-163585820D01*
X89330892Y-163526682D01*
X89303538Y-163475506D01*
X89268525Y-163432843D01*
X90040000Y-163432843D01*
X90114689Y-163425487D01*
X90186508Y-163403701D01*
X90252696Y-163368322D01*
X90310711Y-163320711D01*
X90358322Y-163262696D01*
X90393701Y-163196508D01*
X90415487Y-163124689D01*
X90422843Y-163050000D01*
X90422843Y-161031178D01*
X90429000Y-160968667D01*
X90429000Y-158798660D01*
X90433300Y-158755000D01*
X90429000Y-158711340D01*
X90429000Y-158711333D01*
X90428248Y-158703700D01*
X90523853Y-158743301D01*
X90713380Y-158781000D01*
X90906620Y-158781000D01*
X91096147Y-158743301D01*
X91191001Y-158704011D01*
X91191000Y-160968666D01*
X91197157Y-161031177D01*
X91197157Y-163050000D01*
X91204513Y-163124689D01*
X91226299Y-163196508D01*
X91261678Y-163262696D01*
X91309289Y-163320711D01*
X91367304Y-163368322D01*
X91433492Y-163403701D01*
X91505311Y-163425487D01*
X91580000Y-163432843D01*
X92580000Y-163432843D01*
X92654689Y-163425487D01*
X92726508Y-163403701D01*
X92792696Y-163368322D01*
X92850711Y-163320711D01*
X92898322Y-163262696D01*
X92933701Y-163196508D01*
X92955487Y-163124689D01*
X92962843Y-163050000D01*
X92962843Y-161031178D01*
X92969000Y-160968667D01*
X92969000Y-158986234D01*
X93242494Y-158712740D01*
X93325751Y-158611292D01*
X93408302Y-158456853D01*
X93459136Y-158289276D01*
X93476300Y-158115001D01*
X93459136Y-157940726D01*
X93408302Y-157773149D01*
X93325751Y-157618709D01*
X93214658Y-157483342D01*
X93079291Y-157372249D01*
X92924851Y-157289698D01*
X92757274Y-157238864D01*
X92582999Y-157221700D01*
X92408724Y-157238864D01*
X92241147Y-157289698D01*
X92086708Y-157372249D01*
X91985260Y-157455506D01*
X91782105Y-157658661D01*
X91753301Y-157513853D01*
X91679351Y-157335322D01*
X91577290Y-157182576D01*
X91580000Y-157182843D01*
X92580000Y-157182843D01*
X92654689Y-157175487D01*
X92726508Y-157153701D01*
X92792696Y-157118322D01*
X92850711Y-157070711D01*
X92898322Y-157012696D01*
X92933701Y-156946508D01*
X92955487Y-156874689D01*
X92962843Y-156800000D01*
X92962843Y-154781178D01*
X92969000Y-154718667D01*
X92969000Y-152107333D01*
X92956136Y-151976726D01*
X92905303Y-151809149D01*
X92822753Y-151654709D01*
X92711659Y-151519341D01*
X92710000Y-151517979D01*
X92710000Y-150907189D01*
X92713072Y-150876000D01*
X92708297Y-150827519D01*
X92700812Y-150751518D01*
X92664502Y-150631820D01*
X92632892Y-150572682D01*
X92605538Y-150521506D01*
X92546069Y-150449043D01*
X92546065Y-150449039D01*
X92526185Y-150424815D01*
X92501961Y-150404935D01*
X92182843Y-150085818D01*
X92182843Y-149935000D01*
X92514250Y-149935000D01*
X92673000Y-149776250D01*
X92673000Y-147877000D01*
X92927000Y-147877000D01*
X92927000Y-149776250D01*
X93085750Y-149935000D01*
X93462542Y-149935000D01*
X93585223Y-149910597D01*
X93700785Y-149862730D01*
X93804789Y-149793237D01*
X93893237Y-149704789D01*
X93962730Y-149600785D01*
X94010597Y-149485223D01*
X94035000Y-149362542D01*
X94035000Y-148035750D01*
X93876250Y-147877000D01*
X92927000Y-147877000D01*
X92673000Y-147877000D01*
X92653000Y-147877000D01*
X92653000Y-147623000D01*
X92673000Y-147623000D01*
X92673000Y-145723750D01*
X92927000Y-145723750D01*
X92927000Y-147623000D01*
X93876250Y-147623000D01*
X94035000Y-147464250D01*
X94035000Y-146137458D01*
X94010597Y-146014777D01*
X93962730Y-145899215D01*
X93893237Y-145795211D01*
X93804789Y-145706763D01*
X93700785Y-145637270D01*
X93585223Y-145589403D01*
X93462542Y-145565000D01*
X93085750Y-145565000D01*
X92927000Y-145723750D01*
X92673000Y-145723750D01*
X92514250Y-145565000D01*
X92137458Y-145565000D01*
X92135000Y-145565489D01*
X92135000Y-144181494D01*
X92153701Y-144146508D01*
X92175487Y-144074689D01*
X92182843Y-144000000D01*
X92182843Y-143635000D01*
X92514250Y-143635000D01*
X92673000Y-143476250D01*
X92673000Y-141577000D01*
X92927000Y-141577000D01*
X92927000Y-143476250D01*
X93085750Y-143635000D01*
X93462542Y-143635000D01*
X93585223Y-143610597D01*
X93700785Y-143562730D01*
X93804789Y-143493237D01*
X93893237Y-143404789D01*
X93962730Y-143300785D01*
X94010597Y-143185223D01*
X94035000Y-143062542D01*
X94035000Y-141735750D01*
X93876250Y-141577000D01*
X92927000Y-141577000D01*
X92673000Y-141577000D01*
X92653000Y-141577000D01*
X92653000Y-141323000D01*
X92673000Y-141323000D01*
X92673000Y-139423750D01*
X92927000Y-139423750D01*
X92927000Y-141323000D01*
X93876250Y-141323000D01*
X94035000Y-141164250D01*
X94035000Y-139837458D01*
X94010597Y-139714777D01*
X93962730Y-139599215D01*
X93893237Y-139495211D01*
X93804789Y-139406763D01*
X93700785Y-139337270D01*
X93585223Y-139289403D01*
X93462542Y-139265000D01*
X93085750Y-139265000D01*
X92927000Y-139423750D01*
X92673000Y-139423750D01*
X92514250Y-139265000D01*
X92137458Y-139265000D01*
X92135000Y-139265489D01*
X92135000Y-137881494D01*
X92153701Y-137846508D01*
X92175487Y-137774689D01*
X92182843Y-137700000D01*
X92182843Y-137335000D01*
X92514250Y-137335000D01*
X92673000Y-137176250D01*
X92673000Y-135277000D01*
X92927000Y-135277000D01*
X92927000Y-137176250D01*
X93085750Y-137335000D01*
X93462542Y-137335000D01*
X93585223Y-137310597D01*
X93700785Y-137262730D01*
X93804789Y-137193237D01*
X93893237Y-137104789D01*
X93962730Y-137000785D01*
X94010597Y-136885223D01*
X94035000Y-136762542D01*
X94035000Y-135435750D01*
X93876250Y-135277000D01*
X92927000Y-135277000D01*
X92673000Y-135277000D01*
X92653000Y-135277000D01*
X92653000Y-135023000D01*
X92673000Y-135023000D01*
X92673000Y-133123750D01*
X92927000Y-133123750D01*
X92927000Y-135023000D01*
X93876250Y-135023000D01*
X94035000Y-134864250D01*
X94035000Y-133537458D01*
X94010597Y-133414777D01*
X93962730Y-133299215D01*
X93893237Y-133195211D01*
X93804789Y-133106763D01*
X93700785Y-133037270D01*
X93585223Y-132989403D01*
X93462542Y-132965000D01*
X93085750Y-132965000D01*
X92927000Y-133123750D01*
X92673000Y-133123750D01*
X92514250Y-132965000D01*
X92137458Y-132965000D01*
X92135000Y-132965489D01*
X92135000Y-131581494D01*
X92153701Y-131546508D01*
X92175487Y-131474689D01*
X92182843Y-131400000D01*
X92182843Y-131035000D01*
X92514250Y-131035000D01*
X92673000Y-130876250D01*
X92673000Y-128977000D01*
X92927000Y-128977000D01*
X92927000Y-130876250D01*
X93085750Y-131035000D01*
X93462542Y-131035000D01*
X93585223Y-131010597D01*
X93700785Y-130962730D01*
X93804789Y-130893237D01*
X93893237Y-130804789D01*
X93962730Y-130700785D01*
X94010597Y-130585223D01*
X94035000Y-130462542D01*
X94035000Y-129135750D01*
X93876250Y-128977000D01*
X92927000Y-128977000D01*
X92673000Y-128977000D01*
X91723750Y-128977000D01*
X91565000Y-129135750D01*
X91565000Y-129467157D01*
X91200000Y-129467157D01*
X91125311Y-129474513D01*
X91053492Y-129496299D01*
X91000000Y-129524892D01*
X90946508Y-129496299D01*
X90874689Y-129474513D01*
X90800000Y-129467157D01*
X90200000Y-129467157D01*
X90125311Y-129474513D01*
X90053492Y-129496299D01*
X90000000Y-129524892D01*
X89946508Y-129496299D01*
X89874689Y-129474513D01*
X89800000Y-129467157D01*
X89200000Y-129467157D01*
X89125311Y-129474513D01*
X89053492Y-129496299D01*
X89000000Y-129524892D01*
X88946508Y-129496299D01*
X88874689Y-129474513D01*
X88800000Y-129467157D01*
X88200000Y-129467157D01*
X88125311Y-129474513D01*
X88053492Y-129496299D01*
X88000000Y-129524892D01*
X87946508Y-129496299D01*
X87874689Y-129474513D01*
X87800000Y-129467157D01*
X87200000Y-129467157D01*
X87125311Y-129474513D01*
X87053492Y-129496299D01*
X87000000Y-129524892D01*
X86946508Y-129496299D01*
X86874689Y-129474513D01*
X86800000Y-129467157D01*
X86200000Y-129467157D01*
X86125311Y-129474513D01*
X86053492Y-129496299D01*
X86000000Y-129524892D01*
X85946508Y-129496299D01*
X85874689Y-129474513D01*
X85800000Y-129467157D01*
X85200000Y-129467157D01*
X85125311Y-129474513D01*
X85053492Y-129496299D01*
X85000000Y-129524892D01*
X84946508Y-129496299D01*
X84874689Y-129474513D01*
X84800000Y-129467157D01*
X84307901Y-129467157D01*
X84293237Y-129445211D01*
X84204789Y-129356763D01*
X84100785Y-129287270D01*
X83985223Y-129239403D01*
X83862542Y-129215000D01*
X83785750Y-129215000D01*
X83627000Y-129373750D01*
X83627000Y-130498000D01*
X83647000Y-130498000D01*
X83647000Y-130752000D01*
X83627000Y-130752000D01*
X83627000Y-131876250D01*
X83785750Y-132035000D01*
X83862542Y-132035000D01*
X83865001Y-132034511D01*
X83865001Y-132728808D01*
X83865000Y-135515489D01*
X83862542Y-135515000D01*
X83785750Y-135515000D01*
X83627000Y-135673750D01*
X83627000Y-136798000D01*
X83647000Y-136798000D01*
X83647000Y-137052000D01*
X83627000Y-137052000D01*
X83627000Y-138176250D01*
X83785750Y-138335000D01*
X83862542Y-138335000D01*
X83865001Y-138334511D01*
X83865000Y-141815489D01*
X83862542Y-141815000D01*
X83785750Y-141815000D01*
X83627000Y-141973750D01*
X83627000Y-143098000D01*
X83647000Y-143098000D01*
X83647000Y-143352000D01*
X83627000Y-143352000D01*
X83627000Y-144476250D01*
X83785750Y-144635000D01*
X83862542Y-144635000D01*
X83865000Y-144634511D01*
X83865001Y-147299076D01*
X83770682Y-147393395D01*
X83674268Y-147537690D01*
X83607856Y-147698022D01*
X83574000Y-147868229D01*
X83574000Y-148041771D01*
X83607856Y-148211978D01*
X83631556Y-148269194D01*
X83627000Y-148273750D01*
X83627000Y-149398000D01*
X83647000Y-149398000D01*
X83647000Y-149652000D01*
X83627000Y-149652000D01*
X83627000Y-150776250D01*
X83785750Y-150935000D01*
X83862542Y-150935000D01*
X83985223Y-150910597D01*
X84100785Y-150862730D01*
X84204789Y-150793237D01*
X84293237Y-150704789D01*
X84307901Y-150682843D01*
X84800000Y-150682843D01*
X84865001Y-150676441D01*
X84865001Y-150847974D01*
X84454761Y-151258215D01*
X84285727Y-151274864D01*
X84118150Y-151325697D01*
X83963710Y-151408247D01*
X83828342Y-151519341D01*
X83717248Y-151654709D01*
X83634698Y-151809149D01*
X83583865Y-151976726D01*
X83571001Y-152107333D01*
X83571000Y-154718666D01*
X83577157Y-154781177D01*
X83577157Y-156800000D01*
X83584513Y-156874689D01*
X83593845Y-156905451D01*
X83476147Y-156856699D01*
X83286620Y-156819000D01*
X83093380Y-156819000D01*
X83055000Y-156826634D01*
X83055000Y-154960750D01*
X82896250Y-154802000D01*
X82047000Y-154802000D01*
X82047000Y-157276250D01*
X82205750Y-157435000D01*
X82279361Y-157435000D01*
X82246699Y-157513853D01*
X82209000Y-157703380D01*
X82209000Y-157896620D01*
X82246699Y-158086147D01*
X82320649Y-158264678D01*
X82422710Y-158417424D01*
X82420000Y-158417157D01*
X81420000Y-158417157D01*
X81345311Y-158424513D01*
X81273492Y-158446299D01*
X81207304Y-158481678D01*
X81149289Y-158529289D01*
X81101678Y-158587304D01*
X81066299Y-158653492D01*
X81044513Y-158725311D01*
X81037157Y-158800000D01*
X81037157Y-160818823D01*
X81031000Y-160881334D01*
X81031001Y-164035330D01*
X81026700Y-164079000D01*
X75151035Y-164079000D01*
X75028245Y-164028139D01*
X74710821Y-163965000D01*
X74387179Y-163965000D01*
X74069755Y-164028139D01*
X73770748Y-164151992D01*
X73508000Y-164327554D01*
X73508000Y-154960750D01*
X80785000Y-154960750D01*
X80785000Y-156862542D01*
X80809403Y-156985223D01*
X80857270Y-157100785D01*
X80926763Y-157204789D01*
X81015211Y-157293237D01*
X81119215Y-157362730D01*
X81234777Y-157410597D01*
X81357458Y-157435000D01*
X81634250Y-157435000D01*
X81793000Y-157276250D01*
X81793000Y-154802000D01*
X80943750Y-154802000D01*
X80785000Y-154960750D01*
X73508000Y-154960750D01*
X73508000Y-152487458D01*
X80785000Y-152487458D01*
X80785000Y-154389250D01*
X80943750Y-154548000D01*
X81793000Y-154548000D01*
X81793000Y-152073750D01*
X82047000Y-152073750D01*
X82047000Y-154548000D01*
X82896250Y-154548000D01*
X83055000Y-154389250D01*
X83055000Y-152487458D01*
X83030597Y-152364777D01*
X82982730Y-152249215D01*
X82913237Y-152145211D01*
X82824789Y-152056763D01*
X82720785Y-151987270D01*
X82605223Y-151939403D01*
X82482542Y-151915000D01*
X82205750Y-151915000D01*
X82047000Y-152073750D01*
X81793000Y-152073750D01*
X81634250Y-151915000D01*
X81357458Y-151915000D01*
X81234777Y-151939403D01*
X81119215Y-151987270D01*
X81015211Y-152056763D01*
X80926763Y-152145211D01*
X80857270Y-152249215D01*
X80809403Y-152364777D01*
X80785000Y-152487458D01*
X73508000Y-152487458D01*
X73508000Y-150622000D01*
X79497699Y-150622000D01*
X79514864Y-150796274D01*
X79565697Y-150963851D01*
X79648247Y-151118291D01*
X79759341Y-151253659D01*
X79894709Y-151364753D01*
X80049149Y-151447303D01*
X80216726Y-151498136D01*
X80347333Y-151511000D01*
X81704667Y-151511000D01*
X81835274Y-151498136D01*
X82002851Y-151447303D01*
X82157291Y-151364753D01*
X82292659Y-151253659D01*
X82403753Y-151118291D01*
X82486303Y-150963851D01*
X82537136Y-150796274D01*
X82548308Y-150682843D01*
X82692099Y-150682843D01*
X82706763Y-150704789D01*
X82795211Y-150793237D01*
X82899215Y-150862730D01*
X83014777Y-150910597D01*
X83137458Y-150935000D01*
X83214250Y-150935000D01*
X83373000Y-150776250D01*
X83373000Y-149652000D01*
X83353000Y-149652000D01*
X83353000Y-149398000D01*
X83373000Y-149398000D01*
X83373000Y-148273750D01*
X83214250Y-148115000D01*
X83137458Y-148115000D01*
X83014777Y-148139403D01*
X82899215Y-148187270D01*
X82795211Y-148256763D01*
X82706763Y-148345211D01*
X82692099Y-148367157D01*
X82435000Y-148367157D01*
X82435000Y-148035750D01*
X82276250Y-147877000D01*
X81327000Y-147877000D01*
X81327000Y-147897000D01*
X81073000Y-147897000D01*
X81073000Y-147877000D01*
X80123750Y-147877000D01*
X79965000Y-148035750D01*
X79965000Y-149362542D01*
X79989403Y-149485223D01*
X80037270Y-149600785D01*
X80106763Y-149704789D01*
X80163871Y-149761897D01*
X80049149Y-149796697D01*
X79894709Y-149879247D01*
X79759341Y-149990341D01*
X79648247Y-150125709D01*
X79565697Y-150280149D01*
X79514864Y-150447726D01*
X79497699Y-150622000D01*
X73508000Y-150622000D01*
X73508000Y-146137458D01*
X79965000Y-146137458D01*
X79965000Y-147464250D01*
X80123750Y-147623000D01*
X81073000Y-147623000D01*
X81073000Y-145723750D01*
X81327000Y-145723750D01*
X81327000Y-147623000D01*
X82276250Y-147623000D01*
X82435000Y-147464250D01*
X82435000Y-146137458D01*
X82410597Y-146014777D01*
X82362730Y-145899215D01*
X82293237Y-145795211D01*
X82204789Y-145706763D01*
X82100785Y-145637270D01*
X81985223Y-145589403D01*
X81862542Y-145565000D01*
X81485750Y-145565000D01*
X81327000Y-145723750D01*
X81073000Y-145723750D01*
X80914250Y-145565000D01*
X80537458Y-145565000D01*
X80414777Y-145589403D01*
X80299215Y-145637270D01*
X80195211Y-145706763D01*
X80106763Y-145795211D01*
X80037270Y-145899215D01*
X79989403Y-146014777D01*
X79965000Y-146137458D01*
X73508000Y-146137458D01*
X73508000Y-144399000D01*
X79497699Y-144399000D01*
X79514864Y-144573274D01*
X79565697Y-144740851D01*
X79648247Y-144895291D01*
X79759341Y-145030659D01*
X79894709Y-145141753D01*
X80049149Y-145224303D01*
X80216726Y-145275136D01*
X80347333Y-145288000D01*
X81704667Y-145288000D01*
X81835274Y-145275136D01*
X82002851Y-145224303D01*
X82157291Y-145141753D01*
X82292659Y-145030659D01*
X82403753Y-144895291D01*
X82486303Y-144740851D01*
X82537136Y-144573274D01*
X82553785Y-144404240D01*
X82575182Y-144382843D01*
X82692099Y-144382843D01*
X82706763Y-144404789D01*
X82795211Y-144493237D01*
X82899215Y-144562730D01*
X83014777Y-144610597D01*
X83137458Y-144635000D01*
X83214250Y-144635000D01*
X83373000Y-144476250D01*
X83373000Y-143352000D01*
X83353000Y-143352000D01*
X83353000Y-143098000D01*
X83373000Y-143098000D01*
X83373000Y-141973750D01*
X83214250Y-141815000D01*
X83137458Y-141815000D01*
X83014777Y-141839403D01*
X82899215Y-141887270D01*
X82795211Y-141956763D01*
X82706763Y-142045211D01*
X82692099Y-142067157D01*
X82435000Y-142067157D01*
X82435000Y-141735750D01*
X82276250Y-141577000D01*
X81327000Y-141577000D01*
X81327000Y-141597000D01*
X81073000Y-141597000D01*
X81073000Y-141577000D01*
X80123750Y-141577000D01*
X79965000Y-141735750D01*
X79965000Y-143062542D01*
X79989403Y-143185223D01*
X80037270Y-143300785D01*
X80106763Y-143404789D01*
X80195211Y-143493237D01*
X80236619Y-143520905D01*
X80216726Y-143522864D01*
X80049149Y-143573697D01*
X79894709Y-143656247D01*
X79759341Y-143767341D01*
X79648247Y-143902709D01*
X79565697Y-144057149D01*
X79514864Y-144224726D01*
X79497699Y-144399000D01*
X73508000Y-144399000D01*
X73508000Y-139837458D01*
X79965000Y-139837458D01*
X79965000Y-141164250D01*
X80123750Y-141323000D01*
X81073000Y-141323000D01*
X81073000Y-139423750D01*
X81327000Y-139423750D01*
X81327000Y-141323000D01*
X82276250Y-141323000D01*
X82435000Y-141164250D01*
X82435000Y-139837458D01*
X82410597Y-139714777D01*
X82362730Y-139599215D01*
X82293237Y-139495211D01*
X82204789Y-139406763D01*
X82100785Y-139337270D01*
X81985223Y-139289403D01*
X81862542Y-139265000D01*
X81485750Y-139265000D01*
X81327000Y-139423750D01*
X81073000Y-139423750D01*
X80914250Y-139265000D01*
X80537458Y-139265000D01*
X80414777Y-139289403D01*
X80299215Y-139337270D01*
X80195211Y-139406763D01*
X80106763Y-139495211D01*
X80037270Y-139599215D01*
X79989403Y-139714777D01*
X79965000Y-139837458D01*
X73508000Y-139837458D01*
X73508000Y-138049000D01*
X79497699Y-138049000D01*
X79514864Y-138223274D01*
X79565697Y-138390851D01*
X79648247Y-138545291D01*
X79759341Y-138680659D01*
X79894709Y-138791753D01*
X80049149Y-138874303D01*
X80216726Y-138925136D01*
X80347333Y-138938000D01*
X81704667Y-138938000D01*
X81835274Y-138925136D01*
X82002851Y-138874303D01*
X82157291Y-138791753D01*
X82292659Y-138680659D01*
X82403753Y-138545291D01*
X82486303Y-138390851D01*
X82537136Y-138223274D01*
X82550968Y-138082843D01*
X82692099Y-138082843D01*
X82706763Y-138104789D01*
X82795211Y-138193237D01*
X82899215Y-138262730D01*
X83014777Y-138310597D01*
X83137458Y-138335000D01*
X83214250Y-138335000D01*
X83373000Y-138176250D01*
X83373000Y-137052000D01*
X83353000Y-137052000D01*
X83353000Y-136798000D01*
X83373000Y-136798000D01*
X83373000Y-135673750D01*
X83214250Y-135515000D01*
X83137458Y-135515000D01*
X83014777Y-135539403D01*
X82899215Y-135587270D01*
X82795211Y-135656763D01*
X82706763Y-135745211D01*
X82692099Y-135767157D01*
X82435000Y-135767157D01*
X82435000Y-135435750D01*
X82276250Y-135277000D01*
X81327000Y-135277000D01*
X81327000Y-135297000D01*
X81073000Y-135297000D01*
X81073000Y-135277000D01*
X80123750Y-135277000D01*
X79965000Y-135435750D01*
X79965000Y-136762542D01*
X79989403Y-136885223D01*
X80037270Y-137000785D01*
X80106763Y-137104789D01*
X80184587Y-137182613D01*
X80049149Y-137223697D01*
X79894709Y-137306247D01*
X79759341Y-137417341D01*
X79648247Y-137552709D01*
X79565697Y-137707149D01*
X79514864Y-137874726D01*
X79497699Y-138049000D01*
X73508000Y-138049000D01*
X73508000Y-133995446D01*
X73770748Y-134171008D01*
X74069755Y-134294861D01*
X74387179Y-134358000D01*
X74710821Y-134358000D01*
X75028245Y-134294861D01*
X75327252Y-134171008D01*
X75596352Y-133991202D01*
X75825202Y-133762352D01*
X75975470Y-133537458D01*
X79965000Y-133537458D01*
X79965000Y-134864250D01*
X80123750Y-135023000D01*
X81073000Y-135023000D01*
X81073000Y-133123750D01*
X81327000Y-133123750D01*
X81327000Y-135023000D01*
X82276250Y-135023000D01*
X82435000Y-134864250D01*
X82435000Y-133537458D01*
X82410597Y-133414777D01*
X82362730Y-133299215D01*
X82293237Y-133195211D01*
X82204789Y-133106763D01*
X82100785Y-133037270D01*
X81985223Y-132989403D01*
X81862542Y-132965000D01*
X81485750Y-132965000D01*
X81327000Y-133123750D01*
X81073000Y-133123750D01*
X80914250Y-132965000D01*
X80537458Y-132965000D01*
X80414777Y-132989403D01*
X80299215Y-133037270D01*
X80195211Y-133106763D01*
X80106763Y-133195211D01*
X80037270Y-133299215D01*
X79989403Y-133414777D01*
X79965000Y-133537458D01*
X75975470Y-133537458D01*
X76005008Y-133493252D01*
X76050710Y-133382919D01*
X76272319Y-133427000D01*
X76927681Y-133427000D01*
X77570450Y-133299145D01*
X78175925Y-133048349D01*
X78720839Y-132684250D01*
X79184250Y-132220839D01*
X79506279Y-131738887D01*
X79497699Y-131826000D01*
X79514864Y-132000274D01*
X79565697Y-132167851D01*
X79648247Y-132322291D01*
X79759341Y-132457659D01*
X79894709Y-132568753D01*
X80049149Y-132651303D01*
X80216726Y-132702136D01*
X80347333Y-132715000D01*
X81704667Y-132715000D01*
X81835274Y-132702136D01*
X82002851Y-132651303D01*
X82157291Y-132568753D01*
X82292659Y-132457659D01*
X82403753Y-132322291D01*
X82486303Y-132167851D01*
X82537136Y-132000274D01*
X82553785Y-131831240D01*
X82602182Y-131782843D01*
X82692099Y-131782843D01*
X82706763Y-131804789D01*
X82795211Y-131893237D01*
X82899215Y-131962730D01*
X83014777Y-132010597D01*
X83137458Y-132035000D01*
X83214250Y-132035000D01*
X83373000Y-131876250D01*
X83373000Y-130752000D01*
X83353000Y-130752000D01*
X83353000Y-130498000D01*
X83373000Y-130498000D01*
X83373000Y-129373750D01*
X83214250Y-129215000D01*
X83137458Y-129215000D01*
X83014777Y-129239403D01*
X82899215Y-129287270D01*
X82795211Y-129356763D01*
X82706763Y-129445211D01*
X82692099Y-129467157D01*
X82435000Y-129467157D01*
X82435000Y-129135750D01*
X82276250Y-128977000D01*
X81327000Y-128977000D01*
X81327000Y-128997000D01*
X81073000Y-128997000D01*
X81073000Y-128977000D01*
X80123750Y-128977000D01*
X79965000Y-129135750D01*
X79965000Y-130462542D01*
X79989403Y-130585223D01*
X80037270Y-130700785D01*
X80106763Y-130804789D01*
X80195211Y-130893237D01*
X80271836Y-130944436D01*
X80216726Y-130949864D01*
X80049149Y-131000697D01*
X79894709Y-131083247D01*
X79759341Y-131194341D01*
X79736095Y-131222666D01*
X79799145Y-131070450D01*
X79927000Y-130427681D01*
X79927000Y-129772319D01*
X79799145Y-129129550D01*
X79548349Y-128524075D01*
X79184250Y-127979161D01*
X78720839Y-127515750D01*
X78175925Y-127151651D01*
X77829121Y-127008000D01*
X80033631Y-127008000D01*
X79989403Y-127114777D01*
M02*
