G04 #@! TF.GenerationSoftware,KiCad,Pcbnew,5.1.0-rc2-unknown-036be7d~80~ubuntu16.04.1*
G04 #@! TF.CreationDate,2023-05-22T15:02:47+03:00*
G04 #@! TF.ProjectId,UEXT-P4Q_Rev_A,55455854-2d50-4345-915f-5265765f412e,A*
G04 #@! TF.SameCoordinates,Original*
G04 #@! TF.FileFunction,Soldermask,Top*
G04 #@! TF.FilePolarity,Negative*
%FSLAX46Y46*%
G04 Gerber Fmt 4.6, Leading zero omitted, Abs format (unit mm)*
G04 Created by KiCad (PCBNEW 5.1.0-rc2-unknown-036be7d~80~ubuntu16.04.1) date 2023-05-22 15:02:47*
%MOMM*%
%LPD*%
G04 APERTURE LIST*
%ADD10C,1.254000*%
%ADD11C,3.401600*%
%ADD12R,1.301600X3.201600*%
%ADD13R,0.701600X1.651600*%
%ADD14R,0.601600X1.651600*%
%ADD15R,1.301600X4.601600*%
%ADD16C,1.301600*%
%ADD17R,1.101600X4.351600*%
G04 APERTURE END LIST*
D10*
X99441000Y-165608000D03*
X74549000Y-165608000D03*
X74549000Y-132715000D03*
D11*
X76600000Y-130100000D03*
X97400000Y-130100000D03*
X76600000Y-168200000D03*
X97400000Y-168200000D03*
D10*
X99441000Y-132715000D03*
D12*
X92800000Y-128850000D03*
X81200000Y-128850000D03*
D13*
X91500000Y-130625000D03*
X90500000Y-130625000D03*
X89500000Y-130625000D03*
X88500000Y-130625000D03*
X87500000Y-130625000D03*
X86500000Y-130625000D03*
X85500000Y-130625000D03*
X84500000Y-130625000D03*
X83500000Y-130625000D03*
X82500000Y-130625000D03*
D14*
X88500000Y-166100000D03*
X86500000Y-166100000D03*
X87500000Y-166100000D03*
D15*
X84200000Y-168575000D03*
X89800000Y-168575000D03*
D14*
X85500000Y-166100000D03*
D16*
X90810000Y-157800000D03*
D17*
X81920000Y-160925000D03*
X81920000Y-154675000D03*
X84460000Y-160925000D03*
X84460000Y-154675000D03*
X87000000Y-160925000D03*
X87000000Y-154675000D03*
X89540000Y-160925000D03*
X89540000Y-154675000D03*
X92080000Y-160925000D03*
X92080000Y-154675000D03*
D16*
X83190000Y-157800000D03*
D12*
X92800000Y-135150000D03*
X81200000Y-135150000D03*
D13*
X91500000Y-136925000D03*
X90500000Y-136925000D03*
X89500000Y-136925000D03*
X88500000Y-136925000D03*
X87500000Y-136925000D03*
X86500000Y-136925000D03*
X85500000Y-136925000D03*
X84500000Y-136925000D03*
X83500000Y-136925000D03*
X82500000Y-136925000D03*
X82500000Y-143225000D03*
X83500000Y-143225000D03*
X84500000Y-143225000D03*
X85500000Y-143225000D03*
X86500000Y-143225000D03*
X87500000Y-143225000D03*
X88500000Y-143225000D03*
X89500000Y-143225000D03*
X90500000Y-143225000D03*
X91500000Y-143225000D03*
D12*
X81200000Y-141450000D03*
X92800000Y-141450000D03*
X92800000Y-147750000D03*
X81200000Y-147750000D03*
D13*
X91500000Y-149525000D03*
X90500000Y-149525000D03*
X89500000Y-149525000D03*
X88500000Y-149525000D03*
X87500000Y-149525000D03*
X86500000Y-149525000D03*
X85500000Y-149525000D03*
X84500000Y-149525000D03*
X83500000Y-149525000D03*
X82500000Y-149525000D03*
M02*
