G04 #@! TF.GenerationSoftware,KiCad,Pcbnew,5.1.0-rc2-unknown-036be7d~80~ubuntu16.04.1*
G04 #@! TF.CreationDate,2023-05-22T15:02:47+03:00*
G04 #@! TF.ProjectId,UEXT-P4Q_Rev_A,55455854-2d50-4345-915f-5265765f412e,A*
G04 #@! TF.SameCoordinates,Original*
G04 #@! TF.FileFunction,Paste,Top*
G04 #@! TF.FilePolarity,Positive*
%FSLAX46Y46*%
G04 Gerber Fmt 4.6, Leading zero omitted, Abs format (unit mm)*
G04 Created by KiCad (PCBNEW 5.1.0-rc2-unknown-036be7d~80~ubuntu16.04.1) date 2023-05-22 15:02:47*
%MOMM*%
%LPD*%
G04 APERTURE LIST*
%ADD10R,1.200000X3.100000*%
%ADD11R,0.600000X1.550000*%
%ADD12R,0.500000X1.550000*%
%ADD13R,1.200000X4.500000*%
%ADD14C,1.700000*%
%ADD15C,0.100000*%
G04 APERTURE END LIST*
D10*
X92800000Y-128850000D03*
X81200000Y-128850000D03*
D11*
X91500000Y-130625000D03*
X90500000Y-130625000D03*
X89500000Y-130625000D03*
X88500000Y-130625000D03*
X87500000Y-130625000D03*
X86500000Y-130625000D03*
X85500000Y-130625000D03*
X84500000Y-130625000D03*
X83500000Y-130625000D03*
X82500000Y-130625000D03*
D12*
X88500000Y-166100000D03*
X86500000Y-166100000D03*
X87500000Y-166100000D03*
D13*
X84200000Y-168575000D03*
X89800000Y-168575000D03*
D12*
X85500000Y-166100000D03*
D14*
X81920000Y-160925000D03*
D15*
G36*
X81070000Y-163200000D02*
G01*
X81070000Y-158650000D01*
X82770000Y-158650000D01*
X82770000Y-163200000D01*
X81070000Y-163200000D01*
X81070000Y-163200000D01*
G37*
D14*
X84460000Y-160925000D03*
D15*
G36*
X83610000Y-163200000D02*
G01*
X83610000Y-158650000D01*
X85310000Y-158650000D01*
X85310000Y-163200000D01*
X83610000Y-163200000D01*
X83610000Y-163200000D01*
G37*
D14*
X87000000Y-160925000D03*
D15*
G36*
X86150000Y-163200000D02*
G01*
X86150000Y-158650000D01*
X87850000Y-158650000D01*
X87850000Y-163200000D01*
X86150000Y-163200000D01*
X86150000Y-163200000D01*
G37*
D14*
X89540000Y-160925000D03*
D15*
G36*
X88690000Y-163200000D02*
G01*
X88690000Y-158650000D01*
X90390000Y-158650000D01*
X90390000Y-163200000D01*
X88690000Y-163200000D01*
X88690000Y-163200000D01*
G37*
D14*
X92080000Y-160925000D03*
D15*
G36*
X91230000Y-163200000D02*
G01*
X91230000Y-158650000D01*
X92930000Y-158650000D01*
X92930000Y-163200000D01*
X91230000Y-163200000D01*
X91230000Y-163200000D01*
G37*
D14*
X92080000Y-154675000D03*
D15*
G36*
X91230000Y-156950000D02*
G01*
X91230000Y-152400000D01*
X92930000Y-152400000D01*
X92930000Y-156950000D01*
X91230000Y-156950000D01*
X91230000Y-156950000D01*
G37*
D14*
X89540000Y-154675000D03*
D15*
G36*
X88690000Y-156950000D02*
G01*
X88690000Y-152400000D01*
X90390000Y-152400000D01*
X90390000Y-156950000D01*
X88690000Y-156950000D01*
X88690000Y-156950000D01*
G37*
D14*
X81920000Y-154675000D03*
D15*
G36*
X81070000Y-156950000D02*
G01*
X81070000Y-152400000D01*
X82770000Y-152400000D01*
X82770000Y-156950000D01*
X81070000Y-156950000D01*
X81070000Y-156950000D01*
G37*
D14*
X84460000Y-154675000D03*
D15*
G36*
X83610000Y-156950000D02*
G01*
X83610000Y-152400000D01*
X85310000Y-152400000D01*
X85310000Y-156950000D01*
X83610000Y-156950000D01*
X83610000Y-156950000D01*
G37*
D14*
X87000000Y-154675000D03*
D15*
G36*
X86150000Y-156950000D02*
G01*
X86150000Y-152400000D01*
X87850000Y-152400000D01*
X87850000Y-156950000D01*
X86150000Y-156950000D01*
X86150000Y-156950000D01*
G37*
D10*
X92800000Y-135150000D03*
X81200000Y-135150000D03*
D11*
X91500000Y-136925000D03*
X90500000Y-136925000D03*
X89500000Y-136925000D03*
X88500000Y-136925000D03*
X87500000Y-136925000D03*
X86500000Y-136925000D03*
X85500000Y-136925000D03*
X84500000Y-136925000D03*
X83500000Y-136925000D03*
X82500000Y-136925000D03*
X82500000Y-143225000D03*
X83500000Y-143225000D03*
X84500000Y-143225000D03*
X85500000Y-143225000D03*
X86500000Y-143225000D03*
X87500000Y-143225000D03*
X88500000Y-143225000D03*
X89500000Y-143225000D03*
X90500000Y-143225000D03*
X91500000Y-143225000D03*
D10*
X81200000Y-141450000D03*
X92800000Y-141450000D03*
X92800000Y-147750000D03*
X81200000Y-147750000D03*
D11*
X91500000Y-149525000D03*
X90500000Y-149525000D03*
X89500000Y-149525000D03*
X88500000Y-149525000D03*
X87500000Y-149525000D03*
X86500000Y-149525000D03*
X85500000Y-149525000D03*
X84500000Y-149525000D03*
X83500000Y-149525000D03*
X82500000Y-149525000D03*
M02*
