G04 #@! TF.GenerationSoftware,KiCad,Pcbnew,5.1.0-rc2-unknown-036be7d~80~ubuntu16.04.1*
G04 #@! TF.CreationDate,2023-05-22T11:40:45+03:00*
G04 #@! TF.ProjectId,UEXT-PQ_Rev_A,55455854-2d50-4515-9f52-65765f412e6b,A*
G04 #@! TF.SameCoordinates,Original*
G04 #@! TF.FileFunction,Copper,L1,Top*
G04 #@! TF.FilePolarity,Positive*
%FSLAX46Y46*%
G04 Gerber Fmt 4.6, Leading zero omitted, Abs format (unit mm)*
G04 Created by KiCad (PCBNEW 5.1.0-rc2-unknown-036be7d~80~ubuntu16.04.1) date 2023-05-22 11:40:45*
%MOMM*%
%LPD*%
G04 APERTURE LIST*
%ADD10R,1.000000X4.250000*%
%ADD11C,1.000000*%
%ADD12R,1.200000X3.100000*%
%ADD13R,0.600000X1.550000*%
%ADD14R,0.500000X1.550000*%
%ADD15R,1.200000X4.500000*%
%ADD16C,1.016000*%
%ADD17C,0.508000*%
%ADD18C,0.254000*%
G04 APERTURE END LIST*
D10*
X92080000Y-135475000D03*
X92080000Y-141725000D03*
X89540000Y-135475000D03*
X89540000Y-141725000D03*
X87000000Y-135475000D03*
X87000000Y-141725000D03*
X84460000Y-135475000D03*
X84460000Y-141725000D03*
X81920000Y-135475000D03*
X81920000Y-141725000D03*
D11*
X99441000Y-146431000D03*
X74549000Y-146431000D03*
X74549000Y-132461000D03*
X99441000Y-132461000D03*
D12*
X92800000Y-128550000D03*
X81200000Y-128550000D03*
D13*
X91500000Y-130325000D03*
X90500000Y-130325000D03*
X89500000Y-130325000D03*
X88500000Y-130325000D03*
X87500000Y-130325000D03*
X86500000Y-130325000D03*
X85500000Y-130325000D03*
X84500000Y-130325000D03*
X83500000Y-130325000D03*
X82500000Y-130325000D03*
D14*
X88500000Y-146900000D03*
X86500000Y-146900000D03*
X87500000Y-146900000D03*
D15*
X84200000Y-149375000D03*
X89800000Y-149375000D03*
D14*
X85500000Y-146900000D03*
D11*
X84836000Y-138811000D03*
X84455000Y-128778000D03*
X86995000Y-138811000D03*
X86487000Y-128778000D03*
X87503000Y-145034000D03*
X87503000Y-132334000D03*
X89027000Y-138811000D03*
X88519000Y-128778000D03*
X92710000Y-138811000D03*
X90805000Y-132080000D03*
X77978000Y-137033000D03*
X82423000Y-148590000D03*
X91694000Y-148590000D03*
X87122000Y-151384000D03*
X94107000Y-151257000D03*
X79756000Y-151257000D03*
X99441000Y-143764000D03*
X99949000Y-135890000D03*
X96393000Y-138938000D03*
X74422000Y-143764000D03*
X74549000Y-134747000D03*
X77978000Y-139446000D03*
X79629000Y-127254000D03*
X94361000Y-127254000D03*
X87503000Y-127381000D03*
X81915000Y-144907000D03*
X83185000Y-144907000D03*
X81661000Y-131318000D03*
X80391000Y-132588000D03*
D16*
X84460000Y-139187000D02*
X84836000Y-138811000D01*
X84460000Y-141725000D02*
X84460000Y-139187000D01*
D17*
X84500000Y-128823000D02*
X84455000Y-128778000D01*
X84500000Y-130325000D02*
X84500000Y-128823000D01*
D16*
X84460000Y-135475000D02*
X84460000Y-132466000D01*
D17*
X85500000Y-131426000D02*
X84460000Y-132466000D01*
X85500000Y-130325000D02*
X85500000Y-131426000D01*
D16*
X87000000Y-141725000D02*
X87000000Y-142880000D01*
X87000000Y-142880000D02*
X87757000Y-143637000D01*
D17*
X88773000Y-144653000D02*
X87757000Y-143637000D01*
X88773000Y-145415000D02*
X88773000Y-144653000D01*
X88500000Y-145688000D02*
X88773000Y-145415000D01*
X88500000Y-146900000D02*
X88500000Y-145688000D01*
D16*
X87000000Y-138816000D02*
X86995000Y-138811000D01*
X87000000Y-141725000D02*
X87000000Y-138816000D01*
D17*
X86500000Y-128791000D02*
X86487000Y-128778000D01*
X86500000Y-130325000D02*
X86500000Y-128791000D01*
X87500000Y-145037000D02*
X87503000Y-145034000D01*
X87500000Y-146900000D02*
X87500000Y-145037000D01*
D16*
X87000000Y-132837000D02*
X87503000Y-132334000D01*
X87000000Y-135475000D02*
X87000000Y-132837000D01*
D17*
X87500000Y-132331000D02*
X87503000Y-132334000D01*
X87500000Y-130325000D02*
X87500000Y-132331000D01*
D16*
X89540000Y-139324000D02*
X89027000Y-138811000D01*
X89540000Y-141725000D02*
X89540000Y-139324000D01*
D17*
X88500000Y-128797000D02*
X88519000Y-128778000D01*
X88500000Y-130325000D02*
X88500000Y-128797000D01*
D16*
X89540000Y-135475000D02*
X89540000Y-132466000D01*
D17*
X89500000Y-132426000D02*
X89540000Y-132466000D01*
X89500000Y-130325000D02*
X89500000Y-132426000D01*
D16*
X92080000Y-139441000D02*
X92710000Y-138811000D01*
X92080000Y-141725000D02*
X92080000Y-139441000D01*
D17*
X90805000Y-131928000D02*
X90805000Y-132080000D01*
X90500000Y-131623000D02*
X90805000Y-131928000D01*
X90500000Y-130325000D02*
X90500000Y-131623000D01*
D16*
X92080000Y-135475000D02*
X92080000Y-132593000D01*
D17*
X91500000Y-130325000D02*
X91500000Y-130997000D01*
X92080000Y-131577000D02*
X92080000Y-132593000D01*
X91500000Y-130997000D02*
X92080000Y-131577000D01*
D16*
X81920000Y-135475000D02*
X81920000Y-137028000D01*
X81915000Y-137033000D02*
X77978000Y-137033000D01*
X81920000Y-137028000D02*
X81915000Y-137033000D01*
D17*
X85217000Y-146304000D02*
X84074000Y-146304000D01*
X85500000Y-146587000D02*
X85217000Y-146304000D01*
X85500000Y-146900000D02*
X85500000Y-146587000D01*
D16*
X81920000Y-135475000D02*
X81920000Y-132974000D01*
D17*
X83500000Y-131394000D02*
X81920000Y-132974000D01*
X83500000Y-130325000D02*
X83500000Y-131394000D01*
D16*
X77978000Y-137033000D02*
X77978000Y-139446000D01*
X77851000Y-143764000D02*
X80391000Y-146304000D01*
X77851000Y-139573000D02*
X77851000Y-143764000D01*
X80391000Y-146304000D02*
X84074000Y-146304000D01*
X77978000Y-139446000D02*
X77851000Y-139573000D01*
X81920000Y-144902000D02*
X81915000Y-144907000D01*
X81920000Y-141725000D02*
X81920000Y-144902000D01*
X81915000Y-144907000D02*
X83185000Y-144907000D01*
X83185000Y-144907000D02*
X85725000Y-144907000D01*
D17*
X86500000Y-145682000D02*
X85725000Y-144907000D01*
X86500000Y-146900000D02*
X86500000Y-145682000D01*
X82500000Y-130733000D02*
X82500000Y-130325000D01*
X81915000Y-131318000D02*
X82500000Y-130733000D01*
X81661000Y-131318000D02*
X81915000Y-131318000D01*
D16*
X81661000Y-131318000D02*
X80391000Y-132588000D01*
D18*
G36*
X79989403Y-126814777D02*
G01*
X79965000Y-126937458D01*
X79965000Y-128264250D01*
X80123750Y-128423000D01*
X81073000Y-128423000D01*
X81073000Y-128403000D01*
X81327000Y-128403000D01*
X81327000Y-128423000D01*
X82276250Y-128423000D01*
X82435000Y-128264250D01*
X82435000Y-126937458D01*
X82410597Y-126814777D01*
X82366369Y-126708000D01*
X91633631Y-126708000D01*
X91589403Y-126814777D01*
X91565000Y-126937458D01*
X91565000Y-128264250D01*
X91723750Y-128423000D01*
X92673000Y-128423000D01*
X92673000Y-128403000D01*
X92927000Y-128403000D01*
X92927000Y-128423000D01*
X93876250Y-128423000D01*
X94035000Y-128264250D01*
X94035000Y-126937458D01*
X94010597Y-126814777D01*
X93966369Y-126708000D01*
X96170879Y-126708000D01*
X95824075Y-126851651D01*
X95279161Y-127215750D01*
X94815750Y-127679161D01*
X94451651Y-128224075D01*
X94200855Y-128829550D01*
X94073000Y-129472319D01*
X94073000Y-130127681D01*
X94200855Y-130770450D01*
X94451651Y-131375925D01*
X94815750Y-131920839D01*
X95279161Y-132384250D01*
X95824075Y-132748349D01*
X96429550Y-132999145D01*
X97072319Y-133127000D01*
X97727681Y-133127000D01*
X97922448Y-133088258D01*
X97984992Y-133239252D01*
X98164798Y-133508352D01*
X98393648Y-133737202D01*
X98662748Y-133917008D01*
X98961755Y-134040861D01*
X99279179Y-134104000D01*
X99602821Y-134104000D01*
X99920245Y-134040861D01*
X100219252Y-133917008D01*
X100488352Y-133737202D01*
X100492001Y-133733553D01*
X100492000Y-145158446D01*
X100488352Y-145154798D01*
X100219252Y-144974992D01*
X99920245Y-144851139D01*
X99602821Y-144788000D01*
X99279179Y-144788000D01*
X98961755Y-144851139D01*
X98662748Y-144974992D01*
X98393648Y-145154798D01*
X98164798Y-145383648D01*
X97984992Y-145652748D01*
X97957655Y-145718745D01*
X97727681Y-145673000D01*
X97072319Y-145673000D01*
X96429550Y-145800855D01*
X95824075Y-146051651D01*
X95279161Y-146415750D01*
X94815750Y-146879161D01*
X94451651Y-147424075D01*
X94200855Y-148029550D01*
X94073000Y-148672319D01*
X94073000Y-149327681D01*
X94200855Y-149970450D01*
X94451651Y-150575925D01*
X94815750Y-151120839D01*
X95279161Y-151584250D01*
X95824075Y-151948349D01*
X96170879Y-152092000D01*
X90831026Y-152092000D01*
X90893237Y-152029789D01*
X90962730Y-151925785D01*
X91010597Y-151810223D01*
X91035000Y-151687542D01*
X91035000Y-149660750D01*
X90876250Y-149502000D01*
X89927000Y-149502000D01*
X89927000Y-149522000D01*
X89673000Y-149522000D01*
X89673000Y-149502000D01*
X88723750Y-149502000D01*
X88565000Y-149660750D01*
X88565000Y-151687542D01*
X88589403Y-151810223D01*
X88637270Y-151925785D01*
X88706763Y-152029789D01*
X88768974Y-152092000D01*
X85231026Y-152092000D01*
X85293237Y-152029789D01*
X85362730Y-151925785D01*
X85410597Y-151810223D01*
X85435000Y-151687542D01*
X85435000Y-149660750D01*
X85276250Y-149502000D01*
X84327000Y-149502000D01*
X84327000Y-149522000D01*
X84073000Y-149522000D01*
X84073000Y-149502000D01*
X83123750Y-149502000D01*
X82965000Y-149660750D01*
X82965000Y-151687542D01*
X82989403Y-151810223D01*
X83037270Y-151925785D01*
X83106763Y-152029789D01*
X83168974Y-152092000D01*
X77829121Y-152092000D01*
X78175925Y-151948349D01*
X78720839Y-151584250D01*
X79184250Y-151120839D01*
X79548349Y-150575925D01*
X79799145Y-149970450D01*
X79927000Y-149327681D01*
X79927000Y-148672319D01*
X79799145Y-148029550D01*
X79548349Y-147424075D01*
X79306725Y-147062458D01*
X82965000Y-147062458D01*
X82965000Y-149089250D01*
X83123750Y-149248000D01*
X84073000Y-149248000D01*
X84073000Y-146648750D01*
X83914250Y-146490000D01*
X83537458Y-146490000D01*
X83414777Y-146514403D01*
X83299215Y-146562270D01*
X83195211Y-146631763D01*
X83106763Y-146720211D01*
X83037270Y-146824215D01*
X82989403Y-146939777D01*
X82965000Y-147062458D01*
X79306725Y-147062458D01*
X79184250Y-146879161D01*
X78720839Y-146415750D01*
X78175925Y-146051651D01*
X77570450Y-145800855D01*
X76927681Y-145673000D01*
X76272319Y-145673000D01*
X76033106Y-145720583D01*
X76005008Y-145652748D01*
X75825202Y-145383648D01*
X75596352Y-145154798D01*
X75327252Y-144974992D01*
X75163106Y-144907000D01*
X81021699Y-144907000D01*
X81038864Y-145081274D01*
X81089697Y-145248851D01*
X81172247Y-145403291D01*
X81283341Y-145538659D01*
X81418709Y-145649753D01*
X81573149Y-145732303D01*
X81740726Y-145783136D01*
X81871333Y-145796000D01*
X81871340Y-145796000D01*
X81915000Y-145800300D01*
X81958660Y-145796000D01*
X84706123Y-145796000D01*
X84687270Y-145824215D01*
X84639403Y-145939777D01*
X84615000Y-146062458D01*
X84615000Y-146490000D01*
X84485750Y-146490000D01*
X84327000Y-146648750D01*
X84327000Y-149248000D01*
X85276250Y-149248000D01*
X85435000Y-149089250D01*
X85435000Y-147062458D01*
X85410597Y-146939777D01*
X85362730Y-146824215D01*
X85353000Y-146809653D01*
X85353000Y-146773000D01*
X85375000Y-146773000D01*
X85375000Y-146753000D01*
X85625000Y-146753000D01*
X85625000Y-146773000D01*
X85647000Y-146773000D01*
X85647000Y-147027000D01*
X85625000Y-147027000D01*
X85625000Y-148151250D01*
X85783750Y-148310000D01*
X85812542Y-148310000D01*
X85935223Y-148285597D01*
X86050785Y-148237730D01*
X86154789Y-148168237D01*
X86243237Y-148079789D01*
X86257901Y-148057843D01*
X86750000Y-148057843D01*
X86824689Y-148050487D01*
X86896508Y-148028701D01*
X86962696Y-147993322D01*
X87000000Y-147962708D01*
X87037304Y-147993322D01*
X87103492Y-148028701D01*
X87175311Y-148050487D01*
X87250000Y-148057843D01*
X87750000Y-148057843D01*
X87824689Y-148050487D01*
X87896508Y-148028701D01*
X87962696Y-147993322D01*
X88000000Y-147962708D01*
X88037304Y-147993322D01*
X88103492Y-148028701D01*
X88175311Y-148050487D01*
X88250000Y-148057843D01*
X88565000Y-148057843D01*
X88565000Y-149089250D01*
X88723750Y-149248000D01*
X89673000Y-149248000D01*
X89673000Y-146648750D01*
X89927000Y-146648750D01*
X89927000Y-149248000D01*
X90876250Y-149248000D01*
X91035000Y-149089250D01*
X91035000Y-147062458D01*
X91010597Y-146939777D01*
X90962730Y-146824215D01*
X90893237Y-146720211D01*
X90804789Y-146631763D01*
X90700785Y-146562270D01*
X90585223Y-146514403D01*
X90462542Y-146490000D01*
X90085750Y-146490000D01*
X89927000Y-146648750D01*
X89673000Y-146648750D01*
X89514250Y-146490000D01*
X89137458Y-146490000D01*
X89135000Y-146490489D01*
X89135000Y-145951024D01*
X89199951Y-145886073D01*
X89224185Y-145866185D01*
X89303537Y-145769494D01*
X89362502Y-145659180D01*
X89398812Y-145539482D01*
X89408000Y-145446192D01*
X89408000Y-145446182D01*
X89411071Y-145415001D01*
X89408000Y-145383820D01*
X89408000Y-144684181D01*
X89411071Y-144653000D01*
X89408000Y-144621819D01*
X89408000Y-144621808D01*
X89398812Y-144528518D01*
X89362502Y-144408820D01*
X89303537Y-144298506D01*
X89249649Y-144232843D01*
X90040000Y-144232843D01*
X90114689Y-144225487D01*
X90186508Y-144203701D01*
X90252696Y-144168322D01*
X90310711Y-144120711D01*
X90358322Y-144062696D01*
X90393701Y-143996508D01*
X90415487Y-143924689D01*
X90422843Y-143850000D01*
X90422843Y-141831178D01*
X90429000Y-141768667D01*
X90429000Y-139504012D01*
X90523853Y-139543301D01*
X90713380Y-139581000D01*
X90906620Y-139581000D01*
X91096147Y-139543301D01*
X91191001Y-139504011D01*
X91191000Y-141768666D01*
X91197157Y-141831177D01*
X91197157Y-143850000D01*
X91204513Y-143924689D01*
X91226299Y-143996508D01*
X91261678Y-144062696D01*
X91309289Y-144120711D01*
X91367304Y-144168322D01*
X91433492Y-144203701D01*
X91505311Y-144225487D01*
X91580000Y-144232843D01*
X92580000Y-144232843D01*
X92654689Y-144225487D01*
X92726508Y-144203701D01*
X92792696Y-144168322D01*
X92850711Y-144120711D01*
X92898322Y-144062696D01*
X92933701Y-143996508D01*
X92955487Y-143924689D01*
X92962843Y-143850000D01*
X92962843Y-141831178D01*
X92969000Y-141768667D01*
X92969000Y-139809235D01*
X93369495Y-139408741D01*
X93452752Y-139307292D01*
X93535302Y-139152852D01*
X93586136Y-138985275D01*
X93603301Y-138811000D01*
X93586136Y-138636725D01*
X93535302Y-138469148D01*
X93452752Y-138314709D01*
X93341659Y-138179341D01*
X93206291Y-138068248D01*
X93051852Y-137985698D01*
X92884275Y-137934864D01*
X92780813Y-137924674D01*
X92792696Y-137918322D01*
X92850711Y-137870711D01*
X92898322Y-137812696D01*
X92933701Y-137746508D01*
X92955487Y-137674689D01*
X92962843Y-137600000D01*
X92962843Y-135581178D01*
X92969000Y-135518667D01*
X92969000Y-132549333D01*
X92956136Y-132418726D01*
X92905303Y-132251149D01*
X92822753Y-132096709D01*
X92715000Y-131965412D01*
X92715000Y-131608189D01*
X92718072Y-131577000D01*
X92715000Y-131545808D01*
X92705812Y-131452518D01*
X92669502Y-131332820D01*
X92661581Y-131318001D01*
X92610538Y-131222506D01*
X92561326Y-131162542D01*
X92531185Y-131125815D01*
X92506956Y-131105931D01*
X92182843Y-130781819D01*
X92182843Y-130735000D01*
X92514250Y-130735000D01*
X92673000Y-130576250D01*
X92673000Y-128677000D01*
X92927000Y-128677000D01*
X92927000Y-130576250D01*
X93085750Y-130735000D01*
X93462542Y-130735000D01*
X93585223Y-130710597D01*
X93700785Y-130662730D01*
X93804789Y-130593237D01*
X93893237Y-130504789D01*
X93962730Y-130400785D01*
X94010597Y-130285223D01*
X94035000Y-130162542D01*
X94035000Y-128835750D01*
X93876250Y-128677000D01*
X92927000Y-128677000D01*
X92673000Y-128677000D01*
X91723750Y-128677000D01*
X91565000Y-128835750D01*
X91565000Y-129167157D01*
X91200000Y-129167157D01*
X91125311Y-129174513D01*
X91053492Y-129196299D01*
X91000000Y-129224892D01*
X90946508Y-129196299D01*
X90874689Y-129174513D01*
X90800000Y-129167157D01*
X90200000Y-129167157D01*
X90125311Y-129174513D01*
X90053492Y-129196299D01*
X90000000Y-129224892D01*
X89946508Y-129196299D01*
X89874689Y-129174513D01*
X89800000Y-129167157D01*
X89311393Y-129167157D01*
X89366144Y-129034978D01*
X89400000Y-128864771D01*
X89400000Y-128691229D01*
X89366144Y-128521022D01*
X89299732Y-128360690D01*
X89203318Y-128216395D01*
X89080605Y-128093682D01*
X88936310Y-127997268D01*
X88775978Y-127930856D01*
X88605771Y-127897000D01*
X88432229Y-127897000D01*
X88262022Y-127930856D01*
X88101690Y-127997268D01*
X87957395Y-128093682D01*
X87834682Y-128216395D01*
X87738268Y-128360690D01*
X87671856Y-128521022D01*
X87638000Y-128691229D01*
X87638000Y-128864771D01*
X87671856Y-129034978D01*
X87726607Y-129167157D01*
X87279393Y-129167157D01*
X87334144Y-129034978D01*
X87368000Y-128864771D01*
X87368000Y-128691229D01*
X87334144Y-128521022D01*
X87267732Y-128360690D01*
X87171318Y-128216395D01*
X87048605Y-128093682D01*
X86904310Y-127997268D01*
X86743978Y-127930856D01*
X86573771Y-127897000D01*
X86400229Y-127897000D01*
X86230022Y-127930856D01*
X86069690Y-127997268D01*
X85925395Y-128093682D01*
X85802682Y-128216395D01*
X85706268Y-128360690D01*
X85639856Y-128521022D01*
X85606000Y-128691229D01*
X85606000Y-128864771D01*
X85639856Y-129034978D01*
X85694607Y-129167157D01*
X85247393Y-129167157D01*
X85302144Y-129034978D01*
X85336000Y-128864771D01*
X85336000Y-128691229D01*
X85302144Y-128521022D01*
X85235732Y-128360690D01*
X85139318Y-128216395D01*
X85016605Y-128093682D01*
X84872310Y-127997268D01*
X84711978Y-127930856D01*
X84541771Y-127897000D01*
X84368229Y-127897000D01*
X84198022Y-127930856D01*
X84037690Y-127997268D01*
X83893395Y-128093682D01*
X83770682Y-128216395D01*
X83674268Y-128360690D01*
X83607856Y-128521022D01*
X83574000Y-128691229D01*
X83574000Y-128864771D01*
X83607856Y-129034978D01*
X83627000Y-129081195D01*
X83627000Y-130198000D01*
X83647000Y-130198000D01*
X83647000Y-130452000D01*
X83627000Y-130452000D01*
X83627000Y-131576250D01*
X83785750Y-131735000D01*
X83862542Y-131735000D01*
X83985223Y-131710597D01*
X83994791Y-131706634D01*
X83963710Y-131723247D01*
X83828342Y-131834341D01*
X83717248Y-131969709D01*
X83634698Y-132124149D01*
X83583865Y-132291726D01*
X83571001Y-132422333D01*
X83571000Y-135518666D01*
X83577157Y-135581177D01*
X83577157Y-137600000D01*
X83584513Y-137674689D01*
X83593845Y-137705451D01*
X83476147Y-137656699D01*
X83286620Y-137619000D01*
X83093380Y-137619000D01*
X83055000Y-137626634D01*
X83055000Y-135760750D01*
X82896250Y-135602000D01*
X82047000Y-135602000D01*
X82047000Y-138076250D01*
X82205750Y-138235000D01*
X82279361Y-138235000D01*
X82246699Y-138313853D01*
X82209000Y-138503380D01*
X82209000Y-138696620D01*
X82246699Y-138886147D01*
X82320649Y-139064678D01*
X82422710Y-139217424D01*
X82420000Y-139217157D01*
X81420000Y-139217157D01*
X81345311Y-139224513D01*
X81273492Y-139246299D01*
X81207304Y-139281678D01*
X81149289Y-139329289D01*
X81101678Y-139387304D01*
X81066299Y-139453492D01*
X81044513Y-139525311D01*
X81037157Y-139600000D01*
X81037157Y-141618823D01*
X81031000Y-141681334D01*
X81031001Y-144812558D01*
X81021699Y-144907000D01*
X75163106Y-144907000D01*
X75028245Y-144851139D01*
X74710821Y-144788000D01*
X74387179Y-144788000D01*
X74069755Y-144851139D01*
X73770748Y-144974992D01*
X73508000Y-145150554D01*
X73508000Y-135760750D01*
X80785000Y-135760750D01*
X80785000Y-137662542D01*
X80809403Y-137785223D01*
X80857270Y-137900785D01*
X80926763Y-138004789D01*
X81015211Y-138093237D01*
X81119215Y-138162730D01*
X81234777Y-138210597D01*
X81357458Y-138235000D01*
X81634250Y-138235000D01*
X81793000Y-138076250D01*
X81793000Y-135602000D01*
X80943750Y-135602000D01*
X80785000Y-135760750D01*
X73508000Y-135760750D01*
X73508000Y-133741446D01*
X73770748Y-133917008D01*
X74069755Y-134040861D01*
X74387179Y-134104000D01*
X74710821Y-134104000D01*
X75028245Y-134040861D01*
X75327252Y-133917008D01*
X75596352Y-133737202D01*
X75825202Y-133508352D01*
X76005008Y-133239252D01*
X76068313Y-133086421D01*
X76272319Y-133127000D01*
X76927681Y-133127000D01*
X77570450Y-132999145D01*
X78175925Y-132748349D01*
X78415904Y-132588000D01*
X79497700Y-132588000D01*
X79514864Y-132762274D01*
X79565698Y-132929852D01*
X79648248Y-133084291D01*
X79759341Y-133219659D01*
X79894709Y-133330752D01*
X80049148Y-133413302D01*
X80216726Y-133464136D01*
X80391000Y-133481300D01*
X80565274Y-133464136D01*
X80732852Y-133413302D01*
X80785000Y-133385428D01*
X80785000Y-135189250D01*
X80943750Y-135348000D01*
X81793000Y-135348000D01*
X81793000Y-132873750D01*
X82047000Y-132873750D01*
X82047000Y-135348000D01*
X82896250Y-135348000D01*
X83055000Y-135189250D01*
X83055000Y-133287458D01*
X83030597Y-133164777D01*
X82982730Y-133049215D01*
X82913237Y-132945211D01*
X82824789Y-132856763D01*
X82720785Y-132787270D01*
X82605223Y-132739403D01*
X82482542Y-132715000D01*
X82205750Y-132715000D01*
X82047000Y-132873750D01*
X81793000Y-132873750D01*
X81634250Y-132715000D01*
X81521235Y-132715000D01*
X82320495Y-131915741D01*
X82403751Y-131814292D01*
X82486302Y-131659853D01*
X82492890Y-131638134D01*
X82648181Y-131482843D01*
X82692099Y-131482843D01*
X82706763Y-131504789D01*
X82795211Y-131593237D01*
X82899215Y-131662730D01*
X83014777Y-131710597D01*
X83137458Y-131735000D01*
X83214250Y-131735000D01*
X83373000Y-131576250D01*
X83373000Y-130452000D01*
X83353000Y-130452000D01*
X83353000Y-130198000D01*
X83373000Y-130198000D01*
X83373000Y-129073750D01*
X83214250Y-128915000D01*
X83137458Y-128915000D01*
X83014777Y-128939403D01*
X82899215Y-128987270D01*
X82795211Y-129056763D01*
X82706763Y-129145211D01*
X82692099Y-129167157D01*
X82435000Y-129167157D01*
X82435000Y-128835750D01*
X82276250Y-128677000D01*
X81327000Y-128677000D01*
X81327000Y-128697000D01*
X81073000Y-128697000D01*
X81073000Y-128677000D01*
X80123750Y-128677000D01*
X79965000Y-128835750D01*
X79965000Y-130162542D01*
X79989403Y-130285223D01*
X80037270Y-130400785D01*
X80106763Y-130504789D01*
X80195211Y-130593237D01*
X80299215Y-130662730D01*
X80414777Y-130710597D01*
X80537458Y-130735000D01*
X80914250Y-130735000D01*
X81072998Y-130576252D01*
X81072998Y-130650513D01*
X81063259Y-130658505D01*
X79731505Y-131990260D01*
X79648248Y-132091709D01*
X79565698Y-132246148D01*
X79514864Y-132413726D01*
X79497700Y-132588000D01*
X78415904Y-132588000D01*
X78720839Y-132384250D01*
X79184250Y-131920839D01*
X79548349Y-131375925D01*
X79799145Y-130770450D01*
X79927000Y-130127681D01*
X79927000Y-129472319D01*
X79799145Y-128829550D01*
X79548349Y-128224075D01*
X79184250Y-127679161D01*
X78720839Y-127215750D01*
X78175925Y-126851651D01*
X77829121Y-126708000D01*
X80033631Y-126708000D01*
X79989403Y-126814777D01*
X79989403Y-126814777D01*
G37*
X79989403Y-126814777D02*
X79965000Y-126937458D01*
X79965000Y-128264250D01*
X80123750Y-128423000D01*
X81073000Y-128423000D01*
X81073000Y-128403000D01*
X81327000Y-128403000D01*
X81327000Y-128423000D01*
X82276250Y-128423000D01*
X82435000Y-128264250D01*
X82435000Y-126937458D01*
X82410597Y-126814777D01*
X82366369Y-126708000D01*
X91633631Y-126708000D01*
X91589403Y-126814777D01*
X91565000Y-126937458D01*
X91565000Y-128264250D01*
X91723750Y-128423000D01*
X92673000Y-128423000D01*
X92673000Y-128403000D01*
X92927000Y-128403000D01*
X92927000Y-128423000D01*
X93876250Y-128423000D01*
X94035000Y-128264250D01*
X94035000Y-126937458D01*
X94010597Y-126814777D01*
X93966369Y-126708000D01*
X96170879Y-126708000D01*
X95824075Y-126851651D01*
X95279161Y-127215750D01*
X94815750Y-127679161D01*
X94451651Y-128224075D01*
X94200855Y-128829550D01*
X94073000Y-129472319D01*
X94073000Y-130127681D01*
X94200855Y-130770450D01*
X94451651Y-131375925D01*
X94815750Y-131920839D01*
X95279161Y-132384250D01*
X95824075Y-132748349D01*
X96429550Y-132999145D01*
X97072319Y-133127000D01*
X97727681Y-133127000D01*
X97922448Y-133088258D01*
X97984992Y-133239252D01*
X98164798Y-133508352D01*
X98393648Y-133737202D01*
X98662748Y-133917008D01*
X98961755Y-134040861D01*
X99279179Y-134104000D01*
X99602821Y-134104000D01*
X99920245Y-134040861D01*
X100219252Y-133917008D01*
X100488352Y-133737202D01*
X100492001Y-133733553D01*
X100492000Y-145158446D01*
X100488352Y-145154798D01*
X100219252Y-144974992D01*
X99920245Y-144851139D01*
X99602821Y-144788000D01*
X99279179Y-144788000D01*
X98961755Y-144851139D01*
X98662748Y-144974992D01*
X98393648Y-145154798D01*
X98164798Y-145383648D01*
X97984992Y-145652748D01*
X97957655Y-145718745D01*
X97727681Y-145673000D01*
X97072319Y-145673000D01*
X96429550Y-145800855D01*
X95824075Y-146051651D01*
X95279161Y-146415750D01*
X94815750Y-146879161D01*
X94451651Y-147424075D01*
X94200855Y-148029550D01*
X94073000Y-148672319D01*
X94073000Y-149327681D01*
X94200855Y-149970450D01*
X94451651Y-150575925D01*
X94815750Y-151120839D01*
X95279161Y-151584250D01*
X95824075Y-151948349D01*
X96170879Y-152092000D01*
X90831026Y-152092000D01*
X90893237Y-152029789D01*
X90962730Y-151925785D01*
X91010597Y-151810223D01*
X91035000Y-151687542D01*
X91035000Y-149660750D01*
X90876250Y-149502000D01*
X89927000Y-149502000D01*
X89927000Y-149522000D01*
X89673000Y-149522000D01*
X89673000Y-149502000D01*
X88723750Y-149502000D01*
X88565000Y-149660750D01*
X88565000Y-151687542D01*
X88589403Y-151810223D01*
X88637270Y-151925785D01*
X88706763Y-152029789D01*
X88768974Y-152092000D01*
X85231026Y-152092000D01*
X85293237Y-152029789D01*
X85362730Y-151925785D01*
X85410597Y-151810223D01*
X85435000Y-151687542D01*
X85435000Y-149660750D01*
X85276250Y-149502000D01*
X84327000Y-149502000D01*
X84327000Y-149522000D01*
X84073000Y-149522000D01*
X84073000Y-149502000D01*
X83123750Y-149502000D01*
X82965000Y-149660750D01*
X82965000Y-151687542D01*
X82989403Y-151810223D01*
X83037270Y-151925785D01*
X83106763Y-152029789D01*
X83168974Y-152092000D01*
X77829121Y-152092000D01*
X78175925Y-151948349D01*
X78720839Y-151584250D01*
X79184250Y-151120839D01*
X79548349Y-150575925D01*
X79799145Y-149970450D01*
X79927000Y-149327681D01*
X79927000Y-148672319D01*
X79799145Y-148029550D01*
X79548349Y-147424075D01*
X79306725Y-147062458D01*
X82965000Y-147062458D01*
X82965000Y-149089250D01*
X83123750Y-149248000D01*
X84073000Y-149248000D01*
X84073000Y-146648750D01*
X83914250Y-146490000D01*
X83537458Y-146490000D01*
X83414777Y-146514403D01*
X83299215Y-146562270D01*
X83195211Y-146631763D01*
X83106763Y-146720211D01*
X83037270Y-146824215D01*
X82989403Y-146939777D01*
X82965000Y-147062458D01*
X79306725Y-147062458D01*
X79184250Y-146879161D01*
X78720839Y-146415750D01*
X78175925Y-146051651D01*
X77570450Y-145800855D01*
X76927681Y-145673000D01*
X76272319Y-145673000D01*
X76033106Y-145720583D01*
X76005008Y-145652748D01*
X75825202Y-145383648D01*
X75596352Y-145154798D01*
X75327252Y-144974992D01*
X75163106Y-144907000D01*
X81021699Y-144907000D01*
X81038864Y-145081274D01*
X81089697Y-145248851D01*
X81172247Y-145403291D01*
X81283341Y-145538659D01*
X81418709Y-145649753D01*
X81573149Y-145732303D01*
X81740726Y-145783136D01*
X81871333Y-145796000D01*
X81871340Y-145796000D01*
X81915000Y-145800300D01*
X81958660Y-145796000D01*
X84706123Y-145796000D01*
X84687270Y-145824215D01*
X84639403Y-145939777D01*
X84615000Y-146062458D01*
X84615000Y-146490000D01*
X84485750Y-146490000D01*
X84327000Y-146648750D01*
X84327000Y-149248000D01*
X85276250Y-149248000D01*
X85435000Y-149089250D01*
X85435000Y-147062458D01*
X85410597Y-146939777D01*
X85362730Y-146824215D01*
X85353000Y-146809653D01*
X85353000Y-146773000D01*
X85375000Y-146773000D01*
X85375000Y-146753000D01*
X85625000Y-146753000D01*
X85625000Y-146773000D01*
X85647000Y-146773000D01*
X85647000Y-147027000D01*
X85625000Y-147027000D01*
X85625000Y-148151250D01*
X85783750Y-148310000D01*
X85812542Y-148310000D01*
X85935223Y-148285597D01*
X86050785Y-148237730D01*
X86154789Y-148168237D01*
X86243237Y-148079789D01*
X86257901Y-148057843D01*
X86750000Y-148057843D01*
X86824689Y-148050487D01*
X86896508Y-148028701D01*
X86962696Y-147993322D01*
X87000000Y-147962708D01*
X87037304Y-147993322D01*
X87103492Y-148028701D01*
X87175311Y-148050487D01*
X87250000Y-148057843D01*
X87750000Y-148057843D01*
X87824689Y-148050487D01*
X87896508Y-148028701D01*
X87962696Y-147993322D01*
X88000000Y-147962708D01*
X88037304Y-147993322D01*
X88103492Y-148028701D01*
X88175311Y-148050487D01*
X88250000Y-148057843D01*
X88565000Y-148057843D01*
X88565000Y-149089250D01*
X88723750Y-149248000D01*
X89673000Y-149248000D01*
X89673000Y-146648750D01*
X89927000Y-146648750D01*
X89927000Y-149248000D01*
X90876250Y-149248000D01*
X91035000Y-149089250D01*
X91035000Y-147062458D01*
X91010597Y-146939777D01*
X90962730Y-146824215D01*
X90893237Y-146720211D01*
X90804789Y-146631763D01*
X90700785Y-146562270D01*
X90585223Y-146514403D01*
X90462542Y-146490000D01*
X90085750Y-146490000D01*
X89927000Y-146648750D01*
X89673000Y-146648750D01*
X89514250Y-146490000D01*
X89137458Y-146490000D01*
X89135000Y-146490489D01*
X89135000Y-145951024D01*
X89199951Y-145886073D01*
X89224185Y-145866185D01*
X89303537Y-145769494D01*
X89362502Y-145659180D01*
X89398812Y-145539482D01*
X89408000Y-145446192D01*
X89408000Y-145446182D01*
X89411071Y-145415001D01*
X89408000Y-145383820D01*
X89408000Y-144684181D01*
X89411071Y-144653000D01*
X89408000Y-144621819D01*
X89408000Y-144621808D01*
X89398812Y-144528518D01*
X89362502Y-144408820D01*
X89303537Y-144298506D01*
X89249649Y-144232843D01*
X90040000Y-144232843D01*
X90114689Y-144225487D01*
X90186508Y-144203701D01*
X90252696Y-144168322D01*
X90310711Y-144120711D01*
X90358322Y-144062696D01*
X90393701Y-143996508D01*
X90415487Y-143924689D01*
X90422843Y-143850000D01*
X90422843Y-141831178D01*
X90429000Y-141768667D01*
X90429000Y-139504012D01*
X90523853Y-139543301D01*
X90713380Y-139581000D01*
X90906620Y-139581000D01*
X91096147Y-139543301D01*
X91191001Y-139504011D01*
X91191000Y-141768666D01*
X91197157Y-141831177D01*
X91197157Y-143850000D01*
X91204513Y-143924689D01*
X91226299Y-143996508D01*
X91261678Y-144062696D01*
X91309289Y-144120711D01*
X91367304Y-144168322D01*
X91433492Y-144203701D01*
X91505311Y-144225487D01*
X91580000Y-144232843D01*
X92580000Y-144232843D01*
X92654689Y-144225487D01*
X92726508Y-144203701D01*
X92792696Y-144168322D01*
X92850711Y-144120711D01*
X92898322Y-144062696D01*
X92933701Y-143996508D01*
X92955487Y-143924689D01*
X92962843Y-143850000D01*
X92962843Y-141831178D01*
X92969000Y-141768667D01*
X92969000Y-139809235D01*
X93369495Y-139408741D01*
X93452752Y-139307292D01*
X93535302Y-139152852D01*
X93586136Y-138985275D01*
X93603301Y-138811000D01*
X93586136Y-138636725D01*
X93535302Y-138469148D01*
X93452752Y-138314709D01*
X93341659Y-138179341D01*
X93206291Y-138068248D01*
X93051852Y-137985698D01*
X92884275Y-137934864D01*
X92780813Y-137924674D01*
X92792696Y-137918322D01*
X92850711Y-137870711D01*
X92898322Y-137812696D01*
X92933701Y-137746508D01*
X92955487Y-137674689D01*
X92962843Y-137600000D01*
X92962843Y-135581178D01*
X92969000Y-135518667D01*
X92969000Y-132549333D01*
X92956136Y-132418726D01*
X92905303Y-132251149D01*
X92822753Y-132096709D01*
X92715000Y-131965412D01*
X92715000Y-131608189D01*
X92718072Y-131577000D01*
X92715000Y-131545808D01*
X92705812Y-131452518D01*
X92669502Y-131332820D01*
X92661581Y-131318001D01*
X92610538Y-131222506D01*
X92561326Y-131162542D01*
X92531185Y-131125815D01*
X92506956Y-131105931D01*
X92182843Y-130781819D01*
X92182843Y-130735000D01*
X92514250Y-130735000D01*
X92673000Y-130576250D01*
X92673000Y-128677000D01*
X92927000Y-128677000D01*
X92927000Y-130576250D01*
X93085750Y-130735000D01*
X93462542Y-130735000D01*
X93585223Y-130710597D01*
X93700785Y-130662730D01*
X93804789Y-130593237D01*
X93893237Y-130504789D01*
X93962730Y-130400785D01*
X94010597Y-130285223D01*
X94035000Y-130162542D01*
X94035000Y-128835750D01*
X93876250Y-128677000D01*
X92927000Y-128677000D01*
X92673000Y-128677000D01*
X91723750Y-128677000D01*
X91565000Y-128835750D01*
X91565000Y-129167157D01*
X91200000Y-129167157D01*
X91125311Y-129174513D01*
X91053492Y-129196299D01*
X91000000Y-129224892D01*
X90946508Y-129196299D01*
X90874689Y-129174513D01*
X90800000Y-129167157D01*
X90200000Y-129167157D01*
X90125311Y-129174513D01*
X90053492Y-129196299D01*
X90000000Y-129224892D01*
X89946508Y-129196299D01*
X89874689Y-129174513D01*
X89800000Y-129167157D01*
X89311393Y-129167157D01*
X89366144Y-129034978D01*
X89400000Y-128864771D01*
X89400000Y-128691229D01*
X89366144Y-128521022D01*
X89299732Y-128360690D01*
X89203318Y-128216395D01*
X89080605Y-128093682D01*
X88936310Y-127997268D01*
X88775978Y-127930856D01*
X88605771Y-127897000D01*
X88432229Y-127897000D01*
X88262022Y-127930856D01*
X88101690Y-127997268D01*
X87957395Y-128093682D01*
X87834682Y-128216395D01*
X87738268Y-128360690D01*
X87671856Y-128521022D01*
X87638000Y-128691229D01*
X87638000Y-128864771D01*
X87671856Y-129034978D01*
X87726607Y-129167157D01*
X87279393Y-129167157D01*
X87334144Y-129034978D01*
X87368000Y-128864771D01*
X87368000Y-128691229D01*
X87334144Y-128521022D01*
X87267732Y-128360690D01*
X87171318Y-128216395D01*
X87048605Y-128093682D01*
X86904310Y-127997268D01*
X86743978Y-127930856D01*
X86573771Y-127897000D01*
X86400229Y-127897000D01*
X86230022Y-127930856D01*
X86069690Y-127997268D01*
X85925395Y-128093682D01*
X85802682Y-128216395D01*
X85706268Y-128360690D01*
X85639856Y-128521022D01*
X85606000Y-128691229D01*
X85606000Y-128864771D01*
X85639856Y-129034978D01*
X85694607Y-129167157D01*
X85247393Y-129167157D01*
X85302144Y-129034978D01*
X85336000Y-128864771D01*
X85336000Y-128691229D01*
X85302144Y-128521022D01*
X85235732Y-128360690D01*
X85139318Y-128216395D01*
X85016605Y-128093682D01*
X84872310Y-127997268D01*
X84711978Y-127930856D01*
X84541771Y-127897000D01*
X84368229Y-127897000D01*
X84198022Y-127930856D01*
X84037690Y-127997268D01*
X83893395Y-128093682D01*
X83770682Y-128216395D01*
X83674268Y-128360690D01*
X83607856Y-128521022D01*
X83574000Y-128691229D01*
X83574000Y-128864771D01*
X83607856Y-129034978D01*
X83627000Y-129081195D01*
X83627000Y-130198000D01*
X83647000Y-130198000D01*
X83647000Y-130452000D01*
X83627000Y-130452000D01*
X83627000Y-131576250D01*
X83785750Y-131735000D01*
X83862542Y-131735000D01*
X83985223Y-131710597D01*
X83994791Y-131706634D01*
X83963710Y-131723247D01*
X83828342Y-131834341D01*
X83717248Y-131969709D01*
X83634698Y-132124149D01*
X83583865Y-132291726D01*
X83571001Y-132422333D01*
X83571000Y-135518666D01*
X83577157Y-135581177D01*
X83577157Y-137600000D01*
X83584513Y-137674689D01*
X83593845Y-137705451D01*
X83476147Y-137656699D01*
X83286620Y-137619000D01*
X83093380Y-137619000D01*
X83055000Y-137626634D01*
X83055000Y-135760750D01*
X82896250Y-135602000D01*
X82047000Y-135602000D01*
X82047000Y-138076250D01*
X82205750Y-138235000D01*
X82279361Y-138235000D01*
X82246699Y-138313853D01*
X82209000Y-138503380D01*
X82209000Y-138696620D01*
X82246699Y-138886147D01*
X82320649Y-139064678D01*
X82422710Y-139217424D01*
X82420000Y-139217157D01*
X81420000Y-139217157D01*
X81345311Y-139224513D01*
X81273492Y-139246299D01*
X81207304Y-139281678D01*
X81149289Y-139329289D01*
X81101678Y-139387304D01*
X81066299Y-139453492D01*
X81044513Y-139525311D01*
X81037157Y-139600000D01*
X81037157Y-141618823D01*
X81031000Y-141681334D01*
X81031001Y-144812558D01*
X81021699Y-144907000D01*
X75163106Y-144907000D01*
X75028245Y-144851139D01*
X74710821Y-144788000D01*
X74387179Y-144788000D01*
X74069755Y-144851139D01*
X73770748Y-144974992D01*
X73508000Y-145150554D01*
X73508000Y-135760750D01*
X80785000Y-135760750D01*
X80785000Y-137662542D01*
X80809403Y-137785223D01*
X80857270Y-137900785D01*
X80926763Y-138004789D01*
X81015211Y-138093237D01*
X81119215Y-138162730D01*
X81234777Y-138210597D01*
X81357458Y-138235000D01*
X81634250Y-138235000D01*
X81793000Y-138076250D01*
X81793000Y-135602000D01*
X80943750Y-135602000D01*
X80785000Y-135760750D01*
X73508000Y-135760750D01*
X73508000Y-133741446D01*
X73770748Y-133917008D01*
X74069755Y-134040861D01*
X74387179Y-134104000D01*
X74710821Y-134104000D01*
X75028245Y-134040861D01*
X75327252Y-133917008D01*
X75596352Y-133737202D01*
X75825202Y-133508352D01*
X76005008Y-133239252D01*
X76068313Y-133086421D01*
X76272319Y-133127000D01*
X76927681Y-133127000D01*
X77570450Y-132999145D01*
X78175925Y-132748349D01*
X78415904Y-132588000D01*
X79497700Y-132588000D01*
X79514864Y-132762274D01*
X79565698Y-132929852D01*
X79648248Y-133084291D01*
X79759341Y-133219659D01*
X79894709Y-133330752D01*
X80049148Y-133413302D01*
X80216726Y-133464136D01*
X80391000Y-133481300D01*
X80565274Y-133464136D01*
X80732852Y-133413302D01*
X80785000Y-133385428D01*
X80785000Y-135189250D01*
X80943750Y-135348000D01*
X81793000Y-135348000D01*
X81793000Y-132873750D01*
X82047000Y-132873750D01*
X82047000Y-135348000D01*
X82896250Y-135348000D01*
X83055000Y-135189250D01*
X83055000Y-133287458D01*
X83030597Y-133164777D01*
X82982730Y-133049215D01*
X82913237Y-132945211D01*
X82824789Y-132856763D01*
X82720785Y-132787270D01*
X82605223Y-132739403D01*
X82482542Y-132715000D01*
X82205750Y-132715000D01*
X82047000Y-132873750D01*
X81793000Y-132873750D01*
X81634250Y-132715000D01*
X81521235Y-132715000D01*
X82320495Y-131915741D01*
X82403751Y-131814292D01*
X82486302Y-131659853D01*
X82492890Y-131638134D01*
X82648181Y-131482843D01*
X82692099Y-131482843D01*
X82706763Y-131504789D01*
X82795211Y-131593237D01*
X82899215Y-131662730D01*
X83014777Y-131710597D01*
X83137458Y-131735000D01*
X83214250Y-131735000D01*
X83373000Y-131576250D01*
X83373000Y-130452000D01*
X83353000Y-130452000D01*
X83353000Y-130198000D01*
X83373000Y-130198000D01*
X83373000Y-129073750D01*
X83214250Y-128915000D01*
X83137458Y-128915000D01*
X83014777Y-128939403D01*
X82899215Y-128987270D01*
X82795211Y-129056763D01*
X82706763Y-129145211D01*
X82692099Y-129167157D01*
X82435000Y-129167157D01*
X82435000Y-128835750D01*
X82276250Y-128677000D01*
X81327000Y-128677000D01*
X81327000Y-128697000D01*
X81073000Y-128697000D01*
X81073000Y-128677000D01*
X80123750Y-128677000D01*
X79965000Y-128835750D01*
X79965000Y-130162542D01*
X79989403Y-130285223D01*
X80037270Y-130400785D01*
X80106763Y-130504789D01*
X80195211Y-130593237D01*
X80299215Y-130662730D01*
X80414777Y-130710597D01*
X80537458Y-130735000D01*
X80914250Y-130735000D01*
X81072998Y-130576252D01*
X81072998Y-130650513D01*
X81063259Y-130658505D01*
X79731505Y-131990260D01*
X79648248Y-132091709D01*
X79565698Y-132246148D01*
X79514864Y-132413726D01*
X79497700Y-132588000D01*
X78415904Y-132588000D01*
X78720839Y-132384250D01*
X79184250Y-131920839D01*
X79548349Y-131375925D01*
X79799145Y-130770450D01*
X79927000Y-130127681D01*
X79927000Y-129472319D01*
X79799145Y-128829550D01*
X79548349Y-128224075D01*
X79184250Y-127679161D01*
X78720839Y-127215750D01*
X78175925Y-126851651D01*
X77829121Y-126708000D01*
X80033631Y-126708000D01*
X79989403Y-126814777D01*
M02*
