M48
; DRILL file {KiCad 5.1.0-rc2-unknown-036be7d~80~ubuntu16.04.1} date 22.05.2023 (пн) 11:44:24 EEST
; FORMAT={-:-/ absolute / inch / decimal}
; #@! TF.CreationDate,2023-05-22T11:44:24+03:00*
; #@! TF.GenerationSoftware,Kicad,Pcbnew,5.1.0-rc2-unknown-036be7d~80~ubuntu16.04.1
; #@! TF.FileFunction,Plated,1,2,PTH
FMAT,2
INCH
T1C0.0236
%
G90
G05
T1
X2.93Y-5.66
X2.935Y-5.305
X3.07Y-5.395
X3.07Y-5.49
X3.135Y-5.01
X3.14Y-5.955
X3.165Y-5.22
X3.215Y-5.17
X3.225Y-5.705
X3.245Y-5.85
X3.275Y-5.705
X3.325Y-5.07
X3.34Y-5.465
X3.405Y-5.07
X3.425Y-5.465
X3.43Y-5.96
X3.445Y-5.015
X3.445Y-5.21
X3.445Y-5.71
X3.485Y-5.07
X3.505Y-5.465
X3.575Y-5.2
X3.61Y-5.85
X3.65Y-5.465
X3.705Y-5.955
X3.715Y-5.01
X3.795Y-5.47
X3.915Y-5.66
X3.935Y-5.35
T0
M30
