G04 #@! TF.GenerationSoftware,KiCad,Pcbnew,5.1.0-rc2-unknown-036be7d~80~ubuntu16.04.1*
G04 #@! TF.CreationDate,2023-05-22T11:40:45+03:00*
G04 #@! TF.ProjectId,UEXT-PQ_Rev_A,55455854-2d50-4515-9f52-65765f412e6b,A*
G04 #@! TF.SameCoordinates,Original*
G04 #@! TF.FileFunction,Copper,L2,Bot*
G04 #@! TF.FilePolarity,Positive*
%FSLAX46Y46*%
G04 Gerber Fmt 4.6, Leading zero omitted, Abs format (unit mm)*
G04 Created by KiCad (PCBNEW 5.1.0-rc2-unknown-036be7d~80~ubuntu16.04.1) date 2023-05-22 11:40:45*
%MOMM*%
%LPD*%
G04 APERTURE LIST*
%ADD10C,1.000000*%
%ADD11C,0.406400*%
%ADD12C,1.524000*%
%ADD13C,0.254000*%
G04 APERTURE END LIST*
D10*
X84836000Y-138811000D03*
X84455000Y-128778000D03*
X86995000Y-138811000D03*
X86487000Y-128778000D03*
X87503000Y-145034000D03*
X87503000Y-132334000D03*
X89027000Y-138811000D03*
X88519000Y-128778000D03*
X92710000Y-138811000D03*
X90805000Y-132080000D03*
X77978000Y-137033000D03*
X82423000Y-148590000D03*
X91694000Y-148590000D03*
X87122000Y-151384000D03*
X94107000Y-151257000D03*
X79756000Y-151257000D03*
X99441000Y-143764000D03*
X99949000Y-135890000D03*
X96393000Y-138938000D03*
X74422000Y-143764000D03*
X74549000Y-134747000D03*
X77978000Y-139446000D03*
X79629000Y-127254000D03*
X94361000Y-127254000D03*
X87503000Y-127381000D03*
X81915000Y-144907000D03*
X83185000Y-144907000D03*
X81661000Y-131318000D03*
X80391000Y-132588000D03*
D11*
X84455000Y-129032000D02*
X84455000Y-128778000D01*
X84836000Y-129413000D02*
X84455000Y-129032000D01*
X84836000Y-138811000D02*
X84836000Y-129413000D01*
X86233000Y-129032000D02*
X86487000Y-128778000D01*
X86233000Y-133096000D02*
X86233000Y-129032000D01*
X86995000Y-133858000D02*
X86233000Y-133096000D01*
X86995000Y-138811000D02*
X86995000Y-133858000D01*
X88011000Y-144526000D02*
X87503000Y-145034000D01*
X88011000Y-132842000D02*
X88011000Y-144526000D01*
X87503000Y-132334000D02*
X88011000Y-132842000D01*
X89154000Y-129413000D02*
X88519000Y-128778000D01*
X89154000Y-138684000D02*
X89154000Y-129413000D01*
X89027000Y-138811000D02*
X89154000Y-138684000D01*
X90805000Y-136906000D02*
X92710000Y-138811000D01*
X90805000Y-132080000D02*
X90805000Y-136906000D01*
D12*
X80391000Y-132588000D02*
X81661000Y-131318000D01*
X81915000Y-144907000D02*
X83185000Y-144907000D01*
X80391000Y-143383000D02*
X81915000Y-144907000D01*
X80391000Y-132588000D02*
X80391000Y-143383000D01*
D13*
G36*
X95824075Y-126851651D02*
G01*
X95279161Y-127215750D01*
X94815750Y-127679161D01*
X94451651Y-128224075D01*
X94200855Y-128829550D01*
X94073000Y-129472319D01*
X94073000Y-130127681D01*
X94200855Y-130770450D01*
X94451651Y-131375925D01*
X94815750Y-131920839D01*
X95279161Y-132384250D01*
X95824075Y-132748349D01*
X96429550Y-132999145D01*
X97072319Y-133127000D01*
X97727681Y-133127000D01*
X98370450Y-132999145D01*
X98975925Y-132748349D01*
X99520839Y-132384250D01*
X99984250Y-131920839D01*
X100348349Y-131375925D01*
X100492001Y-131029119D01*
X100492000Y-147770879D01*
X100348349Y-147424075D01*
X99984250Y-146879161D01*
X99520839Y-146415750D01*
X98975925Y-146051651D01*
X98370450Y-145800855D01*
X97727681Y-145673000D01*
X97072319Y-145673000D01*
X96429550Y-145800855D01*
X95824075Y-146051651D01*
X95279161Y-146415750D01*
X94815750Y-146879161D01*
X94451651Y-147424075D01*
X94200855Y-148029550D01*
X94073000Y-148672319D01*
X94073000Y-149327681D01*
X94200855Y-149970450D01*
X94451651Y-150575925D01*
X94815750Y-151120839D01*
X95279161Y-151584250D01*
X95824075Y-151948349D01*
X96170879Y-152092000D01*
X77829121Y-152092000D01*
X78175925Y-151948349D01*
X78720839Y-151584250D01*
X79184250Y-151120839D01*
X79548349Y-150575925D01*
X79799145Y-149970450D01*
X79927000Y-149327681D01*
X79927000Y-148672319D01*
X79799145Y-148029550D01*
X79548349Y-147424075D01*
X79184250Y-146879161D01*
X78720839Y-146415750D01*
X78175925Y-146051651D01*
X77570450Y-145800855D01*
X76927681Y-145673000D01*
X76272319Y-145673000D01*
X75629550Y-145800855D01*
X75024075Y-146051651D01*
X74479161Y-146415750D01*
X74015750Y-146879161D01*
X73651651Y-147424075D01*
X73508000Y-147770879D01*
X73508000Y-131029121D01*
X73651651Y-131375925D01*
X74015750Y-131920839D01*
X74479161Y-132384250D01*
X75024075Y-132748349D01*
X75629550Y-132999145D01*
X76272319Y-133127000D01*
X76927681Y-133127000D01*
X77570450Y-132999145D01*
X78175925Y-132748349D01*
X78415904Y-132588000D01*
X79242471Y-132588000D01*
X79248000Y-132644139D01*
X79248001Y-143326851D01*
X79242471Y-143383000D01*
X79264539Y-143607067D01*
X79312145Y-143764000D01*
X79329898Y-143822523D01*
X79436033Y-144021089D01*
X79578868Y-144195133D01*
X79622478Y-144230923D01*
X81067077Y-145675523D01*
X81102867Y-145719133D01*
X81276911Y-145861968D01*
X81475477Y-145968103D01*
X81625574Y-146013635D01*
X81690932Y-146033461D01*
X81713600Y-146035694D01*
X81858854Y-146050000D01*
X81858860Y-146050000D01*
X81914999Y-146055529D01*
X81971138Y-146050000D01*
X83241146Y-146050000D01*
X83409067Y-146033461D01*
X83624523Y-145968103D01*
X83823089Y-145861968D01*
X83997133Y-145719133D01*
X84139968Y-145545089D01*
X84246103Y-145346523D01*
X84311461Y-145131067D01*
X84333530Y-144907000D01*
X84311461Y-144682933D01*
X84246103Y-144467477D01*
X84139968Y-144268911D01*
X83997133Y-144094867D01*
X83823089Y-143952032D01*
X83624523Y-143845897D01*
X83409067Y-143780539D01*
X83241146Y-143764000D01*
X82388446Y-143764000D01*
X81534000Y-142909555D01*
X81534000Y-138503380D01*
X82209000Y-138503380D01*
X82209000Y-138696620D01*
X82246699Y-138886147D01*
X82320649Y-139064678D01*
X82428007Y-139225351D01*
X82564649Y-139361993D01*
X82725322Y-139469351D01*
X82903853Y-139543301D01*
X83093380Y-139581000D01*
X83286620Y-139581000D01*
X83476147Y-139543301D01*
X83654678Y-139469351D01*
X83815351Y-139361993D01*
X83951993Y-139225351D01*
X84014990Y-139131070D01*
X84055268Y-139228310D01*
X84151682Y-139372605D01*
X84274395Y-139495318D01*
X84418690Y-139591732D01*
X84579022Y-139658144D01*
X84749229Y-139692000D01*
X84922771Y-139692000D01*
X85092978Y-139658144D01*
X85253310Y-139591732D01*
X85397605Y-139495318D01*
X85520318Y-139372605D01*
X85616732Y-139228310D01*
X85683144Y-139067978D01*
X85717000Y-138897771D01*
X85717000Y-138724229D01*
X85683144Y-138554022D01*
X85616732Y-138393690D01*
X85520318Y-138249395D01*
X85420200Y-138149277D01*
X85420200Y-129441681D01*
X85423025Y-129412999D01*
X85420200Y-129384317D01*
X85420200Y-129384308D01*
X85411746Y-129298477D01*
X85378341Y-129188355D01*
X85324094Y-129086866D01*
X85295223Y-129051687D01*
X85302144Y-129034978D01*
X85336000Y-128864771D01*
X85336000Y-128691229D01*
X85606000Y-128691229D01*
X85606000Y-128864771D01*
X85639856Y-129034978D01*
X85648269Y-129055288D01*
X85648801Y-129060691D01*
X85648800Y-133067316D01*
X85645975Y-133096000D01*
X85648800Y-133124684D01*
X85648800Y-133124691D01*
X85656190Y-133199717D01*
X85657254Y-133210523D01*
X85689147Y-133315659D01*
X85690659Y-133320644D01*
X85744906Y-133422133D01*
X85817910Y-133511090D01*
X85840199Y-133529382D01*
X86410801Y-134099985D01*
X86410800Y-138149277D01*
X86310682Y-138249395D01*
X86214268Y-138393690D01*
X86147856Y-138554022D01*
X86114000Y-138724229D01*
X86114000Y-138897771D01*
X86147856Y-139067978D01*
X86214268Y-139228310D01*
X86310682Y-139372605D01*
X86433395Y-139495318D01*
X86577690Y-139591732D01*
X86738022Y-139658144D01*
X86908229Y-139692000D01*
X87081771Y-139692000D01*
X87251978Y-139658144D01*
X87412310Y-139591732D01*
X87426801Y-139582050D01*
X87426801Y-144153000D01*
X87416229Y-144153000D01*
X87246022Y-144186856D01*
X87085690Y-144253268D01*
X86941395Y-144349682D01*
X86818682Y-144472395D01*
X86722268Y-144616690D01*
X86655856Y-144777022D01*
X86622000Y-144947229D01*
X86622000Y-145120771D01*
X86655856Y-145290978D01*
X86722268Y-145451310D01*
X86818682Y-145595605D01*
X86941395Y-145718318D01*
X87085690Y-145814732D01*
X87246022Y-145881144D01*
X87416229Y-145915000D01*
X87589771Y-145915000D01*
X87759978Y-145881144D01*
X87920310Y-145814732D01*
X88064605Y-145718318D01*
X88187318Y-145595605D01*
X88283732Y-145451310D01*
X88350144Y-145290978D01*
X88384000Y-145120771D01*
X88384000Y-144979183D01*
X88403801Y-144959382D01*
X88426090Y-144941090D01*
X88499094Y-144852134D01*
X88553341Y-144750645D01*
X88586746Y-144640523D01*
X88595200Y-144554692D01*
X88595200Y-144554683D01*
X88598025Y-144526001D01*
X88595200Y-144497319D01*
X88595200Y-139582050D01*
X88609690Y-139591732D01*
X88770022Y-139658144D01*
X88940229Y-139692000D01*
X89113771Y-139692000D01*
X89283978Y-139658144D01*
X89444310Y-139591732D01*
X89588605Y-139495318D01*
X89711318Y-139372605D01*
X89807732Y-139228310D01*
X89874144Y-139067978D01*
X89896163Y-138957280D01*
X89940649Y-139064678D01*
X90048007Y-139225351D01*
X90184649Y-139361993D01*
X90345322Y-139469351D01*
X90523853Y-139543301D01*
X90713380Y-139581000D01*
X90906620Y-139581000D01*
X91096147Y-139543301D01*
X91274678Y-139469351D01*
X91435351Y-139361993D01*
X91571993Y-139225351D01*
X91679351Y-139064678D01*
X91753301Y-138886147D01*
X91787422Y-138714606D01*
X91829000Y-138756184D01*
X91829000Y-138897771D01*
X91862856Y-139067978D01*
X91929268Y-139228310D01*
X92025682Y-139372605D01*
X92148395Y-139495318D01*
X92292690Y-139591732D01*
X92453022Y-139658144D01*
X92623229Y-139692000D01*
X92796771Y-139692000D01*
X92966978Y-139658144D01*
X93127310Y-139591732D01*
X93271605Y-139495318D01*
X93394318Y-139372605D01*
X93490732Y-139228310D01*
X93557144Y-139067978D01*
X93591000Y-138897771D01*
X93591000Y-138724229D01*
X93557144Y-138554022D01*
X93490732Y-138393690D01*
X93394318Y-138249395D01*
X93271605Y-138126682D01*
X93127310Y-138030268D01*
X92966978Y-137963856D01*
X92796771Y-137930000D01*
X92655184Y-137930000D01*
X91389200Y-136664017D01*
X91389200Y-132741723D01*
X91489318Y-132641605D01*
X91585732Y-132497310D01*
X91652144Y-132336978D01*
X91686000Y-132166771D01*
X91686000Y-131993229D01*
X91652144Y-131823022D01*
X91585732Y-131662690D01*
X91489318Y-131518395D01*
X91366605Y-131395682D01*
X91222310Y-131299268D01*
X91061978Y-131232856D01*
X90891771Y-131199000D01*
X90718229Y-131199000D01*
X90548022Y-131232856D01*
X90387690Y-131299268D01*
X90243395Y-131395682D01*
X90120682Y-131518395D01*
X90024268Y-131662690D01*
X89957856Y-131823022D01*
X89924000Y-131993229D01*
X89924000Y-132166771D01*
X89957856Y-132336978D01*
X90024268Y-132497310D01*
X90120682Y-132641605D01*
X90220800Y-132741723D01*
X90220801Y-136877306D01*
X90217975Y-136906000D01*
X90229254Y-137020523D01*
X90262659Y-137130644D01*
X90262660Y-137130645D01*
X90316907Y-137232134D01*
X90348345Y-137270442D01*
X90371620Y-137298803D01*
X90371623Y-137298806D01*
X90389911Y-137321090D01*
X90412194Y-137339378D01*
X90695394Y-137622578D01*
X90523853Y-137656699D01*
X90345322Y-137730649D01*
X90184649Y-137838007D01*
X90048007Y-137974649D01*
X89940649Y-138135322D01*
X89866699Y-138313853D01*
X89836840Y-138463964D01*
X89807732Y-138393690D01*
X89738200Y-138289627D01*
X89738200Y-129441692D01*
X89741026Y-129413000D01*
X89729746Y-129298477D01*
X89696341Y-129188355D01*
X89642094Y-129086866D01*
X89587380Y-129020196D01*
X89587378Y-129020194D01*
X89569090Y-128997910D01*
X89546806Y-128979622D01*
X89400000Y-128832816D01*
X89400000Y-128691229D01*
X89366144Y-128521022D01*
X89299732Y-128360690D01*
X89203318Y-128216395D01*
X89080605Y-128093682D01*
X88936310Y-127997268D01*
X88775978Y-127930856D01*
X88605771Y-127897000D01*
X88432229Y-127897000D01*
X88262022Y-127930856D01*
X88101690Y-127997268D01*
X87957395Y-128093682D01*
X87834682Y-128216395D01*
X87738268Y-128360690D01*
X87671856Y-128521022D01*
X87638000Y-128691229D01*
X87638000Y-128864771D01*
X87671856Y-129034978D01*
X87738268Y-129195310D01*
X87834682Y-129339605D01*
X87957395Y-129462318D01*
X88101690Y-129558732D01*
X88262022Y-129625144D01*
X88432229Y-129659000D01*
X88569801Y-129659000D01*
X88569801Y-132671615D01*
X88553341Y-132617355D01*
X88499094Y-132515866D01*
X88426090Y-132426910D01*
X88403802Y-132408619D01*
X88384000Y-132388817D01*
X88384000Y-132247229D01*
X88350144Y-132077022D01*
X88283732Y-131916690D01*
X88187318Y-131772395D01*
X88064605Y-131649682D01*
X87920310Y-131553268D01*
X87759978Y-131486856D01*
X87589771Y-131453000D01*
X87416229Y-131453000D01*
X87246022Y-131486856D01*
X87085690Y-131553268D01*
X86941395Y-131649682D01*
X86818682Y-131772395D01*
X86817200Y-131774613D01*
X86817200Y-129594814D01*
X86904310Y-129558732D01*
X87048605Y-129462318D01*
X87171318Y-129339605D01*
X87267732Y-129195310D01*
X87334144Y-129034978D01*
X87368000Y-128864771D01*
X87368000Y-128691229D01*
X87334144Y-128521022D01*
X87267732Y-128360690D01*
X87171318Y-128216395D01*
X87048605Y-128093682D01*
X86904310Y-127997268D01*
X86743978Y-127930856D01*
X86573771Y-127897000D01*
X86400229Y-127897000D01*
X86230022Y-127930856D01*
X86069690Y-127997268D01*
X85925395Y-128093682D01*
X85802682Y-128216395D01*
X85706268Y-128360690D01*
X85639856Y-128521022D01*
X85606000Y-128691229D01*
X85336000Y-128691229D01*
X85302144Y-128521022D01*
X85235732Y-128360690D01*
X85139318Y-128216395D01*
X85016605Y-128093682D01*
X84872310Y-127997268D01*
X84711978Y-127930856D01*
X84541771Y-127897000D01*
X84368229Y-127897000D01*
X84198022Y-127930856D01*
X84037690Y-127997268D01*
X83893395Y-128093682D01*
X83770682Y-128216395D01*
X83674268Y-128360690D01*
X83607856Y-128521022D01*
X83574000Y-128691229D01*
X83574000Y-128864771D01*
X83607856Y-129034978D01*
X83674268Y-129195310D01*
X83770682Y-129339605D01*
X83893395Y-129462318D01*
X84037690Y-129558732D01*
X84198022Y-129625144D01*
X84227906Y-129631088D01*
X84251801Y-129654983D01*
X84251800Y-138149277D01*
X84151682Y-138249395D01*
X84123853Y-138291044D01*
X84059351Y-138135322D01*
X83951993Y-137974649D01*
X83815351Y-137838007D01*
X83654678Y-137730649D01*
X83476147Y-137656699D01*
X83286620Y-137619000D01*
X83093380Y-137619000D01*
X82903853Y-137656699D01*
X82725322Y-137730649D01*
X82564649Y-137838007D01*
X82428007Y-137974649D01*
X82320649Y-138135322D01*
X82246699Y-138313853D01*
X82209000Y-138503380D01*
X81534000Y-138503380D01*
X81534000Y-133061445D01*
X82508924Y-132086522D01*
X82615967Y-131956090D01*
X82722102Y-131757524D01*
X82787461Y-131542068D01*
X82809529Y-131318001D01*
X82787461Y-131093933D01*
X82722102Y-130878477D01*
X82615967Y-130679912D01*
X82473133Y-130505867D01*
X82299088Y-130363033D01*
X82100523Y-130256898D01*
X81885067Y-130191539D01*
X81660999Y-130169471D01*
X81436932Y-130191539D01*
X81221476Y-130256898D01*
X81022910Y-130363033D01*
X80892478Y-130470076D01*
X79622482Y-131740073D01*
X79578867Y-131775867D01*
X79436032Y-131949912D01*
X79329897Y-132148478D01*
X79264539Y-132363934D01*
X79248000Y-132531855D01*
X79248000Y-132531861D01*
X79242471Y-132588000D01*
X78415904Y-132588000D01*
X78720839Y-132384250D01*
X79184250Y-131920839D01*
X79548349Y-131375925D01*
X79799145Y-130770450D01*
X79927000Y-130127681D01*
X79927000Y-129472319D01*
X79799145Y-128829550D01*
X79548349Y-128224075D01*
X79184250Y-127679161D01*
X78720839Y-127215750D01*
X78175925Y-126851651D01*
X77829121Y-126708000D01*
X96170879Y-126708000D01*
X95824075Y-126851651D01*
X95824075Y-126851651D01*
G37*
X95824075Y-126851651D02*
X95279161Y-127215750D01*
X94815750Y-127679161D01*
X94451651Y-128224075D01*
X94200855Y-128829550D01*
X94073000Y-129472319D01*
X94073000Y-130127681D01*
X94200855Y-130770450D01*
X94451651Y-131375925D01*
X94815750Y-131920839D01*
X95279161Y-132384250D01*
X95824075Y-132748349D01*
X96429550Y-132999145D01*
X97072319Y-133127000D01*
X97727681Y-133127000D01*
X98370450Y-132999145D01*
X98975925Y-132748349D01*
X99520839Y-132384250D01*
X99984250Y-131920839D01*
X100348349Y-131375925D01*
X100492001Y-131029119D01*
X100492000Y-147770879D01*
X100348349Y-147424075D01*
X99984250Y-146879161D01*
X99520839Y-146415750D01*
X98975925Y-146051651D01*
X98370450Y-145800855D01*
X97727681Y-145673000D01*
X97072319Y-145673000D01*
X96429550Y-145800855D01*
X95824075Y-146051651D01*
X95279161Y-146415750D01*
X94815750Y-146879161D01*
X94451651Y-147424075D01*
X94200855Y-148029550D01*
X94073000Y-148672319D01*
X94073000Y-149327681D01*
X94200855Y-149970450D01*
X94451651Y-150575925D01*
X94815750Y-151120839D01*
X95279161Y-151584250D01*
X95824075Y-151948349D01*
X96170879Y-152092000D01*
X77829121Y-152092000D01*
X78175925Y-151948349D01*
X78720839Y-151584250D01*
X79184250Y-151120839D01*
X79548349Y-150575925D01*
X79799145Y-149970450D01*
X79927000Y-149327681D01*
X79927000Y-148672319D01*
X79799145Y-148029550D01*
X79548349Y-147424075D01*
X79184250Y-146879161D01*
X78720839Y-146415750D01*
X78175925Y-146051651D01*
X77570450Y-145800855D01*
X76927681Y-145673000D01*
X76272319Y-145673000D01*
X75629550Y-145800855D01*
X75024075Y-146051651D01*
X74479161Y-146415750D01*
X74015750Y-146879161D01*
X73651651Y-147424075D01*
X73508000Y-147770879D01*
X73508000Y-131029121D01*
X73651651Y-131375925D01*
X74015750Y-131920839D01*
X74479161Y-132384250D01*
X75024075Y-132748349D01*
X75629550Y-132999145D01*
X76272319Y-133127000D01*
X76927681Y-133127000D01*
X77570450Y-132999145D01*
X78175925Y-132748349D01*
X78415904Y-132588000D01*
X79242471Y-132588000D01*
X79248000Y-132644139D01*
X79248001Y-143326851D01*
X79242471Y-143383000D01*
X79264539Y-143607067D01*
X79312145Y-143764000D01*
X79329898Y-143822523D01*
X79436033Y-144021089D01*
X79578868Y-144195133D01*
X79622478Y-144230923D01*
X81067077Y-145675523D01*
X81102867Y-145719133D01*
X81276911Y-145861968D01*
X81475477Y-145968103D01*
X81625574Y-146013635D01*
X81690932Y-146033461D01*
X81713600Y-146035694D01*
X81858854Y-146050000D01*
X81858860Y-146050000D01*
X81914999Y-146055529D01*
X81971138Y-146050000D01*
X83241146Y-146050000D01*
X83409067Y-146033461D01*
X83624523Y-145968103D01*
X83823089Y-145861968D01*
X83997133Y-145719133D01*
X84139968Y-145545089D01*
X84246103Y-145346523D01*
X84311461Y-145131067D01*
X84333530Y-144907000D01*
X84311461Y-144682933D01*
X84246103Y-144467477D01*
X84139968Y-144268911D01*
X83997133Y-144094867D01*
X83823089Y-143952032D01*
X83624523Y-143845897D01*
X83409067Y-143780539D01*
X83241146Y-143764000D01*
X82388446Y-143764000D01*
X81534000Y-142909555D01*
X81534000Y-138503380D01*
X82209000Y-138503380D01*
X82209000Y-138696620D01*
X82246699Y-138886147D01*
X82320649Y-139064678D01*
X82428007Y-139225351D01*
X82564649Y-139361993D01*
X82725322Y-139469351D01*
X82903853Y-139543301D01*
X83093380Y-139581000D01*
X83286620Y-139581000D01*
X83476147Y-139543301D01*
X83654678Y-139469351D01*
X83815351Y-139361993D01*
X83951993Y-139225351D01*
X84014990Y-139131070D01*
X84055268Y-139228310D01*
X84151682Y-139372605D01*
X84274395Y-139495318D01*
X84418690Y-139591732D01*
X84579022Y-139658144D01*
X84749229Y-139692000D01*
X84922771Y-139692000D01*
X85092978Y-139658144D01*
X85253310Y-139591732D01*
X85397605Y-139495318D01*
X85520318Y-139372605D01*
X85616732Y-139228310D01*
X85683144Y-139067978D01*
X85717000Y-138897771D01*
X85717000Y-138724229D01*
X85683144Y-138554022D01*
X85616732Y-138393690D01*
X85520318Y-138249395D01*
X85420200Y-138149277D01*
X85420200Y-129441681D01*
X85423025Y-129412999D01*
X85420200Y-129384317D01*
X85420200Y-129384308D01*
X85411746Y-129298477D01*
X85378341Y-129188355D01*
X85324094Y-129086866D01*
X85295223Y-129051687D01*
X85302144Y-129034978D01*
X85336000Y-128864771D01*
X85336000Y-128691229D01*
X85606000Y-128691229D01*
X85606000Y-128864771D01*
X85639856Y-129034978D01*
X85648269Y-129055288D01*
X85648801Y-129060691D01*
X85648800Y-133067316D01*
X85645975Y-133096000D01*
X85648800Y-133124684D01*
X85648800Y-133124691D01*
X85656190Y-133199717D01*
X85657254Y-133210523D01*
X85689147Y-133315659D01*
X85690659Y-133320644D01*
X85744906Y-133422133D01*
X85817910Y-133511090D01*
X85840199Y-133529382D01*
X86410801Y-134099985D01*
X86410800Y-138149277D01*
X86310682Y-138249395D01*
X86214268Y-138393690D01*
X86147856Y-138554022D01*
X86114000Y-138724229D01*
X86114000Y-138897771D01*
X86147856Y-139067978D01*
X86214268Y-139228310D01*
X86310682Y-139372605D01*
X86433395Y-139495318D01*
X86577690Y-139591732D01*
X86738022Y-139658144D01*
X86908229Y-139692000D01*
X87081771Y-139692000D01*
X87251978Y-139658144D01*
X87412310Y-139591732D01*
X87426801Y-139582050D01*
X87426801Y-144153000D01*
X87416229Y-144153000D01*
X87246022Y-144186856D01*
X87085690Y-144253268D01*
X86941395Y-144349682D01*
X86818682Y-144472395D01*
X86722268Y-144616690D01*
X86655856Y-144777022D01*
X86622000Y-144947229D01*
X86622000Y-145120771D01*
X86655856Y-145290978D01*
X86722268Y-145451310D01*
X86818682Y-145595605D01*
X86941395Y-145718318D01*
X87085690Y-145814732D01*
X87246022Y-145881144D01*
X87416229Y-145915000D01*
X87589771Y-145915000D01*
X87759978Y-145881144D01*
X87920310Y-145814732D01*
X88064605Y-145718318D01*
X88187318Y-145595605D01*
X88283732Y-145451310D01*
X88350144Y-145290978D01*
X88384000Y-145120771D01*
X88384000Y-144979183D01*
X88403801Y-144959382D01*
X88426090Y-144941090D01*
X88499094Y-144852134D01*
X88553341Y-144750645D01*
X88586746Y-144640523D01*
X88595200Y-144554692D01*
X88595200Y-144554683D01*
X88598025Y-144526001D01*
X88595200Y-144497319D01*
X88595200Y-139582050D01*
X88609690Y-139591732D01*
X88770022Y-139658144D01*
X88940229Y-139692000D01*
X89113771Y-139692000D01*
X89283978Y-139658144D01*
X89444310Y-139591732D01*
X89588605Y-139495318D01*
X89711318Y-139372605D01*
X89807732Y-139228310D01*
X89874144Y-139067978D01*
X89896163Y-138957280D01*
X89940649Y-139064678D01*
X90048007Y-139225351D01*
X90184649Y-139361993D01*
X90345322Y-139469351D01*
X90523853Y-139543301D01*
X90713380Y-139581000D01*
X90906620Y-139581000D01*
X91096147Y-139543301D01*
X91274678Y-139469351D01*
X91435351Y-139361993D01*
X91571993Y-139225351D01*
X91679351Y-139064678D01*
X91753301Y-138886147D01*
X91787422Y-138714606D01*
X91829000Y-138756184D01*
X91829000Y-138897771D01*
X91862856Y-139067978D01*
X91929268Y-139228310D01*
X92025682Y-139372605D01*
X92148395Y-139495318D01*
X92292690Y-139591732D01*
X92453022Y-139658144D01*
X92623229Y-139692000D01*
X92796771Y-139692000D01*
X92966978Y-139658144D01*
X93127310Y-139591732D01*
X93271605Y-139495318D01*
X93394318Y-139372605D01*
X93490732Y-139228310D01*
X93557144Y-139067978D01*
X93591000Y-138897771D01*
X93591000Y-138724229D01*
X93557144Y-138554022D01*
X93490732Y-138393690D01*
X93394318Y-138249395D01*
X93271605Y-138126682D01*
X93127310Y-138030268D01*
X92966978Y-137963856D01*
X92796771Y-137930000D01*
X92655184Y-137930000D01*
X91389200Y-136664017D01*
X91389200Y-132741723D01*
X91489318Y-132641605D01*
X91585732Y-132497310D01*
X91652144Y-132336978D01*
X91686000Y-132166771D01*
X91686000Y-131993229D01*
X91652144Y-131823022D01*
X91585732Y-131662690D01*
X91489318Y-131518395D01*
X91366605Y-131395682D01*
X91222310Y-131299268D01*
X91061978Y-131232856D01*
X90891771Y-131199000D01*
X90718229Y-131199000D01*
X90548022Y-131232856D01*
X90387690Y-131299268D01*
X90243395Y-131395682D01*
X90120682Y-131518395D01*
X90024268Y-131662690D01*
X89957856Y-131823022D01*
X89924000Y-131993229D01*
X89924000Y-132166771D01*
X89957856Y-132336978D01*
X90024268Y-132497310D01*
X90120682Y-132641605D01*
X90220800Y-132741723D01*
X90220801Y-136877306D01*
X90217975Y-136906000D01*
X90229254Y-137020523D01*
X90262659Y-137130644D01*
X90262660Y-137130645D01*
X90316907Y-137232134D01*
X90348345Y-137270442D01*
X90371620Y-137298803D01*
X90371623Y-137298806D01*
X90389911Y-137321090D01*
X90412194Y-137339378D01*
X90695394Y-137622578D01*
X90523853Y-137656699D01*
X90345322Y-137730649D01*
X90184649Y-137838007D01*
X90048007Y-137974649D01*
X89940649Y-138135322D01*
X89866699Y-138313853D01*
X89836840Y-138463964D01*
X89807732Y-138393690D01*
X89738200Y-138289627D01*
X89738200Y-129441692D01*
X89741026Y-129413000D01*
X89729746Y-129298477D01*
X89696341Y-129188355D01*
X89642094Y-129086866D01*
X89587380Y-129020196D01*
X89587378Y-129020194D01*
X89569090Y-128997910D01*
X89546806Y-128979622D01*
X89400000Y-128832816D01*
X89400000Y-128691229D01*
X89366144Y-128521022D01*
X89299732Y-128360690D01*
X89203318Y-128216395D01*
X89080605Y-128093682D01*
X88936310Y-127997268D01*
X88775978Y-127930856D01*
X88605771Y-127897000D01*
X88432229Y-127897000D01*
X88262022Y-127930856D01*
X88101690Y-127997268D01*
X87957395Y-128093682D01*
X87834682Y-128216395D01*
X87738268Y-128360690D01*
X87671856Y-128521022D01*
X87638000Y-128691229D01*
X87638000Y-128864771D01*
X87671856Y-129034978D01*
X87738268Y-129195310D01*
X87834682Y-129339605D01*
X87957395Y-129462318D01*
X88101690Y-129558732D01*
X88262022Y-129625144D01*
X88432229Y-129659000D01*
X88569801Y-129659000D01*
X88569801Y-132671615D01*
X88553341Y-132617355D01*
X88499094Y-132515866D01*
X88426090Y-132426910D01*
X88403802Y-132408619D01*
X88384000Y-132388817D01*
X88384000Y-132247229D01*
X88350144Y-132077022D01*
X88283732Y-131916690D01*
X88187318Y-131772395D01*
X88064605Y-131649682D01*
X87920310Y-131553268D01*
X87759978Y-131486856D01*
X87589771Y-131453000D01*
X87416229Y-131453000D01*
X87246022Y-131486856D01*
X87085690Y-131553268D01*
X86941395Y-131649682D01*
X86818682Y-131772395D01*
X86817200Y-131774613D01*
X86817200Y-129594814D01*
X86904310Y-129558732D01*
X87048605Y-129462318D01*
X87171318Y-129339605D01*
X87267732Y-129195310D01*
X87334144Y-129034978D01*
X87368000Y-128864771D01*
X87368000Y-128691229D01*
X87334144Y-128521022D01*
X87267732Y-128360690D01*
X87171318Y-128216395D01*
X87048605Y-128093682D01*
X86904310Y-127997268D01*
X86743978Y-127930856D01*
X86573771Y-127897000D01*
X86400229Y-127897000D01*
X86230022Y-127930856D01*
X86069690Y-127997268D01*
X85925395Y-128093682D01*
X85802682Y-128216395D01*
X85706268Y-128360690D01*
X85639856Y-128521022D01*
X85606000Y-128691229D01*
X85336000Y-128691229D01*
X85302144Y-128521022D01*
X85235732Y-128360690D01*
X85139318Y-128216395D01*
X85016605Y-128093682D01*
X84872310Y-127997268D01*
X84711978Y-127930856D01*
X84541771Y-127897000D01*
X84368229Y-127897000D01*
X84198022Y-127930856D01*
X84037690Y-127997268D01*
X83893395Y-128093682D01*
X83770682Y-128216395D01*
X83674268Y-128360690D01*
X83607856Y-128521022D01*
X83574000Y-128691229D01*
X83574000Y-128864771D01*
X83607856Y-129034978D01*
X83674268Y-129195310D01*
X83770682Y-129339605D01*
X83893395Y-129462318D01*
X84037690Y-129558732D01*
X84198022Y-129625144D01*
X84227906Y-129631088D01*
X84251801Y-129654983D01*
X84251800Y-138149277D01*
X84151682Y-138249395D01*
X84123853Y-138291044D01*
X84059351Y-138135322D01*
X83951993Y-137974649D01*
X83815351Y-137838007D01*
X83654678Y-137730649D01*
X83476147Y-137656699D01*
X83286620Y-137619000D01*
X83093380Y-137619000D01*
X82903853Y-137656699D01*
X82725322Y-137730649D01*
X82564649Y-137838007D01*
X82428007Y-137974649D01*
X82320649Y-138135322D01*
X82246699Y-138313853D01*
X82209000Y-138503380D01*
X81534000Y-138503380D01*
X81534000Y-133061445D01*
X82508924Y-132086522D01*
X82615967Y-131956090D01*
X82722102Y-131757524D01*
X82787461Y-131542068D01*
X82809529Y-131318001D01*
X82787461Y-131093933D01*
X82722102Y-130878477D01*
X82615967Y-130679912D01*
X82473133Y-130505867D01*
X82299088Y-130363033D01*
X82100523Y-130256898D01*
X81885067Y-130191539D01*
X81660999Y-130169471D01*
X81436932Y-130191539D01*
X81221476Y-130256898D01*
X81022910Y-130363033D01*
X80892478Y-130470076D01*
X79622482Y-131740073D01*
X79578867Y-131775867D01*
X79436032Y-131949912D01*
X79329897Y-132148478D01*
X79264539Y-132363934D01*
X79248000Y-132531855D01*
X79248000Y-132531861D01*
X79242471Y-132588000D01*
X78415904Y-132588000D01*
X78720839Y-132384250D01*
X79184250Y-131920839D01*
X79548349Y-131375925D01*
X79799145Y-130770450D01*
X79927000Y-130127681D01*
X79927000Y-129472319D01*
X79799145Y-128829550D01*
X79548349Y-128224075D01*
X79184250Y-127679161D01*
X78720839Y-127215750D01*
X78175925Y-126851651D01*
X77829121Y-126708000D01*
X96170879Y-126708000D01*
X95824075Y-126851651D01*
M02*
