G04 #@! TF.GenerationSoftware,KiCad,Pcbnew,5.1.0-rc2-unknown-036be7d~80~ubuntu16.04.1*
G04 #@! TF.CreationDate,2023-05-22T11:40:45+03:00*
G04 #@! TF.ProjectId,UEXT-PQ_Rev_A,55455854-2d50-4515-9f52-65765f412e6b,A*
G04 #@! TF.SameCoordinates,Original*
G04 #@! TF.FileFunction,Legend,Bot*
G04 #@! TF.FilePolarity,Positive*
%FSLAX46Y46*%
G04 Gerber Fmt 4.6, Leading zero omitted, Abs format (unit mm)*
G04 Created by KiCad (PCBNEW 5.1.0-rc2-unknown-036be7d~80~ubuntu16.04.1) date 2023-05-22 11:40:45*
%MOMM*%
%LPD*%
G04 APERTURE LIST*
%ADD10C,0.254000*%
%ADD11C,0.508000*%
%ADD12C,0.300000*%
%ADD13C,1.000000*%
%ADD14C,0.150000*%
%ADD15C,0.370000*%
%ADD16C,0.380000*%
%ADD17C,0.400000*%
%ADD18C,0.420000*%
%ADD19C,0.100000*%
%ADD20C,0.700000*%
%ADD21C,0.500000*%
%ADD22C,0.127000*%
%ADD23C,0.200000*%
%ADD24C,0.350000*%
%ADD25C,0.180000*%
G04 APERTURE END LIST*
D10*
X79628556Y-146963371D02*
G75*
G02X79375000Y-147574000I-865696J1511D01*
G01*
X78182020Y-145468180D02*
G75*
G02X78689200Y-146499580I-991420J-1127920D01*
G01*
X79099340Y-147604046D02*
G75*
G02X78689200Y-146507200I1118940J1043506D01*
G01*
X79376788Y-147702791D02*
G75*
G02X79072740Y-147576540I752J431051D01*
G01*
X78810340Y-147696613D02*
G75*
G02X78308200Y-146900900I709440J1003993D01*
G01*
X77928795Y-145562066D02*
G75*
G02X78282800Y-146552920I-1408755J-1061974D01*
G01*
X78461927Y-147702303D02*
G75*
G02X78262480Y-147678140I-1327J824263D01*
G01*
X78260497Y-147677453D02*
G75*
G02X77680820Y-147403820I205183J1185493D01*
G01*
X77656946Y-147381974D02*
G75*
G02X77343000Y-146624040I757934J757934D01*
G01*
X77343283Y-146624487D02*
G75*
G02X77414120Y-146255740I992857J447D01*
G01*
X77478148Y-145321136D02*
G75*
G02X77414120Y-146255740I-1478808J-368184D01*
G01*
X78780000Y-145342511D02*
G75*
G02X79502000Y-145986500I-601340J-1400909D01*
G01*
X79555794Y-146082321D02*
G75*
G02X79756000Y-146837400I-1323794J-755079D01*
G01*
X79757874Y-146837901D02*
G75*
G02X79672180Y-147281900I-1195674J501D01*
G01*
X79801720Y-147956612D02*
G75*
G02X79509620Y-147835620I0J413092D01*
G01*
X80159134Y-147806954D02*
G75*
G02X79801720Y-147955000I-357414J357414D01*
G01*
X80532258Y-147972710D02*
G75*
G02X80264000Y-147320000I653762J650170D01*
G01*
X80769978Y-148590280D02*
G75*
G02X80264000Y-147365720I1228842J1224560D01*
G01*
X84334379Y-144051186D02*
G75*
G02X82991960Y-144266920I-1812319J6992786D01*
G01*
X81210130Y-144840934D02*
G75*
G02X82473800Y-144340580I2134890J-3545866D01*
G01*
X80143641Y-145918765D02*
G75*
G02X81198720Y-144848580I3831299J-2722035D01*
G01*
X80263155Y-147193069D02*
G75*
G02X80383380Y-146255740I762845J378529D01*
G01*
X80554473Y-146067156D02*
G75*
G02X83108800Y-144797780I3654147J-4148444D01*
G01*
X85445541Y-143986778D02*
G75*
G02X83418680Y-144736820I-2631381J3997218D01*
G01*
X80711549Y-148278559D02*
G75*
G02X80264000Y-147193000I1086611J1083019D01*
G01*
X80137760Y-145541243D02*
G75*
G02X80197960Y-144863820I3049780J70363D01*
G01*
X80344736Y-144260585D02*
G75*
G02X82395060Y-142748000I2144304J-760715D01*
G01*
X86258952Y-142603522D02*
G75*
G02X84543900Y-142943580I-1268012J1900222D01*
G01*
X84232933Y-146527013D02*
G75*
G02X82367120Y-147193000I-1738813J1924813D01*
G01*
X86253464Y-144107447D02*
G75*
G02X84272120Y-146489420I-8344044J4925607D01*
G01*
X80540860Y-146916140D02*
G75*
G02X81259680Y-146918680I358140J-360680D01*
G01*
X81851500Y-147195066D02*
G75*
G02X81313020Y-146972020I0J761526D01*
G01*
X82169000Y-151003000D02*
G75*
G02X80645000Y-149479000I0J1524000D01*
G01*
X95504000Y-149479000D02*
G75*
G02X93980000Y-151003000I-1524000J0D01*
G01*
X93980000Y-147955000D02*
G75*
G02X95504000Y-149479000I0J-1524000D01*
G01*
X80645000Y-149479000D02*
G75*
G02X82169000Y-147955000I1524000J0D01*
G01*
X82169000Y-147955000D02*
X93980000Y-147955000D01*
X93980000Y-151003000D02*
X82169000Y-151003000D01*
X81313020Y-146972020D02*
X81259680Y-146918680D01*
X80540860Y-146918680D02*
X80264000Y-147193000D01*
X87122000Y-141986000D02*
X86255860Y-144101820D01*
X84272120Y-146489420D02*
X84236560Y-146524980D01*
X82367120Y-147193000D02*
X81851500Y-147193000D01*
X87122000Y-141986000D02*
X86260940Y-142605760D01*
X84543900Y-142943580D02*
X82395060Y-142748000D01*
X80345280Y-144264380D02*
X80197960Y-144863820D01*
X80139540Y-145542000D02*
X80139540Y-145923000D01*
X80241140Y-147147280D02*
X80264000Y-147193000D01*
X80899000Y-148463000D02*
X80713580Y-148277580D01*
X85727540Y-143637000D02*
X85445600Y-143984980D01*
X83418680Y-144736820D02*
X83108800Y-144797780D01*
X80553560Y-146067780D02*
X80383380Y-146255740D01*
X80139540Y-145923000D02*
X80142080Y-145920460D01*
X81198720Y-144848580D02*
X81206340Y-144843500D01*
X82473800Y-144340580D02*
X82991960Y-144266920D01*
X84340700Y-144051020D02*
X85727540Y-143637000D01*
X80899000Y-148590000D02*
X80391000Y-147828000D01*
X80264000Y-147365720D02*
X80264000Y-147320000D01*
X81026000Y-148463000D02*
X80535780Y-147972780D01*
X80264000Y-147701000D02*
X80159860Y-147807680D01*
X79509620Y-147835620D02*
X79375000Y-147701000D01*
X79375000Y-147701000D02*
X79672180Y-147281900D01*
X79555340Y-146080480D02*
X79502000Y-145986500D01*
X78780640Y-145341340D02*
X78359000Y-145161000D01*
X78359000Y-145161000D02*
X77343000Y-144780000D01*
X77343000Y-144780000D02*
X77477620Y-145318480D01*
X77657960Y-147380960D02*
X77680820Y-147403820D01*
X78460600Y-147701000D02*
X78816200Y-147701000D01*
X79362300Y-147701000D02*
X79375000Y-147701000D01*
X78282800Y-146509740D02*
X78308200Y-146900900D01*
X86741000Y-142494000D02*
X85727540Y-143131540D01*
D11*
X85727540Y-143131540D02*
X84582000Y-143131540D01*
X84582000Y-143131540D02*
X83566000Y-143002000D01*
X83566000Y-143002000D02*
X81915000Y-143002000D01*
X81915000Y-143002000D02*
X81280000Y-143383000D01*
X81280000Y-143383000D02*
X80772000Y-143891000D01*
X80772000Y-143891000D02*
X80518000Y-144399000D01*
X80518000Y-144399000D02*
X80391000Y-145415000D01*
X80391000Y-145415000D02*
X80899000Y-144780000D01*
X80899000Y-144780000D02*
X81534000Y-144399000D01*
X81534000Y-144399000D02*
X81280000Y-143891000D01*
X81280000Y-143891000D02*
X80899000Y-144399000D01*
X81661000Y-144399000D02*
X82296000Y-144018000D01*
X82296000Y-144018000D02*
X82804000Y-144018000D01*
X82804000Y-144018000D02*
X82931000Y-144018000D01*
X82931000Y-144018000D02*
X84074000Y-143891000D01*
X84074000Y-143891000D02*
X85344000Y-143510000D01*
X85344000Y-143510000D02*
X85852000Y-143383000D01*
X85852000Y-143383000D02*
X81280000Y-143383000D01*
X81280000Y-143383000D02*
X81280000Y-143637000D01*
X81280000Y-143891000D02*
X81280000Y-143637000D01*
X81280000Y-143637000D02*
X86233000Y-143560800D01*
X81153000Y-144018000D02*
X82804000Y-144018000D01*
X86741000Y-142494000D02*
X86233000Y-143383000D01*
X86233000Y-143383000D02*
X86106000Y-143891000D01*
X86106000Y-143891000D02*
X85727540Y-144399000D01*
X85727540Y-144399000D02*
X85727540Y-144018000D01*
X85727540Y-144018000D02*
X86106000Y-143131540D01*
X85598000Y-144526000D02*
X85217000Y-145034000D01*
X85217000Y-145034000D02*
X84963000Y-145415000D01*
X84963000Y-145415000D02*
X84074000Y-146304000D01*
X84074000Y-146304000D02*
X83566000Y-146685000D01*
X83566000Y-146685000D02*
X82677000Y-146939000D01*
X82677000Y-146939000D02*
X81788000Y-146939000D01*
X81788000Y-146939000D02*
X81026000Y-146431000D01*
X81026000Y-146431000D02*
X80645000Y-146558000D01*
X80645000Y-146558000D02*
X80391000Y-146812000D01*
X80391000Y-146812000D02*
X80645000Y-146304000D01*
X80645000Y-146304000D02*
X81153000Y-145796000D01*
X81153000Y-145796000D02*
X81838800Y-145389600D01*
X81838800Y-145389600D02*
X83235800Y-144907000D01*
X83235800Y-144907000D02*
X83845400Y-144907000D01*
X83845400Y-144907000D02*
X84582000Y-144653000D01*
X84582000Y-144653000D02*
X85344000Y-144272000D01*
X85217000Y-144653000D02*
X84455000Y-145288000D01*
X84455000Y-145288000D02*
X84328000Y-145161000D01*
X84328000Y-145161000D02*
X84201000Y-145161000D01*
X84201000Y-145161000D02*
X83058000Y-145288000D01*
X83058000Y-145288000D02*
X82042000Y-145542000D01*
X82042000Y-145542000D02*
X81407000Y-146050000D01*
X81407000Y-146050000D02*
X81280000Y-146177000D01*
X81280000Y-146177000D02*
X81407000Y-146431000D01*
X81407000Y-146431000D02*
X81661000Y-146431000D01*
X81661000Y-146431000D02*
X82042000Y-146558000D01*
X82042000Y-146558000D02*
X82677000Y-146558000D01*
X82677000Y-146558000D02*
X83058000Y-146431000D01*
X83058000Y-146431000D02*
X83566000Y-146304000D01*
X83566000Y-146304000D02*
X84201000Y-145796000D01*
X84201000Y-145796000D02*
X84328000Y-145669000D01*
X84328000Y-145669000D02*
X84201000Y-145542000D01*
X84201000Y-145542000D02*
X83693000Y-145542000D01*
X83693000Y-145542000D02*
X82677000Y-145796000D01*
X82677000Y-145796000D02*
X82423000Y-145796000D01*
X82423000Y-145796000D02*
X81915000Y-146050000D01*
X81915000Y-146050000D02*
X81915000Y-146177000D01*
X81915000Y-146177000D02*
X82042000Y-146304000D01*
X82042000Y-146304000D02*
X82423000Y-146177000D01*
X82423000Y-146177000D02*
X83693000Y-145923000D01*
D10*
X79072740Y-147576540D02*
X79100680Y-147604480D01*
X78689200Y-146507200D02*
X78689200Y-146499580D01*
X79629000Y-146961860D02*
X79629000Y-146939000D01*
X79629000Y-146939000D02*
X79629000Y-146685000D01*
X79629000Y-146685000D02*
X79502000Y-146685000D01*
X79502000Y-146685000D02*
X79375000Y-146685000D01*
X79375000Y-146685000D02*
X79375000Y-147320000D01*
X79502000Y-146685000D02*
X79502000Y-146812000D01*
X79502000Y-146812000D02*
X79502000Y-147193000D01*
X79502000Y-147193000D02*
X79502000Y-147320000D01*
X79502000Y-147320000D02*
X79502000Y-147447000D01*
X79375000Y-146685000D02*
X78994000Y-146685000D01*
X78994000Y-146685000D02*
X78740000Y-146685000D01*
X78740000Y-146685000D02*
X79248000Y-147574000D01*
X78994000Y-146685000D02*
X78994000Y-147193000D01*
X79502000Y-146812000D02*
X78867000Y-146812000D01*
X79629000Y-146939000D02*
X78867000Y-146939000D01*
X79629000Y-147066000D02*
X78867000Y-147066000D01*
X79502000Y-147193000D02*
X78867000Y-147193000D01*
X79502000Y-147320000D02*
X78994000Y-147320000D01*
X78740000Y-146558000D02*
X79629000Y-146558000D01*
X78740000Y-146431000D02*
X79629000Y-146431000D01*
X78740000Y-146304000D02*
X79502000Y-146304000D01*
X78740000Y-146177000D02*
X79502000Y-146177000D01*
X78613000Y-146050000D02*
X79502000Y-146050000D01*
X78613000Y-145923000D02*
X79375000Y-145923000D01*
X78486000Y-145796000D02*
X79248000Y-145796000D01*
X78486000Y-145669000D02*
X79121000Y-145669000D01*
X78359000Y-145542000D02*
X78867000Y-145542000D01*
X77597000Y-145415000D02*
X77724000Y-145415000D01*
X77724000Y-145415000D02*
X77851000Y-145415000D01*
X77851000Y-145415000D02*
X78740000Y-145415000D01*
X78359000Y-145288000D02*
X77597000Y-145288000D01*
X78105000Y-145161000D02*
X77470000Y-145161000D01*
X77978000Y-145034000D02*
X77470000Y-145034000D01*
X77851000Y-145415000D02*
X77851000Y-145923000D01*
X77724000Y-145415000D02*
X77724000Y-145923000D01*
X78105000Y-145923000D02*
X77597000Y-145923000D01*
X78105000Y-146050000D02*
X77597000Y-146050000D01*
X78232000Y-146177000D02*
X77597000Y-146177000D01*
X78232000Y-146304000D02*
X77470000Y-146304000D01*
X78232000Y-146431000D02*
X77470000Y-146431000D01*
X78232000Y-146558000D02*
X77470000Y-146558000D01*
X78232000Y-146685000D02*
X77470000Y-146685000D01*
X78232000Y-146812000D02*
X77470000Y-146812000D01*
X78232000Y-146939000D02*
X77470000Y-146939000D01*
X78308200Y-147066000D02*
X77470000Y-147066000D01*
X78359000Y-147193000D02*
X77597000Y-147193000D01*
X78359000Y-147320000D02*
X77724000Y-147320000D01*
X78486000Y-147447000D02*
X77851000Y-147447000D01*
X78613000Y-147574000D02*
X78105000Y-147574000D01*
X85499000Y-136493000D02*
G75*
G03X85499000Y-132493000I0J2000000D01*
G01*
D12*
X85548980Y-136243000D02*
G75*
G03X85549000Y-132743000I-49980J1750000D01*
G01*
D10*
X85499000Y-135993000D02*
G75*
G03X85499000Y-132993000I0J1500000D01*
G01*
D12*
X89048980Y-136243000D02*
G75*
G03X89049000Y-132743000I-49980J1750000D01*
G01*
D10*
X88999000Y-136493000D02*
G75*
G03X88999000Y-132493000I0J2000000D01*
G01*
X88999000Y-135993000D02*
G75*
G03X88999000Y-132993000I0J1500000D01*
G01*
X88999000Y-132493000D02*
X88999000Y-132993000D01*
X88999000Y-135993000D02*
X88999000Y-136493000D01*
X85499000Y-135993000D02*
X85499000Y-136493000D01*
X85499000Y-132493000D02*
X85499000Y-132993000D01*
X86999000Y-134243000D02*
X85749000Y-134243000D01*
X85749000Y-134243000D02*
X85749000Y-134743000D01*
X85749000Y-134743000D02*
X86999000Y-134743000D01*
X85749000Y-134493000D02*
X86999000Y-134493000D01*
D13*
X93959680Y-138671300D02*
X93626940Y-139402820D01*
X93959680Y-138762740D02*
X92778580Y-139776200D01*
X93845380Y-138625580D02*
X93228160Y-138953240D01*
X93525340Y-138206480D02*
X92915740Y-138313160D01*
X92689680Y-137048240D02*
X93411040Y-137195560D01*
X92930980Y-136354820D02*
X93586300Y-136720580D01*
X93799660Y-135486140D02*
X94218760Y-136072880D01*
X94386400Y-135234680D02*
X94607380Y-135920480D01*
X95651320Y-135219440D02*
X95483680Y-135829040D01*
X96085660Y-135478520D02*
X95910400Y-135836660D01*
X97083880Y-136255760D02*
X96626680Y-136545320D01*
X97259140Y-136735820D02*
X96817180Y-136895840D01*
X97584260Y-137980420D02*
X96878140Y-137853420D01*
X97335340Y-138625580D02*
X96771460Y-138145520D01*
X96669860Y-139524740D02*
X96304100Y-138762740D01*
X91879420Y-137472420D02*
X93347540Y-137558780D01*
X92870020Y-135288020D02*
X93982540Y-136354820D01*
X95135700Y-134231380D02*
X95130620Y-135745220D01*
X97396300Y-135206740D02*
X96334580Y-136314180D01*
X98381820Y-137492740D02*
X96964500Y-137431780D01*
X97345500Y-139697460D02*
X96492060Y-138676380D01*
D14*
X96329500Y-138267440D02*
X96022160Y-138534140D01*
X96659700Y-135354060D02*
X95676720Y-134861300D01*
X94480380Y-138859260D02*
X94602300Y-138574780D01*
X94343220Y-138404600D02*
X94597220Y-138569700D01*
X95844360Y-138402060D02*
X95618300Y-138577320D01*
X96212660Y-138287760D02*
X95953580Y-138625580D01*
X96436180Y-138066780D02*
X96342200Y-138236960D01*
X96436180Y-138066780D02*
X96342200Y-138236960D01*
X96573340Y-137213340D02*
X96441260Y-138036300D01*
X96149160Y-136476740D02*
X96568260Y-137208260D01*
X95277940Y-136047480D02*
X96149160Y-136476740D01*
X94462600Y-136215120D02*
X95277940Y-136055100D01*
X93952060Y-136644380D02*
X94462600Y-136215120D01*
X93718380Y-137317480D02*
X93952060Y-136644380D01*
X93723460Y-137822940D02*
X93723460Y-137304780D01*
X94099380Y-138534140D02*
X93723460Y-137822940D01*
X94277180Y-138656060D02*
X94099380Y-138534140D01*
X97548700Y-134635240D02*
X96664780Y-135356600D01*
X97304860Y-135989060D02*
X97906840Y-135079740D01*
X97309940Y-135983980D02*
X97696020Y-136982200D01*
X98839020Y-137251440D02*
X97723960Y-137005060D01*
X98696780Y-137195560D02*
X98696780Y-137845800D01*
X94320360Y-138597640D02*
X93792040Y-139979400D01*
X93929200Y-140276580D02*
X94315280Y-139296140D01*
X93400880Y-139948920D02*
X93929200Y-140276580D01*
X92717620Y-140281660D02*
X93538040Y-139753340D01*
X93581220Y-139976860D02*
X92704920Y-140596620D01*
X92694760Y-140591540D02*
X92011500Y-139900660D01*
X92298520Y-139816840D02*
X92783660Y-140347700D01*
X92265500Y-138181080D02*
X92646500Y-139161520D01*
X92369640Y-138214100D02*
X91246960Y-138003280D01*
X91231720Y-137025380D02*
X91234260Y-137982960D01*
X91315540Y-137767060D02*
X92422980Y-137990580D01*
X92618560Y-135996680D02*
X92252800Y-136865360D01*
X92003880Y-135115300D02*
X92707460Y-136105900D01*
X92702380Y-134416800D02*
X92008960Y-135107680D01*
X93718380Y-135092440D02*
X92707460Y-134419340D01*
X94404180Y-134706360D02*
X93599000Y-135044180D01*
X94620080Y-133616700D02*
X94394020Y-134787640D01*
X95585280Y-133616700D02*
X94620080Y-133616700D01*
X95595440Y-133624320D02*
X95796100Y-134650480D01*
X96583500Y-135018780D02*
X95679260Y-134640320D01*
X97518220Y-134371080D02*
X96547940Y-135087360D01*
X98204020Y-135087360D02*
X97530920Y-134373620D01*
X98183700Y-135122920D02*
X97589340Y-135976360D01*
X97922080Y-136806940D02*
X97586800Y-135973820D01*
X98991420Y-137005060D02*
X97820480Y-136801860D01*
X98988880Y-137007600D02*
X98988880Y-137993120D01*
X98988880Y-138000740D02*
X97917000Y-138196320D01*
X98226880Y-139908280D02*
X97629980Y-139044680D01*
X97497900Y-140604240D02*
X98219260Y-139910820D01*
X96664780Y-140032740D02*
X97490280Y-140596620D01*
X96652080Y-140042900D02*
X96306640Y-140263880D01*
X96268540Y-140246100D02*
X95618300Y-138577320D01*
D15*
X92702380Y-140436600D02*
X92148660Y-139890500D01*
X92768420Y-138996420D02*
X92148660Y-139882880D01*
X93891100Y-140063220D02*
X94465140Y-138623040D01*
X93553280Y-139877800D02*
X93891100Y-140063220D01*
X92717620Y-140444220D02*
X93553280Y-139877800D01*
X92362020Y-138084560D02*
X92768420Y-138996420D01*
X91348560Y-137914380D02*
X92362020Y-138084560D01*
X91348560Y-137078720D02*
X91348560Y-137914380D01*
X92430600Y-136850120D02*
X91348560Y-137078720D01*
X92770960Y-135912860D02*
X92430600Y-136850120D01*
X92153740Y-135122920D02*
X92770960Y-135912860D01*
X92707460Y-134574280D02*
X92153740Y-135120380D01*
X93611700Y-135206740D02*
X92707460Y-134572300D01*
X94526100Y-134762240D02*
X93624400Y-135211820D01*
X94739460Y-133743700D02*
X94526100Y-134762240D01*
X95506540Y-133723380D02*
X94721680Y-133723380D01*
X95498920Y-133736080D02*
X95704660Y-134749540D01*
X96603820Y-135176260D02*
X95758000Y-134769860D01*
X97492820Y-134533640D02*
X96664780Y-135186420D01*
D16*
X98041460Y-135092440D02*
X97541080Y-134559040D01*
D15*
X98031300Y-135115300D02*
X97475040Y-135966200D01*
X97802700Y-136883140D02*
X97454720Y-136017000D01*
X98851720Y-137099040D02*
X97833180Y-136918700D01*
D16*
X98839020Y-137111740D02*
X98844100Y-137899140D01*
D15*
X98849180Y-137888980D02*
X97899220Y-138107420D01*
X97871280Y-138130280D02*
X97513140Y-139014200D01*
X98046540Y-139890500D02*
X97513140Y-139057380D01*
D16*
X98061780Y-139890500D02*
X97497900Y-140428980D01*
D17*
X97485200Y-140428980D02*
X96705420Y-139898120D01*
D15*
X96695260Y-139880340D02*
X96377760Y-140086080D01*
D18*
X96349820Y-140065760D02*
X95798640Y-138643360D01*
D15*
X96024700Y-136598660D02*
G75*
G02X95948500Y-138452860I-965200J-889000D01*
G01*
X94073980Y-136771380D02*
G75*
G02X95999300Y-136573260I1061720J-863600D01*
G01*
X94454980Y-138620500D02*
G75*
G02X94084140Y-136756140I746760J1117600D01*
G01*
D19*
X83197700Y-127203200D02*
X81826100Y-127203200D01*
X81826100Y-127203200D02*
X81775300Y-127203200D01*
X81775300Y-127203200D02*
X80518000Y-128447800D01*
X84721700Y-127317500D02*
X84620100Y-127317500D01*
X84569300Y-127254000D02*
X84569300Y-127241300D01*
X84569300Y-127241300D02*
X85864700Y-127241300D01*
X85864700Y-127241300D02*
X85890100Y-127241300D01*
X85890100Y-127241300D02*
X86512400Y-127736600D01*
X84569300Y-130263900D02*
X84569300Y-127254000D01*
X88226900Y-127304800D02*
X88303100Y-127304800D01*
X88379300Y-127241300D02*
X87134700Y-127241300D01*
X87134700Y-127241300D02*
X86550500Y-127723900D01*
X88379300Y-130238500D02*
X88379300Y-127254000D01*
X89115900Y-129832100D02*
X89027000Y-129832100D01*
X89458800Y-129832100D02*
X89522300Y-129832100D01*
X89598500Y-129895600D02*
X88988900Y-129895600D01*
X88988900Y-129895600D02*
X88963500Y-129895600D01*
X88963500Y-129895600D02*
X88963500Y-127876300D01*
X89598500Y-127876300D02*
X89598500Y-129895600D01*
X91097100Y-127266700D02*
X90982800Y-127266700D01*
X91224100Y-127190500D02*
X90919300Y-127190500D01*
X90919300Y-127190500D02*
X90919300Y-130225800D01*
X91401900Y-127279400D02*
X91465400Y-127266700D01*
X91516200Y-127190500D02*
X91528900Y-127190500D01*
X91528900Y-127190500D02*
X91541600Y-127190500D01*
X91541600Y-127190500D02*
X91541600Y-130340100D01*
X91236800Y-127190500D02*
X91516200Y-127190500D01*
D20*
X91236800Y-130263900D02*
X91236800Y-127533400D01*
X84899500Y-127546100D02*
X84899500Y-130149600D01*
X93014800Y-127533400D02*
X94018100Y-127533400D01*
X92392500Y-128143000D02*
X92392500Y-130073400D01*
X94615000Y-128181100D02*
X94615000Y-128422400D01*
X94615000Y-130149600D02*
X94030800Y-130721100D01*
X94602300Y-130162300D02*
X94602300Y-129400300D01*
X94043500Y-130721100D02*
X93002100Y-130721100D01*
D17*
X82274659Y-129108200D02*
G75*
G03X82274659Y-129108200I-359659J0D01*
G01*
D20*
X82423000Y-129108200D02*
X83642200Y-129108200D01*
D17*
X79340735Y-127368300D02*
G75*
G03X79340735Y-127368300I-359435J0D01*
G01*
D20*
X79349600Y-127723900D02*
X80213200Y-128617600D01*
D21*
X80772000Y-128714500D02*
X80213200Y-128714500D01*
D20*
X81889600Y-127533400D02*
X80797400Y-128600200D01*
X83111500Y-127533400D02*
X81889600Y-127533400D01*
X83642200Y-128016000D02*
X83159600Y-127508000D01*
X83642200Y-128041400D02*
X83642200Y-130276600D01*
X83642200Y-130276600D02*
X83210400Y-130708400D01*
X83210400Y-130708400D02*
X81889600Y-130708400D01*
X81889600Y-130708400D02*
X80746600Y-129590800D01*
D21*
X80746600Y-129489200D02*
X80213200Y-129489200D01*
D20*
X79400400Y-130403600D02*
X80238600Y-129590800D01*
D17*
X79399666Y-130759200D02*
G75*
G03X79399666Y-130759200I-329466J0D01*
G01*
X85262729Y-130670300D02*
G75*
G03X85262729Y-130670300I-363229J0D01*
G01*
D20*
X85801200Y-127558800D02*
X84912200Y-127558800D01*
D17*
X86883318Y-129387600D02*
G75*
G03X86883318Y-129387600I-370918J0D01*
G01*
D20*
X86436200Y-128066800D02*
X85801200Y-127558800D01*
X86512400Y-128854200D02*
X86512400Y-128143000D01*
X87223600Y-127558800D02*
X86614000Y-128066800D01*
X88061800Y-127558800D02*
X87223600Y-127558800D01*
X88061800Y-130149600D02*
X88061800Y-127558800D01*
D17*
X88408759Y-130657600D02*
G75*
G03X88408759Y-130657600I-359659J0D01*
G01*
X89641818Y-127457200D02*
G75*
G03X89641818Y-127457200I-373518J0D01*
G01*
D20*
X89281000Y-127990600D02*
X89281000Y-129590800D01*
D17*
X89647324Y-130683000D02*
G75*
G03X89647324Y-130683000I-366324J0D01*
G01*
D20*
X89793800Y-130708400D02*
X90779600Y-130708400D01*
X90779600Y-130708400D02*
X91236800Y-130251200D01*
X92405200Y-130111500D02*
X92964000Y-130695700D01*
X93014800Y-127546100D02*
X92379800Y-128155700D01*
X94615000Y-128130300D02*
X94107000Y-127622300D01*
D17*
X94939747Y-128905000D02*
G75*
G03X94939747Y-128905000I-337447J0D01*
G01*
D14*
X79962000Y-137046500D02*
X79962000Y-137808500D01*
X84534000Y-137046500D02*
X79962000Y-137046500D01*
X84534000Y-137808500D02*
X84534000Y-137046500D01*
X79962000Y-137808500D02*
X84534000Y-137808500D01*
X80012800Y-137097300D02*
X84432400Y-137097300D01*
X84483200Y-137198900D02*
X80012800Y-137198900D01*
X80012800Y-137351300D02*
X84432400Y-137351300D01*
X80012800Y-137503700D02*
X84432400Y-137503700D01*
X84483200Y-137249700D02*
X80063600Y-137249700D01*
X84483200Y-137402100D02*
X80012800Y-137402100D01*
X80063600Y-137605300D02*
X84432400Y-137605300D01*
X84483200Y-137706900D02*
X80063600Y-137706900D01*
D10*
X84328000Y-132270500D02*
X80137000Y-136461500D01*
X84201000Y-136334500D02*
X80137000Y-132397500D01*
X83185000Y-135953500D02*
X81788000Y-135953500D01*
X83185000Y-135953500D02*
X83439000Y-132905500D01*
X83693000Y-132778500D02*
X80772000Y-132778500D01*
X82677000Y-136334500D02*
X82677000Y-136080500D01*
X83185000Y-136334500D02*
X82677000Y-136334500D01*
X83185000Y-135953500D02*
X83185000Y-136334500D01*
X81280000Y-135445500D02*
X81153000Y-133413500D01*
X81681609Y-135953500D02*
G75*
G03X81681609Y-135953500I-401609J0D01*
G01*
X83058000Y-132143500D02*
X83058000Y-132651500D01*
X83185000Y-132143500D02*
X83058000Y-132143500D01*
X83185000Y-132651500D02*
X83185000Y-132143500D01*
X80772000Y-133286500D02*
X80772000Y-132778500D01*
X81153000Y-133286500D02*
X80772000Y-133286500D01*
X81153000Y-132778500D02*
X81153000Y-133286500D01*
X81026000Y-132905500D02*
X81026000Y-133032500D01*
X81026000Y-132778500D02*
X80899000Y-133159500D01*
X81026000Y-132905500D02*
X81026000Y-133032500D01*
X80899000Y-132905500D02*
X80899000Y-133286500D01*
X81026000Y-132905500D02*
X80899000Y-132905500D01*
X81026000Y-133286500D02*
X81026000Y-132905500D01*
X82423000Y-133667500D02*
X82423000Y-133286500D01*
X81534000Y-133667500D02*
X82423000Y-133667500D01*
X81534000Y-133286500D02*
X81534000Y-133667500D01*
X82423000Y-133286500D02*
X81534000Y-133286500D01*
X82296000Y-133413500D02*
X81661000Y-133413500D01*
X82042000Y-131889500D02*
X82423000Y-131889500D01*
X82042000Y-132016500D02*
X82042000Y-131889500D01*
X82423000Y-132016500D02*
X82042000Y-132016500D01*
X82423000Y-131889500D02*
X82423000Y-132016500D01*
D22*
X81407000Y-135953500D02*
G75*
G03X81407000Y-135953500I-127000J0D01*
G01*
D10*
X81153000Y-132651500D02*
G75*
G02X83439000Y-132651500I1143000J-1143000D01*
G01*
X89292537Y-139506960D02*
G75*
G03X89292537Y-139506960I-1802237J0D01*
G01*
D23*
X86329520Y-140670280D02*
X88762840Y-138249660D01*
D10*
X77089000Y-134493000D02*
X80645000Y-141605000D01*
X80645000Y-141605000D02*
X73533000Y-141605000D01*
X73533000Y-141605000D02*
X74866500Y-138938000D01*
X74866500Y-138938000D02*
X75311000Y-138049000D01*
X75311000Y-138049000D02*
X77089000Y-134493000D01*
X78867000Y-138112500D02*
X73533000Y-141605000D01*
X76492100Y-138049000D02*
X75311000Y-138049000D01*
X74866500Y-138938000D02*
X75184000Y-138938000D01*
X77851000Y-140525500D02*
X77698600Y-140525500D01*
X78803500Y-139128500D02*
X78803500Y-140208000D01*
X78359000Y-140525500D02*
X78359000Y-140398500D01*
X78422500Y-140335000D02*
X78422500Y-139319000D01*
X78422500Y-140335000D02*
X78486000Y-140335000D01*
X78486000Y-140335000D02*
G75*
G02X78613000Y-140462000I0J-127000D01*
G01*
X78359000Y-140398500D02*
G75*
G02X78422500Y-140335000I63500J0D01*
G01*
X78420071Y-140591545D02*
G75*
G02X78359000Y-140525500I2429J63505D01*
G01*
X78803500Y-140208000D02*
G75*
G02X78422500Y-140589000I-381000J0D01*
G01*
X78614048Y-138812575D02*
G75*
G02X78803500Y-139128500I-168688J-315925D01*
G01*
X78611549Y-138811142D02*
G75*
G02X78295500Y-138493500I478971J792622D01*
G01*
X78420935Y-139320845D02*
G75*
G02X77724000Y-138874500I153965J1007685D01*
G01*
X77977068Y-140081674D02*
G75*
G02X77978000Y-140398500I-316568J-159346D01*
G01*
X77977967Y-140398600D02*
G75*
G02X77851000Y-140525500I-190467J63600D01*
G01*
X76649275Y-139637493D02*
G75*
G02X77089000Y-139763500I-825195J-3709947D01*
G01*
X77088915Y-139764965D02*
G75*
G02X77660500Y-140525500I-284395J-808795D01*
G01*
X77026708Y-139320166D02*
G75*
G02X77978000Y-140081000I-285688J-1332334D01*
G01*
X76514461Y-139574576D02*
G75*
G02X75692000Y-139128500I147819J1253796D01*
G01*
X75183301Y-138938474D02*
G75*
G02X75692000Y-139128500I64199J-604046D01*
G01*
X76707915Y-137987114D02*
G75*
G02X76492100Y-138049000I-182795J230214D01*
G01*
X76708721Y-137985678D02*
G75*
G02X78295500Y-138493500I466639J-1274902D01*
G01*
D24*
X93537193Y-150164800D02*
X93621860Y-150249466D01*
X93875860Y-150334133D01*
X94045193Y-150334133D01*
X94299193Y-150249466D01*
X94468526Y-150080133D01*
X94553193Y-149910800D01*
X94637860Y-149572133D01*
X94637860Y-149318133D01*
X94553193Y-148979466D01*
X94468526Y-148810133D01*
X94299193Y-148640800D01*
X94045193Y-148556133D01*
X93875860Y-148556133D01*
X93621860Y-148640800D01*
X93537193Y-148725466D01*
X92521193Y-150334133D02*
X92690526Y-150249466D01*
X92775193Y-150164800D01*
X92859860Y-149995466D01*
X92859860Y-149487466D01*
X92775193Y-149318133D01*
X92690526Y-149233466D01*
X92521193Y-149148800D01*
X92267193Y-149148800D01*
X92097860Y-149233466D01*
X92013193Y-149318133D01*
X91928526Y-149487466D01*
X91928526Y-149995466D01*
X92013193Y-150164800D01*
X92097860Y-150249466D01*
X92267193Y-150334133D01*
X92521193Y-150334133D01*
X91166526Y-150334133D02*
X91166526Y-149148800D01*
X91166526Y-149318133D02*
X91081860Y-149233466D01*
X90912526Y-149148800D01*
X90658526Y-149148800D01*
X90489193Y-149233466D01*
X90404526Y-149402800D01*
X90404526Y-150334133D01*
X90404526Y-149402800D02*
X90319860Y-149233466D01*
X90150526Y-149148800D01*
X89896526Y-149148800D01*
X89727193Y-149233466D01*
X89642526Y-149402800D01*
X89642526Y-150334133D01*
X88795860Y-149148800D02*
X88795860Y-150926800D01*
X88795860Y-149233466D02*
X88626526Y-149148800D01*
X88287860Y-149148800D01*
X88118526Y-149233466D01*
X88033860Y-149318133D01*
X87949193Y-149487466D01*
X87949193Y-149995466D01*
X88033860Y-150164800D01*
X88118526Y-150249466D01*
X88287860Y-150334133D01*
X88626526Y-150334133D01*
X88795860Y-150249466D01*
X86933193Y-150334133D02*
X87102526Y-150249466D01*
X87187193Y-150080133D01*
X87187193Y-148556133D01*
X86255860Y-150334133D02*
X86255860Y-149148800D01*
X86255860Y-148556133D02*
X86340526Y-148640800D01*
X86255860Y-148725466D01*
X86171193Y-148640800D01*
X86255860Y-148556133D01*
X86255860Y-148725466D01*
X84647193Y-150334133D02*
X84647193Y-149402800D01*
X84731860Y-149233466D01*
X84901193Y-149148800D01*
X85239860Y-149148800D01*
X85409193Y-149233466D01*
X84647193Y-150249466D02*
X84816526Y-150334133D01*
X85239860Y-150334133D01*
X85409193Y-150249466D01*
X85493860Y-150080133D01*
X85493860Y-149910800D01*
X85409193Y-149741466D01*
X85239860Y-149656800D01*
X84816526Y-149656800D01*
X84647193Y-149572133D01*
X83800526Y-149148800D02*
X83800526Y-150334133D01*
X83800526Y-149318133D02*
X83715860Y-149233466D01*
X83546526Y-149148800D01*
X83292526Y-149148800D01*
X83123193Y-149233466D01*
X83038526Y-149402800D01*
X83038526Y-150334133D01*
X82445860Y-149148800D02*
X81768526Y-149148800D01*
X82191860Y-148556133D02*
X82191860Y-150080133D01*
X82107193Y-150249466D01*
X81937860Y-150334133D01*
X81768526Y-150334133D01*
D21*
X92958634Y-147229081D02*
X93625300Y-146276700D01*
X94101491Y-147229081D02*
X94101491Y-145229081D01*
X93339586Y-145229081D01*
X93149110Y-145324320D01*
X93053872Y-145419558D01*
X92958634Y-145610034D01*
X92958634Y-145895748D01*
X93053872Y-146086224D01*
X93149110Y-146181462D01*
X93339586Y-146276700D01*
X94101491Y-146276700D01*
X91815777Y-147229081D02*
X92006253Y-147133843D01*
X92101491Y-147038605D01*
X92196729Y-146848129D01*
X92196729Y-146276700D01*
X92101491Y-146086224D01*
X92006253Y-145990986D01*
X91815777Y-145895748D01*
X91530062Y-145895748D01*
X91339586Y-145990986D01*
X91244348Y-146086224D01*
X91149110Y-146276700D01*
X91149110Y-146848129D01*
X91244348Y-147038605D01*
X91339586Y-147133843D01*
X91530062Y-147229081D01*
X91815777Y-147229081D01*
X90291967Y-147229081D02*
X90291967Y-145229081D01*
X90291967Y-146181462D02*
X89149110Y-146181462D01*
X89149110Y-147229081D02*
X89149110Y-145229081D01*
X88291967Y-147133843D02*
X88006253Y-147229081D01*
X87530062Y-147229081D01*
X87339586Y-147133843D01*
X87244348Y-147038605D01*
X87149110Y-146848129D01*
X87149110Y-146657653D01*
X87244348Y-146467177D01*
X87339586Y-146371939D01*
X87530062Y-146276700D01*
X87911015Y-146181462D01*
X88101491Y-146086224D01*
X88196729Y-145990986D01*
X88291967Y-145800510D01*
X88291967Y-145610034D01*
X88196729Y-145419558D01*
X88101491Y-145324320D01*
X87911015Y-145229081D01*
X87434824Y-145229081D01*
X87149110Y-145324320D01*
D25*
X95753797Y-142324080D02*
X95753797Y-141324080D01*
X95325225Y-142324080D02*
X95325225Y-141800271D01*
X95372844Y-141705033D01*
X95468082Y-141657414D01*
X95610940Y-141657414D01*
X95706178Y-141705033D01*
X95753797Y-141752652D01*
X94420463Y-142324080D02*
X94420463Y-141800271D01*
X94468082Y-141705033D01*
X94563320Y-141657414D01*
X94753797Y-141657414D01*
X94849035Y-141705033D01*
X94420463Y-142276461D02*
X94515701Y-142324080D01*
X94753797Y-142324080D01*
X94849035Y-142276461D01*
X94896654Y-142181223D01*
X94896654Y-142085985D01*
X94849035Y-141990747D01*
X94753797Y-141943128D01*
X94515701Y-141943128D01*
X94420463Y-141895509D01*
X93944273Y-142324080D02*
X93944273Y-141657414D01*
X93944273Y-141847890D02*
X93896654Y-141752652D01*
X93849035Y-141705033D01*
X93753797Y-141657414D01*
X93658559Y-141657414D01*
X92896654Y-142324080D02*
X92896654Y-141324080D01*
X92896654Y-142276461D02*
X92991892Y-142324080D01*
X93182368Y-142324080D01*
X93277606Y-142276461D01*
X93325225Y-142228842D01*
X93372844Y-142133604D01*
X93372844Y-141847890D01*
X93325225Y-141752652D01*
X93277606Y-141705033D01*
X93182368Y-141657414D01*
X92991892Y-141657414D01*
X92896654Y-141705033D01*
X92515701Y-141657414D02*
X92325225Y-142324080D01*
X92134749Y-141847890D01*
X91944273Y-142324080D01*
X91753797Y-141657414D01*
X90944273Y-142324080D02*
X90944273Y-141800271D01*
X90991892Y-141705033D01*
X91087130Y-141657414D01*
X91277606Y-141657414D01*
X91372844Y-141705033D01*
X90944273Y-142276461D02*
X91039511Y-142324080D01*
X91277606Y-142324080D01*
X91372844Y-142276461D01*
X91420463Y-142181223D01*
X91420463Y-142085985D01*
X91372844Y-141990747D01*
X91277606Y-141943128D01*
X91039511Y-141943128D01*
X90944273Y-141895509D01*
X90468082Y-142324080D02*
X90468082Y-141657414D01*
X90468082Y-141847890D02*
X90420463Y-141752652D01*
X90372844Y-141705033D01*
X90277606Y-141657414D01*
X90182368Y-141657414D01*
X89468082Y-142276461D02*
X89563320Y-142324080D01*
X89753797Y-142324080D01*
X89849035Y-142276461D01*
X89896654Y-142181223D01*
X89896654Y-141800271D01*
X89849035Y-141705033D01*
X89753797Y-141657414D01*
X89563320Y-141657414D01*
X89468082Y-141705033D01*
X89420463Y-141800271D01*
X89420463Y-141895509D01*
X89896654Y-141990747D01*
D10*
X100069298Y-142277879D02*
X100174060Y-142225498D01*
X100226440Y-142173117D01*
X100278821Y-142068355D01*
X100278821Y-141754069D01*
X100226440Y-141649307D01*
X100174060Y-141596926D01*
X100069298Y-141544545D01*
X99912155Y-141544545D01*
X99807393Y-141596926D01*
X99755012Y-141649307D01*
X99702631Y-141754069D01*
X99702631Y-142068355D01*
X99755012Y-142173117D01*
X99807393Y-142225498D01*
X99912155Y-142277879D01*
X100069298Y-142277879D01*
X99231202Y-141544545D02*
X99231202Y-142644545D01*
X99231202Y-141596926D02*
X99126440Y-141544545D01*
X98916917Y-141544545D01*
X98812155Y-141596926D01*
X98759774Y-141649307D01*
X98707393Y-141754069D01*
X98707393Y-142068355D01*
X98759774Y-142173117D01*
X98812155Y-142225498D01*
X98916917Y-142277879D01*
X99126440Y-142277879D01*
X99231202Y-142225498D01*
X97816917Y-142225498D02*
X97921679Y-142277879D01*
X98131202Y-142277879D01*
X98235964Y-142225498D01*
X98288345Y-142120736D01*
X98288345Y-141701688D01*
X98235964Y-141596926D01*
X98131202Y-141544545D01*
X97921679Y-141544545D01*
X97816917Y-141596926D01*
X97764536Y-141701688D01*
X97764536Y-141806450D01*
X98288345Y-141911212D01*
X97293107Y-141544545D02*
X97293107Y-142277879D01*
X97293107Y-141649307D02*
X97240726Y-141596926D01*
X97135964Y-141544545D01*
X96978821Y-141544545D01*
X96874060Y-141596926D01*
X96821679Y-141701688D01*
X96821679Y-142277879D01*
X88678568Y-140296327D02*
X88678568Y-138596327D01*
X88107140Y-138596327D01*
X87964282Y-138677280D01*
X87892854Y-138758232D01*
X87821425Y-138920137D01*
X87821425Y-139162994D01*
X87892854Y-139324899D01*
X87964282Y-139405851D01*
X88107140Y-139486803D01*
X88678568Y-139486803D01*
X87178568Y-140296327D02*
X87178568Y-138596327D01*
X87178568Y-139243946D02*
X87035711Y-139162994D01*
X86749997Y-139162994D01*
X86607140Y-139243946D01*
X86535711Y-139324899D01*
X86464282Y-139486803D01*
X86464282Y-139972518D01*
X86535711Y-140134422D01*
X86607140Y-140215375D01*
X86749997Y-140296327D01*
X87035711Y-140296327D01*
X87178568Y-140215375D01*
M02*
